<?xml version="1.0" encoding="utf-8"?>
<!-- Generator: Adobe Illustrator 28.1.0, SVG Export Plug-In . SVG Version: 6.00 Build 0)  -->
<svg version="1.1" id="레이어_1" xmlns="http://www.w3.org/2000/svg" xmlns:xlink="http://www.w3.org/1999/xlink" x="0px"
	 y="0px" viewBox="0 0 2834.65 566.93" style="enable-background:new 0 0 2834.65 566.93;" xml:space="preserve">
<style type="text/css">
	.st0{fill:#EB8D23;}
	.st1{fill:#F5CB2B;}
	.st2{fill:#EFEA3A;}
	.st3{fill:#F0A728;}
	.st4{fill:#FFFFFF;}
</style>
<g>
	<circle class="st0" cx="283.46" cy="283.46" r="283.46"/>
	<circle class="st1" cx="283.46" cy="283.46" r="255.62"/>
	<path class="st2" d="M539.26,283.93c0,141.2-114.45,255.65-255.62,255.65c-141.2,0-255.65-114.45-255.65-255.65
		c0-2.45,0.04-4.87,0.11-7.29c3.88,137.78,116.8,248.32,255.54,248.32c138.71,0,251.63-110.54,255.51-248.32
		C539.22,279.05,539.26,281.47,539.26,283.93z"/>
	<circle class="st3" cx="283.46" cy="283.46" r="186.08"/>
	
		<ellipse transform="matrix(0.7071 -0.7071 0.7071 0.7071 -52.3941 128.6657)" class="st4" cx="129.12" cy="127.58" rx="24.43" ry="18.6"/>
	<path class="st2" d="M340.09,231.08l56.94,8c15.58,2.17,21.87,21.27,10.67,32.29l-40.97,40.33c-4.45,4.37-6.47,10.67-5.37,16.82
		l9.99,56.62c2.74,15.47-13.48,27.39-27.42,20.13l-51.04-26.5c-5.55-2.88-12.13-2.85-17.64,0.07l-50.75,26.99
		c-13.87,7.4-30.2-4.34-27.64-19.85l9.43-56.73c1.03-6.15-1.03-12.41-5.55-16.75l-41.36-39.94c-11.31-10.92-5.19-30.09,10.35-32.4
		l56.87-8.54c6.19-0.92,11.49-4.84,14.23-10.46L266,169.51c6.9-14.12,26.99-14.23,34.04-0.18l25.71,51.43
		C328.53,226.34,333.9,230.19,340.09,231.08z"/>
</g>
<g>
	<circle class="st0" cx="850.39" cy="283.46" r="283.46"/>
	<circle class="st1" cx="850.39" cy="283.46" r="255.62"/>
	<path class="st2" d="M1106.19,283.93c0,141.2-114.45,255.65-255.62,255.65c-141.2,0-255.65-114.45-255.65-255.65
		c0-2.45,0.04-4.87,0.11-7.29c3.88,137.78,116.8,248.32,255.54,248.32c138.71,0,251.63-110.54,255.51-248.32
		C1106.15,279.05,1106.19,281.47,1106.19,283.93z"/>
	<circle class="st3" cx="850.39" cy="283.46" r="186.08"/>
	
		<ellipse transform="matrix(0.7071 -0.7071 0.7071 0.7071 113.6556 529.5451)" class="st4" cx="696.05" cy="127.58" rx="24.43" ry="18.6"/>
	<path class="st2" d="M858.64,195.52l50.77-27c13.88-7.4,30.2,4.35,27.61,19.86l-9.44,56.71c-1.03,6.15,1.03,12.44,5.54,16.77
		l41.37,39.93c11.31,10.91,5.19,30.08-10.35,32.4l-56.87,8.56c-6.18,0.93-11.48,4.83-14.23,10.43l-25.19,51.67
		c-6.87,14.14-26.98,14.24-34.02,0.19l-25.72-51.43c-2.78-5.58-8.13-9.44-14.34-10.29l-56.94-8c-15.57-2.19-21.89-21.29-10.67-32.3
		l40.99-40.33c4.46-4.39,6.45-10.67,5.36-16.82l-10-56.61c-2.72-15.48,13.48-27.38,27.43-20.15l51.03,26.49
		C846.51,198.49,853.11,198.44,858.64,195.52z"/>
</g>
<g>
	<circle class="st0" cx="1417.32" cy="283.46" r="283.46"/>
	<circle class="st1" cx="1417.32" cy="283.46" r="255.62"/>
	<path class="st2" d="M1673.12,283.93c0,141.2-114.45,255.65-255.62,255.65c-141.2,0-255.65-114.45-255.65-255.65
		c0-2.45,0.04-4.87,0.11-7.29c3.88,137.78,116.8,248.32,255.54,248.32c138.71,0,251.63-110.54,255.51-248.32
		C1673.08,279.05,1673.12,281.47,1673.12,283.93z"/>
	<circle class="st3" cx="1417.32" cy="283.46" r="186.08"/>
	
		<ellipse transform="matrix(0.7071 -0.7071 0.7071 0.7071 279.7053 930.4246)" class="st4" cx="1262.97" cy="127.58" rx="24.43" ry="18.6"/>
	<path class="st2" d="M1339.61,245.84l-9.99-56.63c-2.75-15.49,13.47-27.38,27.42-20.13l51.02,26.5c5.53,2.88,12.15,2.86,17.66-0.09
		l50.76-27c13.87-7.39,30.21,4.36,27.62,19.86l-9.43,56.73c-1.03,6.17,1.04,12.41,5.52,16.76l41.36,39.93
		c11.32,10.91,5.2,30.06-10.34,32.42l-56.86,8.57c-6.17,0.92-11.49,4.82-14.22,10.45l-25.2,51.68
		c-6.89,14.13-27.01,14.24-34.01,0.17l-25.69-51.45c-2.79-5.6-8.15-9.43-14.34-10.3l-56.93-7.98c-15.56-2.2-21.87-21.28-10.69-32.32
		l40.97-40.35C1338.68,258.3,1340.68,252,1339.61,245.84z"/>
</g>
<g>
	<circle class="st0" cx="1984.25" cy="283.46" r="283.46"/>
	<circle class="st1" cx="1984.25" cy="283.46" r="255.62"/>
	<path class="st2" d="M2240.05,283.93c0,141.2-114.45,255.65-255.62,255.65c-141.2,0-255.65-114.45-255.65-255.65
		c0-2.45,0.04-4.87,0.11-7.29c3.88,137.78,116.8,248.32,255.54,248.32c138.71,0,251.63-110.54,255.51-248.32
		C2240.01,279.05,2240.05,281.47,2240.05,283.93z"/>
	<circle class="st3" cx="1984.25" cy="283.46" r="186.08"/>
	
		<ellipse transform="matrix(0.7071 -0.7071 0.7071 0.7071 445.755 1331.304)" class="st4" cx="1829.9" cy="127.58" rx="24.43" ry="18.6"/>
	<path class="st2" d="M1901.7,305.67l-41.36-39.94c-11.33-10.91-5.19-30.06,10.35-32.4l56.85-8.55c6.17-0.93,11.51-4.83,14.23-10.45
		l25.2-51.68c6.88-14.13,27-14.23,34.02-0.17l25.72,51.44c2.8,5.59,8.14,9.43,14.31,10.31l56.93,7.99
		c15.57,2.17,21.88,21.26,10.69,32.3l-40.97,40.35c-4.45,4.37-6.46,10.65-5.36,16.81l9.99,56.63c2.73,15.48-13.48,27.39-27.42,20.13
		l-51.03-26.52c-5.55-2.89-12.14-2.84-17.66,0.1l-50.75,27.01c-13.88,7.37-30.2-4.36-27.64-19.86l9.43-56.72
		C1908.27,316.29,1906.19,310.03,1901.7,305.67z"/>
</g>
<g>
	<circle class="st0" cx="2551.18" cy="283.46" r="283.46"/>
	<circle class="st1" cx="2551.18" cy="283.46" r="255.62"/>
	<path class="st2" d="M2806.98,283.93c0,141.2-114.45,255.65-255.62,255.65c-141.2,0-255.65-114.45-255.65-255.65
		c0-2.45,0.04-4.87,0.11-7.29c3.88,137.78,116.8,248.32,255.54,248.32c138.71,0,251.63-110.54,255.51-248.32
		C2806.94,279.05,2806.98,281.47,2806.98,283.93z"/>
	<circle class="st3" cx="2551.18" cy="283.46" r="186.08"/>
	
		<ellipse transform="matrix(0.7071 -0.7071 0.7071 0.7071 611.8047 1732.1835)" class="st4" cx="2396.83" cy="127.58" rx="24.43" ry="18.6"/>
	<path class="st2" d="M2494.73,346.57l-56.94-8c-15.58-2.17-21.87-21.27-10.67-32.29l40.97-40.33c4.45-4.37,6.47-10.67,5.37-16.82
		l-9.99-56.62c-2.74-15.47,13.48-27.39,27.42-20.13l51.04,26.5c5.55,2.88,12.13,2.85,17.64-0.07l50.75-26.99
		c13.87-7.4,30.2,4.34,27.64,19.85l-9.43,56.73c-1.03,6.15,1.03,12.41,5.55,16.75l41.36,39.94c11.31,10.92,5.19,30.09-10.35,32.4
		l-56.87,8.54c-6.19,0.92-11.49,4.84-14.23,10.46l-25.18,51.68c-6.9,14.12-27,14.23-34.04,0.18l-25.71-51.43
		C2506.28,351.3,2500.91,347.46,2494.73,346.57z"/>
</g>
</svg>
