<?xml version="1.0" encoding="utf-8"?>
<!-- Generator: Adobe Illustrator 28.1.0, SVG Export Plug-In . SVG Version: 6.00 Build 0)  -->
<svg version="1.1" id="레이어_1" xmlns="http://www.w3.org/2000/svg" xmlns:xlink="http://www.w3.org/1999/xlink" x="0px"
	 y="0px" viewBox="0 0 1000 200" style="enable-background:new 0 0 1000 200;" xml:space="preserve">
<style type="text/css">
	.st0{fill:#926545;}
	.st1{fill:#9A1E23;}
	.st2{fill-rule:evenodd;clip-rule:evenodd;fill:#9A1E23;}
	.st3{fill:#CA2624;}
	.st4{fill:#727272;}
	.st5{fill:#474747;}
	.st6{clip-path:url(#SVGID_00000024683350685641977000000003713666986974797723_);}
	.st7{fill:#DAC499;}
	.st8{fill:#E6D3B1;}
	.st9{fill:#040000;fill-opacity:0.15;}
	.st10{fill:#EEE1C7;}
	.st11{fill:#474747;fill-opacity:0.5;}
	.st12{fill:#413F40;}
	.st13{fill:none;stroke:#413F40;stroke-width:4.8138;stroke-linecap:round;}
	.st14{fill:#D5D5D5;}
	.st15{fill:none;stroke:#413F40;stroke-width:4.8555;stroke-linecap:round;}
	.st16{clip-path:url(#SVGID_00000021110692750553552300000001298173465181449128_);}
	.st17{clip-path:url(#SVGID_00000057124367672348190310000015927624152719443894_);}
	.st18{clip-path:url(#SVGID_00000152972499856898441470000012317601621464873606_);}
	.st19{clip-path:url(#SVGID_00000145026436384668660900000010470174587473138579_);}
</style>
<g>
	<rect x="93.19" y="75.7" class="st0" width="16.02" height="124.3"/>
	<path class="st1" d="M90.93,105.38c-2.95,11.11-14.35,17.72-25.46,14.77C54.36,117.2,47.75,105.8,50.7,94.69l7.97-29.99L98.9,75.39
		L90.93,105.38z"/>
	<path class="st2" d="M128.64,19.86H76.2V75.7h30.59l0,0H150V41.1C150,29.45,140.46,19.99,128.64,19.86L128.64,19.86z"/>
	<path class="st3" d="M55.81,41.47c0-11.93,9.67-21.61,21.61-21.61c11.93,0,21.61,9.67,21.61,21.61V75.7H55.81V41.47z"/>
	<path class="st4" d="M57.74,42.06c0-10.92,8.85-19.77,19.77-19.77s19.77,8.85,19.77,19.77v31.97H57.74V42.06z"/>
	<g>
		<path class="st5" d="M57.74,42.06c0-10.92,8.85-19.77,19.77-19.77s19.77,8.85,19.77,19.77v31.97H57.74V42.06z"/>
	</g>
	<g>
		<defs>
			<rect id="SVGID_1_" x="69.78" y="45.63" width="27.5" height="28.4"/>
		</defs>
		<clipPath id="SVGID_00000165202252467730690240000011940357758148878768_">
			<use xlink:href="#SVGID_1_"  style="overflow:visible;"/>
		</clipPath>
		<g style="clip-path:url(#SVGID_00000165202252467730690240000011940357758148878768_);">
			<path class="st7" d="M108.27,50.5v23.22L90.99,61.55L108.27,50.5z"/>
			<path class="st7" d="M72.89,50.5v23.22l17.28-12.16L72.89,50.5z"/>
			<path class="st8" d="M108.27,73.75H72.86l16.42-12.37c0.84-0.63,2-0.63,2.84,0.01L108.27,73.75z"/>
			<path class="st9" d="M88.96,63.72l-16.1-12.97v-1.99h35.41v1.99L91.89,63.73C91.03,64.41,89.81,64.4,88.96,63.72z"/>
			<path class="st10" d="M89.1,62.08L72.89,50.52v-1.76h35.41v1.76L91.81,62.09C91,62.66,89.91,62.66,89.1,62.08z"/>
		</g>
	</g>
	<g>
		<path class="st11" d="M57.74,42.06c0-10.92,8.85-19.77,19.77-19.77s19.77,8.85,19.77,19.77v31.97H57.74V42.06z"/>
	</g>
	<circle class="st12" cx="110.73" cy="54.33" r="4.37"/>
	<path class="st13" d="M110.84,54.33V25.45h6.74"/>
	<circle class="st14" cx="110.73" cy="54.34" r="2.43"/>
</g>
<g>
	<rect x="293.19" y="75.7" class="st0" width="16.02" height="124.3"/>
	<path class="st1" d="M290.93,105.38c-2.95,11.11-14.35,17.72-25.46,14.77c-11.11-2.95-17.72-14.35-14.77-25.46l7.97-29.99
		l40.23,10.69L290.93,105.38z"/>
	<path class="st2" d="M328.64,19.86H276.2V75.7h30.59l0,0H350V41.1C350,29.45,340.46,19.99,328.64,19.86L328.64,19.86z"/>
	<path class="st3" d="M255.81,41.47c0-11.93,9.67-21.61,21.61-21.61c11.93,0,21.61,9.67,21.61,21.61V75.7h-43.21L255.81,41.47
		L255.81,41.47z"/>
	<path class="st4" d="M257.74,42.06c0-10.92,8.85-19.77,19.77-19.77c10.92,0,19.77,8.85,19.77,19.77v31.97h-39.53L257.74,42.06
		L257.74,42.06z"/>
	<g>
		<path class="st5" d="M257.74,42.06c0-10.92,8.85-19.77,19.77-19.77c10.92,0,19.77,8.85,19.77,19.77v31.97h-39.53L257.74,42.06
			L257.74,42.06z"/>
	</g>
	<circle class="st12" cx="310.56" cy="54.46" r="4.37"/>
	<path class="st15" d="M310.78,54.58l-22.31-18.72l4.37-5.21"/>
	<circle class="st14" cx="310.56" cy="54.46" r="2.43"/>
	<g>
		<defs>
			<rect id="SVGID_00000157274496762829530400000010486215309139112365_" x="269.78" y="45.35" width="27.5" height="28.4"/>
		</defs>
		<clipPath id="SVGID_00000074407203803748568730000017965346456485066369_">
			<use xlink:href="#SVGID_00000157274496762829530400000010486215309139112365_"  style="overflow:visible;"/>
		</clipPath>
		<g style="clip-path:url(#SVGID_00000074407203803748568730000017965346456485066369_);">
			<path class="st7" d="M308.27,50.5v23.22l-17.28-12.16L308.27,50.5z"/>
			<path class="st7" d="M272.89,50.5v23.22l17.28-12.16L272.89,50.5z"/>
			<path class="st8" d="M308.27,73.75h-35.41l16.42-12.37c0.84-0.63,2-0.63,2.84,0.01L308.27,73.75z"/>
			<path class="st9" d="M288.96,63.72l-16.1-12.97v-1.99h35.41v1.99l-16.38,12.98C291.03,64.41,289.81,64.4,288.96,63.72z"/>
			<path class="st10" d="M289.1,62.08l-16.21-11.56v-1.76h35.41v1.76l-16.49,11.57C291,62.66,289.91,62.66,289.1,62.08z"/>
		</g>
	</g>
	<g>
		<path class="st11" d="M257.74,42.06c0-10.92,8.85-19.77,19.77-19.77c10.92,0,19.77,8.85,19.77,19.77v31.97h-39.53L257.74,42.06
			L257.74,42.06z"/>
	</g>
</g>
<g>
	<rect x="493.19" y="75.7" class="st0" width="16.02" height="124.3"/>
	<path class="st1" d="M490.93,105.38c-2.95,11.11-14.35,17.72-25.46,14.77c-11.11-2.95-17.72-14.35-14.77-25.46l7.97-29.99
		l40.23,10.69L490.93,105.38z"/>
	<path class="st2" d="M528.64,19.86H476.2V75.7h30.59l0,0H550V41.1C550,29.45,540.46,19.99,528.64,19.86L528.64,19.86z"/>
	<path class="st3" d="M455.81,41.47c0-11.93,9.67-21.61,21.61-21.61c11.93,0,21.61,9.67,21.61,21.61V75.7h-43.21L455.81,41.47
		L455.81,41.47z"/>
	<path class="st4" d="M457.74,42.06c0-10.92,8.85-19.77,19.77-19.77c10.92,0,19.77,8.85,19.77,19.77v31.97h-39.53L457.74,42.06
		L457.74,42.06z"/>
	<g>
		<path class="st5" d="M457.74,42.06c0-10.92,8.85-19.77,19.77-19.77c10.92,0,19.77,8.85,19.77,19.77v31.97h-39.53L457.74,42.06
			L457.74,42.06z"/>
	</g>
	<g>
		<defs>
			<rect id="SVGID_00000183224558273175814550000003346097022920049808_" x="469.78" y="45.63" width="27.5" height="28.4"/>
		</defs>
		<clipPath id="SVGID_00000124851824371892047390000009335594006353479814_">
			<use xlink:href="#SVGID_00000183224558273175814550000003346097022920049808_"  style="overflow:visible;"/>
		</clipPath>
		<g style="clip-path:url(#SVGID_00000124851824371892047390000009335594006353479814_);">
			<path class="st7" d="M508.27,50.5v23.22l-17.28-12.16L508.27,50.5z"/>
			<path class="st7" d="M472.89,50.5v23.22l17.28-12.16L472.89,50.5z"/>
			<path class="st8" d="M508.27,73.75h-35.41l16.42-12.37c0.84-0.63,2-0.63,2.84,0.01L508.27,73.75z"/>
			<path class="st9" d="M488.96,63.72l-16.1-12.97v-1.99h35.41v1.99l-16.38,12.98C491.03,64.41,489.81,64.4,488.96,63.72z"/>
			<path class="st10" d="M489.1,62.08l-16.21-11.56v-1.76h35.41v1.76l-16.49,11.57C491,62.66,489.91,62.66,489.1,62.08z"/>
		</g>
	</g>
	<g>
		<path class="st11" d="M457.74,42.06c0-10.92,8.85-19.77,19.77-19.77c10.92,0,19.77,8.85,19.77,19.77v31.97h-39.53L457.74,42.06
			L457.74,42.06z"/>
	</g>
	
		<ellipse transform="matrix(0.945 -0.3272 0.3272 0.945 10.1924 170.0816)" class="st12" cx="510.59" cy="54.75" rx="4.37" ry="4.37"/>
	<path class="st15" d="M510.78,54.58l-25.23,14.57l-3.4-5.89"/>
	
		<ellipse transform="matrix(0.9577 -0.2877 0.2877 0.9577 5.8335 149.1884)" class="st14" cx="510.6" cy="54.74" rx="2.43" ry="2.43"/>
</g>
<g>
	<rect x="693.19" y="75.7" class="st0" width="16.02" height="124.3"/>
	<path class="st1" d="M690.93,105.38c-2.95,11.11-14.35,17.72-25.46,14.77c-11.11-2.95-17.72-14.35-14.77-25.46l7.97-29.99
		l40.23,10.69L690.93,105.38z"/>
	<path class="st2" d="M728.64,19.86H676.2V75.7h30.59l0,0H750V41.1C750,29.45,740.46,19.99,728.64,19.86L728.64,19.86z"/>
	<path class="st3" d="M655.81,41.47c0-11.93,9.67-21.61,21.61-21.61c11.93,0,21.61,9.67,21.61,21.61V75.7h-43.21L655.81,41.47
		L655.81,41.47z"/>
	<path class="st4" d="M657.74,42.06c0-10.92,8.85-19.77,19.77-19.77c10.92,0,19.77,8.85,19.77,19.77v31.97h-39.53V42.06H657.74z"/>
	<g>
		<path class="st5" d="M657.74,42.06c0-10.92,8.85-19.77,19.77-19.77c10.92,0,19.77,8.85,19.77,19.77v31.97h-39.53V42.06H657.74z"/>
	</g>
	<g>
		<defs>
			<rect id="SVGID_00000155832436643261349230000009208197494689762716_" x="669.78" y="45.41" width="27.5" height="28.4"/>
		</defs>
		<clipPath id="SVGID_00000092432755174874218890000015883393678638634415_">
			<use xlink:href="#SVGID_00000155832436643261349230000009208197494689762716_"  style="overflow:visible;"/>
		</clipPath>
		<g style="clip-path:url(#SVGID_00000092432755174874218890000015883393678638634415_);">
			<path class="st7" d="M708.27,50.5v23.22l-17.28-12.16L708.27,50.5z"/>
			<path class="st7" d="M672.89,50.5v23.22l17.28-12.16L672.89,50.5z"/>
			<path class="st8" d="M708.27,73.75h-35.41l16.42-12.37c0.84-0.63,2-0.63,2.84,0.01L708.27,73.75z"/>
			<path class="st9" d="M688.96,63.72l-16.1-12.97v-1.99h35.41v1.99l-16.38,12.98C691.03,64.41,689.81,64.4,688.96,63.72z"/>
			<path class="st10" d="M689.1,62.08l-16.21-11.56v-1.76h35.41v1.76l-16.49,11.57C691,62.66,689.91,62.66,689.1,62.08z"/>
		</g>
	</g>
	<g>
		<path class="st11" d="M657.74,42.06c0-10.92,8.85-19.77,19.77-19.77c10.92,0,19.77,8.85,19.77,19.77v31.97h-39.53V42.06H657.74z"
			/>
	</g>
	<circle class="st12" cx="710.54" cy="54.5" r="4.37"/>
	<path class="st15" d="M710.78,54.58l-25.23-14.56l3.4-5.89"/>
	<ellipse transform="matrix(0.5 -0.866 0.866 0.5 308.0723 642.6036)" class="st14" cx="710.55" cy="54.5" rx="2.43" ry="2.43"/>
</g>
<g>
	<rect x="893.19" y="75.7" class="st0" width="16.02" height="124.3"/>
	<path class="st1" d="M890.93,105.38c-2.95,11.11-14.35,17.72-25.46,14.77c-11.11-2.95-17.72-14.35-14.77-25.46l7.97-29.99
		l40.23,10.69L890.93,105.38z"/>
	<path class="st2" d="M928.64,19.86H876.2V75.7h30.59l0,0H950V41.1C950,29.45,940.46,19.99,928.64,19.86L928.64,19.86z"/>
	<path class="st3" d="M855.81,41.47c0-11.93,9.67-21.61,21.61-21.61c11.93,0,21.61,9.67,21.61,21.61V75.7h-43.21L855.81,41.47
		L855.81,41.47z"/>
	<path class="st4" d="M857.74,42.06c0-10.92,8.85-19.77,19.77-19.77c10.92,0,19.77,8.85,19.77,19.77v31.97h-39.53V42.06H857.74z"/>
	<g>
		<path class="st5" d="M857.74,42.06c0-10.92,8.85-19.77,19.77-19.77c10.92,0,19.77,8.85,19.77,19.77v31.97h-39.53V42.06H857.74z"/>
	</g>
	<circle class="st12" cx="910.61" cy="54.39" r="4.37"/>
	<path class="st15" d="M910.78,54.58l-14.57-25.23l5.89-3.4"/>
	<circle class="st14" cx="910.62" cy="54.4" r="2.43"/>
	<g>
		<defs>
			<rect id="SVGID_00000166633456140240030870000015791531305319538329_" x="869.78" y="45.63" width="27.5" height="28.4"/>
		</defs>
		<clipPath id="SVGID_00000051365252243964759320000003711101497887712386_">
			<use xlink:href="#SVGID_00000166633456140240030870000015791531305319538329_"  style="overflow:visible;"/>
		</clipPath>
		<g style="clip-path:url(#SVGID_00000051365252243964759320000003711101497887712386_);">
			<path class="st7" d="M908.27,50.5v23.22l-17.28-12.16L908.27,50.5z"/>
			<path class="st7" d="M872.89,50.5v23.22l17.28-12.16L872.89,50.5z"/>
			<path class="st8" d="M908.27,73.75h-35.41l16.42-12.37c0.84-0.63,2-0.63,2.84,0.01L908.27,73.75z"/>
			<path class="st9" d="M888.96,63.72l-16.1-12.97v-1.99h35.41v1.99l-16.38,12.98C891.03,64.41,889.81,64.4,888.96,63.72z"/>
			<path class="st10" d="M889.1,62.08l-16.21-11.56v-1.76h35.41v1.76l-16.49,11.57C891,62.66,889.91,62.66,889.1,62.08z"/>
		</g>
	</g>
	<g>
		<path class="st11" d="M857.74,42.06c0-10.92,8.85-19.77,19.77-19.77c10.92,0,19.77,8.85,19.77,19.77v31.97h-39.53V42.06H857.74z"
			/>
	</g>
</g>
</svg>
