<?xml version="1.0" encoding="utf-8"?>
<!-- Generator: Adobe Illustrator 28.1.0, SVG Export Plug-In . SVG Version: 6.00 Build 0)  -->
<svg version="1.1" id="레이어_1" xmlns="http://www.w3.org/2000/svg" xmlns:xlink="http://www.w3.org/1999/xlink" x="0px"
	 y="0px" viewBox="0 0 1000 200" style="enable-background:new 0 0 1000 200;" xml:space="preserve">
<style type="text/css">
	.st0{fill-rule:evenodd;clip-rule:evenodd;fill:#9A1E23;}
	.st1{fill:#CA2624;}
	.st2{fill:#727272;}
	.st3{fill:#474747;}
	.st4{clip-path:url(#SVGID_00000027567208622561523460000017280237904136260992_);}
	.st5{fill:#DAC499;}
	.st6{fill:#E6D3B1;}
	.st7{fill:#040000;fill-opacity:0.15;}
	.st8{fill:#EEE1C7;}
	.st9{fill:#474747;fill-opacity:0.5;}
	.st10{fill:#413F40;}
	.st11{fill:none;stroke:#413F40;stroke-width:9.5796;stroke-linecap:round;}
	.st12{fill:#D5D5D5;}
	.st13{clip-path:url(#SVGID_00000132778363951734663090000013481186255715649172_);}
	.st14{clip-path:url(#SVGID_00000182528418390927143870000013455303190835652746_);}
	.st15{clip-path:url(#SVGID_00000157283342148880714380000011874655241890678454_);}
</style>
<g>
	<path class="st0" d="M127.32,139.36H71.65v59.28h32.47H150v-36.73C150,149.54,139.87,139.5,127.32,139.36L127.32,139.36z"/>
	<path class="st1" d="M50,162.3c0-12.67,10.27-22.94,22.94-22.94s22.94,10.27,22.94,22.94v36.34H50V162.3z"/>
	<path class="st2" d="M52.05,162.92c0-11.59,9.4-20.99,20.99-20.99s20.99,9.4,20.99,20.99v33.94H52.05V162.92z"/>
	<g>
		<path class="st3" d="M52.05,162.92c0-11.59,9.4-20.99,20.99-20.99s20.99,9.4,20.99,20.99v33.94H52.05V162.92z"/>
	</g>
	<g>
		<defs>
			<rect id="SVGID_1_" x="63.7" y="161.48" width="30.33" height="35.08"/>
		</defs>
		<clipPath id="SVGID_00000142142433517721771600000014142275263480656827_">
			<use xlink:href="#SVGID_1_"  style="overflow:visible;"/>
		</clipPath>
		<g style="clip-path:url(#SVGID_00000142142433517721771600000014142275263480656827_);">
			<path class="st5" d="M105.69,171.88v24.65l-18.34-12.91L105.69,171.88z"/>
			<path class="st5" d="M68.14,171.88v24.65l18.34-12.91L68.14,171.88z"/>
			<path class="st6" d="M105.69,196.56H68.1l16.14-12.15c1.66-1.25,3.95-1.24,5.6,0.02L105.69,196.56z"/>
			<path class="st7" d="M83.87,184.84l-15.76-12.7v-2.11h37.59v2.11l-16.05,12.72C87.95,186.21,85.55,186.2,83.87,184.84z"/>
			<path class="st8" d="M84.12,183.3l-15.98-11.4v-1.87h37.59v1.87l-16.27,11.42C87.86,184.45,85.72,184.44,84.12,183.3z"/>
		</g>
	</g>
	<g>
		<path class="st9" d="M52.05,162.92c0-11.59,9.4-20.99,20.99-20.99s20.99,9.4,20.99,20.99v33.94H52.05V162.92z"/>
	</g>
	<circle class="st10" cx="108.31" cy="175.96" r="4.64"/>
	<path class="st11" d="M108.37,176.22v-30.93h7.22"/>
	<ellipse class="st12" cx="108.31" cy="175.96" rx="2.58" ry="2.58"/>
</g>
<g>
	<path class="st0" d="M327.32,139.36h-55.67v59.28h32.47H350v-36.73C350,149.54,339.87,139.5,327.32,139.36L327.32,139.36z"/>
	<path class="st1" d="M250,162.3c0-12.67,10.27-22.94,22.94-22.94s22.94,10.27,22.94,22.94v36.34H250V162.3z"/>
	<path class="st2" d="M252.05,162.92c0-11.59,9.4-20.99,20.99-20.99s20.99,9.4,20.99,20.99v33.94h-41.97L252.05,162.92
		L252.05,162.92z"/>
	<g>
		<path class="st3" d="M252.05,162.92c0-11.59,9.4-20.99,20.99-20.99s20.99,9.4,20.99,20.99v33.94h-41.97L252.05,162.92
			L252.05,162.92z"/>
	</g>
	<g>
		<defs>
			<rect id="SVGID_00000101820423336729860960000013651916695925521041_" x="263.7" y="161.78" width="30.33" height="35.08"/>
		</defs>
		<clipPath id="SVGID_00000093897490296158737860000016320253894234525092_">
			<use xlink:href="#SVGID_00000101820423336729860960000013651916695925521041_"  style="overflow:visible;"/>
		</clipPath>
		<g style="clip-path:url(#SVGID_00000093897490296158737860000016320253894234525092_);">
			<path class="st5" d="M305.69,171.88v24.65l-18.34-12.91L305.69,171.88z"/>
			<path class="st5" d="M268.14,171.88v24.65l18.34-12.91L268.14,171.88z"/>
			<path class="st6" d="M305.69,196.56H268.1l16.14-12.15c1.66-1.25,3.95-1.24,5.6,0.02L305.69,196.56z"/>
			<path class="st7" d="M283.87,184.84l-15.76-12.7v-2.11h37.59v2.11l-16.05,12.72C287.95,186.21,285.55,186.2,283.87,184.84z"/>
			<path class="st8" d="M284.12,183.3l-15.98-11.4v-1.87h37.59v1.87l-16.27,11.42C287.86,184.45,285.72,184.44,284.12,183.3z"/>
		</g>
	</g>
	<g>
		<path class="st9" d="M252.05,162.92c0-11.59,9.4-20.99,20.99-20.99s20.99,9.4,20.99,20.99v33.94h-41.97L252.05,162.92
			L252.05,162.92z"/>
	</g>
	<circle class="st10" cx="308.13" cy="176.1" r="4.64"/>
	<path class="st11" d="M308.37,176.22l-23.69-19.88l4.64-5.53"/>
	<ellipse class="st12" cx="308.13" cy="176.1" rx="2.58" ry="2.58"/>
</g>
<g>
	<path class="st0" d="M527.32,139.36h-55.67v59.28h32.47H550v-36.73C550,149.54,539.87,139.5,527.32,139.36L527.32,139.36z"/>
	<path class="st1" d="M450,162.3c0-12.67,10.27-22.94,22.94-22.94s22.94,10.27,22.94,22.94v36.34H450V162.3z"/>
	<path class="st2" d="M452.05,162.92c0-11.59,9.4-20.99,20.99-20.99s20.99,9.4,20.99,20.99v33.94h-41.97L452.05,162.92
		L452.05,162.92z"/>
	<g>
		<path class="st3" d="M452.05,162.92c0-11.59,9.4-20.99,20.99-20.99s20.99,9.4,20.99,20.99v33.94h-41.97L452.05,162.92
			L452.05,162.92z"/>
	</g>
	<g>
		<defs>
			<rect id="SVGID_00000112629171122545272280000011066412931686914704_" x="463.7" y="161.78" width="30.33" height="35.08"/>
		</defs>
		<clipPath id="SVGID_00000069386641645300658230000016584863494461301893_">
			<use xlink:href="#SVGID_00000112629171122545272280000011066412931686914704_"  style="overflow:visible;"/>
		</clipPath>
		<g style="clip-path:url(#SVGID_00000069386641645300658230000016584863494461301893_);">
			<path class="st5" d="M505.69,171.88v24.65l-18.34-12.91L505.69,171.88z"/>
			<path class="st5" d="M468.14,171.88v24.65l18.34-12.91L468.14,171.88z"/>
			<path class="st6" d="M505.69,196.56H468.1l16.14-12.15c1.66-1.25,3.95-1.24,5.6,0.02L505.69,196.56z"/>
			<path class="st7" d="M483.87,184.84l-15.76-12.7v-2.11h37.59v2.11l-16.05,12.72C487.95,186.21,485.55,186.2,483.87,184.84z"/>
			<path class="st8" d="M484.12,183.3l-15.98-11.4v-1.87h37.59v1.87l-16.27,11.42C487.86,184.45,485.72,184.44,484.12,183.3z"/>
		</g>
	</g>
	<g>
		<path class="st9" d="M452.05,162.92c0-11.59,9.4-20.99,20.99-20.99s20.99,9.4,20.99,20.99v33.94h-41.97L452.05,162.92
			L452.05,162.92z"/>
	</g>
	<circle class="st10" cx="508.18" cy="176.4" r="4.64"/>
	<path class="st11" d="M508.37,176.22l-26.78,15.46l-3.61-6.25"/>
	<ellipse class="st12" cx="508.18" cy="176.4" rx="2.58" ry="2.58"/>
</g>
<g>
	<path class="st0" d="M727.32,139.36h-55.67v59.28h32.47H750v-36.73C750,149.54,739.87,139.5,727.32,139.36L727.32,139.36z"/>
	<path class="st1" d="M650,162.3c0-12.67,10.27-22.94,22.94-22.94s22.94,10.27,22.94,22.94v36.34H650V162.3z"/>
	<path class="st2" d="M652.05,162.92c0-11.59,9.4-20.99,20.99-20.99s20.99,9.4,20.99,20.99v33.94h-41.97L652.05,162.92
		L652.05,162.92z"/>
	<g>
		<path class="st3" d="M652.05,162.92c0-11.59,9.4-20.99,20.99-20.99s20.99,9.4,20.99,20.99v33.94h-41.97L652.05,162.92
			L652.05,162.92z"/>
	</g>
	<g>
		<defs>
			<rect id="SVGID_00000110444251102787765180000007447365226334681743_" x="663.7" y="161.78" width="30.33" height="35.08"/>
		</defs>
		<clipPath id="SVGID_00000031189670088005747360000011140755004332132025_">
			<use xlink:href="#SVGID_00000110444251102787765180000007447365226334681743_"  style="overflow:visible;"/>
		</clipPath>
		<g style="clip-path:url(#SVGID_00000031189670088005747360000011140755004332132025_);">
			<path class="st5" d="M705.69,171.88v24.65l-18.34-12.91L705.69,171.88z"/>
			<path class="st5" d="M668.14,171.88v24.65l18.34-12.91L668.14,171.88z"/>
			<path class="st6" d="M705.69,196.56H668.1l16.14-12.15c1.66-1.25,3.95-1.24,5.6,0.02L705.69,196.56z"/>
			<path class="st7" d="M683.87,184.84l-15.76-12.7v-2.11h37.59v2.11l-16.05,12.72C687.95,186.21,685.55,186.2,683.87,184.84z"/>
			<path class="st8" d="M684.12,183.3l-15.98-11.4v-1.87h37.59v1.87l-16.27,11.42C687.86,184.45,685.72,184.44,684.12,183.3z"/>
		</g>
	</g>
	<g>
		<path class="st9" d="M652.05,162.92c0-11.59,9.4-20.99,20.99-20.99s20.99,9.4,20.99,20.99v33.94h-41.97L652.05,162.92
			L652.05,162.92z"/>
	</g>
	<circle class="st10" cx="708.12" cy="176.14" r="4.64"/>
	<path class="st11" d="M708.37,176.22l-26.78-15.46l3.61-6.25"/>
	<ellipse class="st12" cx="708.12" cy="176.14" rx="2.58" ry="2.58"/>
</g>
<g>
	<path class="st0" d="M927.32,139.36h-55.67v59.28h32.47H950v-36.73C950,149.54,939.87,139.5,927.32,139.36L927.32,139.36z"/>
	<path class="st1" d="M850,162.3c0-12.67,10.27-22.94,22.94-22.94s22.94,10.27,22.94,22.94v36.34H850V162.3z"/>
	<path class="st2" d="M852.05,162.92c0-11.59,9.4-20.99,20.99-20.99s20.99,9.4,20.99,20.99v33.94h-41.97L852.05,162.92
		L852.05,162.92z"/>
	<g>
		<path class="st3" d="M852.05,162.92c0-11.59,9.4-20.99,20.99-20.99s20.99,9.4,20.99,20.99v33.94h-41.97L852.05,162.92
			L852.05,162.92z"/>
	</g>
	<g>
		<path class="st5" d="M905.69,171.88v24.65l-18.34-12.91L905.69,171.88z"/>
		<path class="st5" d="M868.14,171.88v24.65l18.34-12.91L868.14,171.88z"/>
		<path class="st6" d="M905.69,196.56H868.1l16.14-12.15c1.66-1.25,3.95-1.24,5.6,0.02L905.69,196.56z"/>
		<path class="st7" d="M883.87,184.84l-15.76-12.7v-2.11h37.59v2.11l-16.05,12.72C887.95,186.21,885.55,186.2,883.87,184.84z"/>
		<path class="st8" d="M884.12,183.3l-15.98-11.4v-1.87h37.59v1.87l-16.27,11.42C887.86,184.45,885.72,184.44,884.12,183.3z"/>
	</g>
	<g>
		<path class="st9" d="M852.05,162.92c0-11.59,9.4-20.99,20.99-20.99s20.99,9.4,20.99,20.99v33.94h-41.97L852.05,162.92
			L852.05,162.92z"/>
	</g>
	<circle class="st10" cx="908.19" cy="176.02" r="4.64"/>
	<path class="st11" d="M908.37,176.22l-15.46-26.78l6.25-3.61"/>
	<ellipse class="st12" cx="908.19" cy="176.02" rx="2.58" ry="2.58"/>
</g>
</svg>
