<?xml version="1.0" encoding="utf-8"?>
<!-- Generator: Adobe Illustrator 28.1.0, SVG Export Plug-In . SVG Version: 6.00 Build 0)  -->
<svg version="1.1" id="레이어_1" xmlns="http://www.w3.org/2000/svg" xmlns:xlink="http://www.w3.org/1999/xlink" x="0px"
	 y="0px" viewBox="0 0 566.9 566.9" style="enable-background:new 0 0 566.9 566.9;" xml:space="preserve">
<style type="text/css">
	.st0{fill:#E28A28;}
	.st1{fill:#ECC535;}
	.st2{fill:#E6E244;}
	.st3{fill:#E7A32F;}
	.st4{fill:#FFFFFF;}
</style>
<g>
	<circle class="st0" cx="283.5" cy="283.5" r="283.5"/>
	<circle class="st1" cx="283.5" cy="283.5" r="255.6"/>
	<path class="st2" d="M539.3,283.9c0,141.2-114.5,255.6-255.6,255.6C142.4,539.6,28,425.1,28,283.9c0-2.5,0-4.9,0.1-7.3
		C32,414.4,144.9,525,283.6,525c138.7,0,251.6-110.5,255.5-248.3C539.2,279,539.3,281.5,539.3,283.9z"/>
	<circle class="st3" cx="283.5" cy="283.5" r="186.1"/>
	
		<ellipse transform="matrix(0.7071 -0.7071 0.7071 0.7071 -52.3925 128.6669)" class="st4" cx="129.1" cy="127.6" rx="24.4" ry="18.6"/>
	<path class="st2" d="M340.1,231.1l56.9,8c15.6,2.2,21.9,21.3,10.7,32.3l-41,40.3c-4.5,4.4-6.5,10.7-5.4,16.8l10,56.6
		c2.7,15.5-13.5,27.4-27.4,20.1l-51-26.5c-5.5-2.9-12.1-2.9-17.6,0.1l-50.8,27c-13.9,7.4-30.2-4.3-27.6-19.9l9.4-56.7
		c1-6.1-1-12.4-5.6-16.8l-41.4-39.9c-11.3-10.9-5.2-30.1,10.4-32.4l56.9-8.5c6.2-0.9,11.5-4.8,14.2-10.5l25.2-51.7
		c6.9-14.1,27-14.2,34-0.2l25.7,51.4C328.5,226.3,333.9,230.2,340.1,231.1z"/>
</g>
</svg>
