<?xml version="1.0" encoding="utf-8"?>
<!-- Generator: Adobe Illustrator 28.1.0, SVG Export Plug-In . SVG Version: 6.00 Build 0)  -->
<svg version="1.1" id="레이어_1" xmlns="http://www.w3.org/2000/svg" xmlns:xlink="http://www.w3.org/1999/xlink" x="0px"
	 y="0px" viewBox="0 0 1920 400" style="enable-background:new 0 0 1920 400;" xml:space="preserve">
<style type="text/css">
	.st0{fill:#E4EDAE;}
	.st1{fill:#D79B55;}
	.st2{fill:#39A47C;}
	.st3{fill:none;stroke:#39A47C;stroke-width:1.6102;}
	.st4{fill-rule:evenodd;clip-rule:evenodd;fill:#EFD12E;}
	.st5{fill:none;stroke:#39A47C;stroke-width:1.0848;}
	.st6{fill-rule:evenodd;clip-rule:evenodd;fill:#DF4F4D;}
	.st7{fill:#FFFFFF;}
	.st8{fill:none;stroke:#A2D3B1;stroke-width:4;stroke-linecap:round;}
</style>
<path class="st0" d="M0,127.01c72.9-8.83,182.83-18.77,315.26-16.95c182.45,2.5,202.45,24.49,367.52,31.03
	c280.32,11.11,352.83-47.16,602.1-27.59c121.91,9.57,142.08,26.46,276.29,31.03c129.95,4.43,284.34-6.97,358.84-17.53V400H0
	L0,127.01z"/>
<g>
	<path class="st1" d="M64.6,72.75h16.61l4.89,63.31H59.71L64.6,72.75z"/>
	<circle class="st2" cx="71.14" cy="45.5" r="30.78"/>
	<circle class="st2" cx="44.76" cy="82.43" r="25.5"/>
	<circle class="st2" cx="94.26" cy="78.72" r="27"/>
</g>
<g>
	<path class="st1" d="M621.93,90.79h16.61l4.89,63.31h-26.38L621.93,90.79z"/>
	<circle class="st2" cx="628.47" cy="63.53" r="30.78"/>
	<circle class="st2" cx="602.09" cy="100.46" r="25.5"/>
	<circle class="st2" cx="651.59" cy="96.75" r="27"/>
</g>
<g>
	<path class="st1" d="M1455.26,88.15h16.61l4.89,63.31h-26.38L1455.26,88.15z"/>
	<circle class="st2" cx="1461.81" cy="60.89" r="30.78"/>
	<circle class="st2" cx="1435.43" cy="97.82" r="25.5"/>
	<circle class="st2" cx="1484.93" cy="94.11" r="27"/>
</g>
<g>
	<path class="st1" d="M1868.3,101.57h12.4l3.65,47.25h-19.69L1868.3,101.57z"/>
	<circle class="st2" cx="1873.19" cy="81.22" r="22.97"/>
	<circle class="st2" cx="1853.5" cy="108.79" r="19.03"/>
	<circle class="st2" cx="1890.44" cy="106.02" r="20.15"/>
</g>
<g>
	<path class="st1" d="M1233.88,79.25h12.4l3.65,47.25h-19.69L1233.88,79.25z"/>
	<circle class="st2" cx="1238.77" cy="58.91" r="22.97"/>
	<circle class="st2" cx="1219.08" cy="86.47" r="19.03"/>
	<circle class="st2" cx="1256.02" cy="83.71" r="20.15"/>
</g>
<g>
	<path class="st1" d="M712.43,120.47h12.4l3.65,47.25h-19.69L712.43,120.47z"/>
	<circle class="st2" cx="717.32" cy="100.13" r="22.97"/>
	<circle class="st2" cx="697.63" cy="127.69" r="19.03"/>
	<circle class="st2" cx="734.57" cy="124.93" r="20.15"/>
</g>
<g>
	<path class="st1" d="M304.48,74.3h12.4l3.65,47.25h-19.69L304.48,74.3z"/>
	<circle class="st2" cx="309.36" cy="53.96" r="22.97"/>
	<circle class="st2" cx="289.68" cy="81.52" r="19.03"/>
	<circle class="st2" cx="326.62" cy="78.75" r="20.15"/>
</g>
<g>
	<path class="st3" d="M291.18,87.64c-1.54,3.23-3.43,14.63,1.27,34.43"/>
	<path class="st2" d="M279.46,106.66c4.03-0.46,12.14,1.27,12.38,11.83C281.45,118.72,279.26,110.7,279.46,106.66z"/>
	<path class="st4" d="M289.82,78.88c-1.11,0.17-1.94,1.03-2.14,2.07c-0.36-0.3-0.85-0.45-1.36-0.38c-0.94,0.15-1.58,1.02-1.43,1.96
		c0,0.01,0,0.01,0,0.02c-0.09,0-0.19,0.01-0.29,0.03c-1.4,0.22-2.36,1.53-2.15,2.93c0.09,0.57,0.36,1.07,0.75,1.45
		c-0.59,0.34-0.94,1.03-0.83,1.74c0.15,0.94,1.02,1.58,1.96,1.43c0.23-0.04,0.44-0.11,0.63-0.23c0.01,0.04,0.03,0.08,0.04,0.13
		c-0.03,0-0.07,0.01-0.1,0.01c-0.94,0.14-1.58,1.02-1.43,1.96c0.14,0.94,1.02,1.58,1.96,1.43c0.21-0.03,0.4-0.1,0.58-0.2
		c0,0.13,0.01,0.26,0.03,0.39c0.22,1.4,1.53,2.36,2.93,2.15c0.39-0.06,0.75-0.21,1.06-0.42c0.37,0.44,0.96,0.68,1.57,0.59
		c0.49-0.08,0.89-0.35,1.15-0.73c0.34,0.61,1.03,0.97,1.76,0.85c0.8-0.12,1.38-0.78,1.45-1.55c0.29,0.06,0.61,0.07,0.92,0.02
		c1.4-0.22,2.36-1.53,2.15-2.93c-0.05-0.32-0.15-0.61-0.3-0.87c0.71-0.3,1.16-1.05,1.04-1.85c-0.08-0.49-0.35-0.89-0.73-1.15
		c0.61-0.34,0.97-1.03,0.85-1.76c-0.09-0.56-0.44-1.01-0.9-1.26c0.36-0.52,0.52-1.17,0.42-1.85c-0.22-1.4-1.53-2.36-2.93-2.15
		c-0.3,0.05-0.58,0.14-0.83,0.28c0-0.05-0.01-0.1-0.02-0.15c-0.15-0.94-1.02-1.58-1.96-1.43c-0.51,0.08-0.93,0.37-1.18,0.77
		C291.98,79.28,290.93,78.71,289.82,78.88z M297.22,87.68L297.22,87.68L297.22,87.68L297.22,87.68z"/>
</g>
<g>
	<path class="st3" d="M209.65,309.45c-1.54,3.23-3.43,14.63,1.26,34.43"/>
	<path class="st2" d="M197.93,328.47c4.03-0.46,12.14,1.27,12.38,11.83C199.92,340.54,197.73,332.52,197.93,328.47z"/>
	<path class="st4" d="M208.29,300.7c-1.11,0.17-1.94,1.03-2.14,2.07c-0.36-0.3-0.85-0.45-1.36-0.38c-0.94,0.15-1.58,1.02-1.43,1.96
		c0,0.01,0,0.01,0,0.02c-0.09,0-0.19,0.01-0.29,0.03c-1.4,0.22-2.36,1.53-2.15,2.93c0.09,0.57,0.36,1.07,0.75,1.45
		c-0.59,0.34-0.94,1.03-0.83,1.74c0.15,0.94,1.02,1.58,1.96,1.43c0.23-0.04,0.44-0.11,0.63-0.23c0.01,0.04,0.03,0.08,0.04,0.13
		c-0.03,0-0.07,0.01-0.1,0.01c-0.94,0.14-1.58,1.02-1.43,1.96c0.14,0.94,1.02,1.58,1.96,1.43c0.21-0.03,0.4-0.1,0.58-0.2
		c0,0.13,0.01,0.26,0.03,0.39c0.22,1.4,1.53,2.36,2.93,2.15c0.39-0.06,0.75-0.21,1.06-0.42c0.37,0.44,0.96,0.68,1.57,0.59
		c0.49-0.08,0.89-0.35,1.15-0.73c0.34,0.61,1.03,0.97,1.76,0.85c0.8-0.12,1.38-0.78,1.45-1.55c0.29,0.06,0.61,0.07,0.92,0.02
		c1.4-0.22,2.36-1.53,2.15-2.93c-0.05-0.32-0.15-0.61-0.3-0.87c0.71-0.3,1.16-1.05,1.04-1.85c-0.08-0.49-0.35-0.9-0.73-1.15
		c0.61-0.34,0.97-1.03,0.85-1.76c-0.09-0.56-0.44-1.01-0.9-1.26c0.36-0.52,0.52-1.17,0.42-1.85c-0.22-1.4-1.53-2.36-2.93-2.15
		c-0.3,0.05-0.58,0.14-0.83,0.28c0-0.05-0.01-0.1-0.02-0.15c-0.15-0.94-1.02-1.58-1.96-1.43c-0.51,0.08-0.93,0.37-1.18,0.77
		C210.45,301.1,209.4,300.53,208.29,300.7z M215.69,309.5L215.69,309.5L215.69,309.5L215.69,309.5z"/>
</g>
<g>
	<path class="st3" d="M833.61,115.12c-1.54,3.23-3.43,14.63,1.27,34.43"/>
	<path class="st2" d="M821.89,134.15c4.03-0.46,12.14,1.27,12.38,11.83C823.88,146.21,821.69,138.19,821.89,134.15z"/>
	<path class="st4" d="M832.26,106.37c-1.11,0.17-1.94,1.03-2.14,2.07c-0.36-0.3-0.85-0.45-1.36-0.38c-0.94,0.15-1.58,1.02-1.43,1.96
		c0,0.01,0,0.01,0,0.02c-0.09,0-0.19,0.01-0.29,0.03c-1.4,0.22-2.36,1.53-2.15,2.93c0.09,0.57,0.36,1.07,0.75,1.45
		c-0.59,0.34-0.94,1.03-0.83,1.74c0.15,0.94,1.02,1.58,1.96,1.43c0.23-0.04,0.44-0.11,0.63-0.23c0.01,0.04,0.03,0.08,0.04,0.13
		c-0.03,0-0.07,0.01-0.1,0.01c-0.94,0.14-1.58,1.02-1.43,1.96c0.15,0.94,1.02,1.58,1.96,1.43c0.21-0.03,0.4-0.1,0.58-0.2
		c0,0.13,0.01,0.26,0.03,0.39c0.22,1.4,1.53,2.36,2.93,2.15c0.39-0.06,0.75-0.21,1.06-0.42c0.37,0.44,0.96,0.68,1.57,0.59
		c0.49-0.08,0.89-0.35,1.15-0.73c0.34,0.61,1.03,0.97,1.76,0.85c0.8-0.12,1.38-0.78,1.45-1.55c0.29,0.06,0.61,0.07,0.92,0.02
		c1.4-0.22,2.36-1.53,2.15-2.93c-0.05-0.32-0.15-0.61-0.3-0.87c0.71-0.3,1.16-1.05,1.04-1.85c-0.08-0.49-0.35-0.89-0.73-1.15
		c0.61-0.34,0.97-1.03,0.85-1.76c-0.09-0.56-0.44-1.01-0.9-1.26c0.36-0.52,0.52-1.17,0.42-1.85c-0.22-1.4-1.53-2.36-2.93-2.15
		c-0.3,0.05-0.58,0.14-0.83,0.28c0-0.05-0.01-0.1-0.02-0.15c-0.15-0.94-1.02-1.58-1.96-1.43c-0.51,0.08-0.93,0.37-1.18,0.77
		C834.42,106.77,833.37,106.2,832.26,106.37z M839.65,115.17L839.65,115.17L839.65,115.17L839.65,115.17z"/>
</g>
<g>
	<path class="st3" d="M1251.42,317.45c-1.54,3.23-3.44,14.63,1.27,34.43"/>
	<path class="st2" d="M1239.71,336.47c4.03-0.46,12.14,1.27,12.38,11.83C1241.69,348.54,1239.5,340.52,1239.71,336.47z"/>
	<path class="st4" d="M1250.07,308.7c-1.11,0.17-1.94,1.03-2.14,2.07c-0.36-0.3-0.85-0.45-1.36-0.38c-0.94,0.15-1.58,1.02-1.43,1.96
		c0,0.01,0,0.01,0,0.02c-0.09,0-0.19,0.01-0.29,0.03c-1.4,0.22-2.36,1.53-2.15,2.93c0.09,0.57,0.36,1.07,0.75,1.45
		c-0.59,0.34-0.94,1.03-0.83,1.74c0.15,0.94,1.02,1.58,1.96,1.43c0.23-0.04,0.44-0.11,0.63-0.23c0.01,0.04,0.03,0.08,0.04,0.13
		c-0.03,0-0.07,0.01-0.1,0.01c-0.94,0.14-1.58,1.02-1.43,1.96c0.15,0.94,1.02,1.58,1.96,1.43c0.21-0.03,0.4-0.1,0.58-0.2
		c0,0.13,0.01,0.26,0.03,0.39c0.22,1.4,1.53,2.36,2.93,2.15c0.39-0.06,0.75-0.21,1.06-0.42c0.37,0.44,0.96,0.68,1.57,0.59
		c0.49-0.08,0.89-0.35,1.15-0.73c0.34,0.61,1.03,0.97,1.76,0.85c0.8-0.12,1.38-0.78,1.45-1.55c0.29,0.06,0.61,0.07,0.92,0.02
		c1.4-0.22,2.36-1.53,2.15-2.93c-0.05-0.32-0.15-0.61-0.3-0.87c0.71-0.3,1.16-1.05,1.04-1.85c-0.08-0.49-0.35-0.9-0.73-1.15
		c0.61-0.34,0.97-1.03,0.85-1.76c-0.09-0.56-0.44-1.01-0.9-1.26c0.36-0.52,0.52-1.17,0.42-1.85c-0.22-1.4-1.53-2.36-2.93-2.15
		c-0.3,0.05-0.58,0.14-0.83,0.28c0-0.05-0.01-0.1-0.02-0.15c-0.15-0.94-1.02-1.58-1.96-1.43c-0.51,0.08-0.93,0.37-1.18,0.77
		C1252.23,309.1,1251.18,308.53,1250.07,308.7z M1257.46,317.5L1257.46,317.5L1257.46,317.5L1257.46,317.5z"/>
</g>
<g>
	<path class="st3" d="M1416.29,113.68c-1.54,3.23-3.44,14.63,1.27,34.43"/>
	<path class="st2" d="M1404.57,132.7c4.03-0.46,12.14,1.27,12.38,11.83C1406.56,144.77,1404.36,136.75,1404.57,132.7z"/>
	<path class="st4" d="M1414.93,104.93c-1.11,0.17-1.94,1.03-2.14,2.07c-0.36-0.3-0.85-0.45-1.36-0.38
		c-0.94,0.15-1.58,1.02-1.43,1.96c0,0.01,0,0.01,0,0.02c-0.09,0-0.19,0.01-0.29,0.03c-1.4,0.22-2.36,1.53-2.15,2.93
		c0.09,0.57,0.36,1.07,0.75,1.45c-0.59,0.34-0.94,1.03-0.83,1.74c0.15,0.94,1.02,1.58,1.96,1.43c0.23-0.04,0.44-0.11,0.63-0.23
		c0.01,0.04,0.03,0.08,0.04,0.13c-0.03,0-0.07,0.01-0.1,0.01c-0.94,0.15-1.58,1.02-1.43,1.96c0.15,0.94,1.02,1.58,1.96,1.43
		c0.21-0.03,0.4-0.1,0.58-0.2c0,0.13,0.01,0.26,0.03,0.39c0.22,1.4,1.53,2.36,2.93,2.15c0.39-0.06,0.75-0.21,1.06-0.42
		c0.37,0.44,0.96,0.68,1.57,0.59c0.49-0.08,0.89-0.35,1.15-0.73c0.34,0.61,1.03,0.97,1.76,0.85c0.8-0.12,1.38-0.78,1.45-1.55
		c0.29,0.06,0.61,0.07,0.92,0.02c1.4-0.22,2.36-1.53,2.15-2.93c-0.05-0.32-0.15-0.61-0.3-0.87c0.71-0.3,1.16-1.05,1.04-1.85
		c-0.08-0.49-0.35-0.9-0.73-1.15c0.61-0.34,0.97-1.03,0.85-1.76c-0.09-0.56-0.44-1.01-0.9-1.26c0.36-0.52,0.52-1.17,0.42-1.85
		c-0.22-1.4-1.53-2.36-2.93-2.15c-0.3,0.05-0.58,0.14-0.83,0.28c0-0.05-0.01-0.1-0.02-0.15c-0.15-0.94-1.02-1.58-1.96-1.43
		c-0.51,0.08-0.93,0.37-1.18,0.77C1417.09,105.33,1416.04,104.76,1414.93,104.93z M1422.33,113.73L1422.33,113.73L1422.33,113.73
		L1422.33,113.73z"/>
</g>
<g>
	<path class="st3" d="M1766.09,321.84c-1.54,3.23-3.44,14.63,1.26,34.43"/>
	<path class="st2" d="M1754.37,340.87c4.03-0.46,12.14,1.27,12.38,11.83C1756.36,352.93,1754.17,344.91,1754.37,340.87z"/>
	<path class="st4" d="M1764.73,313.09c-1.11,0.17-1.94,1.03-2.14,2.07c-0.36-0.3-0.85-0.45-1.36-0.38
		c-0.94,0.15-1.58,1.02-1.43,1.96c0,0.01,0,0.01,0,0.02c-0.09,0-0.19,0.01-0.29,0.03c-1.4,0.22-2.36,1.53-2.15,2.93
		c0.09,0.57,0.36,1.07,0.75,1.45c-0.59,0.34-0.94,1.03-0.83,1.74c0.15,0.94,1.02,1.58,1.96,1.43c0.23-0.04,0.44-0.11,0.63-0.23
		c0.01,0.04,0.03,0.08,0.04,0.13c-0.03,0-0.07,0.01-0.1,0.01c-0.94,0.15-1.58,1.02-1.43,1.96c0.14,0.94,1.02,1.58,1.96,1.43
		c0.21-0.03,0.4-0.1,0.58-0.2c0,0.13,0.01,0.26,0.03,0.39c0.22,1.4,1.53,2.36,2.93,2.15c0.39-0.06,0.75-0.21,1.06-0.42
		c0.37,0.44,0.96,0.68,1.57,0.59c0.49-0.08,0.89-0.35,1.15-0.73c0.34,0.61,1.03,0.97,1.76,0.85c0.8-0.12,1.38-0.78,1.45-1.55
		c0.29,0.06,0.61,0.07,0.92,0.02c1.4-0.22,2.36-1.53,2.15-2.93c-0.05-0.32-0.15-0.61-0.3-0.87c0.71-0.3,1.16-1.05,1.04-1.85
		c-0.08-0.49-0.35-0.89-0.73-1.15c0.61-0.34,0.97-1.03,0.85-1.76c-0.09-0.56-0.44-1.01-0.9-1.26c0.36-0.52,0.52-1.17,0.42-1.85
		c-0.22-1.4-1.53-2.36-2.93-2.15c-0.3,0.05-0.58,0.14-0.83,0.28c0-0.05-0.01-0.1-0.02-0.15c-0.15-0.94-1.02-1.58-1.96-1.43
		c-0.51,0.08-0.93,0.37-1.18,0.77C1766.9,313.49,1765.84,312.92,1764.73,313.09z M1772.13,321.89L1772.13,321.89L1772.13,321.89
		L1772.13,321.89z"/>
</g>
<g>
	<path class="st3" d="M1902.17,112.37c-1.54,3.23-3.43,14.63,1.27,34.43"/>
	<path class="st2" d="M1890.45,131.39c4.03-0.46,12.14,1.27,12.38,11.83C1892.44,143.46,1890.25,135.43,1890.45,131.39z"/>
	<path class="st4" d="M1900.82,103.62c-1.11,0.17-1.94,1.03-2.14,2.07c-0.36-0.3-0.85-0.45-1.36-0.38
		c-0.94,0.15-1.58,1.02-1.43,1.96c0,0.01,0,0.01,0,0.02c-0.09,0-0.19,0.01-0.29,0.03c-1.4,0.22-2.36,1.53-2.15,2.93
		c0.09,0.57,0.36,1.07,0.75,1.45c-0.59,0.34-0.94,1.03-0.83,1.74c0.15,0.94,1.02,1.58,1.96,1.43c0.23-0.04,0.44-0.11,0.63-0.23
		c0.01,0.04,0.03,0.08,0.04,0.13c-0.03,0-0.07,0.01-0.1,0.01c-0.94,0.15-1.58,1.02-1.43,1.96c0.15,0.94,1.02,1.58,1.96,1.43
		c0.21-0.03,0.4-0.1,0.58-0.2c0,0.13,0.01,0.26,0.03,0.39c0.22,1.4,1.53,2.36,2.93,2.15c0.39-0.06,0.75-0.21,1.06-0.42
		c0.37,0.44,0.96,0.68,1.57,0.59c0.49-0.08,0.89-0.35,1.15-0.73c0.34,0.61,1.03,0.97,1.76,0.85c0.8-0.12,1.38-0.78,1.45-1.55
		c0.29,0.06,0.61,0.07,0.92,0.02c1.4-0.22,2.36-1.53,2.15-2.93c-0.05-0.32-0.15-0.61-0.3-0.87c0.71-0.3,1.16-1.05,1.04-1.85
		c-0.08-0.49-0.35-0.9-0.73-1.15c0.61-0.34,0.97-1.03,0.85-1.76c-0.09-0.56-0.44-1.01-0.9-1.26c0.36-0.52,0.52-1.17,0.42-1.85
		c-0.22-1.4-1.53-2.36-2.93-2.15c-0.3,0.05-0.58,0.14-0.83,0.28c0-0.05-0.01-0.1-0.02-0.15c-0.15-0.94-1.02-1.58-1.96-1.43
		c-0.51,0.08-0.93,0.37-1.18,0.77C1902.98,104.01,1901.93,103.45,1900.82,103.62z M1908.21,112.41L1908.21,112.41L1908.21,112.41
		L1908.21,112.41z"/>
</g>
<g>
	<path class="st5" d="M103.22,111.4c-1.18,4.16-2.82,14.37,0,21.97"/>
	<path class="st6" d="M91.51,110.32c0,2.11,1.34,3.91,3.22,4.59c-0.32,0.58-0.51,1.26-0.51,1.97c0,2.25,1.82,4.07,4.07,4.07
		c1.63,0,3.04-0.96,3.69-2.35c0.86,1.41,2.41,2.35,4.18,2.35c2.7,0,4.88-2.19,4.88-4.88c0-1.09-0.36-2.1-0.97-2.91
		c1.34-0.66,2.27-2.05,2.27-3.65c0-2.25-1.82-4.07-4.07-4.07c-0.36,0-0.7,0.05-1.03,0.13c0-0.04,0-0.09,0-0.13
		c0-2.7-2.19-4.88-4.88-4.88c-2.7,0-4.88,2.19-4.88,4.88c0,0.04,0,0.08,0,0.12c-0.35-0.08-0.71-0.12-1.09-0.12
		C93.69,105.44,91.51,107.62,91.51,110.32z"/>
	<circle class="st7" cx="101.92" cy="111.18" r="3.47"/>
	<path class="st2" d="M108.92,122.44c-2.94,0.55-8.29,3.52-6.19,11.02C110.11,131.38,109.93,125.25,108.92,122.44z"/>
	<path class="st2" d="M96.16,126.23c2.32-0.1,6.9,1.22,6.61,7.27C96.81,133.22,95.88,128.53,96.16,126.23z"/>
</g>
<g>
	<path class="st5" d="M663.31,134.6c-1.18,4.16-2.82,14.37,0,21.97"/>
	<path class="st6" d="M651.59,133.52c0,2.11,1.34,3.91,3.22,4.59c-0.32,0.58-0.51,1.26-0.51,1.97c0,2.25,1.82,4.07,4.07,4.07
		c1.63,0,3.04-0.96,3.69-2.35c0.86,1.41,2.41,2.35,4.18,2.35c2.7,0,4.88-2.19,4.88-4.88c0-1.09-0.36-2.1-0.97-2.91
		c1.34-0.66,2.27-2.05,2.27-3.65c0-2.25-1.82-4.07-4.07-4.07c-0.36,0-0.7,0.05-1.03,0.13c0-0.04,0-0.09,0-0.13
		c0-2.7-2.19-4.88-4.88-4.88s-4.88,2.19-4.88,4.88c0,0.04,0,0.08,0,0.12c-0.35-0.08-0.71-0.12-1.09-0.12
		C653.78,128.63,651.59,130.82,651.59,133.52z"/>
	<circle class="st7" cx="662.01" cy="134.38" r="3.47"/>
	<path class="st2" d="M669,145.64c-2.94,0.55-8.29,3.52-6.19,11.02C670.2,154.58,670.02,148.45,669,145.64z"/>
	<path class="st2" d="M656.25,149.43c2.32-0.1,6.9,1.22,6.61,7.27C656.9,156.41,655.97,151.73,656.25,149.43z"/>
</g>
<g>
	<path class="st5" d="M493.7,194.38c-1.18,4.16-2.82,14.37,0,21.97"/>
	<path class="st6" d="M481.99,193.29c0,2.11,1.34,3.91,3.22,4.59c-0.32,0.58-0.51,1.26-0.51,1.97c0,2.25,1.82,4.07,4.07,4.07
		c1.63,0,3.04-0.96,3.69-2.35c0.86,1.41,2.41,2.35,4.18,2.35c2.7,0,4.88-2.19,4.88-4.88c0-1.09-0.36-2.1-0.97-2.91
		c1.34-0.66,2.27-2.05,2.27-3.65c0-2.25-1.82-4.07-4.07-4.07c-0.36,0-0.7,0.05-1.03,0.13c0-0.04,0-0.09,0-0.13
		c0-2.7-2.19-4.88-4.88-4.88c-2.7,0-4.88,2.19-4.88,4.88c0,0.04,0,0.08,0,0.12c-0.35-0.08-0.71-0.12-1.09-0.12
		C484.17,188.41,481.99,190.6,481.99,193.29z"/>
	<circle class="st7" cx="492.4" cy="194.16" r="3.47"/>
	<path class="st2" d="M499.4,205.41c-2.94,0.55-8.29,3.52-6.19,11.02C500.59,214.36,500.41,208.22,499.4,205.41z"/>
	<path class="st2" d="M486.64,209.2c2.32-0.1,6.9,1.22,6.61,7.27C487.29,216.19,486.36,211.51,486.64,209.2z"/>
</g>
<g>
	<path class="st5" d="M1094.59,99.15c-1.18,4.16-2.82,14.37,0,21.97"/>
	<path class="st6" d="M1082.87,98.07c0,2.11,1.34,3.91,3.22,4.59c-0.32,0.58-0.51,1.26-0.51,1.97c0,2.25,1.82,4.07,4.07,4.07
		c1.63,0,3.04-0.96,3.69-2.35c0.86,1.41,2.41,2.35,4.18,2.35c2.7,0,4.88-2.19,4.88-4.88c0-1.09-0.36-2.1-0.97-2.91
		c1.34-0.66,2.27-2.05,2.27-3.65c0-2.25-1.82-4.07-4.07-4.07c-0.36,0-0.7,0.05-1.03,0.13c0-0.04,0-0.09,0-0.13
		c0-2.7-2.19-4.88-4.88-4.88c-2.7,0-4.88,2.19-4.88,4.88c0,0.04,0,0.08,0,0.12c-0.35-0.08-0.71-0.12-1.09-0.12
		C1085.06,93.18,1082.87,95.37,1082.87,98.07z"/>
	<circle class="st7" cx="1093.29" cy="98.93" r="3.47"/>
	<path class="st2" d="M1100.28,110.19c-2.94,0.55-8.29,3.52-6.19,11.02C1101.48,119.13,1101.3,112.99,1100.28,110.19z"/>
	<path class="st2" d="M1087.53,113.98c2.32-0.1,6.9,1.22,6.61,7.27C1088.18,120.96,1087.25,116.28,1087.53,113.98z"/>
</g>
<g>
	<path class="st5" d="M971.72,330.79c-1.18,4.16-2.82,14.37,0,21.97"/>
	<path class="st6" d="M960,329.7c0,2.11,1.34,3.91,3.22,4.59c-0.32,0.58-0.51,1.26-0.51,1.97c0,2.25,1.82,4.07,4.07,4.07
		c1.63,0,3.04-0.96,3.69-2.35c0.86,1.41,2.41,2.35,4.18,2.35c2.7,0,4.88-2.19,4.88-4.88c0-1.09-0.36-2.1-0.97-2.91
		c1.34-0.66,2.27-2.05,2.27-3.65c0-2.25-1.82-4.07-4.07-4.07c-0.36,0-0.7,0.05-1.03,0.13c0-0.04,0-0.09,0-0.13
		c0-2.7-2.19-4.88-4.88-4.88c-2.7,0-4.88,2.19-4.88,4.88c0,0.04,0,0.08,0,0.12c-0.35-0.08-0.71-0.12-1.09-0.12
		C962.19,324.82,960,327.01,960,329.7z"/>
	<circle class="st7" cx="970.41" cy="330.57" r="3.47"/>
	<path class="st2" d="M977.41,341.82c-2.94,0.55-8.29,3.52-6.19,11.02C978.61,350.77,978.42,344.63,977.41,341.82z"/>
	<path class="st2" d="M964.65,345.61c2.32-0.1,6.9,1.22,6.61,7.27C965.31,352.6,964.37,347.92,964.65,345.61z"/>
</g>
<g>
	<path class="st5" d="M1436.73,128.46c-1.18,4.16-2.82,14.37,0,21.97"/>
	<path class="st6" d="M1425.01,127.37c0,2.11,1.34,3.91,3.22,4.59c-0.32,0.58-0.51,1.26-0.51,1.97c0,2.25,1.82,4.07,4.07,4.07
		c1.63,0,3.04-0.96,3.69-2.35c0.86,1.41,2.41,2.35,4.18,2.35c2.7,0,4.88-2.19,4.88-4.88c0-1.09-0.36-2.1-0.97-2.91
		c1.34-0.66,2.27-2.05,2.27-3.65c0-2.25-1.82-4.07-4.07-4.07c-0.36,0-0.7,0.05-1.03,0.13c0-0.04,0-0.09,0-0.13
		c0-2.7-2.19-4.88-4.88-4.88c-2.7,0-4.88,2.19-4.88,4.88c0,0.04,0,0.08,0,0.12c-0.35-0.08-0.71-0.12-1.09-0.12
		C1427.2,122.49,1425.01,124.68,1425.01,127.37z"/>
	<circle class="st7" cx="1435.43" cy="128.24" r="3.47"/>
	<path class="st2" d="M1442.42,139.49c-2.94,0.55-8.29,3.52-6.19,11.02C1443.62,148.44,1443.44,142.3,1442.42,139.49z"/>
	<path class="st2" d="M1429.67,143.28c2.32-0.1,6.9,1.22,6.61,7.27C1430.32,150.27,1429.39,145.59,1429.67,143.28z"/>
</g>
<g>
	<path class="st5" d="M1584.37,295.05c-1.18,4.16-2.82,14.37,0,21.97"/>
	<path class="st6" d="M1572.65,293.96c0,2.11,1.34,3.91,3.22,4.59c-0.32,0.58-0.51,1.26-0.51,1.97c0,2.25,1.82,4.07,4.07,4.07
		c1.63,0,3.04-0.96,3.69-2.35c0.86,1.41,2.41,2.35,4.18,2.35c2.7,0,4.88-2.19,4.88-4.88c0-1.09-0.36-2.1-0.96-2.91
		c1.34-0.66,2.27-2.05,2.27-3.65c0-2.25-1.82-4.07-4.07-4.07c-0.36,0-0.7,0.05-1.03,0.13c0-0.04,0-0.09,0-0.13
		c0-2.7-2.19-4.88-4.88-4.88c-2.7,0-4.88,2.19-4.88,4.88c0,0.04,0,0.08,0,0.12c-0.35-0.08-0.71-0.12-1.09-0.12
		C1574.84,289.08,1572.65,291.27,1572.65,293.96z"/>
	<circle class="st7" cx="1583.07" cy="294.83" r="3.47"/>
	<path class="st2" d="M1590.06,306.08c-2.94,0.55-8.29,3.52-6.19,11.02C1591.26,315.03,1591.08,308.89,1590.06,306.08z"/>
	<path class="st2" d="M1577.3,309.87c2.32-0.1,6.9,1.22,6.61,7.27C1577.96,316.86,1577.03,312.18,1577.3,309.87z"/>
</g>
<g>
	<path class="st5" d="M1861.93,220.87c-1.18,4.16-2.82,14.37,0,21.97"/>
	<path class="st6" d="M1850.22,219.78c0,2.11,1.34,3.91,3.22,4.59c-0.32,0.58-0.51,1.26-0.51,1.97c0,2.25,1.82,4.07,4.07,4.07
		c1.63,0,3.04-0.96,3.69-2.35c0.86,1.41,2.41,2.35,4.18,2.35c2.7,0,4.88-2.19,4.88-4.88c0-1.09-0.36-2.1-0.97-2.91
		c1.34-0.66,2.27-2.05,2.27-3.65c0-2.25-1.82-4.07-4.07-4.07c-0.36,0-0.7,0.05-1.03,0.13c0-0.04,0-0.09,0-0.13
		c0-2.7-2.19-4.88-4.88-4.88c-2.7,0-4.88,2.19-4.88,4.88c0,0.04,0,0.08,0,0.12c-0.35-0.08-0.71-0.12-1.09-0.12
		C1852.4,214.9,1850.22,217.09,1850.22,219.78z"/>
	<circle class="st7" cx="1860.63" cy="220.65" r="3.47"/>
	<path class="st2" d="M1867.63,231.9c-2.94,0.55-8.29,3.52-6.19,11.02C1868.82,240.85,1868.64,234.71,1867.63,231.9z"/>
	<path class="st2" d="M1854.87,235.69c2.32-0.1,6.9,1.22,6.61,7.27C1855.52,242.68,1854.59,238,1854.87,235.69z"/>
</g>
<g>
	<path class="st8" d="M393.65,286.58l4,9"/>
	<path class="st8" d="M417.65,286.58l-4,9"/>
	<path class="st8" d="M405.65,294.83v-11.25"/>
</g>
<g>
	<path class="st8" d="M657.51,202.41l4,9"/>
	<path class="st8" d="M681.51,202.41l-4,9"/>
	<path class="st8" d="M669.51,210.66v-11.25"/>
</g>
<g>
	<path class="st8" d="M1317.2,157.1l4,9"/>
	<path class="st8" d="M1341.2,157.1l-4,9"/>
	<path class="st8" d="M1329.2,165.35V154.1"/>
</g>
<g>
	<path class="st8" d="M1860.53,347.27l4,9"/>
	<path class="st8" d="M1884.53,347.27l-4,9"/>
	<path class="st8" d="M1872.53,355.52v-11.25"/>
</g>
<g>
	<path class="st8" d="M47.71,327.79l4,9"/>
	<path class="st8" d="M71.71,327.79l-4,9"/>
	<path class="st8" d="M59.71,336.04v-11.25"/>
</g>
<g>
	<path class="st8" d="M754.72,353.27l4,9"/>
	<path class="st8" d="M778.72,353.27l-4,9"/>
	<path class="st8" d="M766.72,361.52v-11.25"/>
</g>
<g>
	<path class="st8" d="M1472.93,348.88l4,9"/>
	<path class="st8" d="M1496.93,348.88l-4,9"/>
	<path class="st8" d="M1484.93,357.13v-11.25"/>
</g>
<g>
	<path class="st8" d="M1121.2,236.33l4,9"/>
	<path class="st8" d="M1145.2,236.33l-4,9"/>
	<path class="st8" d="M1133.2,244.58v-11.25"/>
</g>
<g>
	<path class="st8" d="M1675.87,187.69l4,9"/>
	<path class="st8" d="M1699.87,187.69l-4,9"/>
	<path class="st8" d="M1687.87,195.94v-11.25"/>
</g>
<g>
	<path class="st8" d="M185.92,151.1l4,9"/>
	<path class="st8" d="M209.92,151.1l-4,9"/>
	<path class="st8" d="M197.92,159.35V148.1"/>
</g>
</svg>
