<?xml version="1.0" encoding="utf-8"?>
<!-- Generator: Adobe Illustrator 28.1.0, SVG Export Plug-In . SVG Version: 6.00 Build 0)  -->
<svg version="1.1" id="레이어_1" xmlns="http://www.w3.org/2000/svg" xmlns:xlink="http://www.w3.org/1999/xlink" x="0px"
	 y="0px" viewBox="0 0 770.87 321.13" style="enable-background:new 0 0 770.87 321.13;" xml:space="preserve">
<style type="text/css">
	.st0{fill:#FFFFFF;}
	.st1{fill:none;stroke:#FFFFFF;stroke-width:10.6087;}
	.st2{fill:#ED504F;}
	.st3{fill:none;stroke:#ED504F;stroke-width:10.6087;stroke-linecap:round;}
</style>
<g>
	<path class="st0" d="M388.99,1.55c-2.07-2.07-5.43-2.07-7.5,0l-33.76,33.76c-2.07,2.07-2.07,5.43,0,7.5c2.07,2.07,5.43,2.07,7.5,0
		l30.01-30.01l30.01,30.01c2.07,2.07,5.43,2.07,7.5,0c2.07-2.07,2.07-5.43,0-7.5L388.99,1.55z M390.54,61V5.3h-10.61V61H390.54z"/>
	<path class="st0" d="M388.99,319.58c-2.07,2.07-5.43,2.07-7.5,0l-33.76-33.76c-2.07-2.07-2.07-5.43,0-7.5
		c2.07-2.07,5.43-2.07,7.5,0l30.01,30.01l30.01-30.01c2.07-2.07,5.43-2.07,7.5,0c2.07,2.07,2.07,5.43,0,7.5L388.99,319.58z
		 M390.54,260.13v55.7h-10.61v-55.7H390.54z"/>
	<path class="st1" d="M385.24,86.3L385.24,86.3c23.44,0,42.43,19,42.43,42.43v63.65c0,23.44-19,42.43-42.43,42.43l0,0
		c-23.44,0-42.43-19-42.43-42.43v-63.65C342.81,105.3,361.8,86.3,385.24,86.3z"/>
	<line class="st1" x1="385.24" y1="81" x2="385.24" y2="139.35"/>
	<path class="st2" d="M385.24,118.13L385.24,118.13c5.86,0,10.61,4.75,10.61,10.61v21.22c0,5.86-4.75,10.61-10.61,10.61l0,0
		c-5.86,0-10.61-4.75-10.61-10.61v-21.22C374.63,122.88,379.38,118.13,385.24,118.13z"/>
	<path class="st3" d="M31.37,136.3L7.5,160.17l23.87,23.87"/>
	<path class="st3" d="M68.5,136.3l-23.87,23.87l23.87,23.87"/>
	<path class="st3" d="M105.63,136.3l-23.87,23.87l23.87,23.87"/>
	<path class="st3" d="M739.5,136.3l23.87,23.87l-23.87,23.87"/>
	<path class="st3" d="M702.37,136.3l23.87,23.87l-23.87,23.87"/>
	<path class="st3" d="M665.24,136.3l23.87,23.87l-23.87,23.87"/>
</g>
</svg>
