<?xml version="1.0" encoding="utf-8"?>
<!-- Generator: Adobe Illustrator 28.1.0, SVG Export Plug-In . SVG Version: 6.00 Build 0)  -->
<svg version="1.1" id="레이어_1" xmlns="http://www.w3.org/2000/svg" xmlns:xlink="http://www.w3.org/1999/xlink" x="0px"
	 y="0px" viewBox="0 0 1000 200" style="enable-background:new 0 0 1000 200;" xml:space="preserve">
<style type="text/css">
	.st0{fill:#DF4F4D;}
	.st1{fill:#FFFFFF;}
</style>
<g>
	<g>
		<g>
			<circle class="st0" cx="100" cy="100" r="82.22"/>
			<path class="st1" d="M100,0C44.86,0,0,44.86,0,100s44.86,100,100,100s100-44.86,100-100S155.14,0,100,0z M100,182.22
				c-45.34,0-82.22-36.88-82.22-82.22S54.66,17.78,100,17.78s82.22,36.88,82.22,82.22S145.34,182.22,100,182.22z"/>
		</g>
		<g>
			<path class="st1" d="M108.15,121.53H89.3v-7.84c0-7.19,1.12-11.57,6.35-14.65c4.11-2.43,7.47-4.39,9.43-6.16
				c2.99-2.71,3.73-4.76,3.73-7.93c0-4.29-3.45-7-7.65-7c-4.29,0-8.12,2.15-9.24,5.97c-1.31,4.48-5.23,7-10.36,6.63
				c-4.29-0.28-8.12-3.17-7.93-8.96c0.37-11.39,12.6-20.16,27.53-20.16c15.49,0,26.69,7.56,26.69,23.52c0,6.25-1.4,10.73-4.76,14.65
				c-2.8,3.27-7.28,6.53-11.85,9.52c-2.61,1.77-3.08,3.64-3.08,6.07V121.53z M88.74,135.99c0-5.79,3.73-9.43,9.99-9.43
				s9.99,3.73,9.99,9.43c0,5.69-3.73,9.43-9.99,9.43S88.74,141.78,88.74,135.99z"/>
		</g>
	</g>
	<g>
		<g>
			<circle class="st0" cx="300" cy="100" r="82.22"/>
			<path class="st1" d="M300,0c-55.14,0-100,44.86-100,100s44.86,100,100,100s100-44.86,100-100S355.14,0,300,0z M300,182.22
				c-45.34,0-82.22-36.88-82.22-82.22S254.66,17.78,300,17.78s82.22,36.88,82.22,82.22S345.34,182.22,300,182.22z"/>
		</g>
		<g>
			<path class="st1" d="M302.62,119.06l-17.72,6.45l-2.68-7.37c-2.46-6.75-2.91-11.26,0.95-15.94c3.03-3.68,5.52-6.68,6.75-9.01
				c1.88-3.56,1.88-5.75,0.79-8.73c-1.47-4.03-5.64-5.4-9.59-3.96c-4.03,1.47-6.9,4.79-6.64,8.77c0.3,4.66-2.52,8.37-7.47,9.77
				c-4.13,1.21-8.72-0.2-10.52-5.71c-3.54-10.83,4.95-23.25,18.98-28.36c14.56-5.3,27.67-2.03,33.13,12.97
				c2.14,5.88,2.36,10.56,0.54,15.4c-1.51,4.03-4.61,8.63-7.88,13c-1.85,2.56-1.65,4.47-0.82,6.75L302.62,119.06z M289.33,139.29
				c-1.98-5.44,0.28-10.14,6.16-12.27s10.66,0.09,12.61,5.44c1.95,5.35-0.28,10.14-6.16,12.27
				C296.06,146.87,291.31,144.73,289.33,139.29z"/>
		</g>
	</g>
	<g>
		<g>
			<circle class="st0" cx="500" cy="100" r="82.22"/>
			<path class="st1" d="M500,0c-55.14,0-100,44.86-100,100s44.86,100,100,100s100-44.86,100-100S555.14,0,500,0z M500,182.22
				c-45.34,0-82.22-36.88-82.22-82.22S454.66,17.78,500,17.78s82.22,36.88,82.22,82.22S545.34,182.22,500,182.22z"/>
		</g>
		<g>
			<path class="st1" d="M508.15,121.53H489.3v-7.84c0-7.19,1.12-11.57,6.35-14.65c4.11-2.43,7.47-4.39,9.43-6.16
				c2.99-2.71,3.73-4.76,3.73-7.93c0-4.29-3.45-7-7.65-7c-4.29,0-8.12,2.15-9.24,5.97c-1.31,4.48-5.23,7-10.36,6.63
				c-4.29-0.28-8.12-3.17-7.93-8.96c0.37-11.39,12.6-20.16,27.53-20.16c15.49,0,26.69,7.56,26.69,23.52c0,6.25-1.4,10.73-4.76,14.65
				c-2.8,3.27-7.28,6.53-11.85,9.52c-2.61,1.77-3.08,3.64-3.08,6.07V121.53z M488.74,135.99c0-5.79,3.73-9.43,9.99-9.43
				c6.25,0,9.99,3.73,9.99,9.43c0,5.69-3.73,9.43-9.99,9.43C492.47,145.42,488.74,141.78,488.74,135.99z"/>
		</g>
	</g>
	<g>
		<g>
			<circle class="st0" cx="700" cy="100" r="82.22"/>
			<path class="st1" d="M700,0c-55.14,0-100,44.86-100,100s44.86,100,100,100s100-44.86,100-100S755.14,0,700,0z M700,182.22
				c-45.34,0-82.22-36.88-82.22-82.22S654.66,17.78,700,17.78s82.22,36.88,82.22,82.22S745.34,182.22,700,182.22z"/>
		</g>
		<g>
			<path class="st1" d="M712.51,125.74l-17.72-6.45l2.68-7.37c2.46-6.75,5.01-10.49,10.98-11.6c4.69-0.88,8.52-1.57,10.96-2.56
				c3.73-1.52,5.14-3.2,6.22-6.18c1.47-4.03-0.85-7.76-4.8-9.2c-4.03-1.47-8.36-0.76-10.73,2.45c-2.76,3.76-7.31,4.79-12,2.68
				c-3.94-1.73-6.54-5.76-4.39-11.13c4.25-10.57,18.74-14.63,32.77-9.53c14.56,5.3,22.5,16.23,17.04,31.23
				c-2.14,5.88-4.99,9.61-9.48,12.14c-3.75,2.11-9.08,3.65-14.39,4.89c-3.06,0.77-4.14,2.37-4.97,4.65L712.51,125.74z
				 M689.31,132.69c1.98-5.44,6.73-7.58,12.61-5.44c5.88,2.14,8.11,6.92,6.16,12.27c-1.95,5.35-6.73,7.58-12.61,5.44
				S687.34,138.13,689.31,132.69z"/>
		</g>
	</g>
	<g>
		<g>
			<circle class="st0" cx="900" cy="100" r="82.22"/>
			<path class="st1" d="M900,0c-55.14,0-100,44.86-100,100s44.86,100,100,100s100-44.86,100-100S955.14,0,900,0z M900,182.22
				c-45.34,0-82.22-36.88-82.22-82.22S854.66,17.78,900,17.78s82.22,36.88,82.22,82.22S945.34,182.22,900,182.22z"/>
		</g>
		<g>
			<path class="st1" d="M908.15,121.53H889.3v-7.84c0-7.19,1.12-11.57,6.35-14.65c4.11-2.43,7.47-4.39,9.43-6.16
				c2.99-2.71,3.73-4.76,3.73-7.93c0-4.29-3.45-7-7.65-7c-4.29,0-8.12,2.15-9.24,5.97c-1.31,4.48-5.23,7-10.36,6.63
				c-4.29-0.28-8.12-3.17-7.93-8.96c0.37-11.39,12.6-20.16,27.53-20.16c15.49,0,26.69,7.56,26.69,23.52c0,6.25-1.4,10.73-4.76,14.65
				c-2.8,3.27-7.28,6.53-11.85,9.52c-2.61,1.77-3.08,3.64-3.08,6.07V121.53z M888.74,135.99c0-5.79,3.73-9.43,9.99-9.43
				c6.25,0,9.99,3.73,9.99,9.43c0,5.69-3.73,9.43-9.99,9.43C892.47,145.42,888.74,141.78,888.74,135.99z"/>
		</g>
	</g>
</g>
</svg>
