<?xml version="1.0" encoding="utf-8"?>
<!-- Generator: Adobe Illustrator 28.1.0, SVG Export Plug-In . SVG Version: 6.00 Build 0)  -->
<svg version="1.1" id="레이어_1" xmlns="http://www.w3.org/2000/svg" xmlns:xlink="http://www.w3.org/1999/xlink" x="0px"
	 y="0px" viewBox="0 0 1000 200" style="enable-background:new 0 0 1000 200;" xml:space="preserve">
<style type="text/css">
	.st0{display:none;fill:#FCE8E7;}
	.st1{display:none;fill:#F6B9B9;}
	.st2{fill:#777FB5;}
	.st3{fill:#FFFFFF;}
	.st4{fill:#E6E8ED;}
	.st5{fill:#39A47C;}
	.st6{fill:#040000;fill-opacity:0.15;}
	.st7{fill:#DF4F4D;}
</style>
<rect x="-0.25" y="0.25" class="st0" width="200" height="200"/>
<rect x="200" y="0.25" class="st1" width="200" height="200"/>
<rect x="400" y="0.25" class="st0" width="200" height="200"/>
<rect x="600" y="0.25" class="st1" width="200" height="200"/>
<rect x="800" y="0.25" class="st0" width="200" height="200"/>
<image style="overflow:visible;" width="256" height="144" id="레이어_1_xA0_이미지_00000106110254074943934040000017955145112521036982_" xlink:href="4922A9E1.png"  transform="matrix(1 0 0 1 -83.6701 -191.6185)">
</image>
<image style="overflow:visible;" width="256" height="144" id="레이어_6_xA0_이미지_00000028308274634811013640000004427184846099975350_" xlink:href="4922A9E3.png"  transform="matrix(1 0 0 1 172.3298 -191.6185)">
</image>
<image style="overflow:visible;" width="256" height="144" id="레이어_11_xA0_이미지_00000031904115051760484700000018032780008280024454_" xlink:href="4922A9E6.png"  transform="matrix(1 0 0 1 428.3299 -191.6185)">
</image>
<image style="overflow:visible;" width="256" height="144" id="레이어_16_xA0_이미지_00000173148479772405201780000016180581736268369557_" xlink:href="4922A9E7.png"  transform="matrix(1 0 0 1 684.3298 -191.6185)">
</image>
<image style="overflow:visible;" width="256" height="144" id="레이어_21_xA0_이미지_00000049191550019893986560000014412926060799799479_" xlink:href="4922A9E2.png"  transform="matrix(1 0 0 1 940.3298 -191.6185)">
</image>
<circle class="st2" cx="42.66" cy="-100.25" r="22.07"/>
<circle class="st2" cx="811.38" cy="-150.69" r="22.07"/>
<ellipse class="st2" cx="1067" cy="-124.69" rx="20.97" ry="23.18"/>
<ellipse class="st2" cx="554.63" cy="-135.36" rx="20.53" ry="24.28"/>
<ellipse class="st2" cx="298.85" cy="-101.69" rx="24.5" ry="20.09"/>
<text transform="matrix(1 0 0 1 208.8784 -133.0327)" style="fill:#070001; font-family:'AdobeMyungjoStd-Medium-KSCpc-EUC-H'; font-size:30px;">111% / 91%</text>
<text transform="matrix(1 0 0 1 466.3602 -172.7666)" style="fill:#070001; font-family:'AdobeMyungjoStd-Medium-KSCpc-EUC-H'; font-size:30px;">93% / 110%</text>
<text transform="matrix(1 0 0 1 769.518 -180.8519)" style="fill:#070001; font-family:'AdobeMyungjoStd-Medium-KSCpc-EUC-H'; font-size:30px;">100%</text>
<text transform="matrix(1 0 0 1 978.3597 -156.9423)" style="fill:#070001; font-family:'AdobeMyungjoStd-Medium-KSCpc-EUC-H'; font-size:30px;">95% / 105%</text>
<g>
	<g>
		<ellipse class="st3" cx="93.55" cy="69.66" rx="31.55" ry="31.55"/>
		<path class="st3" d="M41.15,90.24L0,178.85l60.36,21.4L75.17,96.27L41.15,90.24z"/>
		<path class="st4" d="M111.66,89.14l-36.49,7.13L60.36,200.25l63.37-20.85L111.66,89.14z"/>
		<path class="st3" d="M150.07,96.82l-38.41-7.96l12.07,90.54L200,199.7L150.07,96.82z"/>
		<path class="st5" d="M73.8,107.25l-26.61-4.39l-30.45,66.67l46.09,14.27l58.71-20.58l48.83,12.89l-31.28-70.23l-25.79-4.66
			L73.8,107.25z"/>
		<g>
			<path class="st6" d="M111.66,89.14l-36.49,7.13L60.36,200.25l63.37-20.85L111.66,89.14z"/>
		</g>
		<path class="st7" d="M88.73,146.41c-35.5-51.69-42.09-57-42.09-76c0-26.02,21-47.12,46.91-47.12s46.91,21.1,46.91,47.12
			c0,19-6.59,24.3-42.09,76C96.04,149.79,91.06,149.79,88.73,146.41z M93.55,90.05c10.8,0,19.55-8.79,19.55-19.63
			c0-10.84-8.75-19.63-19.55-19.63s-19.55,8.79-19.55,19.63C74.01,81.26,82.76,90.05,93.55,90.05z"/>
	</g>
	<g>
		<path class="st3" d="M241.15,90.24L200,178.85l60.36,21.4l14.81-103.98L241.15,90.24z"/>
		<path class="st4" d="M311.66,89.14l-36.49,7.13l-14.81,103.98l63.37-20.85L311.66,89.14z"/>
		<path class="st3" d="M350.07,96.82l-38.41-7.96l12.07,90.54L400,199.7L350.07,96.82z"/>
		<path class="st5" d="M273.8,107.25l-26.61-4.39l-30.45,66.67l46.09,14.27l58.71-20.58l48.83,12.89l-31.28-70.23l-25.79-4.66
			L273.8,107.25z"/>
		<g>
			<path class="st6" d="M311.66,89.14l-36.49,7.13l-14.81,103.98l63.37-20.85L311.66,89.14z"/>
		</g>
		<g>
			<ellipse class="st3" cx="293.55" cy="68.14" rx="35.02" ry="28.71"/>
			<path class="st7" d="M288.2,137.98c-39.41-47.04-46.72-51.87-46.72-69.16c0-23.68,23.31-42.88,52.07-42.88
				c28.76,0,52.07,19.2,52.07,42.88c0,17.29-7.31,22.12-46.72,69.16C296.32,141.06,290.79,141.06,288.2,137.98z M293.55,86.69
				c11.98,0,21.7-8,21.7-17.87c0-9.87-9.71-17.87-21.7-17.87c-11.98,0-21.7,8-21.7,17.87C271.86,78.69,281.57,86.69,293.55,86.69z"
				/>
		</g>
	</g>
	<g>
		<path class="st3" d="M441.15,90.24L400,178.85l60.36,21.4l14.81-103.98L441.15,90.24z"/>
		<path class="st4" d="M511.66,89.14l-36.49,7.13l-14.81,103.98l63.37-20.85L511.66,89.14z"/>
		<path class="st3" d="M550.07,96.82l-38.41-7.96l12.07,90.54L600,199.7L550.07,96.82z"/>
		<path class="st5" d="M473.8,107.25l-26.61-4.39l-30.45,66.67l46.09,14.27l58.71-20.58l48.83,12.89l-31.28-70.23l-25.79-4.66
			L473.8,107.25z"/>
		<g>
			<path class="st6" d="M511.66,89.14l-36.49,7.13l-14.81,103.98l63.37-20.85L511.66,89.14z"/>
		</g>
		<g>
			<ellipse class="st3" cx="493.55" cy="62.01" rx="29.34" ry="34.71"/>
			<path class="st7" d="M489.07,146.44c-33.02-56.86-39.15-62.7-39.15-83.6c0-28.63,19.53-51.83,43.63-51.83
				s43.63,23.21,43.63,51.83c0,20.9-6.13,26.73-39.15,83.6C495.87,150.16,491.24,150.16,489.07,146.44z M493.55,84.44
				c10.04,0,18.18-9.67,18.18-21.6c0-11.93-8.14-21.6-18.18-21.6s-18.18,9.67-18.18,21.6C475.37,74.77,483.51,84.44,493.55,84.44z"
				/>
		</g>
	</g>
	<g>
		<path class="st3" d="M641.15,90.24L600,178.85l60.36,21.4l14.81-103.98L641.15,90.24z"/>
		<path class="st4" d="M711.66,89.14l-36.49,7.13l-14.81,103.98l63.37-20.85L711.66,89.14z"/>
		<path class="st3" d="M750.07,96.82l-38.41-7.96l12.07,90.54L800,199.7L750.07,96.82z"/>
		<path class="st5" d="M673.8,107.25l-26.61-4.39l-30.45,66.67l46.09,14.27l58.71-20.58l48.83,12.89l-31.28-70.23l-25.79-4.66
			L673.8,107.25z"/>
		<g>
			<path class="st6" d="M711.66,89.14l-36.49,7.13l-14.81,103.98l63.37-20.85L711.66,89.14z"/>
		</g>
		<g>
			<ellipse class="st3" cx="693.55" cy="47.38" rx="31.55" ry="31.55"/>
			<path class="st7" d="M688.73,124.13c-35.5-51.69-42.09-57-42.09-76c0-26.02,21-47.12,46.91-47.12c25.91,0,46.91,21.1,46.91,47.12
				c0,19-6.59,24.3-42.09,76C696.04,127.51,691.06,127.51,688.73,124.13z M693.55,67.77c10.8,0,19.55-8.79,19.55-19.63
				c0-10.84-8.75-19.63-19.55-19.63c-10.8,0-19.55,8.79-19.55,19.63C674.01,58.98,682.76,67.77,693.55,67.77z"/>
		</g>
	</g>
	<g>
		<path class="st3" d="M841.15,90.24L800,178.85l60.36,21.4l14.81-103.98L841.15,90.24z"/>
		<path class="st4" d="M911.66,89.14l-36.49,7.13l-14.81,103.98l63.37-20.85L911.66,89.14z"/>
		<path class="st3" d="M950.07,96.82l-38.41-7.96l12.07,90.54l76.27,20.3L950.07,96.82z"/>
		<path class="st5" d="M873.8,107.25l-26.61-4.39l-30.45,66.67l46.09,14.27l58.71-20.58l48.83,12.89l-31.28-70.23l-25.79-4.66
			L873.8,107.25z"/>
		<g>
			<path class="st6" d="M911.66,89.14l-36.49,7.13l-14.81,103.98l63.37-20.85L911.66,89.14z"/>
		</g>
		<g>
			<ellipse class="st3" cx="893.55" cy="61.84" rx="29.97" ry="33.13"/>
			<path class="st7" d="M888.97,142.43c-33.73-54.28-39.99-59.85-39.99-79.8c0-27.32,19.95-49.48,44.57-49.48
				s44.57,22.15,44.57,49.48c0,19.95-6.26,25.52-39.99,79.8C895.92,145.98,891.19,145.97,888.97,142.43z M893.55,83.24
				c10.26,0,18.57-9.23,18.57-20.61c0-11.39-8.31-20.61-18.57-20.61c-10.26,0-18.57,9.23-18.57,20.61
				C874.98,74.01,883.3,83.24,893.55,83.24z"/>
		</g>
	</g>
</g>
</svg>
