<?xml version="1.0" encoding="utf-8"?>
<!-- Generator: Adobe Illustrator 28.1.0, SVG Export Plug-In . SVG Version: 6.00 Build 0)  -->
<svg version="1.1" id="레이어_1" xmlns="http://www.w3.org/2000/svg" xmlns:xlink="http://www.w3.org/1999/xlink" x="0px"
	 y="0px" viewBox="0 0 1321 624.22" style="enable-background:new 0 0 1321 624.22;" xml:space="preserve">
<style type="text/css">
	.st0{fill:#C9B07E;}
	.st1{fill:#A1C045;}
	.st2{fill:#E7CFA3;}
</style>
<path class="st0" d="M1320.94,338.28c0.06-1.9,0.08-3.76-0.04-5.54c-1.74-29.18-25.55-41.59-52.99-47.62
	c-5.67-1.25-11.52-2.22-17.35-3.02c-19.53-2.67-38.99-3.3-52.18-5.37c3.08-8,4.49-15.22,4.54-22.51c0.14-2.08,0.19-4.16,0.11-6.26
	c0.05-1.38,0.05-2.76,0-4.14c0.05-1.38,0.05-2.76,0-4.14c0.05-1.38,0.05-2.76,0-4.14c0.05-1.38,0.05-2.76,0-4.14
	c0.05-1.38,0.05-2.76,0-4.14c0.05-1.38,0.05-2.76,0-4.14c0.05-1.38,0.05-2.76,0-4.14c0.06-2.08,0.03-4.16-0.11-6.26
	c0.05-9.35-2.1-18.84-5.73-30.29c0-0.19,0-0.38,0-0.57c0-1.41,0-2.79,0-4.14c0-1.41,0-2.79,0-4.14c0-1.41,0-2.79,0-4.14
	c0-1.41,0-2.79,0-4.14c0.66-79.33-36.71-30.72-69.07-49.1C898.37,42.4,904.19,22.94,783.52,101.76
	c-87.65,47.45-49.49-55.5-139.14-92.34c-69.88-34.48-91.83,36.85-116.79,37.21c-39.59-28.53-13.94-24.34-53.2,2.73
	c-14.91-0.79-27.54-21.7-37.01-14.67c-34.65,21.38-99.26,118.98-160.23,123.9c-149.26,10.3-59.54-48.78-209.23,31.92
	C23.93,208.85,16.04,219.53,16.69,234c-0.14,1.54-0.16,3.13-0.06,4.76c-0.1,1.35-0.08,2.73,0,4.14c-0.1,1.35-0.08,2.73,0,4.14
	c-0.1,1.35-0.08,2.73,0,4.14c-0.1,1.35-0.08,2.73,0,4.14c-0.1,1.35-0.08,2.73,0,4.14c-0.1,1.35-0.08,2.73,0,4.14
	c-0.1,1.35-0.08,2.73,0,4.14c-0.11,1.59-0.08,3.21,0.05,4.87c-0.22,5.43,1.1,11.32,2.38,18.34c-1.4,6.7-3.57,14.1-6.85,22.29
	c0.02,1.05,0.19,2.05,0.43,3.05c-0.14,0.37-0.27,0.73-0.43,1.1c0.02,1.05,0.19,2.05,0.43,3.05c-0.14,0.36-0.27,0.73-0.43,1.1
	c0.02,1.05,0.19,2.05,0.43,3.05c-0.14,0.36-0.27,0.73-0.43,1.1c0.02,1.05,0.19,2.05,0.43,3.05c-0.14,0.37-0.27,0.73-0.43,1.1
	c0.02,1.05,0.19,2.05,0.43,3.05c-0.14,0.36-0.27,0.73-0.43,1.1c0.02,1.05,0.19,2.05,0.43,3.05c-0.14,0.36-0.27,0.73-0.43,1.1
	c0.02,1.05,0.19,2.05,0.43,3.05c-0.14,0.37-0.27,0.73-0.43,1.1c0.02,1.05,0.19,2.05,0.43,3.05c-0.14,0.37-0.27,0.73-0.43,1.1
	c0.02,1.05,0.19,2.05,0.43,3.05c-0.14,0.36-0.27,0.73-0.43,1.1c0.02,1.05,0.19,2.05,0.43,3.05c-0.14,0.36-0.27,0.73-0.43,1.1
	c0.03,1.46,0.29,2.84,0.7,4.19c0.7,2.24,1.87,4.33,3.37,6.3c-12.47,8.94-16.87,19.92-16.2,30.26c-0.1,1.38-0.1,2.76,0,4.14
	c-0.1,1.38-0.1,2.76,0,4.14c-0.1,1.38-0.1,2.76,0,4.14c-0.1,1.38-0.1,2.76,0,4.14c-0.1,1.38-0.1,2.76,0,4.14
	c-0.1,1.38-0.1,2.76,0,4.14c-0.1,1.38-0.1,2.76,0,4.14c-0.1,1.38-0.1,2.76,0,4.14c-0.1,1.38-0.1,2.76,0,4.14
	c-1.6,22.94,23.06,44.43,42.25,36.75c54.76-15.37,77.23,8.32,102.2,10.92c-1.86,3.1-2.76,6.78-2.32,11.24
	c-0.13,1.3-0.14,2.67,0,4.14c-0.13,1.3-0.14,2.67,0,4.14c-0.13,1.3-0.14,2.67,0,4.14c-0.13,1.3-0.14,2.67,0,4.14
	c-0.13,1.3-0.14,2.67,0,4.14c-0.13,1.3-0.14,2.67,0,4.14c-0.13,1.3-0.14,2.67,0,4.14c-0.13,1.3-0.14,2.67,0,4.14
	c-0.13,1.3-0.14,2.67,0,4.14c-0.24,2.33-0.06,4.91,0.6,7.76c18.5,3.19,47.84,38.07,56.75,35.23
	c60.73-19.81,77.57-67.63,154.56-38.28c29.94-0.17,49.47-12.38,85.35-6.76c4.13-0.57,8.15-1.51,12.02-2.67
	c-15.17,10.03-28.68,22.21-29.79,41.21c0.13,0.16,0.25,0.3,0.38,0.46c-0.17,1.19-0.32,2.43-0.38,3.68c0.13,0.16,0.25,0.3,0.38,0.46
	c-0.17,1.19-0.32,2.43-0.38,3.68c0.13,0.16,0.25,0.3,0.38,0.46c-0.17,1.19-0.32,2.43-0.38,3.68c0.13,0.16,0.25,0.3,0.38,0.46
	c-0.17,1.19-0.32,2.43-0.38,3.68c0.13,0.16,0.25,0.3,0.38,0.46c-0.17,1.19-0.32,2.43-0.38,3.68c0.13,0.16,0.25,0.3,0.38,0.46
	c-0.17,1.19-0.32,2.43-0.38,3.68c0.13,0.16,0.25,0.3,0.38,0.46c-0.17,1.19-0.32,2.43-0.38,3.68c0.13,0.16,0.25,0.3,0.38,0.46
	c-0.17,1.19-0.32,2.43-0.38,3.68c0.13,0.16,0.25,0.3,0.38,0.46c-0.17,1.19-0.32,2.43-0.38,3.68c0.13,0.16,0.25,0.3,0.38,0.46
	c-0.17,1.19-0.32,2.43-0.38,3.68c50.81,65.74,195.92-76.84,276.6-71.9c148.11,0.76,78.34,12.19,192.88-48.31
	c103.9-34.94,161.35,16.94,218.24,27.24c88.6,16.35,184.54-49.9,210.03-121.44c1.23-6.14,1.67-11.7,1.5-16.78
	c0.04-1.41,0.04-2.79,0-4.14c0.04-1.41,0.04-2.79,0-4.14c0.04-1.41,0.04-2.79,0-4.14c0.04-1.41,0.04-2.79,0-4.14
	c0.04-1.41,0.04-2.79,0-4.14c0.04-1.41,0.04-2.79,0-4.14c0.04-1.41,0.04-2.79,0-4.14c0.04-1.41,0.04-2.79,0-4.14
	c0.04-1.41,0.04-2.79,0-4.14V338.28z"/>
<path class="st1" d="M1319.44,350.92c-25.49,71.55-121.43,137.8-210.03,121.44c-56.89-10.3-114.34-62.18-218.24-27.24
	c-114.54,60.5-44.77,49.07-192.88,48.31c-80.68-4.94-225.79,137.64-276.6,71.9c2.43-41.86,65.16-50.64,72.87-76.18
	c18.52-53.91-12.04-9.73-55.09-3.73c-35.88-5.62-55.41,6.59-85.35,6.76c-76.99-29.35-93.83,18.46-154.56,38.27
	c-8.91,2.84-38.24-32.04-56.75-35.23c-9.31-39.51,74.88-23.81,57.95-66.17c-7.58-13.03-13.48-3.41-30.03,3.79
	c-39.99,22.97-55.92-25.13-128.4-4.79c-30.68,12.29-75.36-50.02-4.27-73.57c7.54-7.54-2.83-13.83-12.58-21.75
	c-5.45-4.41-10.72-9.35-12.56-15.29c-0.41-1.35-0.67-2.73-0.7-4.19c3.51-8.78,5.77-16.64,7.15-23.72c0.3-1.51,0.56-2.98,0.76-4.43
	c8.04-53.01-33.07-60.85,47.8-94.55c149.69-80.71,59.97-21.62,209.23-31.92c60.97-4.92,125.58-102.52,160.23-123.9
	c9.46-7.03,22.09,13.87,37,14.67c39.26-27.07,13.61-31.26,53.2-2.73c24.97-0.37,46.91-71.69,116.79-37.21
	c89.65,36.85,51.49,139.8,139.14,92.35c120.67-78.82,114.84-59.36,344.59,14.42c34.28,19.48,74.18-36.24,68.54,64.58
	c9.8,30.26,9.85,46.67-12.64,81.38c-3.8,5.49-2.54,8.97,2.24,11.33c10.35,5.11,37.24,4.89,64.3,8.59
	c5.83,0.79,11.68,1.76,17.35,3.02c27.44,6.03,51.25,18.45,52.99,47.62C1321.22,338.18,1320.78,344.22,1319.44,350.92z"/>
<path class="st2" d="M1320.94,338.49c0.04,1.29,0.04,2.59,0,3.94c0,0.59,0.03,1.19,0.03,1.79c-0.16,0.02-0.34,0.03-0.49,0.05
	c-25.53,2.79-51.08,3.87-76.59,3.87c-46.39,0-92.57-3.59-137.9-7.1c-25.42-1.97-51.72-4-77.39-5.35
	c-104.5-5.43-225.9-10.57-344.21-2.6l-3.65,0.24c-123.72,8.08-248.04,2.51-363.96-4.7c-18.72-1.17-37.61-2.62-55.86-4.02
	c-82.62-6.33-161.17-12.35-239.5,4.68c-3.86-3.52-7.15-7.4-8.53-11.84c-0.11-0.35-0.21-0.7-0.29-1.05
	c-0.03,0.08-0.06,0.16-0.11,0.24c0.03-0.1,0.06-0.17,0.1-0.25c0.02-0.02,0.02-0.05,0.03-0.06c-0.1-0.44-0.19-0.89-0.25-1.35
	c0-0.03-0.02-0.08-0.02-0.11c-0.03-0.21-0.03-0.44-0.06-0.67c0-0.16-0.03-0.3-0.05-0.46c-0.02-0.02-0.02-0.05,0-0.06
	c-0.03-0.14-0.05-0.27-0.05-0.41c0.41-1.02,0.81-2.03,1.19-3.03c0.02-0.06,0.03-0.13,0.06-0.19c0.4-1.06,0.78-2.11,1.13-3.14
	c0.38-1.05,0.73-2.1,1.06-3.13c0.3-0.92,0.59-1.84,0.84-2.73c0.03-0.06,0.05-0.11,0.06-0.17c0.03-0.08,0.05-0.17,0.08-0.27
	c0-0.03,0.02-0.05,0.02-0.08c0.21-0.71,0.41-1.43,0.6-2.11c0.03-0.11,0.06-0.21,0.1-0.32c0-0.05,0-0.08,0.03-0.13
	c0.05-0.19,0.11-0.38,0.14-0.57c0.19-0.67,0.37-1.33,0.52-2c0.08-0.3,0.16-0.62,0.22-0.92c0-0.02,0.02-0.05,0.02-0.06
	c0.13-0.52,0.25-1.05,0.38-1.57c0-0.03,0.02-0.06,0.02-0.1c0.03-0.16,0.08-0.33,0.11-0.49c0.03-0.17,0.06-0.35,0.11-0.52
	c0.05-0.25,0.11-0.51,0.16-0.76c-0.16-0.84-0.3-1.62-0.44-2.41c0.32-0.06,0.64-0.13,0.95-0.19c82.33-16.54,164.55-10.24,244.45-4.11
	c18.1,1.38,36.83,2.83,55.27,3.97c114.59,7.13,237.37,12.64,358.8,4.71l3.62-0.24c120.49-8.13,243.32-2.94,349,2.57
	c26.18,1.36,52.73,3.43,78.41,5.41c65.94,5.11,133.81,10.37,199.91,4.06c0,0,0.03,0.03,0.03,0.05h0.01
	c0.26,0.27,0.51,0.54,0.75,0.81h0.02c0.09,0.11,0.2,0.22,0.28,0.33c0.11,0.11,0.21,0.22,0.3,0.32c0.05,0.06,0.11,0.13,0.15,0.19
	h0.01c0.26,0.29,0.49,0.57,0.72,0.86c0.08,0.11,0.17,0.22,0.27,0.33c0.14,0.17,0.28,0.35,0.41,0.54h0.02c0.3,0.4,0.61,0.81,0.9,1.22
	c0.16,0.19,0.29,0.38,0.41,0.59h0.02c0.17,0.25,0.36,0.52,0.56,0.81c0.01,0.03,0.04,0.08,0.06,0.13h0.01c0,0,0.1,0.13,0.13,0.21
	c0.18,0.24,0.33,0.49,0.48,0.75c0.17,0.27,0.32,0.52,0.47,0.79c0.05,0.06,0.08,0.13,0.1,0.19h0.02c0.08,0.14,0.17,0.29,0.23,0.43
	c0.08,0.11,0.15,0.24,0.19,0.35c0.05,0.06,0.1,0.14,0.12,0.21h0.01c0.19,0.33,0.37,0.67,0.53,1.02h0.01c0.1,0.19,0.19,0.4,0.29,0.59
	c0.08,0.16,0.14,0.3,0.2,0.46h0.02c0.16,0.35,0.32,0.7,0.48,1.05s0.3,0.71,0.42,1.08c0.12,0.22,0.2,0.45,0.27,0.67
	c0.07,0.14,0.12,0.29,0.16,0.43c0.16,0.38,0.29,0.76,0.42,1.16c0.03,0.08,0.06,0.16,0.08,0.24c0.09,0.29,0.19,0.57,0.27,0.87
	c0.11,0.33,0.22,0.67,0.31,1.02c0,0.05,0.02,0.1,0.04,0.16h0.01c0.05,0.22,0.11,0.44,0.16,0.68c0.08,0.24,0.14,0.48,0.19,0.71
	c0.03,0.13,0.06,0.25,0.1,0.38c0.04,0.21,0.09,0.41,0.12,0.62c0.1,0.36,0.18,0.75,0.24,1.11c0.06,0.24,0.1,0.48,0.14,0.73
	c0.04,0.22,0.08,0.44,0.1,0.67c0.16,0.84,0.27,1.7,0.36,2.59c0.02,0.16,0.05,0.3,0.07,0.46v0.08c0.03,0.25,0.05,0.52,0.06,0.79
	c0.05,0.45,0.08,0.89,0.11,1.35c0.03,0.55,0.05,1.11,0.05,1.68c0.02,0.3,0.02,0.6,0.02,0.9v0.83c0,0.59-0.02,1.21-0.04,1.81v0.52
	H1320.94z"/>
</svg>
