<?xml version="1.0" encoding="utf-8"?>
<!-- Generator: Adobe Illustrator 28.1.0, SVG Export Plug-In . SVG Version: 6.00 Build 0)  -->
<svg version="1.1" id="레이어_1" xmlns="http://www.w3.org/2000/svg" xmlns:xlink="http://www.w3.org/1999/xlink" x="0px"
	 y="0px" viewBox="0 0 1000 200" style="enable-background:new 0 0 1000 200;" xml:space="preserve">
<style type="text/css">
	.st0{opacity:0.3;fill:#070001;enable-background:new    ;}
	.st1{fill:#FFFFFF;}
	.st2{fill:#D34F4C;}
</style>
<g>
	<ellipse class="st0" cx="100" cy="190.46" rx="46.6" ry="9.54"/>
	<g>
		<circle class="st1" cx="100" cy="95.52" r="37.78"/>
		<path class="st2" d="M94.24,187.42c-42.52-61.9-50.41-68.25-50.41-90.99C43.83,65.27,68.99,40,100,40
			c31.03,0,56.17,25.25,56.17,56.43c0,22.75-7.89,29.1-50.41,91C102.99,191.47,97.03,191.47,94.24,187.42z M100,119.93
			c12.93,0,23.4-10.53,23.4-23.52S112.93,72.9,100,72.9S76.6,83.44,76.6,96.43C76.6,109.4,87.09,119.93,100,119.93z"/>
	</g>
</g>
<g>
	<ellipse class="st0" cx="300" cy="190.46" rx="41.94" ry="9.54"/>
	<g>
		<ellipse class="st1" cx="300" cy="87.3" rx="41.94" ry="34.38"/>
		<path class="st2" d="M293.61,170.92c-47.2-56.33-55.95-62.11-55.95-82.8c0-28.35,27.92-51.35,62.35-51.35
			c34.44,0,62.35,22.98,62.35,51.35c0,20.71-8.75,26.48-55.95,82.81C303.32,174.61,296.7,174.61,293.61,170.92z M300,109.51
			c14.35,0,25.98-9.58,25.98-21.4s-11.62-21.4-25.98-21.4s-25.98,9.6-25.98,21.41C274.02,99.92,285.67,109.51,300,109.51z"/>
	</g>
</g>
<g>
	<ellipse class="st0" cx="500" cy="190.46" rx="37.28" ry="9.54"/>
	<g>
		<ellipse class="st1" cx="500" cy="63.55" rx="35.14" ry="41.56"/>
		<path class="st2" d="M494.64,164.63c-39.54-68.09-46.88-75.07-46.88-100.09c0-34.27,23.39-62.07,52.24-62.07
			c28.86,0,52.24,27.78,52.24,62.07c0,25.03-7.33,32.01-46.88,100.1C502.78,169.09,497.23,169.09,494.64,164.63z M500,90.4
			c12.02,0,21.76-11.58,21.76-25.87S512.02,38.66,500,38.66c-12.02,0-21.76,11.6-21.76,25.88C478.24,78.82,487.99,90.4,500,90.4z"/>
	</g>
</g>
<g>
	<ellipse class="st0" cx="700" cy="190.46" rx="41.94" ry="9.54"/>
	<g>
		<circle class="st1" cx="700" cy="75.52" r="37.78"/>
		<path class="st2" d="M694.24,167.42c-42.52-61.9-50.41-68.25-50.41-90.99C643.83,45.27,668.99,20,700,20
			c31.03,0,56.17,25.25,56.17,56.43c0,22.75-7.89,29.1-50.41,91C702.99,171.47,697.03,171.47,694.24,167.42z M700,99.93
			c12.93,0,23.4-10.53,23.4-23.52S712.93,52.9,700,52.9s-23.4,10.54-23.4,23.53C676.6,89.4,687.09,99.93,700,99.93z"/>
	</g>
</g>
<g>
	<ellipse class="st0" cx="900" cy="190.46" rx="46.6" ry="9.54"/>
	<g>
		<ellipse class="st1" cx="900" cy="84.54" rx="35.89" ry="39.67"/>
		<path class="st2" d="M894.53,181.03c-40.4-64.99-47.89-71.66-47.89-95.54c0-32.72,23.9-59.25,53.36-59.25
			c29.48,0,53.36,26.52,53.36,59.25c0,23.89-7.49,30.56-47.89,95.55C902.84,185.28,897.18,185.28,894.53,181.03z M900,110.16
			c12.28,0,22.23-11.06,22.23-24.69S912.28,60.78,900,60.78s-22.23,11.07-22.23,24.71C877.77,99.11,887.73,110.16,900,110.16z"/>
	</g>
</g>
</svg>
