<?xml version="1.0" encoding="utf-8"?>
<!-- Generator: Adobe Illustrator 28.1.0, SVG Export Plug-In . SVG Version: 6.00 Build 0)  -->
<svg version="1.1" id="레이어_1" xmlns="http://www.w3.org/2000/svg" xmlns:xlink="http://www.w3.org/1999/xlink" x="0px"
	 y="0px" viewBox="0 0 215 215" style="enable-background:new 0 0 215 215;" xml:space="preserve">
<style type="text/css">
	.st0{fill:#F3F3F3;}
	.st1{fill-rule:evenodd;clip-rule:evenodd;fill:#FFFEFA;}
	.st2{fill:#EBECE7;}
	.st3{fill:#ECECEA;}
	.st4{fill:#DCDCD8;}
</style>
<g>
	<circle class="st0" cx="107.5" cy="107.5" r="107.5"/>
	<path class="st1" d="M15.39,52.04C5.62,68.24,0,87.21,0,107.5C0,166.87,48.13,215,107.5,215c21.41,0,41.35-6.26,58.11-17.04
		c9.77-16.19,15.39-35.17,15.39-55.46C181,83.13,132.87,35,73.5,35C52.09,35,32.14,41.26,15.39,52.04z"/>
	<circle class="st2" cx="96" cy="188" r="14"/>
	<circle class="st2" cx="44" cy="126" r="27"/>
	<circle class="st2" cx="162.5" cy="164.5" r="11.5"/>
	<circle class="st3" cx="112" cy="49" r="20"/>
	<circle class="st3" cx="140.5" cy="73.5" r="11.5"/>
	<circle class="st4" cx="150.5" cy="26.5" r="6.5"/>
	<circle class="st3" cx="73.5" cy="44.5" r="11.5"/>
	<circle class="st2" cx="117" cy="197" r="6"/>
	<circle class="st2" cx="10" cy="108" r="6"/>
	<circle class="st2" cx="47" cy="161" r="3"/>
	<circle class="st2" cx="162" cy="148" r="3"/>
	<circle class="st2" cx="195" cy="124" r="7"/>
	<circle class="st2" cx="138.5" cy="56.5" r="2.5"/>
	<circle class="st2" cx="23" cy="98" r="3"/>
</g>
</svg>
