<?xml version="1.0" encoding="utf-8"?>
<!-- Generator: Adobe Illustrator 28.1.0, SVG Export Plug-In . SVG Version: 6.00 Build 0)  -->
<svg version="1.1" id="레이어_1" xmlns="http://www.w3.org/2000/svg" xmlns:xlink="http://www.w3.org/1999/xlink" x="0px"
	 y="0px" viewBox="0 0 664 268.6" style="enable-background:new 0 0 664 268.6;" xml:space="preserve">
<style type="text/css">
	.st0{fill:none;stroke:#ED504F;stroke-width:20;stroke-linecap:round;stroke-linejoin:round;stroke-miterlimit:10;}
	.st1{fill-rule:evenodd;clip-rule:evenodd;fill:#333333;}
	.st2{fill:#D9D9D9;}
	.st3{fill:#EEEEEE;}
</style>
<path class="st0" d="M7.7,64.8c5.6,1,11.3,2,17,3c14.7,2.5,30.1,4.8,46,6.9c76.6,10.1,166.6,16,262.8,16s186.2-5.8,262.8-16
	c13.9-1.8,27.4-3.8,40.3-5.9c2.9-0.5,5.7-0.9,8.5-1.4c2.9-0.5,5.7-1,8.5-1.5"/>
<g>
	<path class="st1" d="M0,268.6c35.9,0,65-10.5,65-23.4c0-0.3,0-0.7-0.1-1H65v-5.3h-2.4C55,229,29.8,221.7,0,221.7s-55,7.3-62.6,17.2
		H-65v5.3h0.1c0,0.3-0.1,0.7-0.1,1C-65,258.1-35.9,268.6,0,268.6z"/>
	<ellipse class="st2" cx="0" cy="238.6" rx="65" ry="23.4"/>
	<path class="st3" d="M-9,35.6c0-5,4-9,9-9s9,4,9,9v194c0,5-4,9-9,9s-9-4-9-9V35.6z"/>
	<path class="st1" d="M664,268.6c35.9,0,65-10.5,65-23.4c0-0.3,0-0.7-0.1-1h0.1v-5.3h-2.4c-7.6-9.9-32.8-17.2-62.6-17.2
		s-55,7.3-62.6,17.2H599v5.3h0.1c0,0.3-0.1,0.7-0.1,1C599,258.1,628.1,268.6,664,268.6z"/>
	<ellipse class="st2" cx="664" cy="238.6" rx="65" ry="23.4"/>
	<path class="st3" d="M655,35.6c0-5,4-9,9-9s9,4,9,9v194c0,5-4,9-9,9s-9-4-9-9V35.6z"/>
</g>
<circle class="st2" cx="0" cy="26.6" r="26.6"/>
<circle class="st2" cx="664" cy="26.6" r="26.6"/>
</svg>
