<?xml version="1.0" encoding="utf-8"?>
<!-- Generator: Adobe Illustrator 28.1.0, SVG Export Plug-In . SVG Version: 6.00 Build 0)  -->
<svg version="1.1" id="레이어_1" xmlns="http://www.w3.org/2000/svg" xmlns:xlink="http://www.w3.org/1999/xlink" x="0px"
	 y="0px" viewBox="0 0 200 200" style="enable-background:new 0 0 200 200;" xml:space="preserve">
<style type="text/css">
	.st0{fill:#90C65D;}
	.st1{fill:#3F90CF;}
	.st2{fill:#56565B;}
	.st3{fill:#3D3D42;}
	.st4{fill:#F4A239;}
	.st5{fill:#E68347;}
</style>
<g>
	<g>
		<path class="st0" d="M36.54,116.38c4.85-3.08,8.17-5.66,7.15-12.01c-0.5-3.09-1.87-5.95-3.16-8.8c-1.9-4.18-3.28-8.73-4.57-13.12
			c-1.33-4.55-1.19-8.83,1.15-13.01c0.62-1.1,4.49-7.56,6.45-6.61c1.79,0.87-0.72,6.09-0.91,7.32c-0.11,0.74,0.19,1.61,0.88,1.9
			c0.35,0.15,0.74,0.13,1.11,0.12c3.42-0.14,6.33,0.82,7.6,4.27c1.07,2.91-0.24,7.34,1.76,9.89c2.16,2.75,6.37-2.08,7.71-3.57
			c2.23-2.49,7.67-9.74,1.25-10.78c-0.86-0.14-1.76-0.26-2.5-0.71c-3.19-1.95-3.89-7.39-4.52-10.7c-1.15-5.96,3.8-5.69,8.34-7.16
			c2.95-0.96,5.86-2.02,8.73-3.19c5.35-2.17,8.55-4.37,11.12-9.81c4.99-10.59,9.55-21.39,14.2-32.15c-5.49-1.24-11.21-1.9-17.08-1.9
			c-42.55,0-77.05,34.5-77.05,77.05c0,16.54,5.21,31.86,14.08,44.41c2.6-1.67,5.23-3.31,7.85-4.94
			C29.6,120.72,33.08,118.58,36.54,116.38z"/>
		<path class="st1" d="M135.71,86.94c1.38-0.84,2.92-1.36,4.44-1.88c2.15-0.73,3.83-0.81,4.48-3.06c0.48-1.65,0-3.79-0.3-5.43
			c-0.59-3.23-1.7-6.3-2.57-9.45c-1.12-4.08-2.38-8.12-3.68-12.14c-1.2-3.71-2.03-8.52-4.05-11.8c-2.1-3.4-5.31-1.69-7.86-3.84
			c-2.76-2.32-3.63-6.75-3.91-10.15c-0.29-3.43-0.01-7.03,0.85-10.46c-7.47-4.85-15.84-8.44-24.8-10.47
			c-4.65,10.76-9.22,21.56-14.2,32.15c-2.56,5.44-5.77,7.64-11.12,9.81c-2.87,1.17-5.78,2.23-8.73,3.19
			c-4.55,1.48-9.49,1.2-8.34,7.16c0.64,3.31,1.33,8.75,4.52,10.7c0.75,0.46,1.64,0.57,2.5,0.71c6.42,1.04,0.98,8.29-1.25,10.78
			c-1.34,1.49-5.54,6.33-7.71,3.57c-2-2.55-0.69-6.98-1.76-9.89c-1.27-3.45-4.18-4.41-7.6-4.27c-0.38,0.02-0.77,0.03-1.11-0.12
			c-0.69-0.29-1-1.16-0.88-1.9c0.19-1.23,2.7-6.45,0.91-7.32c-1.95-0.95-5.83,5.51-6.45,6.61c-2.34,4.18-2.48,8.45-1.15,13.01
			c1.28,4.39,2.67,8.94,4.57,13.12c1.29,2.85,2.67,5.71,3.16,8.8c1.02,6.35-2.3,8.93-7.15,12.01c-3.45,2.19-6.94,4.33-10.41,6.49
			c-2.63,1.63-5.25,3.27-7.85,4.94c5.46,7.73,12.31,14.4,20.18,19.67c10.13-0.69,20.49-0.64,29.5-5.81
			c4.88-2.8,6.79-9.43,13.43-7.63c10.07,2.73,16.58,14.13,22.07,23.15c14.25-4.29,26.77-12.59,36.22-23.59
			c-4.4-11.29-6.86-22.3-7.64-34.72C131.79,94.9,131.82,89.31,135.71,86.94z M64.09,65.49c-0.28,0-0.51-0.23-0.51-0.51
			c0-0.28,0.23-0.51,0.51-0.51c0.28,0,0.51,0.23,0.51,0.51C64.61,65.26,64.38,65.49,64.09,65.49z M59.43,93.33
			c-0.99,0-1.79-0.8-1.79-1.79c0-0.99,0.8-1.79,1.79-1.79c0.99,0,1.79,0.8,1.79,1.79C61.22,92.53,60.41,93.33,59.43,93.33z
			 M89.63,70.07c-1.06,6.69-4.66,13.74-11.18,16.52c-1.01,0.43-4.33,1.85-5.47,0.63c-1.78-1.91,3.21-8.43,4.06-10.01
			c2.71-5.11,4.85-10.46,6.15-16.11c0.26-1.13,0.76-8.5,2.41-8.57c2.07-0.09,3.2,5.05,3.53,6.37
			C90.03,62.54,90.22,66.38,89.63,70.07z M108.31,111.41c-2.19,3.7-6.22,6.95-7.57,6.1c-1.4-0.88,0.1-6.18,2.31-9.88
			c1.95-3.26,5.51-7.04,6.94-6.31C111.44,102.06,110.67,107.44,108.31,111.41z"/>
		<path class="st0" d="M123.12,18.73c-0.86,3.42-1.14,7.02-0.85,10.46c0.28,3.41,1.16,7.83,3.91,10.15
			c2.55,2.15,5.76,0.43,7.86,3.84c2.02,3.28,2.86,8.09,4.05,11.8c1.3,4.02,2.56,8.06,3.68,12.14c0.87,3.15,1.98,6.22,2.57,9.45
			c0.3,1.64,0.78,3.78,0.3,5.43c-0.66,2.25-2.34,2.34-4.48,3.06c-1.52,0.52-3.06,1.04-4.44,1.88c-3.89,2.37-3.92,7.96-3.67,11.95
			c0.79,12.42,3.25,23.43,7.64,34.72c11.59-13.48,18.6-31.02,18.6-50.2C158.29,56.3,144.29,32.46,123.12,18.73z"/>
		<path class="st0" d="M81.39,134.05c-6.64-1.8-8.55,4.83-13.43,7.63c-9.01,5.17-19.37,5.12-29.5,5.81
			c12.24,8.19,26.96,12.97,42.79,12.97c7.73,0,15.19-1.14,22.22-3.26C97.97,148.18,91.46,136.78,81.39,134.05z"/>
		<path class="st0" d="M85.61,52.54c-1.64,0.07-2.14,7.44-2.41,8.57c-1.3,5.64-3.44,11-6.15,16.11c-0.84,1.59-5.83,8.1-4.06,10.01
			c1.13,1.22,4.46-0.2,5.47-0.63c6.51-2.78,10.12-9.84,11.18-16.52c0.59-3.7,0.39-7.53-0.5-11.16
			C88.81,57.59,87.67,52.44,85.61,52.54z"/>
		<path class="st0" d="M110,101.32c-1.42-0.73-4.99,3.04-6.94,6.31c-2.21,3.7-3.71,9-2.31,9.88c1.35,0.85,5.37-2.4,7.57-6.1
			C110.67,107.44,111.44,102.06,110,101.32z"/>
		<circle class="st0" cx="59.43" cy="91.54" r="1.79"/>
		<path class="st0" d="M64.09,64.47c-0.28,0-0.51,0.23-0.51,0.51c0,0.28,0.23,0.51,0.51,0.51c0.28,0,0.51-0.23,0.51-0.51
			C64.61,64.7,64.38,64.47,64.09,64.47z"/>
	</g>
	<g>
		<path class="st2" d="M152.05,8.09c5.54,0,10.04,4.5,10.04,10.04v89.32c0,5.54-4.5,10.04-10.04,10.04h-10.79
			c-5.54,0-10.04-4.5-10.04-10.04V18.13c0-5.54,4.5-10.04,10.04-10.04H152.05 M152.05,0h-10.79c-10.02,0-18.13,8.12-18.13,18.13
			v89.32c0,10.02,8.12,18.13,18.13,18.13h10.79c10.02,0,18.13-8.12,18.13-18.13V18.13C170.18,8.12,162.06,0,152.05,0L152.05,0z"/>
	</g>
	<circle class="st3" cx="118.63" cy="189.06" r="10.94"/>
	<circle class="st3" cx="174.68" cy="189.06" r="10.94"/>
	<path class="st4" d="M187.42,189.51h-81.53c-4.64,0-8.39-3.76-8.39-8.39V86.1c0-4.64,3.76-8.39,8.39-8.39h81.53
		c4.64,0,8.39,3.76,8.39,8.39v95.02C195.81,185.75,192.05,189.51,187.42,189.51z"/>
	<rect x="114.58" y="94.79" class="st5" width="6.29" height="79.13"/>
	<rect x="134.86" y="94.79" class="st5" width="6.29" height="79.13"/>
	<rect x="155.14" y="94.79" class="st5" width="6.29" height="79.13"/>
	<rect x="175.43" y="94.79" class="st5" width="6.29" height="79.13"/>
</g>
</svg>
