<?xml version="1.0" encoding="utf-8"?>
<!-- Generator: Adobe Illustrator 28.1.0, SVG Export Plug-In . SVG Version: 6.00 Build 0)  -->
<svg version="1.1" id="레이어_1" xmlns="http://www.w3.org/2000/svg" xmlns:xlink="http://www.w3.org/1999/xlink" x="0px"
	 y="0px" viewBox="0 0 200 200" style="enable-background:new 0 0 200 200;" xml:space="preserve">
<style type="text/css">
	.st0{fill:#514F50;}
	.st1{fill:#FDE8D6;}
	.st2{fill:#3C3C3C;}
	.st3{fill:#3075BC;}
	.st4{fill:#FFFFFF;}
	.st5{fill:#3385C8;}
	.st6{fill:#F39518;}
	.st7{fill:#89ADD7;}
	.st8{fill:#C2DDF4;}
	.st9{fill:#617B9B;}
	.st10{fill:#3A3B3B;}
	.st11{fill:#F0F0F0;}
	.st12{fill:#BF5B64;}
	.st13{fill:#E9D07C;}
	.st14{fill:#8ABD91;}
	.st15{fill:none;stroke:#89ADD7;stroke-width:4.3128;stroke-linecap:round;stroke-linejoin:round;stroke-miterlimit:10;}
</style>
<g>
	<g>
		<path class="st0" d="M190.65,27.39H9.35C4.19,27.39,0,31.57,0,36.74v124.25c0,5.16,4.19,9.35,9.35,9.35h181.3
			c5.16,0,9.35-4.19,9.35-9.35V36.74C200,31.57,195.81,27.39,190.65,27.39z"/>
		<path class="st0" d="M122.35,183.8v-21.39h-44.7v21.39c0,7.64-5.95,13.88-13.47,14.37v0.05h71.63v-0.05
			C128.3,197.69,122.35,191.45,122.35,183.8z"/>
		<rect x="15.21" y="41.97" class="st1" width="170.52" height="99.52"/>
		<circle class="st2" cx="100" cy="156.07" r="6.66"/>
	</g>
	<g>
		<path class="st3" d="M114.11,141.49l33.86-56.64c0.97-1.62,3.32-1.61,4.28,0.02l33.21,56.62H114.11z"/>
		<path class="st4" d="M78.61,113.19c4.8,0.05,6.93-14.1,11.78-14.05c4.2,0.04,5.57,10.69,9.71,10.95c1.83,0.12,4.2-1.81,7.22-8.59
			L91.78,75c-1.12-1.91-3.88-1.92-5.02-0.02l-16.45,27.52C73.63,105.44,75.07,113.15,78.61,113.19z"/>
		<path class="st5" d="M130.73,141.41l-23.41-39.91c-3.02,6.79-5.39,8.71-7.22,8.59c-4.14-0.26-5.51-10.91-9.71-10.95
			c-4.84-0.05-6.98,14.1-11.78,14.05c-3.54-0.04-4.99-7.75-8.31-10.68l-23.25,38.9H130.73z"/>
		<circle class="st6" cx="159.81" cy="60.86" r="12.07"/>
		<g>
			<path class="st7" d="M134.71,73.95L119.67,58.9l55.88-55.88c1.65-1.65,4.34-1.65,5.99,0l9.06,9.06c1.65,1.65,1.65,4.34,0,5.99
				L134.71,73.95z"/>
			
				<rect x="160.75" y="17.98" transform="matrix(0.7071 0.7071 -0.7071 0.7071 65.9148 -114.6801)" class="st8" width="21.28" height="8.49"/>
			<path class="st9" d="M119.67,58.9l-7.59,20.14c-0.59,1.56,0.94,3.09,2.5,2.5l20.14-7.59L119.67,58.9z"/>
		</g>
		<g>
			<g>
				<path class="st10" d="M80.33,54.36c0-2.92-2.37-5.29-5.29-5.29H29.03c-2.92,0-5.29,2.37-5.29,5.29v5.07h56.59V54.36z"/>
				<rect x="23.74" y="59.44" class="st11" width="56.59" height="50.52"/>
				<circle class="st12" cx="30.31" cy="54.22" r="1.28"/>
				<circle class="st13" cx="34.33" cy="54.22" r="1.28"/>
				<circle class="st14" cx="38.35" cy="54.22" r="1.28"/>
				<path class="st11" d="M73.33,56.88H47.05c-1.47,0-2.67-1.19-2.67-2.67l0,0c0-1.47,1.19-2.67,2.67-2.67h26.28
					c1.47,0,2.67,1.19,2.67,2.67l0,0C75.99,55.69,74.8,56.88,73.33,56.88z"/>
			</g>
			<line class="st15" x1="34.41" y1="78.67" x2="69.65" y2="78.67"/>
			<circle class="st5" cx="44.33" cy="78.67" r="5.55"/>
			<line class="st15" x1="69.65" y1="95.44" x2="34.41" y2="95.44"/>
			<circle class="st5" cx="59.74" cy="95.44" r="5.55"/>
		</g>
	</g>
</g>
</svg>
