<?xml version="1.0" encoding="utf-8"?>
<!-- Generator: Adobe Illustrator 28.1.0, SVG Export Plug-In . SVG Version: 6.00 Build 0)  -->
<svg version="1.1" id="레이어_1" xmlns="http://www.w3.org/2000/svg" xmlns:xlink="http://www.w3.org/1999/xlink" x="0px"
	 y="0px" viewBox="0 0 200 200" style="enable-background:new 0 0 200 200;" xml:space="preserve">
<style type="text/css">
	.st0{fill:#3A3B3B;}
	.st1{fill:#F0F0F0;}
	.st2{fill:#C75D67;}
	.st3{fill:#F0D57D;}
	.st4{fill:#8EC495;}
	.st5{fill:#999999;}
	.st6{fill:#D2D2D2;}
	.st7{fill:#E7A922;}
</style>
<g>
	<path class="st0" d="M200,22.69c0-5.68-4.6-10.28-10.28-10.28H10.28C4.6,12.41,0,17.01,0,22.69v9.86h200V22.69z"/>
	<rect x="0" y="32.55" class="st1" width="200" height="155.05"/>
	<circle class="st2" cx="12.78" cy="22.41" r="2.48"/>
	<circle class="st3" cx="20.59" cy="22.41" r="2.48"/>
	<circle class="st4" cx="28.41" cy="22.41" r="2.48"/>
	<path class="st1" d="M172.78,27.59H58.15c-2.86,0-5.19-2.32-5.19-5.19v0c0-2.86,2.32-5.19,5.19-5.19h114.63
		c2.86,0,5.19,2.32,5.19,5.19v0C177.96,25.27,175.64,27.59,172.78,27.59z"/>
	<rect x="147.41" y="50.37" class="st5" width="30.56" height="30.56"/>
	<rect x="22.04" y="50.37" class="st6" width="106.11" height="6.3"/>
	<rect x="22.04" y="74.63" class="st6" width="106.11" height="6.3"/>
	<rect x="22.04" y="62.5" class="st6" width="106.11" height="6.3"/>
	
		<rect x="22.04" y="91.48" transform="matrix(-1 -4.488599e-11 4.488599e-11 -1 74.6296 213.5186)" class="st5" width="30.56" height="30.56"/>
	
		<rect x="71.85" y="91.48" transform="matrix(-1 -4.489576e-11 4.489576e-11 -1 249.8148 189.2593)" class="st6" width="106.11" height="6.3"/>
	
		<rect x="71.85" y="115.74" transform="matrix(-1 -4.487889e-11 4.487889e-11 -1 249.8148 237.7778)" class="st6" width="106.11" height="6.3"/>
	
		<rect x="71.85" y="103.61" transform="matrix(-1 -4.489576e-11 4.489576e-11 -1 249.8148 213.5186)" class="st6" width="106.11" height="6.3"/>
	<rect x="22.04" y="135.09" class="st7" width="155.93" height="34.44"/>
</g>
</svg>
