<?xml version="1.0" encoding="utf-8"?>
<!-- Generator: Adobe Illustrator 28.1.0, SVG Export Plug-In . SVG Version: 6.00 Build 0)  -->
<svg version="1.1" id="레이어_1" xmlns="http://www.w3.org/2000/svg" xmlns:xlink="http://www.w3.org/1999/xlink" x="0px"
	 y="0px" viewBox="0 0 200 200" style="enable-background:new 0 0 200 200;" xml:space="preserve">
<style type="text/css">
	.st0{fill:#E7A922;}
	.st1{fill:#626363;}
	.st2{fill:#C2DDF4;}
	.st3{fill:#E3EFF7;}
	.st4{fill:#F39518;}
	.st5{fill:#FFFFFF;}
</style>
<g>
	<rect x="21.25" class="st0" width="124.84" height="178.45"/>
	<polygon class="st1" points="146.08,0 53.92,21.55 146.08,21.55 	"/>
	<g>
		<path class="st2" d="M94.93,121.45c11.54,0,21.04,8.63,22.46,19.78c3.87-2.64,8.54-4.19,13.58-4.19c9.46,0,17.63,5.46,21.58,13.39
			c3.46-1.91,7.43-3.01,11.66-3.01c5.47,0,10.51,1.83,14.55,4.91V21.55H53.92v111.31c6.94,0.04,13.52,1.57,19.45,4.28
			C76.31,128.04,84.84,121.45,94.93,121.45z"/>
		<path class="st3" d="M178.75,200v-47.67c-4.04-3.08-9.08-4.91-14.55-4.91c-4.23,0-8.2,1.1-11.66,3.01
			c-3.95-7.93-12.12-13.39-21.58-13.39c-5.04,0-9.71,1.55-13.58,4.19c-1.42-11.15-10.92-19.78-22.46-19.78
			c-10.08,0-18.61,6.59-21.56,15.69c-5.93-2.71-12.51-4.24-19.45-4.28V200H178.75z"/>
	</g>
	<path class="st4" d="M94.24,76.56c0-12.59,10.21-22.8,22.8-22.8s22.8,10.21,22.8,22.8H94.24z"/>
	<polygon class="st5" points="151.74,92.26 145.68,82.39 151.74,72.52 80.92,72.52 86.99,82.39 80.93,92.26 	"/>
</g>
</svg>
