<?xml version="1.0" encoding="utf-8"?>
<!-- Generator: Adobe Illustrator 28.1.0, SVG Export Plug-In . SVG Version: 6.00 Build 0)  -->
<svg version="1.1" id="레이어_1" xmlns="http://www.w3.org/2000/svg" xmlns:xlink="http://www.w3.org/1999/xlink" x="0px"
	 y="0px" viewBox="0 0 200 200" style="enable-background:new 0 0 200 200;" xml:space="preserve">
<style type="text/css">
	.st0{fill:#323333;}
	.st1{fill:#BAE3F8;}
	.st2{fill:#FFFFFF;}
	.st3{fill:#2BB392;}
	.st4{fill:#F4D835;}
	.st5{fill:#040000;}
	.st6{fill:none;stroke:#FFFFFF;stroke-width:0.4671;stroke-miterlimit:10;}
	.st7{fill:#F2BFAD;}
</style>
<g>
	<g>
		<g>
			<path class="st0" d="M74.97,0l85.81,0.03c9.22,0,16.68,7.48,16.68,16.7l-0.07,161.68c0,9.22-7.48,16.68-16.7,16.68l-85.81-0.03
				c-9.22,0-16.68-7.48-16.68-16.7l0.08-161.66C58.28,7.47,65.75,0,74.97,0z"/>
			<path class="st1" d="M75.36,12.32l84.62,0.05c2.63,0,4.77,2.15,4.77,4.78l-0.08,160.89c0,2.63-2.15,4.77-4.78,4.77l-84.62-0.05
				c-2.63,0-4.77-2.15-4.77-4.78l0.09-160.9C70.6,14.45,72.73,12.32,75.36,12.32z"/>
			<path class="st0" d="M97.01,8.75l41.92,0.02l-5.97,12.71l-30.19-0.02L97.01,8.75z"/>
		</g>
		<g>
			<polygon class="st2" points="107.23,109.11 116.56,105.95 103.85,86.6 91.65,109.95 102.15,117.06 			"/>
			<polygon class="st3" points="164.74,150.43 135.26,101.43 121.25,113.09 116.56,105.95 107.23,109.11 102.15,117.06 
				91.65,109.95 70.5,150.43 			"/>
		</g>
		<circle class="st4" cx="132.72" cy="66.47" r="12.18"/>
		<path class="st5" d="M159.88,182.8H75.36c-2.69,0-4.87-2.18-4.87-4.87v-27.5h94.25v27.5C164.74,180.62,162.56,182.8,159.88,182.8z
			"/>
		<g>
			<circle class="st2" cx="116.56" cy="167.64" r="6.02"/>
			<circle class="st6" cx="116.56" cy="167.64" r="7"/>
		</g>
	</g>
	<path class="st7" d="M80.56,198.89c0-14.21,0-28.43,0-42.64c6.62-9.89,13.24-19.77,19.86-29.66c1.27-4.14-0.12-8.6-3.44-11.12
		c-2.92-2.22-6.9-2.62-10.33-1.06c-5.74,3.88-11.48,7.77-17.21,11.65c-3.71-3.97-7.42-7.95-11.12-11.92c0-17.74,0-35.49,0-53.23
		c-2.74,0-5.48,0-8.21,0c-0.73,0.18-1.97,0.59-3.17,1.59c-1.86,1.54-2.46,3.5-2.65,4.24c-6,17.66-12.01,35.31-18.01,52.97
		c-1.37,2.62-3.5,7.54-3.71,14.04c-0.16,5.03,0.9,9.09,1.79,11.65c4.79,11.12,9.58,22.25,14.37,33.37
		c-0.79,2.38-1.59,4.77-2.38,7.15c3.09,3.1,9.04,8.23,18.01,11.39C66.01,201.42,76.14,199.85,80.56,198.89z"/>
</g>
</svg>
