<?xml version="1.0" encoding="utf-8"?>
<!-- Generator: Adobe Illustrator 28.1.0, SVG Export Plug-In . SVG Version: 6.00 Build 0)  -->
<svg version="1.1" id="레이어_1" xmlns="http://www.w3.org/2000/svg" xmlns:xlink="http://www.w3.org/1999/xlink" x="0px"
	 y="0px" viewBox="0 0 200 200" style="enable-background:new 0 0 200 200;" xml:space="preserve">
<style type="text/css">
	.st0{fill:#514F50;}
	.st1{fill:#65BEE2;}
	.st2{fill:#3C3C3C;}
	.st3{fill:#F0F0F0;}
	.st4{fill:#D1606A;}
	.st5{fill:#F7DA7D;}
	.st6{fill:#91CB99;}
	.st7{fill:#47BAA9;}
	.st8{fill:#F0AE17;}
	.st9{fill:#D2D2D2;}
	.st10{fill:#24A28F;}
	.st11{fill:#078774;}
</style>
<g>
	<path class="st0" d="M190.65,21.24H9.35C4.19,21.24,0,25.42,0,30.59v124.25c0,5.16,4.19,9.35,9.35,9.35h181.3
		c5.16,0,9.35-4.19,9.35-9.35V30.59C200,25.42,195.81,21.24,190.65,21.24z"/>
	<path class="st0" d="M122.35,177.65v-21.39H77.65v21.39c0,7.64-5.95,13.88-13.47,14.37v0.05h71.63v-0.05
		C128.3,191.54,122.35,185.3,122.35,177.65z"/>
	<rect x="15.21" y="35.82" class="st1" width="170.52" height="99.52"/>
	<circle class="st2" cx="100" cy="149.92" r="6.66"/>
</g>
<rect x="28.84" y="7.92" class="st2" width="143.26" height="25.47"/>
<rect x="28.84" y="33.39" class="st3" width="143.26" height="101.95"/>
<circle class="st4" cx="45.16" cy="20.86" r="3.98"/>
<circle class="st5" cx="57.5" cy="20.86" r="3.98"/>
<circle class="st6" cx="69.83" cy="20.86" r="3.98"/>
<rect x="98.83" y="48.98" class="st7" width="25.19" height="21.76"/>
<rect x="39.59" y="107.35" class="st8" width="111.83" height="21.09"/>
<rect x="128.53" y="48.98" class="st9" width="22.88" height="5.37"/>
<rect x="128.53" y="57.17" class="st9" width="22.88" height="5.37"/>
<rect x="128.53" y="65.36" class="st9" width="22.88" height="5.37"/>
<rect x="98.83" y="73.55" class="st9" width="52.58" height="5.37"/>
<rect x="98.83" y="81.74" class="st9" width="52.58" height="5.37"/>
<rect x="98.83" y="89.93" class="st9" width="52.58" height="5.37"/>
<rect x="98.83" y="98.13" class="st9" width="52.58" height="5.37"/>
<g>
	<polygon class="st10" points="66.19,84.76 54.31,72.87 39.59,87.59 39.59,103.48 47.49,103.47 	"/>
	<polygon class="st11" points="39.59,48.98 39.59,87.59 54.31,72.87 66.19,84.76 78.09,72.87 94.11,88.87 94.11,48.98 	"/>
	<polygon class="st7" points="84.86,103.42 66.19,84.76 47.49,103.47 	"/>
	<polygon class="st7" points="66.19,84.76 84.86,103.42 47.49,103.47 47.45,103.5 94.11,103.44 94.11,88.87 78.09,72.87 	"/>
</g>
<circle class="st8" cx="61.73" cy="62.04" r="6.53"/>
</svg>
