<?xml version="1.0" encoding="utf-8"?>
<!-- Generator: Adobe Illustrator 28.1.0, SVG Export Plug-In . SVG Version: 6.00 Build 0)  -->
<svg version="1.1" id="레이어_1" xmlns="http://www.w3.org/2000/svg" xmlns:xlink="http://www.w3.org/1999/xlink" x="0px"
	 y="0px" viewBox="0 0 1000 200" style="enable-background:new 0 0 1000 200;" xml:space="preserve">
<style type="text/css">
	.st0{fill:#DDDDDD;}
	.st1{fill:#F4DC41;}
	.st2{fill-rule:evenodd;clip-rule:evenodd;fill:#F4DC41;}
	.st3{fill-rule:evenodd;clip-rule:evenodd;fill:#F4ED4C;}
	.st4{fill:#F4C322;}
	.st5{opacity:0;}
	.st6{fill:url(#SVGID_1_);}
	.st7{fill:#E6D120;}
	.st8{fill-rule:evenodd;clip-rule:evenodd;fill:#F4DE25;}
	.st9{fill:#E9D420;}
	.st10{fill:none;stroke:#F4DC41;stroke-width:1.9651;}
	.st11{opacity:0.3;}
	.st12{fill:url(#SVGID_00000134945650664769190470000001407845518320573617_);}
	.st13{fill:url(#SVGID_00000155850598522507303520000018018026703369869229_);}
	.st14{opacity:0.7;}
	.st15{fill:url(#SVGID_00000104692641895898064820000001252133588125222824_);}
	.st16{opacity:0.5;}
	.st17{fill:url(#SVGID_00000173143690815668723020000011984363192634684574_);}
</style>
<g>
	<g>
		<path class="st0" d="M0.98,193c-0.22,0-0.44-0.07-0.63-0.23c-0.42-0.35-0.47-0.97-0.13-1.38l18.48-22.18
			c0.35-0.42,0.97-0.47,1.38-0.13c0.42,0.35,0.47,0.97,0.13,1.38L1.74,192.65C1.54,192.88,1.26,193,0.98,193z"/>
	</g>
	<g>
		<path class="st0" d="M199.02,192.87c-0.28,0-0.57-0.12-0.76-0.36l-18.09-22.05c-0.34-0.42-0.28-1.04,0.14-1.38
			s1.04-0.28,1.38,0.14l18.09,22.05c0.34,0.42,0.28,1.04-0.14,1.38C199.46,192.8,199.24,192.87,199.02,192.87z"/>
	</g>
	<path class="st1" d="M111.35,79.14l-14.13-4.36L100,88.65L111.35,79.14z"/>
	<path class="st2" d="M93.13,76.77c2.24-2.77,6.34-2.77,8.58,0l75.91,94.26c1.19,1.45,1.45,3.04,1.06,4.62v4.75H16.03v-5.68
		c0-0.26,0-0.4,0-0.53v-0.13l0,0c0.13-1.06,0.53-2.11,1.19-3.04L93.13,76.77z"/>
	<path class="st2" d="M107.26,81.25c2.24-2.9,6.6-2.9,8.85,0l71.42,95.06c0.79,1.06,1.19,2.24,1.06,3.43h0.13v8.71l-11.75,10.03
		H34.65v-18.75h0.13c0-1.19,0.26-2.38,1.06-3.43L107.26,81.25z"/>
	<path class="st3" d="M93,77.43c2.24-2.9,6.6-2.9,8.85,0l73.93,98.49c0.92,1.19,1.19,2.64,1.06,3.96v18.62H18.01v-18.62
		c-0.13-1.32,0.13-2.64,1.06-3.96L93,77.43z"/>
	<rect x="18.01" y="186.61" class="st1" width="158.82" height="11.75"/>
	<g>
		<path class="st0" d="M0.98,200c-0.22,0-0.45-0.08-0.63-0.23c-0.42-0.35-0.47-0.97-0.12-1.38l18.48-22.05
			c0.35-0.42,0.97-0.47,1.38-0.12c0.42,0.35,0.47,0.97,0.12,1.38L1.74,199.65C1.54,199.88,1.26,200,0.98,200z"/>
	</g>
	<g>
		<path class="st0" d="M194.53,199.6c-0.28,0-0.57-0.12-0.76-0.36l-18.09-22.05c-0.34-0.42-0.28-1.04,0.14-1.38
			c0.42-0.34,1.04-0.28,1.38,0.14L195.29,198c0.34,0.42,0.28,1.04-0.14,1.38C194.97,199.53,194.75,199.6,194.53,199.6z"/>
	</g>
	<rect x="71.09" y="129.71" class="st4" width="51.49" height="56.9"/>
	<g class="st5">
		
			<linearGradient id="SVGID_1_" gradientUnits="userSpaceOnUse" x1="96.831" y1="926.0955" x2="96.831" y2="975.647" gradientTransform="matrix(1 0 0 1 0 -801.4835)">
			<stop  offset="0" style="stop-color:#FDF7E2"/>
			<stop  offset="1" style="stop-color:#FDF7E2;stop-opacity:0"/>
		</linearGradient>
		<path class="st6" d="M96.83,118.62l34.33,58.35H62.51L96.83,118.62z"/>
	</g>
	<rect x="71.09" y="117.82" class="st7" width="51.49" height="16.63"/>
	<g>
		<path class="st8" d="M121.39,127.59H69.77l0,0l0,0c-1.45,0-2.64,2.9-2.64,6.47c0,3.56,1.19,6.47,2.64,6.47l0,0l0,0h51.62V127.59
			L121.39,127.59z"/>
		<ellipse class="st9" cx="121.26" cy="134.06" rx="2.51" ry="6.47"/>
	</g>
	<line class="st10" x1="136.44" y1="118.09" x2="60.66" y2="118.09"/>
</g>
<g>
	<g>
		<path class="st0" d="M200.98,193c-0.22,0-0.44-0.07-0.63-0.23c-0.42-0.35-0.47-0.97-0.13-1.38l18.48-22.18
			c0.35-0.42,0.97-0.47,1.38-0.13c0.42,0.35,0.47,0.97,0.13,1.38l-18.48,22.18C201.54,192.88,201.26,193,200.98,193z"/>
	</g>
	<g>
		<path class="st0" d="M399.02,192.87c-0.28,0-0.57-0.12-0.76-0.36l-18.09-22.05c-0.34-0.42-0.28-1.04,0.14-1.38
			c0.42-0.34,1.04-0.28,1.38,0.14l18.09,22.05c0.34,0.42,0.28,1.04-0.14,1.38C399.46,192.8,399.24,192.87,399.02,192.87z"/>
	</g>
	<path class="st1" d="M311.35,79.14l-14.13-4.36L300,88.65L311.35,79.14z"/>
	<path class="st2" d="M293.13,76.77c2.24-2.77,6.34-2.77,8.58,0l75.91,94.26c1.19,1.45,1.45,3.04,1.06,4.62v4.75H216.03v-5.68
		c0-0.26,0-0.4,0-0.53v-0.13l0,0c0.13-1.06,0.53-2.11,1.19-3.04L293.13,76.77z"/>
	<path class="st2" d="M307.26,81.25c2.24-2.9,6.6-2.9,8.85,0l71.42,95.06c0.79,1.06,1.19,2.24,1.06,3.43h0.13v8.71l-11.75,10.03
		H234.65v-18.75h0.13c0-1.19,0.26-2.38,1.06-3.43L307.26,81.25z"/>
	<path class="st3" d="M293,77.43c2.24-2.9,6.6-2.9,8.85,0l73.93,98.49c0.92,1.19,1.19,2.64,1.06,3.96v18.62H218.01v-18.62
		c-0.13-1.32,0.13-2.64,1.06-3.96L293,77.43z"/>
	<rect x="218.01" y="186.61" class="st1" width="158.82" height="11.75"/>
	<g>
		<path class="st0" d="M200.98,200c-0.22,0-0.45-0.08-0.63-0.23c-0.42-0.35-0.47-0.97-0.12-1.38l18.48-22.05
			c0.35-0.42,0.97-0.47,1.38-0.12c0.42,0.35,0.47,0.97,0.12,1.38l-18.48,22.05C201.54,199.88,201.26,200,200.98,200z"/>
	</g>
	<g>
		<path class="st0" d="M394.53,199.6c-0.28,0-0.57-0.12-0.76-0.36l-18.09-22.05c-0.34-0.42-0.28-1.04,0.14-1.38
			c0.42-0.34,1.04-0.28,1.38,0.14L395.29,198c0.34,0.42,0.28,1.04-0.14,1.38C394.97,199.53,394.75,199.6,394.53,199.6z"/>
	</g>
	<rect x="271.09" y="129.71" class="st4" width="51.49" height="56.9"/>
	<g class="st11">
		
			<linearGradient id="SVGID_00000122694261140288626950000010468121589057882766_" gradientUnits="userSpaceOnUse" x1="296.8314" y1="926.0955" x2="296.8314" y2="975.647" gradientTransform="matrix(1 0 0 1 0 -801.4835)">
			<stop  offset="0" style="stop-color:#FDF7E2"/>
			<stop  offset="1" style="stop-color:#FDF7E2;stop-opacity:0"/>
		</linearGradient>
		<path style="fill:url(#SVGID_00000122694261140288626950000010468121589057882766_);" d="M296.83,118.62l34.33,58.35h-68.65
			L296.83,118.62z"/>
	</g>
	<rect x="271.09" y="117.82" class="st7" width="51.49" height="16.63"/>
	<g>
		<path class="st8" d="M321.39,127.59h-51.62l0,0l0,0c-1.45,0-2.64,2.9-2.64,6.47c0,3.56,1.19,6.47,2.64,6.47l0,0l0,0h51.62V127.59
			L321.39,127.59z"/>
		<ellipse class="st9" cx="321.26" cy="134.06" rx="2.51" ry="6.47"/>
	</g>
	<line class="st10" x1="336.44" y1="118.09" x2="260.66" y2="118.09"/>
</g>
<g>
	<g>
		<path class="st0" d="M400.98,193c-0.22,0-0.44-0.07-0.63-0.23c-0.42-0.35-0.47-0.97-0.13-1.38l18.48-22.18
			c0.35-0.42,0.97-0.47,1.38-0.13c0.42,0.35,0.47,0.97,0.13,1.38l-18.48,22.18C401.54,192.88,401.26,193,400.98,193z"/>
	</g>
	<g>
		<path class="st0" d="M599.02,192.87c-0.28,0-0.57-0.12-0.76-0.36l-18.09-22.05c-0.34-0.42-0.28-1.04,0.14-1.38
			c0.42-0.34,1.04-0.28,1.38,0.14l18.09,22.05c0.34,0.42,0.28,1.04-0.14,1.38C599.46,192.8,599.24,192.87,599.02,192.87z"/>
	</g>
	<path class="st1" d="M511.35,79.14l-14.13-4.36L500,88.65L511.35,79.14z"/>
	<path class="st2" d="M493.14,76.77c2.24-2.77,6.34-2.77,8.58,0l75.91,94.26c1.19,1.45,1.45,3.04,1.06,4.62v4.75H416.03v-5.68
		c0-0.26,0-0.4,0-0.53v-0.13l0,0c0.13-1.06,0.53-2.11,1.19-3.04L493.14,76.77z"/>
	<path class="st2" d="M507.26,81.25c2.24-2.9,6.6-2.9,8.85,0l71.42,95.06c0.79,1.06,1.19,2.24,1.06,3.43h0.13v8.71l-11.75,10.03
		H434.65v-18.75h0.13c0-1.19,0.26-2.38,1.06-3.43L507.26,81.25z"/>
	<path class="st3" d="M493,77.43c2.24-2.9,6.6-2.9,8.85,0l73.93,98.49c0.92,1.19,1.19,2.64,1.06,3.96v18.62H418.01v-18.62
		c-0.13-1.32,0.13-2.64,1.06-3.96L493,77.43z"/>
	<rect x="418.01" y="186.61" class="st1" width="158.82" height="11.75"/>
	<g>
		<path class="st0" d="M400.98,200c-0.22,0-0.45-0.08-0.63-0.23c-0.42-0.35-0.47-0.97-0.12-1.38l18.48-22.05
			c0.35-0.42,0.97-0.47,1.38-0.12c0.42,0.35,0.47,0.97,0.12,1.38l-18.48,22.05C401.54,199.88,401.26,200,400.98,200z"/>
	</g>
	<g>
		<path class="st0" d="M594.53,199.6c-0.28,0-0.57-0.12-0.76-0.36l-18.09-22.05c-0.34-0.42-0.28-1.04,0.14-1.38
			c0.42-0.34,1.04-0.28,1.38,0.14L595.29,198c0.34,0.42,0.28,1.04-0.14,1.38C594.97,199.53,594.75,199.6,594.53,199.6z"/>
	</g>
	<rect x="471.09" y="129.71" class="st4" width="51.49" height="56.9"/>
	<g>
		
			<linearGradient id="SVGID_00000095314287384397888130000017694997620590287760_" gradientUnits="userSpaceOnUse" x1="496.8318" y1="926.0955" x2="496.8318" y2="975.647" gradientTransform="matrix(1 0 0 1 0 -801.4835)">
			<stop  offset="0" style="stop-color:#FDF7E2"/>
			<stop  offset="1" style="stop-color:#FDF7E2;stop-opacity:0"/>
		</linearGradient>
		<path style="fill:url(#SVGID_00000095314287384397888130000017694997620590287760_);" d="M496.83,118.62l34.33,58.35h-68.65
			L496.83,118.62z"/>
	</g>
	<rect x="471.09" y="117.82" class="st7" width="51.49" height="16.63"/>
	<g>
		<path class="st8" d="M521.39,127.59h-51.62l0,0l0,0c-1.45,0-2.64,2.9-2.64,6.47c0,3.56,1.19,6.47,2.64,6.47l0,0l0,0h51.62V127.59
			L521.39,127.59z"/>
		<ellipse class="st9" cx="521.26" cy="134.06" rx="2.51" ry="6.47"/>
	</g>
	<line class="st10" x1="536.44" y1="118.09" x2="460.66" y2="118.09"/>
</g>
<g>
	<g>
		<path class="st0" d="M600.98,193c-0.22,0-0.44-0.07-0.63-0.23c-0.42-0.35-0.47-0.97-0.13-1.38l18.48-22.18
			c0.35-0.42,0.97-0.47,1.38-0.13c0.42,0.35,0.47,0.97,0.13,1.38l-18.48,22.18C601.54,192.88,601.26,193,600.98,193z"/>
	</g>
	<g>
		<path class="st0" d="M799.02,192.87c-0.28,0-0.57-0.12-0.76-0.36l-18.09-22.05c-0.34-0.42-0.28-1.04,0.14-1.38
			s1.04-0.28,1.38,0.14l18.09,22.05c0.34,0.42,0.28,1.04-0.14,1.38C799.46,192.8,799.24,192.87,799.02,192.87z"/>
	</g>
	<path class="st1" d="M711.35,79.14l-14.13-4.36L700,88.65L711.35,79.14z"/>
	<path class="st2" d="M693.14,76.77c2.24-2.77,6.34-2.77,8.58,0l75.91,94.26c1.19,1.45,1.45,3.04,1.06,4.62v4.75H616.03v-5.68
		c0-0.26,0-0.4,0-0.53v-0.13l0,0c0.13-1.06,0.53-2.11,1.19-3.04L693.14,76.77z"/>
	<path class="st2" d="M707.26,81.25c2.24-2.9,6.6-2.9,8.85,0l71.42,95.06c0.79,1.06,1.19,2.24,1.06,3.43h0.13v8.71l-11.75,10.03
		H634.65v-18.75h0.13c0-1.19,0.26-2.38,1.06-3.43L707.26,81.25z"/>
	<path class="st3" d="M693,77.43c2.24-2.9,6.6-2.9,8.85,0l73.93,98.49c0.92,1.19,1.19,2.64,1.06,3.96v18.62H618.02v-18.62
		c-0.13-1.32,0.13-2.64,1.06-3.96L693,77.43z"/>
	<rect x="618.02" y="186.61" class="st1" width="158.82" height="11.75"/>
	<g>
		<path class="st0" d="M600.98,200c-0.22,0-0.45-0.08-0.63-0.23c-0.42-0.35-0.47-0.97-0.12-1.38l18.48-22.05
			c0.35-0.42,0.97-0.47,1.38-0.12c0.42,0.35,0.47,0.97,0.12,1.38l-18.48,22.05C601.54,199.88,601.26,200,600.98,200z"/>
	</g>
	<g>
		<path class="st0" d="M794.53,199.6c-0.28,0-0.57-0.12-0.76-0.36l-18.09-22.05c-0.34-0.42-0.28-1.04,0.14-1.38
			c0.42-0.34,1.04-0.28,1.38,0.14L795.29,198c0.34,0.42,0.28,1.04-0.14,1.38C794.97,199.53,794.75,199.6,794.53,199.6z"/>
	</g>
	<rect x="671.09" y="129.71" class="st4" width="51.49" height="56.9"/>
	<g class="st14">
		
			<linearGradient id="SVGID_00000089545707336266043310000000514041917711493543_" gradientUnits="userSpaceOnUse" x1="696.8322" y1="926.0955" x2="696.8322" y2="975.647" gradientTransform="matrix(1 0 0 1 0 -801.4835)">
			<stop  offset="0" style="stop-color:#FDF7E2"/>
			<stop  offset="1" style="stop-color:#FDF7E2;stop-opacity:0"/>
		</linearGradient>
		<path style="fill:url(#SVGID_00000089545707336266043310000000514041917711493543_);" d="M696.83,118.62l34.33,58.35h-68.65
			L696.83,118.62z"/>
	</g>
	<rect x="671.09" y="117.82" class="st7" width="51.49" height="16.63"/>
	<g>
		<path class="st8" d="M721.39,127.59h-51.62l0,0l0,0c-1.45,0-2.64,2.9-2.64,6.47c0,3.56,1.19,6.47,2.64,6.47l0,0l0,0h51.62V127.59
			L721.39,127.59z"/>
		<ellipse class="st9" cx="721.26" cy="134.06" rx="2.51" ry="6.47"/>
	</g>
	<line class="st10" x1="736.44" y1="118.09" x2="660.66" y2="118.09"/>
</g>
<g>
	<g>
		<path class="st0" d="M800.98,193c-0.22,0-0.44-0.07-0.63-0.23c-0.42-0.35-0.47-0.97-0.13-1.38l18.48-22.18
			c0.35-0.42,0.97-0.47,1.38-0.13c0.42,0.35,0.47,0.97,0.13,1.38l-18.48,22.18C801.54,192.88,801.27,193,800.98,193z"/>
	</g>
	<g>
		<path class="st0" d="M999.02,192.87c-0.28,0-0.57-0.12-0.76-0.36l-18.09-22.05c-0.34-0.42-0.28-1.04,0.14-1.38
			c0.42-0.34,1.04-0.28,1.38,0.14l18.09,22.05c0.34,0.42,0.28,1.04-0.14,1.38C999.46,192.8,999.24,192.87,999.02,192.87z"/>
	</g>
	<path class="st1" d="M911.36,79.14l-14.13-4.36L900,88.65L911.36,79.14z"/>
	<path class="st2" d="M893.14,76.77c2.24-2.77,6.34-2.77,8.58,0l75.91,94.26c1.19,1.45,1.45,3.04,1.06,4.62v4.75H816.04v-5.68
		c0-0.26,0-0.4,0-0.53v-0.13l0,0c0.13-1.06,0.53-2.11,1.19-3.04L893.14,76.77z"/>
	<path class="st2" d="M907.26,81.25c2.24-2.9,6.6-2.9,8.85,0l71.42,95.06c0.79,1.06,1.19,2.24,1.06,3.43h0.13v8.71l-11.75,10.03
		H834.65v-18.75h0.13c0-1.19,0.26-2.38,1.06-3.43L907.26,81.25z"/>
	<path class="st3" d="M893,77.43c2.24-2.9,6.6-2.9,8.85,0l73.93,98.49c0.92,1.19,1.19,2.64,1.06,3.96v18.62H818.02v-18.62
		c-0.13-1.32,0.13-2.64,1.06-3.96L893,77.43z"/>
	<rect x="818.02" y="186.61" class="st1" width="158.82" height="11.75"/>
	<g>
		<path class="st0" d="M800.98,200c-0.22,0-0.45-0.08-0.63-0.23c-0.42-0.35-0.47-0.97-0.12-1.38l18.48-22.05
			c0.35-0.42,0.97-0.47,1.38-0.12c0.42,0.35,0.47,0.97,0.12,1.38l-18.48,22.05C801.54,199.88,801.26,200,800.98,200z"/>
	</g>
	<g>
		<path class="st0" d="M994.53,199.6c-0.28,0-0.57-0.12-0.76-0.36l-18.09-22.05c-0.34-0.42-0.28-1.04,0.14-1.38s1.04-0.28,1.38,0.14
			L995.29,198c0.34,0.42,0.28,1.04-0.14,1.38C994.97,199.53,994.75,199.6,994.53,199.6z"/>
	</g>
	<rect x="871.09" y="129.71" class="st4" width="51.49" height="56.9"/>
	<g class="st16">
		
			<linearGradient id="SVGID_00000150082806167041098120000004257665564056590490_" gradientUnits="userSpaceOnUse" x1="896.8326" y1="926.0955" x2="896.8326" y2="975.647" gradientTransform="matrix(1 0 0 1 0 -801.4835)">
			<stop  offset="0" style="stop-color:#FDF7E2"/>
			<stop  offset="1" style="stop-color:#FDF7E2;stop-opacity:0"/>
		</linearGradient>
		<path style="fill:url(#SVGID_00000150082806167041098120000004257665564056590490_);" d="M896.83,118.62l34.33,58.35h-68.65
			L896.83,118.62z"/>
	</g>
	<rect x="871.09" y="117.82" class="st7" width="51.49" height="16.63"/>
	<g>
		<path class="st8" d="M921.39,127.59h-51.62l0,0l0,0c-1.45,0-2.64,2.9-2.64,6.47c0,3.56,1.19,6.47,2.64,6.47l0,0l0,0h51.62V127.59
			L921.39,127.59z"/>
		<ellipse class="st9" cx="921.26" cy="134.06" rx="2.51" ry="6.47"/>
	</g>
	<line class="st10" x1="936.44" y1="118.09" x2="860.66" y2="118.09"/>
</g>
</svg>
