<?xml version="1.0" encoding="utf-8"?>
<!-- Generator: Adobe Illustrator 28.1.0, SVG Export Plug-In . SVG Version: 6.00 Build 0)  -->
<svg version="1.1" id="레이어_1" xmlns="http://www.w3.org/2000/svg" xmlns:xlink="http://www.w3.org/1999/xlink" x="0px"
	 y="0px" viewBox="0 0 200 200" style="enable-background:new 0 0 200 200;" xml:space="preserve">
<style type="text/css">
	.st0{fill:#A366A7;stroke:#7E4888;stroke-width:1.2685;stroke-miterlimit:10;}
	.st1{fill:#E95B8C;stroke:#C54C75;stroke-width:1.2685;stroke-miterlimit:10;}
	.st2{fill:#79B337;stroke:#5D9C34;stroke-width:1.2685;stroke-miterlimit:10;}
	.st3{fill:#F0D152;stroke:#F5BC1D;stroke-width:1.2685;stroke-miterlimit:10;}
	.st4{fill:#4ABED2;stroke:#1CA4B4;stroke-width:1.2685;stroke-miterlimit:10;}
</style>
<g>
	<path class="st0" d="M24.45,198.31H3.03c-1.67,0-3.03-1.36-3.03-3.03v-21.42c0-1.67,1.36-3.03,3.03-3.03h21.42
		c1.67,0,3.03,1.36,3.03,3.03v21.42C27.48,196.95,26.13,198.31,24.45,198.31z"/>
	<path class="st0" d="M53.21,198.31H31.78c-1.67,0-3.03-1.36-3.03-3.03v-21.42c0-1.67,1.36-3.03,3.03-3.03h21.42
		c1.67,0,3.03,1.36,3.03,3.03v21.42C56.24,196.95,54.88,198.31,53.21,198.31z"/>
	<path class="st0" d="M81.96,198.31H60.54c-1.67,0-3.03-1.36-3.03-3.03v-21.42c0-1.67,1.36-3.03,3.03-3.03h21.42
		c1.67,0,3.03,1.36,3.03,3.03v21.42C84.99,196.95,83.63,198.31,81.96,198.31z"/>
	<path class="st0" d="M110.71,198.31H89.29c-1.67,0-3.03-1.36-3.03-3.03v-21.42c0-1.67,1.36-3.03,3.03-3.03h21.42
		c1.67,0,3.03,1.36,3.03,3.03v21.42C113.74,196.95,112.39,198.31,110.71,198.31z"/>
	<path class="st1" d="M110.71,169.56H89.29c-1.67,0-3.03-1.36-3.03-3.03V145.1c0-1.67,1.36-3.03,3.03-3.03h21.42
		c1.67,0,3.03,1.36,3.03,3.03v21.42C113.74,168.2,112.39,169.56,110.71,169.56z"/>
	<path class="st1" d="M110.08,29.18H88.65c-1.67,0-3.03-1.36-3.03-3.03V4.72c0-1.67,1.36-3.03,3.03-3.03h21.42
		c1.67,0,3.03,1.36,3.03,3.03v21.42C113.11,27.82,111.75,29.18,110.08,29.18z"/>
	<path class="st1" d="M138.83,29.18h-21.42c-1.67,0-3.03-1.36-3.03-3.03V4.72c0-1.67,1.36-3.03,3.03-3.03h21.42
		c1.67,0,3.03,1.36,3.03,3.03v21.42C141.86,27.82,140.5,29.18,138.83,29.18z"/>
	<path class="st1" d="M138.83,57.93h-21.42c-1.67,0-3.03-1.36-3.03-3.03V33.47c0-1.67,1.36-3.03,3.03-3.03h21.42
		c1.67,0,3.03,1.36,3.03,3.03V54.9C141.86,56.57,140.5,57.93,138.83,57.93z"/>
	<path class="st1" d="M167.58,57.93h-21.42c-1.67,0-3.03-1.36-3.03-3.03V33.47c0-1.67,1.36-3.03,3.03-3.03h21.42
		c1.67,0,3.03,1.36,3.03,3.03V54.9C170.61,56.57,169.26,57.93,167.58,57.93z"/>
	<path class="st1" d="M139.46,169.56h-21.42c-1.67,0-3.03-1.36-3.03-3.03V145.1c0-1.67,1.36-3.03,3.03-3.03h21.42
		c1.67,0,3.03,1.36,3.03,3.03v21.42C142.49,168.2,141.14,169.56,139.46,169.56z"/>
	<path class="st2" d="M168.22,169.56h-21.42c-1.67,0-3.03-1.36-3.03-3.03V145.1c0-1.67,1.36-3.03,3.03-3.03h21.42
		c1.67,0,3.03,1.36,3.03,3.03v21.42C171.25,168.2,169.89,169.56,168.22,169.56z"/>
	<path class="st2" d="M196.97,169.56h-21.42c-1.67,0-3.03-1.36-3.03-3.03V145.1c0-1.67,1.36-3.03,3.03-3.03h21.42
		c1.67,0,3.03,1.36,3.03,3.03v21.42C200,168.2,198.64,169.56,196.97,169.56z"/>
	<path class="st2" d="M196.97,198.31h-21.42c-1.67,0-3.03-1.36-3.03-3.03v-21.42c0-1.67,1.36-3.03,3.03-3.03h21.42
		c1.67,0,3.03,1.36,3.03,3.03v21.42C200,196.95,198.64,198.31,196.97,198.31z"/>
	<path class="st2" d="M168.22,140.8h-21.42c-1.67,0-3.03-1.36-3.03-3.03v-21.42c0-1.67,1.36-3.03,3.03-3.03h21.42
		c1.67,0,3.03,1.36,3.03,3.03v21.42C171.25,139.45,169.89,140.8,168.22,140.8z"/>
	<path class="st1" d="M139.46,198.31h-21.42c-1.67,0-3.03-1.36-3.03-3.03v-21.42c0-1.67,1.36-3.03,3.03-3.03h21.42
		c1.67,0,3.03,1.36,3.03,3.03v21.42C142.49,196.95,141.14,198.31,139.46,198.31z"/>
	<path class="st1" d="M168.22,198.31h-21.42c-1.67,0-3.03-1.36-3.03-3.03v-21.42c0-1.67,1.36-3.03,3.03-3.03h21.42
		c1.67,0,3.03,1.36,3.03,3.03v21.42C171.25,196.95,169.89,198.31,168.22,198.31z"/>
	<path class="st3" d="M24.45,140.8H3.03c-1.67,0-3.03-1.36-3.03-3.03v-21.42c0-1.67,1.36-3.03,3.03-3.03h21.42
		c1.67,0,3.03,1.36,3.03,3.03v21.42C27.48,139.45,26.13,140.8,24.45,140.8z"/>
	<path class="st3" d="M53.21,140.8H31.78c-1.67,0-3.03-1.36-3.03-3.03v-21.42c0-1.67,1.36-3.03,3.03-3.03h21.42
		c1.67,0,3.03,1.36,3.03,3.03v21.42C56.24,139.45,54.88,140.8,53.21,140.8z"/>
	<path class="st4" d="M81.32,169.56H59.9c-1.67,0-3.03-1.36-3.03-3.03V145.1c0-1.67,1.36-3.03,3.03-3.03h21.42
		c1.67,0,3.03,1.36,3.03,3.03v21.42C84.36,168.2,83,169.56,81.32,169.56z"/>
	<path class="st4" d="M81.32,140.8H59.9c-1.67,0-3.03-1.36-3.03-3.03v-21.42c0-1.67,1.36-3.03,3.03-3.03h21.42
		c1.67,0,3.03,1.36,3.03,3.03v21.42C84.36,139.45,83,140.8,81.32,140.8z"/>
	<path class="st4" d="M110.08,140.8H88.65c-1.67,0-3.03-1.36-3.03-3.03v-21.42c0-1.67,1.36-3.03,3.03-3.03h21.42
		c1.67,0,3.03,1.36,3.03,3.03v21.42C113.11,139.45,111.75,140.8,110.08,140.8z"/>
	<path class="st4" d="M81.32,112.05H59.9c-1.67,0-3.03-1.36-3.03-3.03V87.6c0-1.67,1.36-3.03,3.03-3.03h21.42
		c1.67,0,3.03,1.36,3.03,3.03v21.42C84.36,110.69,83,112.05,81.32,112.05z"/>
	<path class="st3" d="M24.45,169.56H3.03c-1.67,0-3.03-1.36-3.03-3.03V145.1c0-1.67,1.36-3.03,3.03-3.03h21.42
		c1.67,0,3.03,1.36,3.03,3.03v21.42C27.48,168.2,26.13,169.56,24.45,169.56z"/>
	<path class="st3" d="M53.21,169.56H31.78c-1.67,0-3.03-1.36-3.03-3.03V145.1c0-1.67,1.36-3.03,3.03-3.03h21.42
		c1.67,0,3.03,1.36,3.03,3.03v21.42C56.24,168.2,54.88,169.56,53.21,169.56z"/>
</g>
</svg>
