<?xml version="1.0" encoding="utf-8"?>
<!-- Generator: Adobe Illustrator 28.1.0, SVG Export Plug-In . SVG Version: 6.00 Build 0)  -->
<svg version="1.1" id="레이어_1" xmlns="http://www.w3.org/2000/svg" xmlns:xlink="http://www.w3.org/1999/xlink" x="0px"
	 y="0px" viewBox="0 0 200 200" style="enable-background:new 0 0 200 200;" xml:space="preserve">
<style type="text/css">
	.st0{fill:#514F50;}
	.st1{fill:#65BEE2;}
	.st2{fill:#3C3C3C;}
	.st3{fill:#F0F0F0;}
	.st4{fill:#24A28F;}
	.st5{fill:#078774;}
	.st6{fill:#47BAA9;}
	.st7{fill:#F0AE17;}
	.st8{fill:#D2D2D2;}
</style>
<g>
	<path class="st0" d="M190.65,21.24H9.35C4.19,21.24,0,25.42,0,30.59v124.25c0,5.16,4.19,9.35,9.35,9.35h181.3
		c5.16,0,9.35-4.19,9.35-9.35V30.59C200,25.42,195.81,21.24,190.65,21.24z"/>
	<path class="st0" d="M122.35,177.65v-21.39H77.65v21.39c0,7.64-5.95,13.88-13.47,14.37v0.05h71.63v-0.05
		C128.3,191.54,122.35,185.3,122.35,177.65z"/>
	<rect x="15.21" y="35.82" class="st1" width="170.52" height="99.52"/>
	<circle class="st2" cx="100" cy="149.92" r="6.66"/>
	<rect x="28.84" y="7.92" class="st3" width="143.26" height="127.42"/>
	<g>
		<polygon class="st4" points="67.78,82.52 56.9,71.64 43.42,85.11 43.42,99.66 50.65,99.65 		"/>
		<polygon class="st5" points="43.42,49.76 43.42,85.11 56.9,71.64 67.78,82.52 78.68,71.64 93.34,86.28 93.34,49.76 		"/>
		<polygon class="st6" points="84.87,99.61 67.78,82.52 50.65,99.65 		"/>
		<polygon class="st6" points="67.78,82.52 84.87,99.61 50.65,99.65 50.62,99.68 93.34,99.62 93.34,86.28 78.68,71.64 		"/>
	</g>
	<circle class="st7" cx="68.15" cy="64.34" r="7.29"/>
	<rect x="100" y="49.76" class="st8" width="56.89" height="7.3"/>
	<rect x="100" y="64.05" class="st8" width="56.89" height="7.3"/>
	<rect x="100" y="78.34" class="st8" width="56.89" height="7.3"/>
	<rect x="100" y="92.63" class="st8" width="56.89" height="7.3"/>
	<rect x="43.42" y="106.92" class="st8" width="113.48" height="7.3"/>
	<rect x="43.42" y="121.21" class="st8" width="113.48" height="7.3"/>
	<rect x="43.42" y="21.24" class="st6" width="113.48" height="14.58"/>
</g>
</svg>
