<?xml version="1.0" encoding="utf-8"?>
<!-- Generator: Adobe Illustrator 28.1.0, SVG Export Plug-In . SVG Version: 6.00 Build 0)  -->
<svg version="1.1" id="레이어_1" xmlns="http://www.w3.org/2000/svg" xmlns:xlink="http://www.w3.org/1999/xlink" x="0px"
	 y="0px" viewBox="0 0 1000 200" style="enable-background:new 0 0 1000 200;" xml:space="preserve">
<style type="text/css">
	.st0{fill:#597860;}
	.st1{fill-rule:evenodd;clip-rule:evenodd;fill:#295333;}
	.st2{fill:#295333;}
	.st3{fill:#FAF9E0;}
	.st4{fill:#082913;}
	.st5{fill:#F4DFC1;}
	.st6{fill:#F9EAD4;}
	.st7{fill:#FFFEF7;}
	.st8{fill:#C6974E;}
	.st9{fill:none;stroke:#082913;stroke-width:0.756;}
	.st10{fill:none;stroke:#825925;stroke-width:0.756;}
	.st11{fill:#DBB986;}
	.st12{fill:#DBB986;stroke:#FAF9E0;stroke-width:0.756;stroke-linecap:round;}
	.st13{fill:#AABEB6;stroke:#F4DFC1;stroke-width:2.2682;}
	.st14{fill:none;stroke:#FAF9E0;stroke-width:1.5121;}
	.st15{fill:#AABEB6;}
	.st16{fill-rule:evenodd;clip-rule:evenodd;fill:#C6974E;}
	.st17{fill:#825925;}
	.st18{fill:url(#SVGID_1_);fill-opacity:0;}
	.st19{fill:url(#SVGID_00000060728552759383854550000008252478423545889683_);fill-opacity:0;}
	.st20{opacity:0.3;fill:url(#SVGID_00000155142050404742378140000010799574890466647968_);enable-background:new    ;}
	.st21{opacity:0.3;fill:url(#SVGID_00000142886574558315052960000007111019450126121618_);enable-background:new    ;}
	.st22{fill:url(#SVGID_00000057833728951786162870000014563346499222880391_);}
	.st23{fill:url(#SVGID_00000066501618556617846490000004773435854822307491_);}
	.st24{opacity:0.7;fill:url(#SVGID_00000013911135746311744480000018120519110401626044_);enable-background:new    ;}
	.st25{opacity:0.7;fill:url(#SVGID_00000027590032795215663600000011392556708337227946_);enable-background:new    ;}
	.st26{opacity:0.4;fill:url(#SVGID_00000023242416452974708090000001417914201522888368_);enable-background:new    ;}
	.st27{opacity:0.4;fill:url(#SVGID_00000052791001084050601820000014277460159912260531_);enable-background:new    ;}
</style>
<g>
	<path class="st0" d="M7.34,48.53h185.4l4.73,65.48H2.61L7.34,48.53z"/>
	<g>
		<path class="st1" d="M7.34,48.53h185.4l1.18,13.81h-22.86c-0.64,0.76-1.38,1.46-2.22,2.1c-1.57,1.21-3.45,2.17-5.5,2.82
			c-2.06,0.65-4.26,0.99-6.49,0.99c-2.23,0-4.43-0.34-6.49-0.99s-3.93-1.61-5.5-2.82c-0.84-0.64-1.58-1.35-2.22-2.1H59.03
			c-0.64,0.76-1.39,1.46-2.22,2.1c-1.57,1.21-3.44,2.17-5.5,2.82s-4.26,0.99-6.49,0.99s-4.43-0.34-6.49-0.99
			c-2.06-0.65-3.93-1.61-5.5-2.82c-0.84-0.64-1.58-1.35-2.22-2.1H7.34V48.53z"/>
	</g>
	<path class="st2" d="M95.74,31.41c2.42-2.98,6.96-2.98,9.38,0l72,88.5c3.22,3.95,0.4,9.87-4.69,9.87h-144
		c-5.09,0-7.91-5.91-4.69-9.87L95.74,31.41z"/>
	<rect y="104.56" class="st2" width="200" height="12.61"/>
	<rect y="110" class="st3" width="200" height="7.17"/>
	<path class="st3" d="M98.68,37.28c0.91-1.12,2.61-1.12,3.52,0l68.34,84.07c1.21,1.48,0.15,3.7-1.76,3.7H32.1
		c-1.91,0-2.96-2.22-1.76-3.7L98.68,37.28z"/>
	<path class="st4" d="M33.38,49.74c0-4.59,3.72-8.32,8.32-8.32h6.25c4.59,0,8.32,3.72,8.32,8.32v9.04H33.38V49.74z"/>
	<path class="st4" d="M144.61,49.74c0-4.59,3.72-8.32,8.32-8.32h6.25c4.59,0,8.32,3.72,8.32,8.32v9.04h-22.88L144.61,49.74
		L144.61,49.74z"/>
	<path class="st5" d="M38.9,117.16l61.14-72.98l61.14,72.98V200H38.9V117.16z"/>
	<rect x="2.61" y="117.16" class="st6" width="36.29" height="82.84"/>
	<rect x="161.18" y="117.16" class="st6" width="36.29" height="82.84"/>
	<ellipse class="st7" cx="135.94" cy="133.73" rx="5.52" ry="5.52"/>
	<ellipse class="st7" cx="64.14" cy="133.73" rx="5.52" ry="5.52"/>
	<path class="st8" d="M64.14,123.47l3.42,5.92h-6.83L64.14,123.47z"/>
	<path class="st8" d="M135.94,123.47l3.42,5.92h-6.83L135.94,123.47z"/>
	<path class="st0" d="M75.98,135.31c0-10.02,8.12-18.15,18.15-18.15h12.62c10.02,0,18.15,8.12,18.15,18.15V200H75.98V135.31z"/>
	<path class="st9" d="M85.82,139.51c0-6.47,5.25-11.72,11.72-11.72h5.79c6.47,0,11.72,5.25,11.72,11.72v60.11H85.82V139.51z"/>
	<rect x="85.82" y="155.41" class="st9" width="29.22" height="11.08"/>
	<line class="st9" x1="95.29" y1="128.21" x2="95.29" y2="155.03"/>
	<line class="st9" x1="105.55" y1="128.21" x2="105.55" y2="155.03"/>
	<line class="st9" x1="95.29" y1="166.86" x2="95.29" y2="199.21"/>
	<line class="st9" x1="105.55" y1="166.86" x2="105.55" y2="199.21"/>
	<path class="st10" d="M84.28,161.34c0,1.97-1.6,3.57-3.57,3.57s-3.57-1.6-3.57-3.57s1.6-3.57,3.57-3.57S84.28,159.37,84.28,161.34z
		"/>
	<ellipse class="st11" cx="80.71" cy="161.34" rx="3.16" ry="3.16"/>
	<ellipse class="st3" cx="79.92" cy="160.55" rx="0.79" ry="0.79"/>
	<path class="st8" d="M20.75,126.63l8.88,6.51H11.87L20.75,126.63z"/>
	<path class="st12" d="M20.75,123.47l-11.83,7.1l2.37,3.16l9.47-5.52l9.47,5.52l2.37-3.16L20.75,123.47z"/>
	<rect x="13.21" y="134.86" class="st13" width="15.09" height="22.19"/>
	<line class="st14" x1="20.72" y1="136.09" x2="20.72" y2="155.82"/>
	<line class="st14" x1="27.07" y1="144.74" x2="14.44" y2="144.74"/>
	<rect x="8.13" y="132.15" class="st3" width="24.46" height="3.16"/>
	<path class="st8" d="M179.33,126.63l8.88,6.51h-17.76L179.33,126.63z"/>
	<path class="st12" d="M179.33,123.47l-11.83,7.1l2.37,3.16l9.47-5.52l9.47,5.52l2.37-3.16L179.33,123.47z"/>
	<rect x="171.78" y="134.86" class="st13" width="15.09" height="22.19"/>
	<line class="st14" x1="179.29" y1="136.09" x2="179.29" y2="155.82"/>
	<line class="st14" x1="185.64" y1="144.74" x2="173.01" y2="144.74"/>
	<rect x="166.7" y="132.15" class="st3" width="24.46" height="3.16"/>
	<rect x="86.23" y="72.98" class="st15" width="28.4" height="34.71"/>
	<rect x="98.07" y="70.62" class="st11" width="4.73" height="35.5"/>
	<rect x="87.81" y="85.6" class="st5" width="25.25" height="4.73"/>
	<path class="st16" d="M116.21,70.62H84.66v35.5h31.56v-35.5H116.21z M113.06,73.77H87.81v29.19h25.25V73.77z"/>
	<path class="st17" d="M80.71,108.32c0-2.09,1.69-3.78,3.78-3.78h31.89c2.09,0,3.78,1.69,3.78,3.78v1.74H80.71V108.32z"/>
	
		<linearGradient id="SVGID_1_" gradientUnits="userSpaceOnUse" x1="64.1022" y1="779.1915" x2="64.1022" y2="832.5511" gradientTransform="matrix(1 0 0 1 -0.0222 -641.4843)">
		<stop  offset="0" style="stop-color:#FFFEF6"/>
		<stop  offset="1" style="stop-color:#FFFEF6;stop-opacity:0"/>
	</linearGradient>
	<path class="st18" d="M64.08,131.3l41,62.78h-82L64.08,131.3z"/>
	
		<linearGradient id="SVGID_00000089572745132229225920000016847716612747053213_" gradientUnits="userSpaceOnUse" x1="135.8422" y1="779.1915" x2="135.8422" y2="832.5511" gradientTransform="matrix(1 0 0 1 -0.0222 -641.4843)">
		<stop  offset="0" style="stop-color:#FFFEF6"/>
		<stop  offset="1" style="stop-color:#FFFEF6;stop-opacity:0"/>
	</linearGradient>
	<path style="fill:url(#SVGID_00000089572745132229225920000016847716612747053213_);fill-opacity:0;" d="M135.82,131.3l41,62.78
		h-82L135.82,131.3z"/>
</g>
<g>
	<path class="st0" d="M207.34,48.53h185.4l4.73,65.48H202.61L207.34,48.53z"/>
	<g>
		<path class="st1" d="M207.34,48.53h185.4l1.18,13.81h-22.86c-0.64,0.76-1.39,1.46-2.22,2.1c-1.58,1.21-3.45,2.17-5.5,2.82
			c-2.06,0.65-4.26,0.99-6.49,0.99c-2.23,0-4.43-0.34-6.49-0.99s-3.93-1.61-5.5-2.82c-0.84-0.64-1.58-1.35-2.22-2.1h-83.59
			c-0.64,0.76-1.39,1.46-2.22,2.1c-1.57,1.21-3.44,2.17-5.5,2.82s-4.26,0.99-6.49,0.99c-2.23,0-4.43-0.34-6.49-0.99
			c-2.06-0.65-3.93-1.61-5.5-2.82c-0.84-0.64-1.58-1.35-2.22-2.1h-23.26V48.53H207.34z"/>
	</g>
	<path class="st2" d="M295.74,31.41c2.42-2.98,6.96-2.98,9.38,0l72,88.5c3.22,3.95,0.4,9.87-4.69,9.87h-144
		c-5.09,0-7.91-5.91-4.69-9.87L295.74,31.41z"/>
	<rect x="200" y="104.56" class="st2" width="200" height="12.61"/>
	<rect x="200" y="110" class="st3" width="200" height="7.17"/>
	<path class="st3" d="M298.67,37.28c0.91-1.12,2.61-1.12,3.52,0l68.34,84.07c1.21,1.48,0.15,3.7-1.76,3.7H232.1
		c-1.91,0-2.96-2.22-1.76-3.7L298.67,37.28z"/>
	<path class="st4" d="M233.38,49.74c0-4.59,3.72-8.32,8.32-8.32h6.25c4.59,0,8.32,3.72,8.32,8.32v9.04h-22.88v-9.04H233.38z"/>
	<path class="st4" d="M344.61,49.74c0-4.59,3.72-8.32,8.32-8.32h6.25c4.59,0,8.32,3.72,8.32,8.32v9.04h-22.88v-9.04H344.61z"/>
	<path class="st5" d="M238.9,117.16l61.14-72.98l61.14,72.98V200H238.9V117.16z"/>
	<rect x="202.61" y="117.16" class="st6" width="36.29" height="82.84"/>
	<rect x="361.18" y="117.16" class="st6" width="36.29" height="82.84"/>
	<ellipse class="st7" cx="335.94" cy="133.73" rx="5.52" ry="5.52"/>
	<ellipse class="st7" cx="264.14" cy="133.73" rx="5.52" ry="5.52"/>
	<path class="st8" d="M264.14,123.47l3.42,5.92h-6.83L264.14,123.47z"/>
	<path class="st8" d="M335.94,123.47l3.42,5.92h-6.83L335.94,123.47z"/>
	<path class="st0" d="M275.98,135.31c0-10.02,8.12-18.15,18.15-18.15h12.62c10.02,0,18.15,8.12,18.15,18.15V200h-48.91
		L275.98,135.31L275.98,135.31z"/>
	<path class="st9" d="M285.82,139.51c0-6.47,5.25-11.72,11.72-11.72h5.79c6.47,0,11.72,5.25,11.72,11.72v60.11h-29.22v-60.11H285.82
		z"/>
	<rect x="285.82" y="155.41" class="st9" width="29.22" height="11.08"/>
	<line class="st9" x1="295.29" y1="128.21" x2="295.29" y2="155.03"/>
	<line class="st9" x1="305.55" y1="128.21" x2="305.55" y2="155.03"/>
	<line class="st9" x1="295.29" y1="166.86" x2="295.29" y2="199.21"/>
	<line class="st9" x1="305.55" y1="166.86" x2="305.55" y2="199.21"/>
	<path class="st10" d="M284.28,161.34c0,1.97-1.6,3.57-3.57,3.57s-3.57-1.6-3.57-3.57s1.6-3.57,3.57-3.57
		S284.28,159.37,284.28,161.34z"/>
	<ellipse class="st11" cx="280.71" cy="161.34" rx="3.16" ry="3.16"/>
	<ellipse class="st3" cx="279.92" cy="160.55" rx="0.79" ry="0.79"/>
	<path class="st8" d="M220.75,126.63l8.88,6.51h-17.76L220.75,126.63z"/>
	<path class="st12" d="M220.75,123.47l-11.83,7.1l2.37,3.16l9.47-5.52l9.47,5.52l2.37-3.16L220.75,123.47z"/>
	<rect x="213.21" y="134.86" class="st13" width="15.09" height="22.19"/>
	<line class="st14" x1="220.72" y1="136.09" x2="220.72" y2="155.82"/>
	<line class="st14" x1="227.07" y1="144.74" x2="214.44" y2="144.74"/>
	<rect x="208.13" y="132.15" class="st3" width="24.46" height="3.16"/>
	<path class="st8" d="M379.33,126.63l8.88,6.51h-17.76L379.33,126.63z"/>
	<path class="st12" d="M379.33,123.47l-11.83,7.1l2.37,3.16l9.47-5.52l9.47,5.52l2.37-3.16L379.33,123.47z"/>
	<rect x="371.78" y="134.86" class="st13" width="15.09" height="22.19"/>
	<line class="st14" x1="379.29" y1="136.09" x2="379.29" y2="155.82"/>
	<line class="st14" x1="385.64" y1="144.74" x2="373.01" y2="144.74"/>
	<rect x="366.7" y="132.15" class="st3" width="24.46" height="3.16"/>
	<rect x="286.23" y="72.98" class="st15" width="28.4" height="34.71"/>
	<rect x="298.07" y="70.62" class="st11" width="4.73" height="35.5"/>
	<rect x="287.81" y="85.6" class="st5" width="25.25" height="4.73"/>
	<path class="st16" d="M316.21,70.62h-31.56v35.5h31.56V70.62z M313.06,73.77h-25.25v29.19h25.25V73.77z"/>
	<path class="st17" d="M280.71,108.32c0-2.09,1.69-3.78,3.78-3.78h31.89c2.09,0,3.78,1.69,3.78,3.78v1.74h-39.45V108.32z"/>
	
		<linearGradient id="SVGID_00000067232513783454529140000010322095697658760593_" gradientUnits="userSpaceOnUse" x1="264.1022" y1="779.1915" x2="264.1022" y2="832.5511" gradientTransform="matrix(1 0 0 1 -0.0222 -641.4843)">
		<stop  offset="0" style="stop-color:#FFFEF6"/>
		<stop  offset="1" style="stop-color:#FFFEF6;stop-opacity:0"/>
	</linearGradient>
	<path style="opacity:0.3;fill:url(#SVGID_00000067232513783454529140000010322095697658760593_);enable-background:new    ;" d="
		M264.08,131.3l41,62.78h-82L264.08,131.3z"/>
	
		<linearGradient id="SVGID_00000078034365542492441270000009513923725667247007_" gradientUnits="userSpaceOnUse" x1="335.8422" y1="779.1915" x2="335.8422" y2="832.5511" gradientTransform="matrix(1 0 0 1 -0.0222 -641.4843)">
		<stop  offset="0" style="stop-color:#FFFEF6"/>
		<stop  offset="1" style="stop-color:#FFFEF6;stop-opacity:0"/>
	</linearGradient>
	<path style="opacity:0.3;fill:url(#SVGID_00000078034365542492441270000009513923725667247007_);enable-background:new    ;" d="
		M335.82,131.3l41,62.78h-82L335.82,131.3z"/>
</g>
<g>
	<path class="st0" d="M407.34,48.53h185.4l4.73,65.48H402.61L407.34,48.53z"/>
	<g>
		<path class="st1" d="M407.34,48.53h185.4l1.18,13.81h-22.86c-0.64,0.76-1.39,1.46-2.22,2.1c-1.58,1.21-3.45,2.17-5.5,2.82
			c-2.06,0.65-4.26,0.99-6.49,0.99s-4.43-0.34-6.49-0.99s-3.93-1.61-5.5-2.82c-0.84-0.64-1.58-1.35-2.22-2.1h-83.59
			c-0.64,0.76-1.39,1.46-2.22,2.1c-1.57,1.21-3.45,2.17-5.5,2.82s-4.26,0.99-6.49,0.99s-4.43-0.34-6.49-0.99s-3.93-1.61-5.5-2.82
			c-0.84-0.64-1.58-1.35-2.22-2.1h-23.26V48.53H407.34z"/>
	</g>
	<path class="st2" d="M495.74,31.41c2.42-2.98,6.96-2.98,9.38,0l72,88.5c3.22,3.95,0.4,9.87-4.69,9.87h-144
		c-5.09,0-7.91-5.91-4.69-9.87L495.74,31.41z"/>
	<rect x="400" y="104.56" class="st2" width="200" height="12.61"/>
	<rect x="400" y="110" class="st3" width="200" height="7.17"/>
	<path class="st3" d="M498.67,37.28c0.91-1.12,2.61-1.12,3.52,0l68.34,84.07c1.21,1.48,0.15,3.7-1.76,3.7H432.1
		c-1.91,0-2.96-2.22-1.76-3.7L498.67,37.28z"/>
	<path class="st4" d="M433.38,49.74c0-4.59,3.72-8.32,8.32-8.32h6.25c4.59,0,8.32,3.72,8.32,8.32v9.04h-22.88v-9.04H433.38z"/>
	<path class="st4" d="M544.61,49.74c0-4.59,3.72-8.32,8.32-8.32h6.25c4.59,0,8.32,3.72,8.32,8.32v9.04h-22.88v-9.04H544.61z"/>
	<path class="st5" d="M438.9,117.16l61.14-72.98l61.14,72.98V200H438.9V117.16z"/>
	<rect x="402.61" y="117.16" class="st6" width="36.29" height="82.84"/>
	<rect x="561.18" y="117.16" class="st6" width="36.29" height="82.84"/>
	<ellipse class="st7" cx="535.94" cy="133.73" rx="5.52" ry="5.52"/>
	<ellipse class="st7" cx="464.14" cy="133.73" rx="5.52" ry="5.52"/>
	<path class="st8" d="M464.14,123.47l3.42,5.92h-6.83L464.14,123.47z"/>
	<path class="st8" d="M535.94,123.47l3.42,5.92h-6.83L535.94,123.47z"/>
	<path class="st0" d="M475.98,135.31c0-10.02,8.12-18.15,18.15-18.15h12.62c10.02,0,18.15,8.12,18.15,18.15V200h-48.91v-64.69
		H475.98z"/>
	<path class="st9" d="M485.82,139.51c0-6.47,5.25-11.72,11.72-11.72h5.79c6.47,0,11.72,5.25,11.72,11.72v60.11h-29.22L485.82,139.51
		L485.82,139.51z"/>
	<rect x="485.82" y="155.41" class="st9" width="29.22" height="11.08"/>
	<line class="st9" x1="495.29" y1="128.21" x2="495.29" y2="155.03"/>
	<line class="st9" x1="505.55" y1="128.21" x2="505.55" y2="155.03"/>
	<line class="st9" x1="495.29" y1="166.86" x2="495.29" y2="199.21"/>
	<line class="st9" x1="505.55" y1="166.86" x2="505.55" y2="199.21"/>
	<path class="st10" d="M484.28,161.34c0,1.97-1.6,3.57-3.57,3.57s-3.57-1.6-3.57-3.57s1.6-3.57,3.57-3.57
		S484.28,159.37,484.28,161.34z"/>
	<ellipse class="st11" cx="480.71" cy="161.34" rx="3.16" ry="3.16"/>
	<ellipse class="st3" cx="479.92" cy="160.55" rx="0.79" ry="0.79"/>
	<path class="st8" d="M420.75,126.63l8.88,6.51h-17.76L420.75,126.63z"/>
	<path class="st12" d="M420.75,123.47l-11.83,7.1l2.37,3.16l9.47-5.52l9.47,5.52l2.37-3.16L420.75,123.47z"/>
	<rect x="413.21" y="134.86" class="st13" width="15.09" height="22.19"/>
	<line class="st14" x1="420.72" y1="136.09" x2="420.72" y2="155.82"/>
	<line class="st14" x1="427.07" y1="144.74" x2="414.44" y2="144.74"/>
	<rect x="408.13" y="132.15" class="st3" width="24.46" height="3.16"/>
	<path class="st8" d="M579.33,126.63l8.88,6.51h-17.76L579.33,126.63z"/>
	<path class="st12" d="M579.33,123.47l-11.83,7.1l2.37,3.16l9.47-5.52l9.47,5.52l2.37-3.16L579.33,123.47z"/>
	<rect x="571.78" y="134.86" class="st13" width="15.09" height="22.19"/>
	<line class="st14" x1="579.29" y1="136.09" x2="579.29" y2="155.82"/>
	<line class="st14" x1="585.64" y1="144.74" x2="573.02" y2="144.74"/>
	<rect x="566.7" y="132.15" class="st3" width="24.46" height="3.16"/>
	<rect x="486.23" y="72.98" class="st15" width="28.4" height="34.71"/>
	<rect x="498.07" y="70.62" class="st11" width="4.73" height="35.5"/>
	<rect x="487.81" y="85.6" class="st5" width="25.25" height="4.73"/>
	<path class="st16" d="M516.21,70.62h-31.56v35.5h31.56V70.62z M513.06,73.77h-25.25v29.19h25.25V73.77z"/>
	<path class="st17" d="M480.71,108.32c0-2.09,1.69-3.78,3.78-3.78h31.89c2.09,0,3.78,1.69,3.78,3.78v1.74h-39.45L480.71,108.32
		L480.71,108.32z"/>
	
		<linearGradient id="SVGID_00000055694463719821010140000013099586442449607297_" gradientUnits="userSpaceOnUse" x1="464.1022" y1="779.1915" x2="464.1022" y2="832.5511" gradientTransform="matrix(1 0 0 1 -0.0222 -641.4843)">
		<stop  offset="0" style="stop-color:#FFFEF6"/>
		<stop  offset="1" style="stop-color:#FFFEF6;stop-opacity:0"/>
	</linearGradient>
	<path style="fill:url(#SVGID_00000055694463719821010140000013099586442449607297_);" d="M464.08,131.3l41,62.78h-82L464.08,131.3z
		"/>
	
		<linearGradient id="SVGID_00000182518639931565623690000011134586627025187775_" gradientUnits="userSpaceOnUse" x1="535.8422" y1="779.1915" x2="535.8422" y2="832.5511" gradientTransform="matrix(1 0 0 1 -0.0222 -641.4843)">
		<stop  offset="0" style="stop-color:#FFFEF6"/>
		<stop  offset="1" style="stop-color:#FFFEF6;stop-opacity:0"/>
	</linearGradient>
	<path style="fill:url(#SVGID_00000182518639931565623690000011134586627025187775_);" d="M535.82,131.3l41,62.78h-82L535.82,131.3z
		"/>
</g>
<g>
	<path class="st0" d="M607.34,48.53h185.4l4.73,65.48H602.61L607.34,48.53z"/>
	<g>
		<path class="st1" d="M607.34,48.53h185.4l1.18,13.81h-22.86c-0.64,0.76-1.39,1.46-2.22,2.1c-1.58,1.21-3.45,2.17-5.5,2.82
			c-2.06,0.65-4.26,0.99-6.49,0.99s-4.43-0.34-6.49-0.99s-3.93-1.61-5.5-2.82c-0.84-0.64-1.58-1.35-2.22-2.1h-83.59
			c-0.64,0.76-1.39,1.46-2.22,2.1c-1.58,1.21-3.45,2.17-5.5,2.82c-2.06,0.65-4.26,0.99-6.49,0.99s-4.43-0.34-6.49-0.99
			s-3.93-1.61-5.5-2.82c-0.84-0.64-1.58-1.35-2.22-2.1h-23.26V48.53H607.34z"/>
	</g>
	<path class="st2" d="M695.74,31.41c2.42-2.98,6.96-2.98,9.38,0l72,88.5c3.22,3.95,0.4,9.87-4.69,9.87h-144
		c-5.09,0-7.91-5.91-4.69-9.87L695.74,31.41z"/>
	<rect x="600" y="104.56" class="st2" width="200" height="12.61"/>
	<rect x="600" y="110" class="st3" width="200" height="7.17"/>
	<path class="st3" d="M698.67,37.28c0.91-1.12,2.61-1.12,3.52,0l68.34,84.07c1.21,1.48,0.15,3.7-1.76,3.7H632.1
		c-1.91,0-2.96-2.22-1.76-3.7L698.67,37.28z"/>
	<path class="st4" d="M633.38,49.74c0-4.59,3.72-8.32,8.32-8.32h6.25c4.59,0,8.32,3.72,8.32,8.32v9.04h-22.88v-9.04H633.38z"/>
	<path class="st4" d="M744.61,49.74c0-4.59,3.72-8.32,8.32-8.32h6.25c4.59,0,8.32,3.72,8.32,8.32v9.04h-22.88v-9.04H744.61z"/>
	<path class="st5" d="M638.9,117.16l61.14-72.98l61.14,72.98V200H638.9V117.16z"/>
	<rect x="602.61" y="117.16" class="st6" width="36.29" height="82.84"/>
	<rect x="761.18" y="117.16" class="st6" width="36.29" height="82.84"/>
	<ellipse class="st7" cx="735.94" cy="133.73" rx="5.52" ry="5.52"/>
	<ellipse class="st7" cx="664.14" cy="133.73" rx="5.52" ry="5.52"/>
	<path class="st8" d="M664.14,123.47l3.42,5.92h-6.83L664.14,123.47z"/>
	<path class="st8" d="M735.94,123.47l3.42,5.92h-6.83L735.94,123.47z"/>
	<path class="st0" d="M675.98,135.31c0-10.02,8.12-18.15,18.15-18.15h12.62c10.02,0,18.15,8.12,18.15,18.15V200h-48.91v-64.69
		H675.98z"/>
	<path class="st9" d="M685.82,139.51c0-6.47,5.25-11.72,11.72-11.72h5.79c6.47,0,11.72,5.25,11.72,11.72v60.11h-29.22L685.82,139.51
		L685.82,139.51z"/>
	<rect x="685.82" y="155.41" class="st9" width="29.22" height="11.08"/>
	<line class="st9" x1="695.29" y1="128.21" x2="695.29" y2="155.03"/>
	<line class="st9" x1="705.55" y1="128.21" x2="705.55" y2="155.03"/>
	<line class="st9" x1="695.29" y1="166.86" x2="695.29" y2="199.21"/>
	<line class="st9" x1="705.55" y1="166.86" x2="705.55" y2="199.21"/>
	<path class="st10" d="M684.28,161.34c0,1.97-1.6,3.57-3.57,3.57c-1.97,0-3.57-1.6-3.57-3.57s1.6-3.57,3.57-3.57
		C682.68,157.77,684.28,159.37,684.28,161.34z"/>
	<ellipse class="st11" cx="680.71" cy="161.34" rx="3.16" ry="3.16"/>
	<ellipse class="st3" cx="679.92" cy="160.55" rx="0.79" ry="0.79"/>
	<path class="st8" d="M620.75,126.63l8.88,6.51h-17.76L620.75,126.63z"/>
	<path class="st12" d="M620.75,123.47l-11.83,7.1l2.37,3.16l9.47-5.52l9.47,5.52l2.37-3.16L620.75,123.47z"/>
	<rect x="613.21" y="134.86" class="st13" width="15.09" height="22.19"/>
	<line class="st14" x1="620.72" y1="136.09" x2="620.72" y2="155.82"/>
	<line class="st14" x1="627.07" y1="144.74" x2="614.44" y2="144.74"/>
	<rect x="608.13" y="132.15" class="st3" width="24.46" height="3.16"/>
	<path class="st8" d="M779.33,126.63l8.88,6.51h-17.76L779.33,126.63z"/>
	<path class="st12" d="M779.33,123.47l-11.83,7.1l2.37,3.16l9.47-5.52l9.47,5.52l2.37-3.16L779.33,123.47z"/>
	<rect x="771.78" y="134.86" class="st13" width="15.09" height="22.19"/>
	<line class="st14" x1="779.29" y1="136.09" x2="779.29" y2="155.82"/>
	<line class="st14" x1="785.64" y1="144.74" x2="773.02" y2="144.74"/>
	<rect x="766.7" y="132.15" class="st3" width="24.46" height="3.16"/>
	<rect x="686.23" y="72.98" class="st15" width="28.4" height="34.71"/>
	<rect x="698.07" y="70.62" class="st11" width="4.73" height="35.5"/>
	<rect x="687.81" y="85.6" class="st5" width="25.25" height="4.73"/>
	<path class="st16" d="M716.21,70.62h-31.56v35.5h31.56V70.62z M713.06,73.77h-25.25v29.19h25.25V73.77z"/>
	<path class="st17" d="M680.71,108.32c0-2.09,1.69-3.78,3.78-3.78h31.89c2.09,0,3.78,1.69,3.78,3.78v1.74h-39.45L680.71,108.32
		L680.71,108.32z"/>
	
		<linearGradient id="SVGID_00000183940290853392508650000004122407497194845351_" gradientUnits="userSpaceOnUse" x1="664.1022" y1="779.1915" x2="664.1022" y2="832.5511" gradientTransform="matrix(1 0 0 1 -0.0222 -641.4843)">
		<stop  offset="0" style="stop-color:#FFFEF6"/>
		<stop  offset="1" style="stop-color:#FFFEF6;stop-opacity:0"/>
	</linearGradient>
	<path style="opacity:0.7;fill:url(#SVGID_00000183940290853392508650000004122407497194845351_);enable-background:new    ;" d="
		M664.08,131.3l41,62.78h-82L664.08,131.3z"/>
	
		<linearGradient id="SVGID_00000143576732027681542500000001816293175942018698_" gradientUnits="userSpaceOnUse" x1="735.8422" y1="779.1915" x2="735.8422" y2="832.5511" gradientTransform="matrix(1 0 0 1 -0.0222 -641.4843)">
		<stop  offset="0" style="stop-color:#FFFEF6"/>
		<stop  offset="1" style="stop-color:#FFFEF6;stop-opacity:0"/>
	</linearGradient>
	<path style="opacity:0.7;fill:url(#SVGID_00000143576732027681542500000001816293175942018698_);enable-background:new    ;" d="
		M735.82,131.3l41,62.78h-82L735.82,131.3z"/>
</g>
<g>
	<path class="st0" d="M807.34,48.53h185.4l4.73,65.48H802.61L807.34,48.53z"/>
	<g>
		<path class="st1" d="M807.34,48.53h185.4l1.18,13.81h-22.86c-0.64,0.76-1.39,1.46-2.22,2.1c-1.58,1.21-3.45,2.17-5.5,2.82
			c-2.06,0.65-4.26,0.99-6.49,0.99s-4.43-0.34-6.49-0.99s-3.93-1.61-5.5-2.82c-0.84-0.64-1.58-1.35-2.22-2.1h-83.59
			c-0.64,0.76-1.39,1.46-2.22,2.1c-1.58,1.21-3.45,2.17-5.5,2.82c-2.06,0.65-4.26,0.99-6.49,0.99s-4.43-0.34-6.49-0.99
			s-3.93-1.61-5.5-2.82c-0.84-0.64-1.58-1.35-2.22-2.1h-23.26V48.53H807.34z"/>
	</g>
	<path class="st2" d="M895.74,31.41c2.42-2.98,6.96-2.98,9.38,0l72,88.5c3.22,3.95,0.4,9.87-4.69,9.87h-144
		c-5.09,0-7.91-5.91-4.69-9.87L895.74,31.41z"/>
	<rect x="800" y="104.56" class="st2" width="200" height="12.61"/>
	<rect x="800" y="110" class="st3" width="200" height="7.17"/>
	<path class="st3" d="M898.67,37.28c0.91-1.12,2.61-1.12,3.52,0l68.34,84.07c1.21,1.48,0.15,3.7-1.76,3.7H832.1
		c-1.91,0-2.96-2.22-1.76-3.7L898.67,37.28z"/>
	<path class="st4" d="M833.38,49.74c0-4.59,3.72-8.32,8.32-8.32h6.25c4.59,0,8.32,3.72,8.32,8.32v9.04h-22.88v-9.04H833.38z"/>
	<path class="st4" d="M944.61,49.74c0-4.59,3.72-8.32,8.32-8.32h6.25c4.59,0,8.32,3.72,8.32,8.32v9.04h-22.88v-9.04H944.61z"/>
	<path class="st5" d="M838.9,117.16l61.14-72.98l61.14,72.98V200H838.9V117.16z"/>
	<rect x="802.61" y="117.16" class="st6" width="36.29" height="82.84"/>
	<rect x="961.18" y="117.16" class="st6" width="36.29" height="82.84"/>
	<ellipse class="st7" cx="935.94" cy="133.73" rx="5.52" ry="5.52"/>
	<ellipse class="st7" cx="864.14" cy="133.73" rx="5.52" ry="5.52"/>
	<path class="st8" d="M864.14,123.47l3.42,5.92h-6.83L864.14,123.47z"/>
	<path class="st8" d="M935.94,123.47l3.42,5.92h-6.83L935.94,123.47z"/>
	<path class="st0" d="M875.98,135.31c0-10.02,8.12-18.15,18.15-18.15h12.62c10.02,0,18.15,8.12,18.15,18.15V200h-48.91v-64.69
		H875.98z"/>
	<path class="st9" d="M885.82,139.51c0-6.47,5.25-11.72,11.72-11.72h5.79c6.47,0,11.72,5.25,11.72,11.72v60.11h-29.22L885.82,139.51
		L885.82,139.51z"/>
	<rect x="885.82" y="155.41" class="st9" width="29.22" height="11.08"/>
	<line class="st9" x1="895.29" y1="128.21" x2="895.29" y2="155.03"/>
	<line class="st9" x1="905.55" y1="128.21" x2="905.55" y2="155.03"/>
	<line class="st9" x1="895.29" y1="166.86" x2="895.29" y2="199.21"/>
	<line class="st9" x1="905.55" y1="166.86" x2="905.55" y2="199.21"/>
	<path class="st10" d="M884.28,161.34c0,1.97-1.6,3.57-3.57,3.57c-1.97,0-3.57-1.6-3.57-3.57s1.6-3.57,3.57-3.57
		C882.68,157.77,884.28,159.37,884.28,161.34z"/>
	<ellipse class="st11" cx="880.71" cy="161.34" rx="3.16" ry="3.16"/>
	<ellipse class="st3" cx="879.92" cy="160.55" rx="0.79" ry="0.79"/>
	<path class="st8" d="M820.75,126.63l8.88,6.51h-17.76L820.75,126.63z"/>
	<path class="st12" d="M820.75,123.47l-11.83,7.1l2.37,3.16l9.47-5.52l9.47,5.52l2.37-3.16L820.75,123.47z"/>
	<rect x="813.21" y="134.86" class="st13" width="15.09" height="22.19"/>
	<line class="st14" x1="820.72" y1="136.09" x2="820.72" y2="155.82"/>
	<line class="st14" x1="827.07" y1="144.74" x2="814.44" y2="144.74"/>
	<rect x="808.13" y="132.15" class="st3" width="24.46" height="3.16"/>
	<path class="st8" d="M979.33,126.63l8.88,6.51h-17.76L979.33,126.63z"/>
	<path class="st12" d="M979.33,123.47l-11.83,7.1l2.37,3.16l9.47-5.52l9.47,5.52l2.37-3.16L979.33,123.47z"/>
	<rect x="971.78" y="134.86" class="st13" width="15.09" height="22.19"/>
	<line class="st14" x1="979.29" y1="136.09" x2="979.29" y2="155.82"/>
	<line class="st14" x1="985.64" y1="144.74" x2="973.02" y2="144.74"/>
	<rect x="966.7" y="132.15" class="st3" width="24.46" height="3.16"/>
	<rect x="886.23" y="72.98" class="st15" width="28.4" height="34.71"/>
	<rect x="898.07" y="70.62" class="st11" width="4.73" height="35.5"/>
	<rect x="887.81" y="85.6" class="st5" width="25.25" height="4.73"/>
	<path class="st16" d="M916.21,70.62h-31.56v35.5h31.56V70.62z M913.06,73.77h-25.25v29.19h25.25V73.77z"/>
	<path class="st17" d="M880.71,108.32c0-2.09,1.69-3.78,3.78-3.78h31.89c2.09,0,3.78,1.69,3.78,3.78v1.74h-39.45L880.71,108.32
		L880.71,108.32z"/>
	
		<linearGradient id="SVGID_00000043455273404322134030000002983189628491855512_" gradientUnits="userSpaceOnUse" x1="864.1022" y1="779.1915" x2="864.1022" y2="832.5511" gradientTransform="matrix(1 0 0 1 -0.0222 -641.4843)">
		<stop  offset="0" style="stop-color:#FFFEF6"/>
		<stop  offset="1" style="stop-color:#FFFEF6;stop-opacity:0"/>
	</linearGradient>
	<path style="opacity:0.4;fill:url(#SVGID_00000043455273404322134030000002983189628491855512_);enable-background:new    ;" d="
		M864.08,131.3l41,62.78h-82L864.08,131.3z"/>
	
		<linearGradient id="SVGID_00000062181247857153782200000003174042077282928282_" gradientUnits="userSpaceOnUse" x1="935.8422" y1="779.1915" x2="935.8422" y2="832.5511" gradientTransform="matrix(1 0 0 1 -0.0222 -641.4843)">
		<stop  offset="0" style="stop-color:#FFFEF6"/>
		<stop  offset="1" style="stop-color:#FFFEF6;stop-opacity:0"/>
	</linearGradient>
	<path style="opacity:0.4;fill:url(#SVGID_00000062181247857153782200000003174042077282928282_);enable-background:new    ;" d="
		M935.82,131.3l41,62.78h-82L935.82,131.3z"/>
</g>
</svg>
