<?xml version="1.0" encoding="utf-8"?>
<!-- Generator: Adobe Illustrator 28.1.0, SVG Export Plug-In . SVG Version: 6.00 Build 0)  -->
<svg version="1.1" id="레이어_1" xmlns="http://www.w3.org/2000/svg" xmlns:xlink="http://www.w3.org/1999/xlink" x="0px"
	 y="0px" viewBox="0 0 141.7 141.7" style="enable-background:new 0 0 141.7 141.7;" xml:space="preserve">
<style type="text/css">
	.st0{fill:#61DAFB;}
</style>
<g>
	<g>
		<circle class="st0" cx="70.9" cy="70.9" r="12.6"/>
	</g>
	<g>
		<g>
			<path class="st0" d="M70.9,99.8c-18.5,0-35.9-2.8-49-7.8C7.8,86.7,0,79.1,0,70.9s7.8-15.8,21.8-21.2c13.1-5,30.6-7.8,49-7.8
				s35.9,2.8,49,7.8c14.1,5.4,21.8,12.9,21.8,21.2S134,86.7,119.9,92C106.8,97.1,89.3,99.8,70.9,99.8z M70.9,48.1
				c-38.1,0-64.7,12-64.7,22.8s26.6,22.8,64.7,22.8s64.7-12,64.7-22.8S109,48.1,70.9,48.1z"/>
		</g>
		<g>
			<path class="st0" d="M99.2,134.1c-6.3,0-13.9-3.4-22.1-10.1c-10.9-8.9-22-22.6-31.3-38.6S30.2,52.9,28,39
				c-2.4-14.9,0.3-25.4,7.4-29.5c7.2-4.1,17.6-1.2,29.3,8.3c10.9,8.9,22,22.6,31.3,38.6l0,0c9.2,16,15.5,32.5,17.8,46.4
				c2.4,14.9-0.3,25.4-7.4,29.5C104.2,133.5,101.8,134.1,99.2,134.1z M42.7,13.8c-1.6,0-3,0.3-4.1,1c-9.3,5.4-6.5,34.4,12.6,67.4
				c8.9,15.4,19.5,28.5,29.8,36.9c9.4,7.7,17.6,10.5,22.3,7.8c9.3-5.4,6.5-34.4-12.6-67.4l0,0C81.7,44.1,71.2,31,60.8,22.6
				C53.7,16.8,47.4,13.8,42.7,13.8z"/>
		</g>
		<g>
			<path class="st0" d="M42.6,134.1c-2.6,0-5-0.6-7.1-1.8c-7.2-4.1-9.8-14.6-7.4-29.5c2.2-13.9,8.5-30.4,17.8-46.4
				S66.1,26.7,77,17.8c11.7-9.5,22.1-12.5,29.3-8.3c7.2,4.1,9.8,14.6,7.4,29.5c-2.2,13.9-8.5,30.4-17.8,46.4S75.6,115,64.7,123.9
				C56.4,130.6,48.9,134.1,42.6,134.1z M99.1,13.8c-4.7,0-11.1,3-18.1,8.8C70.6,31,60,44.1,51.1,59.5c-19.1,33-21.9,62-12.6,67.4
				c4.7,2.7,12.9-0.1,22.3-7.8c10.4-8.4,20.9-21.5,29.8-36.9l0,0c19.1-33,21.9-62,12.6-67.4C102,14.1,100.6,13.8,99.1,13.8z"/>
		</g>
	</g>
</g>
</svg>
