<?xml version="1.0" encoding="utf-8"?>
<!-- Generator: Adobe Illustrator 28.1.0, SVG Export Plug-In . SVG Version: 6.00 Build 0)  -->
<svg version="1.1" id="레이어_1" xmlns="http://www.w3.org/2000/svg" xmlns:xlink="http://www.w3.org/1999/xlink" x="0px"
	 y="0px" viewBox="0 0 141.7 141.7" style="enable-background:new 0 0 141.7 141.7;" xml:space="preserve">
<style type="text/css">
	.st0{fill:#43B57B;}
	.st1{fill:#775EA6;}
	.st2{fill:#E54F23;}
	.st3{fill:#EC6E60;}
	.st4{fill:#38B0E6;}
</style>
<g>
	<path id="path0_fill" class="st0" d="M47.2,141.7c13,0,23.7-10.6,23.7-23.7V94.5H47.2c-13,0-23.7,10.6-23.7,23.7
		S34.2,141.7,47.2,141.7z"/>
	<path id="path1_fill" class="st1" d="M23.6,70.9c0-13,10.6-23.7,23.7-23.7h23.6v47.2H47.2C34.2,94.5,23.6,83.9,23.6,70.9z"/>
	<path id="path1_fill_1_" class="st2" d="M23.6,23.6C23.6,10.6,34.2,0,47.2,0h23.7v47.2H47.2C34.2,47.2,23.6,36.7,23.6,23.6z"/>
	<path id="path2_fill" class="st3" d="M70.9,0h23.7c13,0,23.7,10.6,23.7,23.7s-10.6,23.7-23.7,23.7H70.9V0z"/>
	<path id="path3_fill" class="st4" d="M118.1,70.9c0,13-10.6,23.7-23.7,23.7S70.9,83.9,70.9,70.9s10.6-23.7,23.7-23.7
		S118.1,57.8,118.1,70.9z"/>
</g>
</svg>
