<?xml version="1.0" encoding="utf-8"?>
<!-- Generator: Adobe Illustrator 28.1.0, SVG Export Plug-In . SVG Version: 6.00 Build 0)  -->
<svg version="1.1" id="레이어_1" xmlns="http://www.w3.org/2000/svg" xmlns:xlink="http://www.w3.org/1999/xlink" x="0px"
	 y="0px" viewBox="0 0 141.7 141.7" style="enable-background:new 0 0 141.7 141.7;" xml:space="preserve">
<style type="text/css">
	.st0{fill:#B86089;}
</style>
<path class="st0" d="M122,78.8c-4.9,0-9.2,1.2-12.8,3c-1.3-2.6-2.6-4.9-2.9-6.7c-0.3-2-0.6-3.2-0.3-5.6c0.3-2.4,1.7-5.8,1.7-6
	c0-0.3-0.3-1.5-3.2-1.5c-2.8,0-5.3,0.5-5.6,1.3s-0.8,2.5-1.2,4.2c-0.5,2.6-5.7,11.8-8.7,16.7c-1-1.9-1.8-3.5-2-4.9
	c-0.3-2-0.6-3.2-0.3-5.6s1.7-5.8,1.7-6s-0.3-1.5-3.2-1.5c-2.8,0-5.3,0.5-5.6,1.3c-0.3,0.8-0.6,2.5-1.2,4.2
	c-0.6,1.7-7.5,17.1-9.3,21.1c-0.9,2-1.7,3.7-2.3,4.8l0,0c0,0,0,0.1-0.1,0.2c-0.5,1-0.8,1.5-0.8,1.5s0,0,0,0c-0.4,0.7-0.8,1.3-1,1.3
	c-0.2,0-0.4-1.9,0.1-4.4c1-5.4,3.5-13.7,3.5-14c0-0.2,0.5-1.6-1.6-2.4c-2-0.8-2.7,0.5-2.9,0.5s-0.3,0.4-0.3,0.4s2.3-9.4-4.3-9.4
	c-4.1,0-9.7,4.5-12.5,8.5c-1.8,1-5.5,3-9.5,5.2c-1.5,0.9-3.1,1.7-4.6,2.5c-0.1-0.1-0.2-0.2-0.3-0.3C24.7,79,10,73,10.6,61.6
	c0.2-4.1,1.7-15,28.1-28.2c21.8-10.7,39.1-7.8,42.1-1.2c4.3,9.4-9.3,26.9-31.8,29.5c-8.6,1-13.1-2.4-14.2-3.6
	c-1.2-1.3-1.4-1.4-1.8-1.1c-0.7,0.4-0.3,1.6,0,2.2c0.7,1.8,3.4,4.9,8.1,6.4c4.1,1.3,14.2,2.1,26.4-2.6c13.6-5.3,24.3-20,21.2-32.3
	c-3.1-12.5-23.8-16.6-43.4-9.6C33.7,25.2,21,31.8,11.9,40.3C1.1,50.3-0.6,59.1,0.1,62.8c2.5,13,20.5,21.5,27.7,27.8
	c-0.4,0.2-0.7,0.4-1,0.5c-3.6,1.8-17.3,9-20.7,16.5c-3.9,8.6,0.6,14.8,3.6,15.6c9.2,2.6,18.7-2,23.8-9.7c5.1-7.6,4.5-17.5,2.1-22
	c0-0.1-0.1-0.1-0.1-0.2c0.9-0.5,1.9-1.1,2.8-1.7c1.8-1.1,3.7-2.1,5.2-2.9c-0.9,2.4-1.5,5.3-1.8,9.4c-0.4,4.9,1.6,11.2,4.2,13.7
	c1.2,1.1,2.5,1.1,3.4,1.1c3.1,0,4.4-2.5,6-5.5c1.9-3.7,3.5-7.9,3.5-7.9s-2.1,11.5,3.6,11.5c2.1,0,4.2-2.7,5.1-4.1c0,0,0,0,0,0
	s0.1-0.1,0.2-0.3c0.2-0.3,0.3-0.5,0.3-0.5s0,0,0-0.1c0.8-1.4,2.7-4.7,5.5-10.2c3.6-7,7-15.8,7-15.8s0.3,2.1,1.4,5.7
	c0.6,2.1,1.9,4.4,3,6.6c-0.8,1.2-1.3,1.8-1.3,1.8s0,0,0,0c-0.7,0.9-1.4,1.8-2.2,2.8c-2.8,3.4-6.2,7.2-6.7,8.3
	c-0.5,1.3-0.4,2.3,0.6,3.1c0.8,0.6,2.1,0.6,3.5,0.6c2.5-0.2,4.3-0.8,5.2-1.2c1.4-0.5,3-1.2,4.5-2.4c2.8-2,4.5-5,4.3-8.8
	c-0.1-2.1-0.8-4.2-1.6-6.2c0.3-0.4,0.5-0.7,0.8-1.1C96.3,81,99.7,74,99.7,74s0.3,2.1,1.4,5.7c0.5,1.8,1.6,3.8,2.5,5.7
	c-4.1,3.3-6.7,7.2-7.6,9.8c-1.6,4.7-0.4,6.8,2,7.3c1.1,0.2,2.6-0.3,3.8-0.8c1.4-0.5,3.2-1.3,4.8-2.5c2.8-2,5.4-4.9,5.3-8.8
	c-0.1-1.8-0.5-3.5-1.2-5.2c3.5-1.4,8-2.3,13.7-1.6c12.3,1.4,14.8,9.1,14.3,12.4c-0.5,3.2-3.1,5-3.9,5.5s-1.1,0.7-1.1,1.1
	c0.1,0.6,0.5,0.5,1.2,0.4c1-0.2,6.5-2.6,6.7-8.6C142.1,87.1,134.9,78.7,122,78.8z M27,110.9c-4.1,4.5-9.8,6.1-12.2,4.7
	c-2.6-1.5-1.6-8.1,3.4-12.8c3.1-2.9,7-5.5,9.6-7.2c0.6-0.4,1.5-0.9,2.5-1.5c0.2-0.1,0.3-0.2,0.3-0.2l0,0c0.2-0.1,0.4-0.3,0.6-0.4
	C33,100.3,31.3,106.2,27,110.9z M56.8,90.6c-1.4,3.5-4.4,12.3-6.2,11.9c-1.6-0.4-2.5-7.1-0.3-13.8c1.1-3.3,3.5-7.3,4.8-8.9
	c2.2-2.5,4.7-3.3,5.3-2.3C61.1,78.8,57.6,88.5,56.8,90.6z M81.3,102.4c-0.6,0.3-1.2,0.5-1.4,0.4c-0.2-0.1,0.3-0.5,0.3-0.5
	s3.1-3.3,4.3-4.8c0.7-0.9,1.5-1.9,2.4-3.1c0,0.1,0,0.2,0,0.3C86.9,98.6,83,101.3,81.3,102.4z M100.3,98.1c-0.4-0.3-0.4-1.3,1.1-4.6
	c0.6-1.3,1.9-3.4,4.2-5.4c0.3,0.8,0.4,1.6,0.4,2.4C106,95.4,102.4,97.3,100.3,98.1z"/>
</svg>
