<?xml version="1.0" encoding="utf-8"?>
<!-- Generator: Adobe Illustrator 28.1.0, SVG Export Plug-In . SVG Version: 6.00 Build 0)  -->
<svg version="1.1" id="레이어_1" xmlns="http://www.w3.org/2000/svg" xmlns:xlink="http://www.w3.org/1999/xlink" x="0px"
	 y="0px" viewBox="0 0 141.7 141.7" style="enable-background:new 0 0 141.7 141.7;" xml:space="preserve">
<style type="text/css">
	.st0{fill:#2D53A4;}
	.st1{fill:#3361AD;}
	.st2{fill:#EBEBEB;}
	.st3{fill:#040000;}
	.st4{fill:#FFFFFF;}
</style>
<g id="layer1" transform="translate(-193.633,-276.3622)">
	<g id="g3013" transform="translate(119,276.3622)">
		<polygon id="polygon2989" class="st0" points="195.7,27.9 186.6,130.3 145.4,141.7 104.4,130.3 95.3,27.9 		"/>
		<polygon id="polygon2991" class="st1" points="178.7,123.8 186.5,36.2 145.5,36.2 145.5,133 		"/>
		<polygon id="polygon2993" class="st2" points="116.2,74.2 117.4,86.8 145.5,86.8 145.5,74.2 		"/>
		<polygon id="polygon2995" class="st2" points="145.5,48.8 145.5,48.8 114,48.8 115.1,61.4 145.5,61.4 		"/>
		<polygon id="polygon2997" class="st2" points="145.5,120 145.5,106.9 145.4,106.9 131.4,103.1 130.5,93.1 123.7,93.1 117.9,93.1 
			119.7,112.8 145.4,120 		"/>
		<path id="path2999" class="st3" d="M118.9,0h15.2v6.4h-8.9v6.4h8.9v6.4h-15.2V0z"/>
		<path id="path3001" class="st3" d="M137.2,0h15.2v5.5h-8.9v1.1h8.9v12.7h-15.2v-5.8h8.9v-1.1h-8.9V0z"/>
		<path id="path3003" class="st3" d="M155.5,0h15.2v5.5h-8.9v1.1h8.9v12.7h-15.2v-5.8h8.9v-1.1h-8.9V0z"/>
		<polygon id="polygon3005" class="st4" points="160.9,86.8 159.5,103.1 145.5,106.9 145.5,120 171.2,112.8 171.4,110.7 174.4,77.6 
			174.7,74.2 176.9,48.8 145.5,48.8 145.5,61.4 163.2,61.4 162,74.2 145.5,74.2 145.5,86.8 		"/>
	</g>
</g>
</svg>
