<?xml version="1.0" encoding="utf-8"?>
<!-- Generator: Adobe Illustrator 28.1.0, SVG Export Plug-In . SVG Version: 6.00 Build 0)  -->
<svg version="1.1" id="레이어_1" xmlns="http://www.w3.org/2000/svg" xmlns:xlink="http://www.w3.org/1999/xlink" x="0px"
	 y="0px" viewBox="0 0 141.7 141.7" style="enable-background:new 0 0 141.7 141.7;" xml:space="preserve">
<style type="text/css">
	.st0{fill:#040000;}
	.st1{fill:#D84D28;}
	.st2{fill:#E5642C;}
	.st3{fill:#EBEBEB;}
	.st4{fill:#FFFFFF;}
</style>
<g>
	<path class="st0" d="M30,0h6.4v6.3h5.9V0h6.4v19.2h-6.4v-6.4h-5.8v6.4H30 M57,6.4h-5.7V0H69v6.4h-5.7v12.8H57 M71.8,0h6.7l4.1,6.7
		L86.8,0h6.7v19.2H87V9.6l-4.4,6.9l-4.4-6.9v9.5h-6.2 M96.6,0h6.4v12.8h9.1v6.3H96.6"/>
	<path class="st1" d="M29.7,130.4L20.6,27.8h100.5L112,130.3l-41.2,11.4"/>
	<path class="st2" d="M70.9,133.1V36.3h41l-7.8,87.5"/>
	<path class="st3" d="M39.3,48.8h31.6v12.6H53.1l1.1,12.8h16.6v12.5H42.7 M43.3,93.2h12.6l0.9,10l14.1,3.8v13.1l-25.8-7.2"/>
	<path class="st4" d="M102.3,48.8H70.8v12.6h30.4 M100,74.3H70.8v12.6h15.5l-1.5,16.3L70.8,107v13.1l25.8-7.1"/>
</g>
</svg>
