<?xml version="1.0" encoding="utf-8"?>
<!-- Generator: Adobe Illustrator 28.1.0, SVG Export Plug-In . SVG Version: 6.00 Build 0)  -->
<svg version="1.1" id="레이어_1" xmlns="http://www.w3.org/2000/svg" xmlns:xlink="http://www.w3.org/1999/xlink" x="0px"
	 y="0px" viewBox="0 0 141.7 141.7" style="enable-background:new 0 0 141.7 141.7;" xml:space="preserve">
<style type="text/css">
	.st0{fill:#EFC725;}
	.st1{fill:#FBDE34;}
	.st2{fill:#EBEBEB;}
	.st3{fill:#FFFFFF;}
	.st4{fill:#151515;}
	.st5{fill:#020202;}
</style>
<g>
	<polygon class="st0" points="29.8,130.4 20.7,27.9 121.1,27.9 111.9,130.3 70.8,141.7 	"/>
	<polygon class="st1" points="70.8,132.9 104,123.7 111.8,36.1 70.8,36.1 	"/>
	<polygon class="st2" points="70.8,106.8 70.7,106.8 56.7,103 55.8,93 49,93 43.2,93 45,112.7 70.7,119.9 70.8,119.9 	"/>
	<polygon class="st2" points="72.5,86.7 72.5,74.1 57,74.1 58.8,54.4 72.5,54.1 72.5,41 47.4,41 46.5,50.2 43.5,83.3 43.2,86.7 
		46.6,86.7 	"/>
	<polygon class="st3" points="72.4,54.1 72.4,54.1 86.2,54.9 87.3,67.9 94.1,67.9 99.9,67.9 97.7,43.6 72.4,41 72.4,41 	"/>
	<polyline class="st3" points="98.6,54.1 97.6,41 71,41 71,49.1 71,54.1 71,54.1 98.6,54.1 	"/>
	<polygon class="st3" points="70.7,74.1 70.7,86.7 86.2,86.7 84.7,103 70.7,106.8 70.7,119.9 96.5,112.7 96.7,110.6 99.6,77.5 
		99.9,74.1 96.5,74.1 	"/>
	<path class="st3" d="M97,53.6"/>
	<g>
		<polygon class="st4" points="88.6,5.2 80.2,5.2 88.9,14.6 88.9,19.1 71.1,19.1 71.1,13.9 79.7,13.9 71.1,4.5 71.1,0 88.6,0 		"/>
		<path class="st5" d="M67.9,0v19.1H52.5v-6.3h9V0H67.9L67.9,0z"/>
	</g>
	<path class="st3" d="M96.9,53.6"/>
</g>
</svg>
