<?xml version="1.0" encoding="utf-8"?>
<!-- Generator: Adobe Illustrator 28.1.0, SVG Export Plug-In . SVG Version: 6.00 Build 0)  -->
<svg version="1.1" id="레이어_1" xmlns="http://www.w3.org/2000/svg" xmlns:xlink="http://www.w3.org/1999/xlink" x="0px"
	 y="0px" viewBox="0 0 141.7 141.7" style="enable-background:new 0 0 141.7 141.7;" xml:space="preserve">
<style type="text/css">
	.st0{clip-path:url(#SVGID_00000170959809433255447130000002949878879919324337_);}
	.st1{fill:url(#path3462_00000075136194119447791610000009994683950441417625_);}
	.st2{clip-path:url(#SVGID_00000176014914984488463100000010076538489592314767_);}
	.st3{fill:#7276A9;}
	.st4{clip-path:url(#SVGID_00000023243295078697726630000001055460599426084010_);}
	.st5{fill:#040000;}
	.st6{fill:#FFFFFF;}
</style>
<g id="g3438" transform="matrix(1.25,0,0,-1.25,-4.4,394.29875)">
	<g id="g3440">
		<g>
			<defs>
				<path id="SVGID_1_" d="M5.8,258.7c0-15.8,24.4-28.6,54.4-28.6l0,0c30.1,0,54.4,12.8,54.4,28.6l0,0c0,15.8-24.4,28.6-54.4,28.6
					l0,0C30.2,287.4,5.8,274.6,5.8,258.7"/>
			</defs>
			<clipPath id="SVGID_00000070094148919787020680000013837947716545798813_">
				<use xlink:href="#SVGID_1_"  style="overflow:visible;"/>
			</clipPath>
			<g id="g3442" style="clip-path:url(#SVGID_00000070094148919787020680000013837947716545798813_);">
				<g id="g3448">
					<g id="g3450">
						
							<radialGradient id="path3462_00000034053624814845363320000015003104484138752681_" cx="-178.4922" cy="177.5485" r="0.1969" gradientTransform="matrix(453.8224 0 0 -453.8224 81042.2266 80852.7969)" gradientUnits="userSpaceOnUse">
							<stop  offset="0" style="stop-color:#AAADCF"/>
							<stop  offset="0.3" style="stop-color:#AAADCF"/>
							<stop  offset="0.75" style="stop-color:#444982"/>
							<stop  offset="1" style="stop-color:#444982"/>
						</radialGradient>
						<path id="path3462" style="fill:url(#path3462_00000034053624814845363320000015003104484138752681_);" d="M5.8,258.7
							c0-15.8,24.4-28.6,54.4-28.6l0,0c30.1,0,54.4,12.8,54.4,28.6l0,0c0,15.8-24.4,28.6-54.4,28.6l0,0
							C30.2,287.4,5.8,274.6,5.8,258.7"/>
					</g>
				</g>
			</g>
		</g>
	</g>
	<g id="g3464">
		<g>
			<defs>
				<rect id="SVGID_00000029763920681932680960000004813652895233407151_" x="-10.7" y="218.9" width="141.7" height="79.7"/>
			</defs>
			<clipPath id="SVGID_00000013910062568385635950000010527784873351805861_">
				<use xlink:href="#SVGID_00000029763920681932680960000004813652895233407151_"  style="overflow:visible;"/>
			</clipPath>
			<g id="g3466" style="clip-path:url(#SVGID_00000013910062568385635950000010527784873351805861_);">
				<g id="g3472" transform="translate(288,27.3594)">
					<path id="path3474" class="st3" d="M-227.8,204.9c28.9,0,52.3,11.9,52.3,26.5c0,14.6-23.4,26.5-52.3,26.5s-52.3-11.9-52.3-26.5
						C-280.1,216.7-256.7,204.9-227.8,204.9"/>
				</g>
			</g>
		</g>
	</g>
	<g id="g3476">
		<g>
			<defs>
				<rect id="SVGID_00000134232169011398488120000011098579261594429094_" x="-10.7" y="218.9" width="141.7" height="79.7"/>
			</defs>
			<clipPath id="SVGID_00000044870929980774065300000000235119802870761648_">
				<use xlink:href="#SVGID_00000134232169011398488120000011098579261594429094_"  style="overflow:visible;"/>
			</clipPath>
			<g id="g3478" style="clip-path:url(#SVGID_00000044870929980774065300000000235119802870761648_);">
				<g id="g3484" transform="translate(161.7344,145.3066)">
					<path id="path3486" class="st5" d="M-126.4,110.2c2.4,0,4.1,0.4,5.3,1.3c1.1,0.9,1.9,2.3,2.3,4.4c0.4,1.9,0.2,3.3-0.4,4
						c-0.7,0.7-2.1,1.1-4.3,1.1h-3.8l-2.1-10.8H-126.4z M-138.8,96.8c-0.2,0-0.3,0.1-0.5,0.2c-0.1,0.1-0.2,0.3-0.1,0.5l5.6,28.7
						c0.1,0.3,0.3,0.5,0.6,0.5h12c3.8,0,6.6-1,8.4-3c1.8-2,2.3-4.9,1.6-8.4c-0.3-1.5-0.8-2.8-1.4-4c-0.7-1.2-1.6-2.3-2.7-3.3
						c-1.3-1.2-2.8-2.1-4.4-2.6c-1.6-0.5-3.6-0.8-6-0.8h-4.9l-1.4-7.2c-0.1-0.3-0.3-0.5-0.6-0.5H-138.8z"/>
				</g>
				<g id="g3488" transform="translate(159.2236,197.3071)">
					<path id="path3490" class="st6" d="M-124.4,68.4h3.3c2.6,0,3.6-0.6,3.9-0.9c0.5-0.6,0.6-1.8,0.3-3.5c-0.4-1.9-1.1-3.3-2.1-4
						c-1-0.8-2.7-1.2-4.9-1.2h-2.4L-124.4,68.4z M-118.7,75.3h-12c-0.6,0-1.1-0.4-1.2-1l-5.6-28.7c-0.1-0.3,0-0.7,0.2-1
						c0.2-0.3,0.6-0.4,0.9-0.4h6.2c0.6,0,1.1,0.4,1.2,1l1.3,6.7h4.4c2.5,0,4.6,0.3,6.2,0.8c1.7,0.5,3.2,1.5,4.6,2.8
						c1.1,1,2.1,2.2,2.8,3.5c0.7,1.3,1.2,2.7,1.5,4.2c0.7,3.8,0.1,6.8-1.8,8.9C-111.8,74.2-114.7,75.3-118.7,75.3 M-127.7,57.6h3.8
						c2.5,0,4.4,0.5,5.6,1.4c1.2,0.9,2.1,2.5,2.5,4.8c0.4,2.1,0.2,3.6-0.6,4.5c-0.8,0.9-2.4,1.3-4.7,1.3h-4.3L-127.7,57.6
						 M-118.7,74.1c3.6,0,6.3-0.9,7.9-2.8c1.7-1.9,2.2-4.5,1.5-7.9c-0.3-1.4-0.7-2.7-1.4-3.8c-0.6-1.2-1.5-2.2-2.5-3.2
						c-1.2-1.2-2.6-2-4.2-2.5c-1.5-0.5-3.5-0.7-5.8-0.7h-5.4l-1.5-7.6h-6.2l5.6,28.7H-118.7"/>
				</g>
				<g id="g3492" transform="translate(311.583,116.3066)">
					<path id="path3494" class="st5" d="M-246.7,133.4c-0.2,0-0.3,0.1-0.5,0.2c-0.1,0.1-0.2,0.3-0.1,0.5l2.5,12.7
						c0.2,1.2,0.2,2.1-0.2,2.4c-0.2,0.2-0.8,0.6-2.7,0.6h-4.5l-3.1-16c-0.1-0.3-0.3-0.5-0.6-0.5h-6.2c-0.2,0-0.3,0.1-0.5,0.2
						c-0.1,0.1-0.2,0.3-0.1,0.5l5.6,28.7c0.1,0.3,0.3,0.5,0.6,0.5h6.2c0.2,0,0.3-0.1,0.5-0.2c0.1-0.1,0.2-0.3,0.1-0.5l-1.3-6.9h4.8
						c3.7,0,6.1-0.6,7.6-2c1.5-1.4,1.9-3.5,1.4-6.4l-2.6-13.4c-0.1-0.3-0.3-0.5-0.6-0.5H-246.7z"/>
				</g>
				<g id="g3496" transform="translate(293.6611,271.0571)">
					<path id="path3498" class="st6" d="M-232.3,9.2h-6.2c-0.6,0-1.1-0.4-1.2-1l-5.6-28.7c-0.1-0.3,0-0.7,0.2-1s0.6-0.4,0.9-0.4h6.2
						c0.6,0,1.1,0.4,1.2,1l3,15.5h4c1.8,0,2.2-0.4,2.2-0.4c0.1-0.1,0.3-0.7,0-1.9l-2.5-12.7c-0.1-0.3,0-0.7,0.2-1
						c0.2-0.3,0.6-0.4,0.9-0.4h6.3c0.6,0,1.1,0.4,1.2,1l2.6,13.4c0.6,3.1,0.1,5.5-1.5,7c-1.6,1.4-4.2,2.1-8,2.1h-4.1l1.2,6.2
						c0.1,0.3,0,0.7-0.2,1C-231.6,9-232,9.2-232.3,9.2 M-232.3,8l-1.5-7.6h5.5c3.5,0,5.9-0.6,7.2-1.8c1.3-1.2,1.7-3.2,1.2-5.9
						l-2.6-13.4h-6.3l2.5,12.7c0.3,1.4,0.2,2.4-0.3,3c-0.5,0.5-1.5,0.8-3.1,0.8h-5l-3.2-16.4h-6.2l5.6,28.7H-232.3"/>
				</g>
				<g id="g3500" transform="translate(409.5498,145.3066)">
					<path id="path3502" class="st5" d="M-325.4,110.2c2.4,0,4.1,0.4,5.3,1.3c1.1,0.9,1.9,2.3,2.3,4.4c0.4,1.9,0.2,3.3-0.4,4
						c-0.7,0.7-2.1,1.1-4.3,1.1h-3.8l-2.1-10.8H-325.4z M-337.8,96.8c-0.2,0-0.3,0.1-0.5,0.2c-0.1,0.1-0.2,0.3-0.1,0.5l5.6,28.7
						c0.1,0.3,0.3,0.5,0.6,0.5h12c3.8,0,6.6-1,8.4-3c1.8-2,2.3-4.9,1.6-8.4c-0.3-1.5-0.8-2.8-1.4-4c-0.7-1.2-1.6-2.3-2.7-3.3
						c-1.3-1.2-2.8-2.1-4.4-2.6c-1.6-0.5-3.6-0.8-6-0.8h-4.9l-1.4-7.2c-0.1-0.3-0.3-0.5-0.6-0.5H-337.8z"/>
				</g>
				<g id="g3504" transform="translate(407.0391,197.3071)">
					<path id="path3506" class="st6" d="M-323.4,68.4h3.3c2.6,0,3.6-0.6,3.9-0.9c0.5-0.6,0.6-1.8,0.3-3.5c-0.4-1.9-1.1-3.3-2.1-4
						c-1-0.8-2.7-1.2-4.9-1.2h-2.4L-323.4,68.4z M-317.7,75.3h-12c-0.6,0-1.1-0.4-1.2-1l-5.6-28.7c-0.1-0.3,0-0.7,0.2-1
						c0.2-0.3,0.6-0.4,0.9-0.4h6.2c0.6,0,1.1,0.4,1.2,1l1.3,6.7h4.4c2.5,0,4.6,0.3,6.2,0.8c1.7,0.5,3.2,1.5,4.6,2.8
						c1.1,1,2.1,2.2,2.8,3.5c0.7,1.3,1.2,2.7,1.5,4.2c0.7,3.8,0.1,6.8-1.8,9C-310.8,74.2-313.8,75.3-317.7,75.3 M-326.7,57.6h3.8
						c2.5,0,4.4,0.5,5.6,1.4c1.2,0.9,2.1,2.5,2.5,4.8c0.4,2.1,0.2,3.6-0.6,4.5c-0.8,0.9-2.4,1.3-4.7,1.3h-4.3L-326.7,57.6
						 M-317.7,74.1c3.6,0,6.3-0.9,7.9-2.8c1.7-1.9,2.2-4.5,1.5-7.9c-0.3-1.4-0.7-2.7-1.4-3.8c-0.6-1.2-1.5-2.2-2.5-3.2
						c-1.2-1.2-2.6-2-4.2-2.5c-1.5-0.5-3.5-0.7-5.8-0.7h-5.4l-1.5-7.6h-6.2l5.6,28.7H-317.7"/>
				</g>
			</g>
		</g>
	</g>
</g>
</svg>
