<?xml version="1.0" encoding="utf-8"?>
<!-- Generator: Adobe Illustrator 28.1.0, SVG Export Plug-In . SVG Version: 6.00 Build 0)  -->
<svg version="1.1" id="레이어_1" xmlns="http://www.w3.org/2000/svg" xmlns:xlink="http://www.w3.org/1999/xlink" x="0px"
	 y="0px" viewBox="0 0 141.7 141.7" style="enable-background:new 0 0 141.7 141.7;" xml:space="preserve">
<style type="text/css">
	.st0{fill:#36BEEE;}
	.st1{fill:#041E26;}
	.st2{fill-rule:evenodd;clip-rule:evenodd;fill:#D7EEF9;}
</style>
<g id="g8" transform="matrix(2.0666667 0 0 2.0666667 2 2)">
	<path id="path2" class="st0" d="M55.5,66.8H11.2C4.5,66.8-1,61.4-1,54.6V12.1C-1,5.3,4.5-0.1,11.2-0.1h44.3
		c6.7,0,12.1,5.4,12.1,12.1v42.6C67.6,61.4,62.2,66.8,55.5,66.8z"/>
	<path id="path4" class="st1" d="M54.4,63.9H12.3c-5.7,0-10.4-4.6-10.4-10.4V13.1c0-5.7,4.6-10.4,10.4-10.4h42.1
		c5.7,0,10.4,4.6,10.4,10.4v40.4C64.8,59.2,60.1,63.9,54.4,63.9L54.4,63.9z"/>
	<path id="path6" class="st2" d="M15.9,16.6c0-0.2,0.1-0.3,0.3-0.3c1.8-0.1,4.4-0.2,7.2-0.2c7.7,0,11.1,4.3,11.1,9.7
		c0,7.1-5.2,10.1-11.5,10.1c-1,0-1.4-0.1-2.2-0.1v10.9c0,0.2-0.1,0.3-0.3,0.3h-4.3c-0.2,0-0.3-0.1-0.3-0.3L15.9,16.6z M20.8,31.4
		c0.6,0.1,1.2,0.1,2.3,0.1c3.2,0,6.4-1.2,6.4-5.6c0-3.5-2.2-5.4-6-5.4c-1.1,0-2.2,0.1-2.7,0.1L20.8,31.4z M45.7,28.1
		c-2.2,0-2.9,1.1-2.9,2c0,1,0.6,1.7,3.5,3.2c4.4,2.1,5.7,4.2,5.7,7.2c0,4.5-3.4,6.9-8,6.9c-2.4,0-4.6-0.6-5.8-1.2
		c-0.2-0.1-0.2-0.2-0.2-0.5v-4.2c0-0.3,0.2-0.4,0.3-0.2C40,42.5,42.1,43,44,43c2.2,0,3.1-0.9,3.1-2.2c0-1-0.6-1.9-3.5-3.4
		c-3.9-1.9-5.6-3.9-5.6-7c0-3.6,2.8-6.5,7.7-6.5c2.4,0,4.2,0.4,5.1,0.8c0.2,0.2,0.3,0.4,0.3,0.6V29c0,0.2-0.2,0.4-0.4,0.3
		C49.4,28.6,47.5,28.1,45.7,28.1z"/>
</g>
</svg>
