<?xml version="1.0" encoding="utf-8"?>
<!-- Generator: Adobe Illustrator 28.1.0, SVG Export Plug-In . SVG Version: 6.00 Build 0)  -->
<svg version="1.1" id="레이어_1" xmlns="http://www.w3.org/2000/svg" xmlns:xlink="http://www.w3.org/1999/xlink" x="0px"
	 y="0px" viewBox="0 0 141.7 141.7" style="enable-background:new 0 0 141.7 141.7;" xml:space="preserve">
<style type="text/css">
	.st0{fill:#F3961A;}
	.st1{fill:#310304;}
</style>
<g id="g8_00000174603366559770363380000007101085497808601984_" transform="matrix(2.0666667 0 0 2.0666667 2 2)">
	<path id="path2_00000051356366794914143580000003302182627510509744_" class="st0" d="M55.5,66.8H11.2C4.5,66.8-1,61.4-1,54.6V12.1
		C-1,5.3,4.5-0.1,11.2-0.1h44.3c6.7,0,12.1,5.4,12.1,12.1v42.6C67.6,61.4,62.2,66.8,55.5,66.8z"/>
	<path id="path4_00000123429134816938990240000016382856777682943126_" class="st1" d="M54.4,63.9H12.3c-5.7,0-10.4-4.6-10.4-10.4
		V13.1c0-5.7,4.6-10.4,10.4-10.4h42.1c5.7,0,10.4,4.6,10.4,10.4v40.4C64.8,59.2,60.1,63.9,54.4,63.9L54.4,63.9z"/>
	<path class="st0" d="M31.5,40.8H20.8l-2.2,6.7c-0.1,0.2-0.3,0.4-0.6,0.4h-5.4c-0.3,0-0.4-0.2-0.3-0.6l9.2-26.5
		c0.1-0.3,0.2-0.6,0.3-0.9c0.1-0.6,0.2-1.3,0.2-1.9c0-0.2,0.1-0.3,0.2-0.3h7.4c0.2,0,0.3,0.1,0.4,0.2l10.4,29.4
		c0.1,0.3,0,0.5-0.3,0.5h-6c-0.2,0-0.4-0.1-0.5-0.3L31.5,40.8z M22.5,35.1h7.2c-0.2-0.6-0.4-1.3-0.6-2c-0.2-0.8-0.6-1.6-0.8-2.4
		c-0.3-0.9-0.6-1.7-0.9-2.6s-0.6-1.7-0.8-2.5c-0.2-0.8-0.4-1.6-0.6-2.2H26c-0.2,1.3-0.6,2.4-0.9,3.7c-0.4,1.3-0.9,2.8-1.3,4.3
		C23.4,32.5,22.9,33.8,22.5,35.1z M46.9,22.9c-0.9,0-1.9-0.3-2.5-1c-0.6-0.7-1-1.7-0.9-2.6c0-0.9,0.3-1.9,1-2.5s1.6-1,2.5-1
		c1.1,0,2,0.3,2.6,1s0.9,1.6,0.9,2.5s-0.3,1.9-1,2.6C48.8,22.5,47.8,22.9,46.9,22.9L46.9,22.9z M43.7,47.7v-22
		c0-0.3,0.1-0.4,0.4-0.4h5.7c0.2,0,0.4,0.2,0.4,0.4v22c0,0.3-0.1,0.5-0.4,0.5h-5.6C43.8,48,43.7,47.9,43.7,47.7z"/>
</g>
</svg>
