<?xml version="1.0" encoding="utf-8"?>
<!-- Generator: Adobe Illustrator 28.1.0, SVG Export Plug-In . SVG Version: 6.00 Build 0)  -->
<svg version="1.1" id="레이어_1" xmlns="http://www.w3.org/2000/svg" xmlns:xlink="http://www.w3.org/1999/xlink" x="0px"
	 y="0px" viewBox="0 0 141.7 141.7" style="enable-background:new 0 0 141.7 141.7;" xml:space="preserve">
<style type="text/css">
	.st0{fill:#369CD8;}
	.st1{fill:#081932;}
</style>
<g id="g8_00000014613559096884785740000002666110050394571157_" transform="matrix(2.0666667 0 0 2.0666667 2 2)">
	<path id="path2_00000081607757737090504930000012564042182348960438_" class="st0" d="M55.5,66.8H11.2C4.5,66.8-1,61.4-1,54.6V12.1
		C-1,5.3,4.5-0.1,11.2-0.1h44.3c6.7,0,12.1,5.4,12.1,12.1v42.6C67.6,61.4,62.2,66.8,55.5,66.8z"/>
	<path id="path4_00000142871275877167315850000005554113366559690921_" class="st1" d="M54.4,63.9H12.3c-5.7,0-10.4-4.6-10.4-10.4
		V13.1c0-5.7,4.6-10.4,10.4-10.4h42.1c5.7,0,10.4,4.6,10.4,10.4v40.4C64.8,59.2,60.1,63.9,54.4,63.9L54.4,63.9z"/>
	<g>
		<g>
			<path class="st0" d="M59.4,23.9c0,0.6,0,1.2,0,1.8c0,0.8-0.1,0.9-0.9,0.6c-2.7-0.9-5.3-0.9-7.9,0.2c-1.3,0.6-2.3,1.7-2.8,2.9
				c-1.2,2.8-1.3,5.5-0.2,8.3c1.1,2.7,3.3,4,6.1,4.3c1.7,0.2,3.3,0.1,5-0.6c0.4-0.2,0.6,0,0.6,0.4c0,1.3,0,2.7,0,4.1
				c0,0.2-0.4,0.6-0.6,0.7c-1.7,0.6-3.5,0.7-5.3,0.6c-2.5-0.2-4.9-0.7-6.9-2.2c-2.4-1.8-3.9-4.2-4.4-7.1c-0.7-3.3-0.6-6.7,0.6-9.8
				c1.7-4.2,4.9-6.6,9.3-7.3c2.1-0.3,4.3-0.3,6.3,0.2c1,0.2,1.1,0.3,1.1,1.3C59.4,22.9,59.4,23.4,59.4,23.9z"/>
			<path class="st0" d="M8.5,32.5c0-4.5,0-9,0-13.4c0-0.6,0.2-0.8,0.8-0.8c1.2,0.1,2.4,0,3.5,0c0.9,0,0.9,0,0.9,0.9
				c0,6.9,0,13.9,0,20.9c0,0.2,0,0.4,0,0.6c-0.1,0.5,0.2,0.7,0.6,0.7c1.1,0,2.1,0,3.2,0c2.4,0,4.6,0,7,0c0.6,0,0.7,0.2,0.6,0.7
				c-0.2,1.4-0.4,2.8-0.6,4.2c-0.1,0.4-0.2,0.6-0.6,0.6c-5,0-10,0-15,0c-0.6,0-0.6-0.3-0.6-0.7C8.5,41.6,8.5,37.1,8.5,32.5z"/>
			<path class="st0" d="M28,25.3c1.5,0,3,0,4.5,0c0.2,0,0.6,0.5,0.6,0.7c0.2,0.6,0.2,1.3,0.4,2c0.2-0.2,0.2-0.4,0.4-0.6
				c1.4-1.5,3.1-2.5,5.1-2.7c0.8-0.1,0.9,0,0.9,0.8c0,1.5,0,3,0,4.4c0,0.6-0.2,0.7-0.7,0.7c-1.7-0.1-3.4,0.3-4.8,1.3
				c-0.6,0.4-0.9,0.9-0.9,1.6c0,4.2,0,8.3,0,12.4c0,0.9,0,0.9-0.9,0.9c-1.3,0-2.4,0-3.7,0c-0.6,0-0.8-0.2-0.8-0.8
				c0-5.7,0-11.4,0-17.2C28.2,27.7,28.1,26.6,28,25.3z"/>
		</g>
	</g>
</g>
</svg>
