<?xml version="1.0" encoding="utf-8"?>
<!-- Generator: Adobe Illustrator 28.1.0, SVG Export Plug-In . SVG Version: 6.00 Build 0)  -->
<svg version="1.1" id="레이어_1" xmlns="http://www.w3.org/2000/svg" xmlns:xlink="http://www.w3.org/1999/xlink" x="0px"
	 y="0px" viewBox="0 0 141.7 141.7" style="enable-background:new 0 0 141.7 141.7;" xml:space="preserve">
<style type="text/css">
	.st0{fill:#131B28;}
	.st1{fill:#0868AC;}
</style>
<g>
	<g>
		<path class="st0" d="M40.5,115L40.5,115l-1.1,4L40.5,115L40.5,115z"/>
		<path class="st0" d="M46.3,123.7l-1.2,0L46.3,123.7z"/>
		<path class="st0" d="M47.6,123.7l-1.2,0L47.6,123.7z"/>
		<path class="st0" d="M46.7,129.2l1.3-5L46.7,129.2L46.7,129.2L46.7,129.2z"/>
		<path class="st0" d="M74.2,106.3l-2.4,11.4L74.2,106.3z"/>
		<path class="st0" d="M67.9,106.3l-1.8,8.5L67.9,106.3L67.9,106.3z"/>
		<path class="st0" d="M73.8,105.8h-5.2c-0.3,0-0.6,0.2-0.6,0.5l-1.8,8.5l-1.8,8.5c-0.1,0.3-0.3,0.5-0.6,0.5h-3.1H60
			c-3.6,0-3.2-2.5-2.5-6c0,0,0-0.1,0-0.1l0.1-0.4c0,0,0-0.1,0-0.1l0.2-0.9l0.2-0.9c0.1-0.3,0.1-0.7,0.2-1l0.8-4.1l0.8-4.1
			c0.1-0.3-0.1-0.5-0.4-0.5h-5.3c-0.3,0-0.6,0.2-0.6,0.5l-1.1,5.4l-1.1,5.4c0,0,0,0,0,0l-0.1,0.5c-1.3,6-1,11.8,6.2,11.9
			c0.1,0,0.2,0,0.2,0h11.2c0.3,0,0.6-0.2,0.6-0.5l2.4-11.4l2.4-11.4C74.2,106,74.1,105.8,73.8,105.8L73.8,105.8z"/>
		<path class="st0" d="M94.5,123.9c0.3,0,0.5,0.2,0.4,0.5l-0.5,2.5"/>
		<path class="st0" d="M93.9,129.3l0.5-2.5L93.9,129.3C93.9,129.3,93.9,129.3,93.9,129.3L93.9,129.3z"/>
		<path class="st0" d="M80.6,120.7c0-0.3,0.3-0.7,0.6-0.7l-0.6,0C80.2,122.9,80.6,120.7,80.6,120.7L80.6,120.7z"/>
		<path class="st0" d="M94.5,123.9c0.3,0,0.5,0.2,0.4,0.5l-0.5,2.5l-0.1,0.4"/>
		<path class="st0" d="M93.9,129.3l0.4-2.1L93.9,129.3C93.9,129.3,93.9,129.3,93.9,129.3L93.9,129.3z"/>
		<path class="st0" d="M8.6,120.8l0.8-3.6l-0.9,4.1l-0.9,4.2l0.8-3.6C8.4,121.5,8.5,121.1,8.6,120.8L8.6,120.8z"/>
		<path class="st0" d="M18.2,105.7h-5.7c-0.3,0-0.6,0.2-0.6,0.5l-0.5,2.4l-0.5,2.4c-0.1,0.3,0.1,0.5,0.4,0.5h5.7
			c0.3,0,0.6-0.2,0.6-0.5l0.5-2.4l0.5-2.4v0C18.7,105.9,18.5,105.7,18.2,105.7L18.2,105.7z"/>
		<path class="st0" d="M17,113.6L17,113.6l-1.7,7.7L17,113.6z"/>
		<path class="st0" d="M10.2,113.6l-0.8,3.6L10.2,113.6z"/>
		<path class="st0" d="M16.6,113.1h-5.7c-0.3,0-0.6,0.2-0.6,0.5l-0.8,3.6l-0.8,3.6c-0.1,0.3-0.2,0.7-0.2,1l-0.8,3.6l-0.8,3.6
			c-0.1,0.3-0.2,0.7-0.3,1c0,0-1.1,3.2-2.9,3.2c-0.1,0-0.2,0-0.2,0c-0.9,0-1.6,0-1.6,0h0c-0.3,0-0.6,0.2-0.6,0.5l-0.6,2.5L0,138.7
			c-0.1,0.3,0.1,0.5,0.4,0.5c1,0,3.3,0,4.7,0c4.5,0,6.9-2.5,8.4-9.7l1.8-8.2l1.7-7.7C17,113.4,16.8,113.1,16.6,113.1L16.6,113.1z"/>
		<path class="st0" d="M98.1,129.6c-0.3,0-0.5-0.2-0.4-0.5l4.3-20.2"/>
		<path class="st0" d="M104.1,129.1l1.7-8.6L104.1,129.1z"/>
		<path class="st0" d="M97.8,129.4c0-0.1,0-0.5,0-0.8l2-9.6l-2.2,10.1c-0.1,0.3,0.1,0.5,0.4,0.5h0.5
			C98.3,129.6,97.8,129.5,97.8,129.4L97.8,129.4z"/>
		<path class="st0" d="M103.8,129.5c-0.2,0.1-0.5,0.1-0.8,0.1h0.5c0.3,0,0.6-0.2,0.6-0.5l0.1-0.5
			C104.2,128.9,103.9,129.4,103.8,129.5L103.8,129.5z"/>
		<path class="st0" d="M105,124.8l0.8-3.8c0,0,0,0,0,0L105,124.8L105,124.8z"/>
		<path class="st0" d="M122,110.2l0.2,1c0.1,0.3-0.1,0.5-0.4,0.5"/>
		<path class="st0" d="M104.2,128.6l0.8-3.8L104.2,128.6z"/>
		<path class="st0" d="M121.8,109.2l0.2,1L121.8,109.2z"/>
		<path class="st0" d="M105.8,121c0.1-0.3,0.2-0.7,0.2-1l0.8-3.9l-0.9,4.4L105.8,121L105.8,121z"/>
		<path class="st0" d="M102.1,108.5c-0.1,0.3-0.1,0.6-0.2,0.8l-2,9.6l2.2-10.1L102.1,108.5L102.1,108.5z"/>
		<path class="st0" d="M122.3,111.2l-0.2-1l-0.2-1l-0.1-0.5c-0.5-1.8-1.8-2.9-4.8-2.9l-4.6,0l-4.3,0h-0.4h-4.4
			c-0.3,0-0.6,0.2-0.6,0.5h0l-0.2,1l-0.3,1.2l-0.1,0.3L99.9,119l-2,9.6c-0.1,0.3-0.1,0.6,0,0.8c0,0.1,0.6,0.3,0.9,0.3h4.3
			c0.3,0,0.7-0.1,0.8-0.1c0.2-0.1,0.4-0.6,0.4-0.9l0.8-3.8l0.8-3.8c0,0,0,0,0,0l0.1-0.5l0.9-4.4l0.8-3.9c0.1-0.3,0.3-0.5,0.6-0.5
			l13.6,0C122.2,111.7,122.3,111.5,122.3,111.2L122.3,111.2z"/>
		<path class="st0" d="M139.8,102.3c-0.3,0-0.8,0-1,0h-4.4c-0.3,0-0.7,0.2-0.8,0.4l-9.6,14.1c-0.2,0.2-0.3,0.2-0.4-0.1l-0.7-3.1
			c-0.1-0.3-0.4-0.5-0.6-0.5H116c-0.3,0-0.5,0.2-0.4,0.5l2.8,9.7c0.1,0.3,0.1,0.7,0,1l-1.2,4.7c-0.1,0.3,0.1,0.5,0.4,0.5h6.1
			c0.3,0,0.6-0.2,0.7-0.5l1.2-4.7c0.1-0.3,0.3-0.7,0.4-0.9l15.6-20.8c0.2-0.2,0.1-0.4-0.2-0.4L139.8,102.3L139.8,102.3z"/>
		<path class="st0" d="M90.6,114.5L90.6,114.5c0,0.3-0.3,0.5-0.6,0.5h-7.9c-0.3,0-0.4-0.2-0.4-0.4c0,0,0,0,0,0c0,0,0,0,0,0
			c0,0,0,0,0,0c0,0,0-0.1,0-0.1c0.8-2,2.3-3.3,5.1-3.3C90.2,111.1,90.8,112.7,90.6,114.5L90.6,114.5z M88.3,105.4
			c-10.1,0-12.5,6.1-13.8,12.3c-1.3,6.3-1.2,12.2,9.2,12.2H84c0,0,0.1,0,0.1,0h0.3h0.1h0.3c0,0,0.1,0,0.1,0c0.1,0,0.2,0,0.3,0h0.1
			c0.4,0,0.8,0,1.3,0h0c2.8,0,5.5,0,6.6,0c0.3,0,0.6-0.2,0.6-0.5l0.4-2.1l0.1-0.4l0.5-2.5c0.1-0.3-0.1-0.5-0.4-0.5h-9.4
			c-3.7,0-4.8-1-4.4-3.9h15l0,0c0,0,0,0,0,0c0.2,0,0.5-0.2,0.5-0.4c0,0,0-0.1,0-0.1l0,0C98.5,111.1,97.8,105.4,88.3,105.4
			L88.3,105.4z"/>
		<path class="st0" d="M40.6,114.5l-0.1,0.5c0,0,0,0,0,0l-1.1,4l-1.1,4c-0.1,0.3-0.4,0.5-0.7,0.5h-6c-4.5,0-5.7-3.6-4.5-8.8
			c1.1-5.4,3.3-8.7,7.7-9C40.9,105.2,42.1,109.5,40.6,114.5L40.6,114.5z M44.7,123.2c0,0,2.8-6.9,3.5-10.8c0.9-5.3-1.8-13-12-13
			c-10.2,0-14.6,7.3-16.3,15.3c-1.7,8,0.5,15.1,10.7,15l8,0l7.5,0c0.3,0,0.6-0.2,0.7-0.5l1.3-5c0.1-0.3-0.1-0.5-0.4-0.5l-1.2,0
			l-1.2,0c-0.2,0-0.4-0.2-0.4-0.4C44.7,123.3,44.7,123.2,44.7,123.2L44.7,123.2z"/>
		<path class="st0" d="M95.2,118.6c0,0.2-0.2,0.3-0.3,0.3c-0.2,0-0.3-0.2-0.3-0.3c0-0.2,0.2-0.3,0.3-0.3
			C95.1,118.3,95.2,118.4,95.2,118.6z"/>
	</g>
	<g>
		<path class="st1" d="M30.3,23.1c-8.1,11.6-7.1,26.8-0.9,39.2c0.1,0.3,0.3,0.6,0.5,0.9c0.1,0.2,0.2,0.4,0.3,0.6
			c0.1,0.1,0.1,0.2,0.2,0.3c0.1,0.2,0.2,0.4,0.3,0.6c0.2,0.3,0.4,0.7,0.6,1c0.1,0.2,0.2,0.4,0.3,0.6c0.2,0.4,0.5,0.7,0.7,1.1
			c0.1,0.2,0.2,0.3,0.3,0.5c0.3,0.5,0.7,1,1,1.4c0,0,0,0,0,0c0.1,0.1,0.1,0.1,0.2,0.2c0.3,0.4,0.6,0.8,0.9,1.2
			c0.1,0.1,0.2,0.3,0.3,0.4c0.3,0.3,0.6,0.7,0.8,1c0.1,0.1,0.2,0.3,0.3,0.4c0.4,0.4,0.8,0.9,1.2,1.3c0,0,0,0,0,0c0,0,0,0,0,0
			c0.4,0.4,0.8,0.8,1.2,1.2c0.1,0.1,0.3,0.3,0.4,0.4c0.3,0.3,0.6,0.6,0.9,0.9c0.1,0.1,0.3,0.2,0.4,0.4c0.4,0.4,0.9,0.8,1.3,1.2
			c0,0,0,0,0,0c0.1,0.1,0.2,0.1,0.2,0.2c0.4,0.3,0.8,0.7,1.2,1c0.2,0.1,0.3,0.3,0.5,0.4c0.3,0.3,0.7,0.5,1,0.8
			c0.2,0.1,0.3,0.3,0.5,0.4c0.4,0.3,0.7,0.5,1.1,0.8c0.1,0.1,0.3,0.2,0.4,0.3c0,0,0.1,0.1,0.1,0.1c0.4,0.2,0.7,0.5,1.1,0.7
			c0.2,0.1,0.3,0.2,0.5,0.3c0.6,0.3,1.1,0.7,1.7,1c0.2,0.1,0.3,0.2,0.5,0.3c0.4,0.2,0.8,0.5,1.3,0.7c0.2,0.1,0.5,0.2,0.7,0.4
			c0.3,0.2,0.6,0.3,0.9,0.5c0.1,0,0.1,0.1,0.2,0.1c0.1,0.1,0.2,0.1,0.4,0.2c0.5,0.2,0.9,0.4,1.4,0.7c0.1,0,0.2,0.1,0.3,0.1
			c0.5,0.2,1.1,0.5,1.7,0.7c0.1,0.1,0.3,0.1,0.4,0.2c0.5,0.2,1,0.4,1.6,0.6c0.1,0,0.1,0,0.2,0.1c0.6,0.2,1.2,0.4,1.7,0.6
			c0.1,0,0.3,0.1,0.4,0.1c0.6,0.2,1.2,0.4,1.8,0.5c39.2,7.1,50.6-23.6,50.6-23.6c-9.6,12.5-26.5,15.7-42.6,12.1
			c-0.6-0.1-1.2-0.3-1.8-0.5c-0.2,0-0.3-0.1-0.4-0.1c-0.6-0.2-1.2-0.4-1.7-0.6c-0.1,0-0.2-0.1-0.2-0.1c-0.5-0.2-1-0.4-1.5-0.6
			c-0.1-0.1-0.3-0.1-0.4-0.2c-0.6-0.2-1.1-0.4-1.6-0.7c-0.1,0-0.2-0.1-0.3-0.1c-0.5-0.2-0.9-0.4-1.4-0.6c-0.1-0.1-0.3-0.1-0.4-0.2
			c-0.4-0.2-0.7-0.4-1.1-0.5c-0.2-0.1-0.5-0.2-0.7-0.4c-0.4-0.2-0.9-0.5-1.3-0.7c-0.1-0.1-0.3-0.2-0.4-0.2c-0.6-0.3-1.1-0.7-1.7-1
			c-0.2-0.1-0.3-0.2-0.5-0.3c-0.4-0.3-0.8-0.5-1.2-0.8c-0.1-0.1-0.3-0.2-0.4-0.3c-0.4-0.3-0.8-0.5-1.1-0.8c-0.2-0.1-0.3-0.3-0.5-0.4
			c-0.3-0.3-0.7-0.5-1-0.8c-0.2-0.1-0.3-0.2-0.5-0.4c-0.4-0.4-0.8-0.7-1.3-1.1c0,0-0.1-0.1-0.1-0.1c-0.5-0.4-0.9-0.8-1.3-1.2
			c-0.1-0.1-0.3-0.2-0.4-0.4c-0.3-0.3-0.6-0.6-1-0.9c-0.1-0.1-0.3-0.2-0.4-0.4c-0.4-0.4-0.8-0.8-1.2-1.2c0,0,0,0-0.1-0.1
			c-0.4-0.4-0.8-0.9-1.2-1.4c-0.1-0.1-0.2-0.2-0.3-0.4c-0.3-0.3-0.6-0.7-0.9-1.1c-0.1-0.1-0.2-0.3-0.3-0.4c-0.3-0.4-0.7-0.9-1-1.3
			c-8.9-12.2-12.1-29-5-42.8"/>
		<path class="st1" d="M55.5,13.3c-5.9,8.4-5.5,19.7-1,28.6c0.8,1.5,1.6,2.9,2.6,4.3c0.9,1.3,1.9,2.8,3,3.8c0.4,0.5,0.9,0.9,1.3,1.4
			c0.1,0.1,0.2,0.2,0.3,0.3c0.4,0.4,0.9,0.8,1.3,1.2c0,0,0,0,0.1,0c0,0,0,0,0,0c0.5,0.4,1,0.9,1.6,1.3c0.1,0.1,0.2,0.2,0.4,0.3
			c0.5,0.4,1.1,0.8,1.6,1.2c0,0,0,0,0,0c0.2,0.2,0.5,0.3,0.7,0.5c0.1,0.1,0.2,0.2,0.4,0.2c0.4,0.3,0.8,0.5,1.2,0.7
			c0.1,0,0.1,0.1,0.2,0.1c0.4,0.2,0.7,0.4,1.1,0.6c0.1,0.1,0.3,0.1,0.4,0.2c0.2,0.1,0.5,0.3,0.8,0.4c0,0,0.1,0,0.1,0.1
			c0.5,0.3,1,0.5,1.6,0.7c0.1,0,0.2,0.1,0.3,0.1c0.4,0.2,0.9,0.4,1.3,0.5c0.2,0.1,0.4,0.1,0.6,0.2c0.4,0.1,0.8,0.3,1.2,0.4
			c0.2,0.1,0.4,0.1,0.5,0.2c0.6,0.2,1.1,0.4,1.7,0.5c30.3,5,37.2-18.3,37.2-18.3c-6.3,9.1-18.5,13.4-31.5,10
			c-0.6-0.2-1.1-0.3-1.7-0.5c-0.2-0.1-0.3-0.1-0.5-0.2c-0.4-0.1-0.8-0.3-1.2-0.4c-0.2-0.1-0.4-0.1-0.5-0.2c-0.4-0.2-0.9-0.3-1.3-0.5
			c-0.1,0-0.2-0.1-0.3-0.1c-0.5-0.2-1.1-0.5-1.6-0.7c-0.3-0.1-0.5-0.3-0.8-0.4c-0.2-0.1-0.3-0.2-0.5-0.2c-0.3-0.2-0.7-0.4-1-0.6
			c-0.1,0-0.2-0.1-0.2-0.1c-0.4-0.2-0.8-0.5-1.2-0.7c-0.1-0.1-0.2-0.2-0.4-0.2c-0.3-0.2-0.5-0.3-0.8-0.5c-0.6-0.4-1.1-0.8-1.6-1.2
			c-0.1-0.1-0.2-0.2-0.4-0.3c-5.7-4.5-10.2-10.6-12.4-17.6c-2.2-7.2-1.8-15.3,2.1-21.9"/>
		<path class="st1" d="M76.6,6c-3.5,5.1-3.8,11.4-1.4,17C77.8,29,83,33.7,89,35.9c0.2,0.1,0.5,0.2,0.8,0.3c0.1,0,0.2,0.1,0.3,0.1
			c0.4,0.1,0.7,0.2,1.1,0.3c16.7,3.2,21.2-8.6,22.4-10.3c-4,5.7-10.6,7.1-18.8,5.1c-0.6-0.2-1.4-0.4-2-0.6c-0.8-0.3-1.6-0.6-2.4-1
			c-1.5-0.7-2.8-1.5-4.1-2.5C79,21.7,74.5,11.1,79.2,2.4"/>
	</g>
</g>
</svg>
