<?xml version="1.0" encoding="utf-8"?>
<!-- Generator: Adobe Illustrator 28.1.0, SVG Export Plug-In . SVG Version: 6.00 Build 0)  -->
<svg version="1.1" id="레이어_1" xmlns="http://www.w3.org/2000/svg" xmlns:xlink="http://www.w3.org/1999/xlink" x="0px"
	 y="0px" viewBox="0 0 1000 200" style="enable-background:new 0 0 1000 200;" xml:space="preserve">
<style type="text/css">
	.st0{fill:#1F3961;}
	.st1{fill:#0C1836;}
	.st2{fill:#5B7EB7;}
	.st3{fill:none;stroke:#0C1836;stroke-width:0.9804;}
	.st4{fill:#3E5D8F;}
	.st5{fill:#000C1F;}
	.st6{fill:#EDDAA8;}
	.st7{fill:#3E5D8F;stroke:#1F3961;stroke-width:0.4902;}
	.st8{fill:#FFFBF1;}
	.st9{fill:url(#SVGID_1_);fill-opacity:0;}
	.st10{fill:#0C0F1E;}
	.st11{opacity:0.3;fill:url(#SVGID_00000075150835372902493740000009358049898759429815_);enable-background:new    ;}
	.st12{fill:url(#SVGID_00000119836140256013174350000002651040297681901468_);}
	.st13{opacity:0.7;fill:url(#SVGID_00000030476142947744148620000005072138511883402168_);enable-background:new    ;}
	.st14{opacity:0.4;fill:url(#SVGID_00000070102805839845302890000005774265237737660547_);enable-background:new    ;}
</style>
<g>
	<rect x="57.49" y="118.18" class="st0" width="82.62" height="76.2"/>
	<rect x="57.49" y="118.18" class="st1" width="82.62" height="72.99"/>
	<rect x="49.2" y="74.6" class="st2" width="101.6" height="9.36"/>
	<rect x="53.48" y="83.96" class="st0" width="93.05" height="36.9"/>
	<line class="st3" x1="59.58" y1="83.96" x2="59.58" y2="120.86"/>
	<line class="st3" x1="68.4" y1="83.96" x2="68.4" y2="120.86"/>
	<line class="st3" x1="77.5" y1="83.96" x2="77.5" y2="120.86"/>
	<line class="st3" x1="86.59" y1="83.96" x2="86.59" y2="120.86"/>
	<line class="st3" x1="95.68" y1="83.96" x2="95.68" y2="120.86"/>
	<line class="st3" x1="104.77" y1="83.96" x2="104.77" y2="120.86"/>
	<line class="st3" x1="113.86" y1="83.96" x2="113.86" y2="120.86"/>
	<line class="st3" x1="122.95" y1="83.96" x2="122.95" y2="120.86"/>
	<line class="st3" x1="132.04" y1="83.96" x2="132.04" y2="120.86"/>
	<line class="st3" x1="141.13" y1="83.96" x2="141.13" y2="120.86"/>
	<rect x="8.02" y="116.31" class="st1" width="51.87" height="70.86"/>
	<rect x="8.02" y="116.31" class="st0" width="4.01" height="70.86"/>
	<rect x="12.57" y="116.31" class="st4" width="9.36" height="70.86"/>
	<rect x="22.46" y="116.31" class="st4" width="9.36" height="70.86"/>
	<rect x="32.89" y="116.31" class="st4" width="9.36" height="70.86"/>
	<rect x="43.85" y="116.31" class="st2" width="16.04" height="70.86"/>
	<rect x="10.16" y="187.17" class="st5" width="47.33" height="8.82"/>
	<rect x="140.11" y="116.31" class="st1" width="51.87" height="70.86"/>
	<rect x="187.97" y="116.31" class="st0" width="4.01" height="70.86"/>
	<rect x="178.08" y="116.31" class="st4" width="9.36" height="70.86"/>
	<rect x="168.18" y="116.31" class="st4" width="9.36" height="70.86"/>
	<rect x="157.75" y="116.31" class="st4" width="9.36" height="70.86"/>
	<rect x="140.11" y="116.31" class="st2" width="16.04" height="70.86"/>
	<rect x="140.11" y="187.17" class="st5" width="49.73" height="8.82"/>
	<rect x="159.89" y="133.96" class="st0" width="25.13" height="33.42"/>
	<rect x="162.83" y="138.24" class="st6" width="8.56" height="11.5"/>
	<rect x="162.83" y="151.87" class="st6" width="8.56" height="11.5"/>
	<rect x="173.53" y="138.24" class="st6" width="8.56" height="11.5"/>
	<rect x="173.53" y="151.87" class="st6" width="8.56" height="11.5"/>
	<rect x="14.71" y="133.96" class="st0" width="25.13" height="33.42"/>
	<rect x="17.65" y="138.24" class="st6" width="8.56" height="11.5"/>
	<rect x="17.65" y="151.87" class="st6" width="8.56" height="11.5"/>
	<rect x="28.34" y="138.24" class="st6" width="8.56" height="11.5"/>
	<rect x="28.34" y="151.87" class="st6" width="8.56" height="11.5"/>
	<rect x="66.82" y="125.65" class="st7" width="33.2" height="65.29"/>
	<rect x="70.59" y="129.41" class="st8" width="25.4" height="57.49"/>
	<rect x="71.93" y="130.75" class="st6" width="24.06" height="56.15"/>
	<rect x="99.98" y="125.65" class="st7" width="33.2" height="65.29"/>
	<rect x="103.74" y="129.41" class="st8" width="25.4" height="57.49"/>
	<rect x="105.08" y="130.75" class="st6" width="24.06" height="56.15"/>
	<rect y="103.48" class="st4" width="200" height="12.83"/>
	<rect x="51.87" y="194.39" class="st1" width="96.26" height="5.61"/>
	
		<linearGradient id="SVGID_1_" gradientUnits="userSpaceOnUse" x1="99.7522" y1="764.0784" x2="99.7522" y2="818.6237" gradientTransform="matrix(1 0 0 1 -0.0222 -641.4843)">
		<stop  offset="0" style="stop-color:#FDF7E2"/>
		<stop  offset="1" style="stop-color:#FDF7E2;stop-opacity:0"/>
	</linearGradient>
	<path class="st9" d="M99.73,116.04l41.91,64.17H57.82L99.73,116.04z"/>
	<ellipse class="st8" cx="100" cy="121.26" rx="5.35" ry="4.14"/>
	<path class="st10" d="M95.19,114.44h9.63c1.03,0,1.87,0.84,1.87,1.87l0,0c0,1.03-0.84,1.87-1.87,1.87h-9.63
		c-1.03,0-1.87-0.84-1.87-1.87l0,0C93.32,115.28,94.15,114.44,95.19,114.44z"/>
</g>
<g>
	<rect x="257.49" y="118.18" class="st0" width="82.62" height="76.2"/>
	<rect x="257.49" y="118.18" class="st1" width="82.62" height="72.99"/>
	<rect x="249.2" y="74.6" class="st2" width="101.6" height="9.36"/>
	<rect x="253.48" y="83.96" class="st0" width="93.05" height="36.9"/>
	<line class="st3" x1="259.58" y1="83.96" x2="259.58" y2="120.86"/>
	<line class="st3" x1="268.4" y1="83.96" x2="268.4" y2="120.86"/>
	<line class="st3" x1="277.5" y1="83.96" x2="277.5" y2="120.86"/>
	<line class="st3" x1="286.59" y1="83.96" x2="286.59" y2="120.86"/>
	<line class="st3" x1="295.68" y1="83.96" x2="295.68" y2="120.86"/>
	<line class="st3" x1="304.77" y1="83.96" x2="304.77" y2="120.86"/>
	<line class="st3" x1="313.86" y1="83.96" x2="313.86" y2="120.86"/>
	<line class="st3" x1="322.95" y1="83.96" x2="322.95" y2="120.86"/>
	<line class="st3" x1="332.04" y1="83.96" x2="332.04" y2="120.86"/>
	<line class="st3" x1="341.13" y1="83.96" x2="341.13" y2="120.86"/>
	<rect x="208.02" y="116.31" class="st1" width="51.87" height="70.86"/>
	<rect x="208.02" y="116.31" class="st0" width="4.01" height="70.86"/>
	<rect x="212.57" y="116.31" class="st4" width="9.36" height="70.86"/>
	<rect x="222.46" y="116.31" class="st4" width="9.36" height="70.86"/>
	<rect x="232.89" y="116.31" class="st4" width="9.36" height="70.86"/>
	<rect x="243.85" y="116.31" class="st2" width="16.04" height="70.86"/>
	<rect x="210.16" y="187.17" class="st5" width="47.33" height="8.82"/>
	<rect x="340.11" y="116.31" class="st1" width="51.87" height="70.86"/>
	<rect x="387.97" y="116.31" class="st0" width="4.01" height="70.86"/>
	<rect x="378.08" y="116.31" class="st4" width="9.36" height="70.86"/>
	<rect x="368.18" y="116.31" class="st4" width="9.36" height="70.86"/>
	<rect x="357.75" y="116.31" class="st4" width="9.36" height="70.86"/>
	<rect x="340.11" y="116.31" class="st2" width="16.04" height="70.86"/>
	<rect x="340.11" y="187.17" class="st5" width="49.73" height="8.82"/>
	<rect x="359.89" y="133.96" class="st0" width="25.13" height="33.42"/>
	<rect x="362.83" y="138.24" class="st6" width="8.56" height="11.5"/>
	<rect x="362.83" y="151.87" class="st6" width="8.56" height="11.5"/>
	<rect x="373.53" y="138.24" class="st6" width="8.56" height="11.5"/>
	<rect x="373.53" y="151.87" class="st6" width="8.56" height="11.5"/>
	<rect x="214.71" y="133.96" class="st0" width="25.13" height="33.42"/>
	<rect x="217.65" y="138.24" class="st6" width="8.56" height="11.5"/>
	<rect x="217.65" y="151.87" class="st6" width="8.56" height="11.5"/>
	<rect x="228.34" y="138.24" class="st6" width="8.56" height="11.5"/>
	<rect x="228.34" y="151.87" class="st6" width="8.56" height="11.5"/>
	<rect x="266.82" y="125.65" class="st7" width="33.2" height="65.29"/>
	<rect x="270.59" y="129.41" class="st8" width="25.4" height="57.49"/>
	<rect x="271.93" y="130.75" class="st6" width="24.06" height="56.15"/>
	<rect x="299.98" y="125.65" class="st7" width="33.2" height="65.29"/>
	<rect x="303.74" y="129.41" class="st8" width="25.4" height="57.49"/>
	<rect x="305.08" y="130.75" class="st6" width="24.06" height="56.15"/>
	<rect x="200" y="103.48" class="st4" width="200" height="12.83"/>
	<rect x="251.87" y="194.39" class="st1" width="96.26" height="5.61"/>
	
		<linearGradient id="SVGID_00000174577446403427402340000010553758600140008333_" gradientUnits="userSpaceOnUse" x1="299.7522" y1="764.0784" x2="299.7522" y2="818.6237" gradientTransform="matrix(1 0 0 1 -0.0222 -641.4843)">
		<stop  offset="0" style="stop-color:#FDF7E2"/>
		<stop  offset="1" style="stop-color:#FDF7E2;stop-opacity:0"/>
	</linearGradient>
	<path style="opacity:0.3;fill:url(#SVGID_00000174577446403427402340000010553758600140008333_);enable-background:new    ;" d="
		M299.73,116.04l41.91,64.17h-83.82L299.73,116.04z"/>
	<ellipse class="st8" cx="300" cy="121.26" rx="5.35" ry="4.14"/>
	<path class="st10" d="M295.19,114.44h9.63c1.03,0,1.87,0.84,1.87,1.87l0,0c0,1.03-0.84,1.87-1.87,1.87h-9.63
		c-1.03,0-1.87-0.84-1.87-1.87l0,0C293.32,115.28,294.15,114.44,295.19,114.44z"/>
</g>
<g>
	<rect x="457.49" y="118.18" class="st0" width="82.62" height="76.2"/>
	<rect x="457.49" y="118.18" class="st1" width="82.62" height="72.99"/>
	<rect x="449.2" y="74.6" class="st2" width="101.6" height="9.36"/>
	<rect x="453.48" y="83.96" class="st0" width="93.05" height="36.9"/>
	<line class="st3" x1="459.58" y1="83.96" x2="459.58" y2="120.86"/>
	<line class="st3" x1="468.4" y1="83.96" x2="468.4" y2="120.86"/>
	<line class="st3" x1="477.5" y1="83.96" x2="477.5" y2="120.86"/>
	<line class="st3" x1="486.59" y1="83.96" x2="486.59" y2="120.86"/>
	<line class="st3" x1="495.68" y1="83.96" x2="495.68" y2="120.86"/>
	<line class="st3" x1="504.77" y1="83.96" x2="504.77" y2="120.86"/>
	<line class="st3" x1="513.86" y1="83.96" x2="513.86" y2="120.86"/>
	<line class="st3" x1="522.95" y1="83.96" x2="522.95" y2="120.86"/>
	<line class="st3" x1="532.04" y1="83.96" x2="532.04" y2="120.86"/>
	<line class="st3" x1="541.13" y1="83.96" x2="541.13" y2="120.86"/>
	<rect x="408.02" y="116.31" class="st1" width="51.87" height="70.86"/>
	<rect x="408.02" y="116.31" class="st0" width="4.01" height="70.86"/>
	<rect x="412.57" y="116.31" class="st4" width="9.36" height="70.86"/>
	<rect x="422.46" y="116.31" class="st4" width="9.36" height="70.86"/>
	<rect x="432.89" y="116.31" class="st4" width="9.36" height="70.86"/>
	<rect x="443.85" y="116.31" class="st2" width="16.04" height="70.86"/>
	<rect x="410.16" y="187.17" class="st5" width="47.33" height="8.82"/>
	<rect x="540.11" y="116.31" class="st1" width="51.87" height="70.86"/>
	<rect x="587.97" y="116.31" class="st0" width="4.01" height="70.86"/>
	<rect x="578.08" y="116.31" class="st4" width="9.36" height="70.86"/>
	<rect x="568.18" y="116.31" class="st4" width="9.36" height="70.86"/>
	<rect x="557.75" y="116.31" class="st4" width="9.36" height="70.86"/>
	<rect x="540.11" y="116.31" class="st2" width="16.04" height="70.86"/>
	<rect x="540.11" y="187.17" class="st5" width="49.73" height="8.82"/>
	<rect x="559.89" y="133.96" class="st0" width="25.13" height="33.42"/>
	<rect x="562.83" y="138.24" class="st6" width="8.56" height="11.5"/>
	<rect x="562.83" y="151.87" class="st6" width="8.56" height="11.5"/>
	<rect x="573.53" y="138.24" class="st6" width="8.56" height="11.5"/>
	<rect x="573.53" y="151.87" class="st6" width="8.56" height="11.5"/>
	<rect x="414.71" y="133.96" class="st0" width="25.13" height="33.42"/>
	<rect x="417.65" y="138.24" class="st6" width="8.56" height="11.5"/>
	<rect x="417.65" y="151.87" class="st6" width="8.56" height="11.5"/>
	<rect x="428.34" y="138.24" class="st6" width="8.56" height="11.5"/>
	<rect x="428.34" y="151.87" class="st6" width="8.56" height="11.5"/>
	<rect x="466.82" y="125.65" class="st7" width="33.2" height="65.29"/>
	<rect x="470.59" y="129.41" class="st8" width="25.4" height="57.49"/>
	<rect x="471.93" y="130.75" class="st6" width="24.06" height="56.15"/>
	<rect x="499.98" y="125.65" class="st7" width="33.2" height="65.29"/>
	<rect x="503.74" y="129.41" class="st8" width="25.4" height="57.49"/>
	<rect x="505.08" y="130.75" class="st6" width="24.06" height="56.15"/>
	<rect x="400" y="103.48" class="st4" width="200" height="12.83"/>
	<rect x="451.87" y="194.39" class="st1" width="96.26" height="5.61"/>
	
		<linearGradient id="SVGID_00000009572271375502032130000007716927313435512758_" gradientUnits="userSpaceOnUse" x1="499.7522" y1="764.0784" x2="499.7522" y2="818.6237" gradientTransform="matrix(1 0 0 1 -0.0222 -641.4843)">
		<stop  offset="0" style="stop-color:#FDF7E2"/>
		<stop  offset="1" style="stop-color:#FDF7E2;stop-opacity:0"/>
	</linearGradient>
	<path style="fill:url(#SVGID_00000009572271375502032130000007716927313435512758_);" d="M499.73,116.04l41.91,64.17h-83.82
		L499.73,116.04z"/>
	<ellipse class="st8" cx="500" cy="121.26" rx="5.35" ry="4.14"/>
	<path class="st10" d="M495.19,114.44h9.63c1.03,0,1.87,0.84,1.87,1.87l0,0c0,1.03-0.84,1.87-1.87,1.87h-9.63
		c-1.03,0-1.87-0.84-1.87-1.87l0,0C493.32,115.28,494.15,114.44,495.19,114.44z"/>
</g>
<g>
	<rect x="657.49" y="118.18" class="st0" width="82.62" height="76.2"/>
	<rect x="657.49" y="118.18" class="st1" width="82.62" height="72.99"/>
	<rect x="649.2" y="74.6" class="st2" width="101.6" height="9.36"/>
	<rect x="653.48" y="83.96" class="st0" width="93.05" height="36.9"/>
	<line class="st3" x1="659.58" y1="83.96" x2="659.58" y2="120.86"/>
	<line class="st3" x1="668.4" y1="83.96" x2="668.4" y2="120.86"/>
	<line class="st3" x1="677.5" y1="83.96" x2="677.5" y2="120.86"/>
	<line class="st3" x1="686.59" y1="83.96" x2="686.59" y2="120.86"/>
	<line class="st3" x1="695.68" y1="83.96" x2="695.68" y2="120.86"/>
	<line class="st3" x1="704.77" y1="83.96" x2="704.77" y2="120.86"/>
	<line class="st3" x1="713.86" y1="83.96" x2="713.86" y2="120.86"/>
	<line class="st3" x1="722.95" y1="83.96" x2="722.95" y2="120.86"/>
	<line class="st3" x1="732.04" y1="83.96" x2="732.04" y2="120.86"/>
	<line class="st3" x1="741.13" y1="83.96" x2="741.13" y2="120.86"/>
	<rect x="608.02" y="116.31" class="st1" width="51.87" height="70.86"/>
	<rect x="608.02" y="116.31" class="st0" width="4.01" height="70.86"/>
	<rect x="612.57" y="116.31" class="st4" width="9.36" height="70.86"/>
	<rect x="622.46" y="116.31" class="st4" width="9.36" height="70.86"/>
	<rect x="632.89" y="116.31" class="st4" width="9.36" height="70.86"/>
	<rect x="643.85" y="116.31" class="st2" width="16.04" height="70.86"/>
	<rect x="610.16" y="187.17" class="st5" width="47.33" height="8.82"/>
	<rect x="740.11" y="116.31" class="st1" width="51.87" height="70.86"/>
	<rect x="787.97" y="116.31" class="st0" width="4.01" height="70.86"/>
	<rect x="778.08" y="116.31" class="st4" width="9.36" height="70.86"/>
	<rect x="768.18" y="116.31" class="st4" width="9.36" height="70.86"/>
	<rect x="757.75" y="116.31" class="st4" width="9.36" height="70.86"/>
	<rect x="740.11" y="116.31" class="st2" width="16.04" height="70.86"/>
	<rect x="740.11" y="187.17" class="st5" width="49.73" height="8.82"/>
	<rect x="759.89" y="133.96" class="st0" width="25.13" height="33.42"/>
	<rect x="762.83" y="138.24" class="st6" width="8.56" height="11.5"/>
	<rect x="762.83" y="151.87" class="st6" width="8.56" height="11.5"/>
	<rect x="773.53" y="138.24" class="st6" width="8.56" height="11.5"/>
	<rect x="773.53" y="151.87" class="st6" width="8.56" height="11.5"/>
	<rect x="614.71" y="133.96" class="st0" width="25.13" height="33.42"/>
	<rect x="617.65" y="138.24" class="st6" width="8.56" height="11.5"/>
	<rect x="617.65" y="151.87" class="st6" width="8.56" height="11.5"/>
	<rect x="628.34" y="138.24" class="st6" width="8.56" height="11.5"/>
	<rect x="628.34" y="151.87" class="st6" width="8.56" height="11.5"/>
	<rect x="666.82" y="125.65" class="st7" width="33.2" height="65.29"/>
	<rect x="670.59" y="129.41" class="st8" width="25.4" height="57.49"/>
	<rect x="671.93" y="130.75" class="st6" width="24.06" height="56.15"/>
	<rect x="699.98" y="125.65" class="st7" width="33.2" height="65.29"/>
	<rect x="703.74" y="129.41" class="st8" width="25.4" height="57.49"/>
	<rect x="705.08" y="130.75" class="st6" width="24.06" height="56.15"/>
	<rect x="600" y="103.48" class="st4" width="200" height="12.83"/>
	<rect x="651.87" y="194.39" class="st1" width="96.26" height="5.61"/>
	
		<linearGradient id="SVGID_00000110432497039499537200000007428088471004985738_" gradientUnits="userSpaceOnUse" x1="699.7521" y1="764.0784" x2="699.7521" y2="818.6237" gradientTransform="matrix(1 0 0 1 -0.0222 -641.4843)">
		<stop  offset="0" style="stop-color:#FDF7E2"/>
		<stop  offset="1" style="stop-color:#FDF7E2;stop-opacity:0"/>
	</linearGradient>
	<path style="opacity:0.7;fill:url(#SVGID_00000110432497039499537200000007428088471004985738_);enable-background:new    ;" d="
		M699.73,116.04l41.91,64.17h-83.82L699.73,116.04z"/>
	<ellipse class="st8" cx="700" cy="121.26" rx="5.35" ry="4.14"/>
	<path class="st10" d="M695.19,114.44h9.63c1.03,0,1.87,0.84,1.87,1.87l0,0c0,1.03-0.84,1.87-1.87,1.87h-9.63
		c-1.03,0-1.87-0.84-1.87-1.87l0,0C693.32,115.28,694.15,114.44,695.19,114.44z"/>
</g>
<g>
	<rect x="857.49" y="118.18" class="st0" width="82.62" height="76.2"/>
	<rect x="857.49" y="118.18" class="st1" width="82.62" height="72.99"/>
	<rect x="849.2" y="74.6" class="st2" width="101.6" height="9.36"/>
	<rect x="853.48" y="83.96" class="st0" width="93.05" height="36.9"/>
	<line class="st3" x1="859.58" y1="83.96" x2="859.58" y2="120.86"/>
	<line class="st3" x1="868.4" y1="83.96" x2="868.4" y2="120.86"/>
	<line class="st3" x1="877.5" y1="83.96" x2="877.5" y2="120.86"/>
	<line class="st3" x1="886.59" y1="83.96" x2="886.59" y2="120.86"/>
	<line class="st3" x1="895.68" y1="83.96" x2="895.68" y2="120.86"/>
	<line class="st3" x1="904.77" y1="83.96" x2="904.77" y2="120.86"/>
	<line class="st3" x1="913.86" y1="83.96" x2="913.86" y2="120.86"/>
	<line class="st3" x1="922.95" y1="83.96" x2="922.95" y2="120.86"/>
	<line class="st3" x1="932.04" y1="83.96" x2="932.04" y2="120.86"/>
	<line class="st3" x1="941.13" y1="83.96" x2="941.13" y2="120.86"/>
	<rect x="808.02" y="116.31" class="st1" width="51.87" height="70.86"/>
	<rect x="808.02" y="116.31" class="st0" width="4.01" height="70.86"/>
	<rect x="812.57" y="116.31" class="st4" width="9.36" height="70.86"/>
	<rect x="822.46" y="116.31" class="st4" width="9.36" height="70.86"/>
	<rect x="832.89" y="116.31" class="st4" width="9.36" height="70.86"/>
	<rect x="843.85" y="116.31" class="st2" width="16.04" height="70.86"/>
	<rect x="810.16" y="187.17" class="st5" width="47.33" height="8.82"/>
	<rect x="940.11" y="116.31" class="st1" width="51.87" height="70.86"/>
	<rect x="987.97" y="116.31" class="st0" width="4.01" height="70.86"/>
	<rect x="978.08" y="116.31" class="st4" width="9.36" height="70.86"/>
	<rect x="968.18" y="116.31" class="st4" width="9.36" height="70.86"/>
	<rect x="957.75" y="116.31" class="st4" width="9.36" height="70.86"/>
	<rect x="940.11" y="116.31" class="st2" width="16.04" height="70.86"/>
	<rect x="940.11" y="187.17" class="st5" width="49.73" height="8.82"/>
	<rect x="959.89" y="133.96" class="st0" width="25.13" height="33.42"/>
	<rect x="962.83" y="138.24" class="st6" width="8.56" height="11.5"/>
	<rect x="962.83" y="151.87" class="st6" width="8.56" height="11.5"/>
	<rect x="973.53" y="138.24" class="st6" width="8.56" height="11.5"/>
	<rect x="973.53" y="151.87" class="st6" width="8.56" height="11.5"/>
	<rect x="814.71" y="133.96" class="st0" width="25.13" height="33.42"/>
	<rect x="817.65" y="138.24" class="st6" width="8.56" height="11.5"/>
	<rect x="817.65" y="151.87" class="st6" width="8.56" height="11.5"/>
	<rect x="828.34" y="138.24" class="st6" width="8.56" height="11.5"/>
	<rect x="828.34" y="151.87" class="st6" width="8.56" height="11.5"/>
	<rect x="866.82" y="125.65" class="st7" width="33.2" height="65.29"/>
	<rect x="870.59" y="129.41" class="st8" width="25.4" height="57.49"/>
	<rect x="871.93" y="130.75" class="st6" width="24.06" height="56.15"/>
	<rect x="899.98" y="125.65" class="st7" width="33.2" height="65.29"/>
	<rect x="903.74" y="129.41" class="st8" width="25.4" height="57.49"/>
	<rect x="905.08" y="130.75" class="st6" width="24.06" height="56.15"/>
	<rect x="800" y="103.48" class="st4" width="200" height="12.83"/>
	<rect x="851.87" y="194.39" class="st1" width="96.26" height="5.61"/>
	
		<linearGradient id="SVGID_00000104669494580256202020000003502999592953220024_" gradientUnits="userSpaceOnUse" x1="899.7521" y1="764.0784" x2="899.7521" y2="818.6237" gradientTransform="matrix(1 0 0 1 -0.0222 -641.4843)">
		<stop  offset="0" style="stop-color:#FDF7E2"/>
		<stop  offset="1" style="stop-color:#FDF7E2;stop-opacity:0"/>
	</linearGradient>
	<path style="opacity:0.4;fill:url(#SVGID_00000104669494580256202020000003502999592953220024_);enable-background:new    ;" d="
		M899.73,116.04l41.91,64.17h-83.82L899.73,116.04z"/>
	<ellipse class="st8" cx="900" cy="121.26" rx="5.35" ry="4.14"/>
	<path class="st10" d="M895.19,114.44h9.63c1.03,0,1.87,0.84,1.87,1.87l0,0c0,1.03-0.84,1.87-1.87,1.87h-9.63
		c-1.03,0-1.87-0.84-1.87-1.87l0,0C893.32,115.28,894.15,114.44,895.19,114.44z"/>
</g>
</svg>
