<?xml version="1.0" encoding="utf-8"?>
<!-- Generator: Adobe Illustrator 28.1.0, SVG Export Plug-In . SVG Version: 6.00 Build 0)  -->
<svg version="1.1" id="레이어_1" xmlns="http://www.w3.org/2000/svg" xmlns:xlink="http://www.w3.org/1999/xlink" x="0px"
	 y="0px" viewBox="0 0 144.98 94.67" style="enable-background:new 0 0 144.98 94.67;" xml:space="preserve">
<style type="text/css">
	.st0{fill:#FFFFFF;}
</style>
<image style="overflow:visible;" width="1138" height="640" xlink:href="8D67D502.jpg"  transform="matrix(1 0 0 1 -439.6667 728)">
</image>
<g>
	
		<image style="overflow:visible;opacity:0.75;" width="627" height="421" xlink:href="8D67D506.png"  transform="matrix(0.24 0 0 0.24 -5.5002 -1.96)">
	</image>
	<g>
		<path class="st0" d="M10.12,79.4c3.73-4.69,8.83-7.2,13.88-10c0,0,14.9-8.24,14.9-8.24C58.14,50.54,79.32,39.1,98.82,28.8
			c10.05-5.28,20.11-10.56,30.26-15.66c0.25-0.12,0.55-0.02,0.67,0.22c0.12,0.23,0.04,0.51-0.17,0.64
			c-13.69,9-29.16,18.68-43.13,27.42c-14.04,8.7-29.49,18.2-43.55,26.68c-5.04,2.94-16.92,10.4-21.95,13.05
			c-2.56,1.24-5.22,2.31-8.24,2.75c-1.53,0.22-2.95-0.84-3.17-2.37C9.43,80.74,9.66,79.98,10.12,79.4L10.12,79.4z"/>
	</g>
</g>
</svg>
