<?xml version="1.0" encoding="utf-8"?>
<!-- Generator: Adobe Illustrator 28.1.0, SVG Export Plug-In . SVG Version: 6.00 Build 0)  -->
<svg version="1.1" id="레이어_1" xmlns="http://www.w3.org/2000/svg" xmlns:xlink="http://www.w3.org/1999/xlink" x="0px"
	 y="0px" viewBox="0 0 1920 1080" style="enable-background:new 0 0 1920 1080;" xml:space="preserve">
<style type="text/css">
	.st0{fill:#FFFFFF;}
	.st1{display:none;}
	.st2{display:inline;}
</style>
<g>
	<g>
		
			<image style="overflow:visible;opacity:0.75;" width="90" height="89" xlink:href="8D9D4C4C.png"  transform="matrix(0.24 0 0 0.24 1676.819 539.2645)">
		</image>
		<g>
			<circle class="st0" cx="1687.51" cy="549.89" r="3.11"/>
		</g>
	</g>
	<g>
		
			<image style="overflow:visible;opacity:0.75;" width="90" height="90" xlink:href="8D9D4C4E.png"  transform="matrix(0.24 0 0 0.24 967.8857 309.5489)">
		</image>
		<g>
			<circle class="st0" cx="978.62" cy="320.33" r="3.11"/>
		</g>
	</g>
	<g>
		
			<image style="overflow:visible;opacity:0.75;" width="46" height="45" xlink:href="8D9D4C4A.png"  transform="matrix(0.24 0 0 0.24 1756.7201 313.4678)">
		</image>
		<g>
			<circle class="st0" cx="1762.18" cy="318.78" r="1.56"/>
		</g>
	</g>
	<g>
		
			<image style="overflow:visible;opacity:0.75;" width="46" height="46" xlink:href="8D9D4C4B.png"  transform="matrix(0.24 0 0 0.24 447.609 79.7833)">
		</image>
		<g>
			<circle class="st0" cx="453.07" cy="85.11" r="1.56"/>
		</g>
	</g>
	<g>
		
			<image style="overflow:visible;opacity:0.75;" width="46" height="46" xlink:href="8D9D4C44.png"  transform="matrix(0.24 0 0 0.24 835.5468 765.97)">
		</image>
		<g>
			<circle class="st0" cx="841.07" cy="771.33" r="1.56"/>
		</g>
	</g>
	<g>
		
			<image style="overflow:visible;opacity:0.75;" width="46" height="46" xlink:href="8D9D4C59.png"  transform="matrix(0.24 0 0 0.24 668.7023 660.6544)">
		</image>
		<g>
			<circle class="st0" cx="674.18" cy="666" r="1.56"/>
		</g>
	</g>
	<g>
		
			<image style="overflow:visible;opacity:0.75;" width="46" height="46" xlink:href="8D9D4C5A.png"  transform="matrix(0.24 0 0 0.24 1095.7823 547.5433)">
		</image>
		<g>
			<circle class="st0" cx="1101.29" cy="553" r="1.56"/>
		</g>
	</g>
	<g>
		
			<image style="overflow:visible;opacity:0.75;" width="46" height="46" xlink:href="8D9D4C5B.png"  transform="matrix(0.24 0 0 0.24 1203.2889 288.6367)">
		</image>
		<g>
			<circle class="st0" cx="1208.62" cy="294" r="1.56"/>
		</g>
	</g>
	<g>
		
			<image style="overflow:visible;opacity:0.75;" width="46" height="46" xlink:href="8D9D4C5C.png"  transform="matrix(0.24 0 0 0.24 768.8312 124.4411)">
		</image>
		<g>
			<circle class="st0" cx="774.29" cy="129.78" r="1.56"/>
		</g>
	</g>
	<g>
		
			<image style="overflow:visible;opacity:0.75;" width="45" height="45" xlink:href="77BC060F.png"  transform="matrix(0.24 0 0 0.24 1558.4178 206.0233)">
		</image>
		<g>
			<circle class="st0" cx="1563.73" cy="211.33" r="1.56"/>
		</g>
	</g>
	<g>
		
			<image style="overflow:visible;opacity:0.75;" width="46" height="46" xlink:href="77BC060B.png"  transform="matrix(0.24 0 0 0.24 100.7912 257.2011)">
		</image>
		<g>
			<circle class="st0" cx="106.18" cy="262.56" r="1.56"/>
		</g>
	</g>
	<g>
		
			<image style="overflow:visible;opacity:0.75;" width="90" height="90" xlink:href="77BC0616.png"  transform="matrix(0.24 0 0 0.24 548.8279 253.38)">
		</image>
		<g>
			<circle class="st0" cx="559.51" cy="264.11" r="3.11"/>
		</g>
	</g>
	<g>
		
			<image style="overflow:visible;opacity:0.75;" width="90" height="90" xlink:href="77BC0617.png"  transform="matrix(0.24 0 0 0.24 1269.8101 123.7578)">
		</image>
		<g>
			<circle class="st0" cx="1280.51" cy="134.44" r="3.11"/>
		</g>
	</g>
	<g>
		
			<image style="overflow:visible;opacity:0.75;" width="90" height="90" xlink:href="77BC0607.png"  transform="matrix(0.24 0 0 0.24 1292.2946 693.9178)">
		</image>
		<g>
			<circle class="st0" cx="1303.07" cy="704.67" r="3.11"/>
		</g>
	</g>
</g>
<g class="st1">
	<g class="st2">
		
			<image style="overflow:visible;opacity:0.75;" width="90" height="90" xlink:href="77BC0619.png"  transform="matrix(0.24 0 0 0.24 281.6768 130.02)">
		</image>
		<g>
			<circle class="st0" cx="292.4" cy="140.67" r="3.11"/>
		</g>
	</g>
	<g class="st2">
		
			<image style="overflow:visible;opacity:0.75;" width="90" height="90" xlink:href="77BC061A.png"  transform="matrix(0.24 0 0 0.24 949.3568 519.78)">
		</image>
		<g>
			<circle class="st0" cx="960" cy="530.44" r="3.11"/>
		</g>
	</g>
	<g class="st2">
		
			<image style="overflow:visible;opacity:0.75;" width="46" height="46" xlink:href="77BC0618.png"  transform="matrix(0.24 0 0 0.24 1109.8268 122.73)">
		</image>
		<g>
			<circle class="st0" cx="1115.29" cy="128.22" r="1.56"/>
		</g>
	</g>
	<g class="st2">
		
			<image style="overflow:visible;opacity:0.75;" width="46" height="46" xlink:href="77BC061E.png"  transform="matrix(0.24 0 0 0.24 1325.8268 576.57)">
		</image>
		<g>
			<circle class="st0" cx="1331.29" cy="582" r="1.56"/>
		</g>
	</g>
	<g class="st2">
		
			<image style="overflow:visible;opacity:0.75;" width="45" height="46" xlink:href="77BC061B.png"  transform="matrix(0.24 0 0 0.24 1540.8668 60.33)">
		</image>
		<g>
			<circle class="st0" cx="1546.18" cy="65.78" r="1.56"/>
		</g>
	</g>
	<g class="st2">
		
			<image style="overflow:visible;opacity:0.75;" width="46" height="46" xlink:href="77BC063D.png"  transform="matrix(0.24 0 0 0.24 893.8268 207.45)">
		</image>
		<g>
			<circle class="st0" cx="899.29" cy="212.89" r="1.56"/>
		</g>
	</g>
	<g class="st2">
		
			<image style="overflow:visible;opacity:0.75;" width="46" height="46" xlink:href="77BC063F.png"  transform="matrix(0.24 0 0 0.24 449.1068 360.57)">
		</image>
		<g>
			<circle class="st0" cx="454.62" cy="366" r="1.56"/>
		</g>
	</g>
	<g class="st2">
		
			<image style="overflow:visible;opacity:0.75;" width="90" height="90" xlink:href="77BC063C.png"  transform="matrix(0.24 0 0 0.24 133.1168 519.78)">
		</image>
		<g>
			<circle class="st0" cx="143.95" cy="530.44" r="3.11"/>
		</g>
	</g>
	<g class="st2">
		
			<image style="overflow:visible;opacity:0.75;" width="90" height="90" xlink:href="77BC063B.png"  transform="matrix(0.24 0 0 0.24 364.7168 609.06)">
		</image>
		<g>
			<circle class="st0" cx="375.51" cy="619.78" r="3.11"/>
		</g>
	</g>
	<g class="st2">
		
			<image style="overflow:visible;opacity:0.75;" width="90" height="90" xlink:href="77BC0635.png"  transform="matrix(0.24 0 0 0.24 1551.5167 714.9)">
		</image>
		<g>
			<circle class="st0" cx="1562.18" cy="725.56" r="3.11"/>
		</g>
	</g>
	<g class="st2">
		
			<image style="overflow:visible;opacity:0.75;" width="90" height="89" xlink:href="77BC0637.png"  transform="matrix(0.24 0 0 0.24 1633.5968 397.38)">
		</image>
		<g>
			<circle class="st0" cx="1644.4" cy="408" r="3.11"/>
		</g>
	</g>
</g>
</svg>
