<?xml version="1.0" encoding="utf-8"?>
<!-- Generator: Adobe Illustrator 28.1.0, SVG Export Plug-In . SVG Version: 6.00 Build 0)  -->
<svg version="1.1" id="레이어_1" xmlns="http://www.w3.org/2000/svg" xmlns:xlink="http://www.w3.org/1999/xlink" x="0px"
	 y="0px" viewBox="0 0 180 180" style="enable-background:new 0 0 180 180;" xml:space="preserve">
<style type="text/css">
	.st0{fill:#DAC499;}
	.st1{fill:#E6D3B1;}
	.st2{fill:#040000;fill-opacity:0.15;}
	.st3{fill:#EEE1C7;}
	.st4{opacity:0.05;fill:#040000;}
</style>
<g>
	<path class="st0" d="M151.89,23.12l28.07,98.2L92.17,90.78L151.89,23.12z"/>
	<path class="st0" d="M2.26,65.89l28.07,98.2l58.39-72.32L2.26,65.89z"/>
	<path class="st1" d="M180,121.47L30.22,164.29l54.97-72.77c2.53-3.34,6.97-4.59,10.87-3.06L180,121.47z"/>
	<path class="st2" d="M86.93,102.7L2.41,66.99L0,58.57l149.78-42.81l2.41,8.42L98.15,99.54C95.61,103.09,90.95,104.4,86.93,102.7z"
		/>
	<path class="st3" d="M85.49,95.53L2.28,65.98l-2.13-7.46l149.78-42.81l2.13,7.46L95.88,92.61C93.38,95.69,89.22,96.86,85.49,95.53z
		"/>
	<polygon class="st4" points="149.63,15.8 74.78,37.19 105.07,142.89 179.85,121.52 176.86,120.34 179.81,121.37 152.04,24.22 
		152.04,24.22 151.79,23.36 151.91,23.21 149.78,15.76 149.63,15.8 	"/>
</g>
</svg>
