<?xml version="1.0" encoding="utf-8"?>
<!-- Generator: Adobe Illustrator 28.1.0, SVG Export Plug-In . SVG Version: 6.00 Build 0)  -->
<svg version="1.1" id="레이어_1" xmlns="http://www.w3.org/2000/svg" xmlns:xlink="http://www.w3.org/1999/xlink" x="0px"
	 y="0px" viewBox="0 0 180 180" style="enable-background:new 0 0 180 180;" xml:space="preserve">
<style type="text/css">
	.st0{fill:#C8771B;}
	.st1{fill:#E89F47;}
	.st2{opacity:0.05;fill:#040000;}
</style>
<g>
	<ellipse class="st0" cx="92.09" cy="93.2" rx="79.12" ry="58.87"/>
	<path class="st1" d="M39.89,42.25C12.92,56.76-15.13,97.41,9.46,125.82c25.82,29.83,73.2,29.75,108.72,22.72
		c16.59-3.28,34.23-8.44,47.34-19.61c10.22-8.72,15.3-22.32,14.37-35.61c-0.78-11.17-5.99-21.45-12.95-30.04
		c-3.53-4.36-7.53-8.33-11.79-11.96c-3.15-2.69-6.94-7.53-11.32-8.09c-6.5-0.83-9.53,13.29-11.49,17.5
		c-3.98,8.58-8.35,17.19-14.82,24.19c-3.24,3.5-6.97,6.55-11.1,8.95c-6.3,3.65-7.91-3.11-7.64-8.14c0.5-9.57,2.15-19.07,4.72-28.29
		c1.29-4.62,2.82-9.18,4.57-13.65c1.29-3.28,5.47-7.86,3.45-11.52c-2.77-5.01-11.89-4.98-16.7-4.43c-3.46,0.4-6,0.84-8.12,3.67
		c-5.04,6.7-7.86,15.43-11.94,22.76C69.32,64.07,63.48,73.75,56,82.16c-2.56,2.87-4.99,6.86-8.54,8.6
		c-5.31,2.61-6.99-3.75-7.32-7.97c-0.99-12.82,2.2-25.09,6.74-36.96c-0.12-1.08-0.55-3.68-2.26-4.38
		C43.21,40.87,41.54,41.36,39.89,42.25z"/>
	<path class="st2" d="M166.94,63.28c-3.53-4.36-7.53-8.33-11.79-11.96c-3.15-2.69-6.94-7.53-11.32-8.09
		c-1.91-0.24-3.52,0.81-4.9,2.52c-8.03-4.39-17.21-7.69-27.14-9.59c0.37-1.35,0.4-2.67-0.28-3.89c-2.77-5.01-11.89-4.98-16.7-4.43
		c-1.84,0.21-3.42,0.44-4.82,1.03v123.27c0.45-0.02,0.9-0.05,1.34-0.07c0.25,0,0.5,0.01,0.75,0.01c10.42,0,20.37-1.5,29.48-4.23
		c15.57-3.31,31.73-8.5,43.95-18.91c10.22-8.72,15.3-22.32,14.37-35.61C179.11,82.15,173.9,71.87,166.94,63.28z"/>
</g>
</svg>
