<?xml version="1.0" encoding="utf-8"?>
<!-- Generator: Adobe Illustrator 28.1.0, SVG Export Plug-In . SVG Version: 6.00 Build 0)  -->
<svg version="1.1" id="레이어_1" xmlns="http://www.w3.org/2000/svg" xmlns:xlink="http://www.w3.org/1999/xlink" x="0px"
	 y="0px" viewBox="0 0 180 180" style="enable-background:new 0 0 180 180;" xml:space="preserve">
<style type="text/css">
	.st0{fill:#B9D7F1;}
	.st1{fill:#97B5D4;}
	.st2{fill:#DEF1FC;}
	.st3{fill:#97B5D4;stroke:#B9D7F1;stroke-width:0.5608;stroke-miterlimit:10;}
	.st4{fill:#936440;}
	.st5{fill:#7C5335;}
	.st6{fill:none;stroke:#97B5D4;stroke-miterlimit:10;}
</style>
<g>
	<path class="st0" d="M112.5,122.74L94.23,94.08l-11.58,7.38l18.28,28.68c0.12-0.09,0.24-0.18,0.37-0.27L112.5,122.74z"/>
	
		<rect x="103.36" y="91.4" transform="matrix(0.8433 -0.5375 0.5375 0.8433 -42.0582 72.5632)" class="st1" width="0.06" height="33.99"/>
	
		<rect x="92.65" y="88.68" transform="matrix(0.8433 -0.5375 0.5375 0.8433 -34.7078 64.1757)" class="st1" width="0.06" height="5.85"/>
	<path class="st2" d="M34.35,2.11c-23.53,43.03,0.1,80.22,9.84,92.72c2.17,2.79,5.7,4.16,9.2,3.6l18.69-3
		c0.67-0.11,1.33,0.19,1.7,0.76l2.99,4.69c1.09,1.7,3.35,2.2,5.05,1.12l0.84-0.53l11.58-7.38l-3.14-4.93L35.04,1.22
		C34.77,1.48,34.54,1.77,34.35,2.11z"/>
	<path class="st1" d="M94.28,94.05l18.27,28.66l11.14-7.1c0.17-0.11,0.34-0.2,0.51-0.28l-18.29-28.69l-11.07,7.06L94.28,94.05z"/>
	<path class="st0" d="M37.36,0.19c-0.88,0.06-1.7,0.43-2.32,1.03l56.05,87.93l0.05-0.03l3.14,4.93l0.56-0.36l11.07-7.06l1.96-1.25
		c1.7-1.09,2.2-3.35,1.12-5.05L106,75.64c-0.36-0.57-0.35-1.3,0.03-1.86l10.61-15.67c1.98-2.93,2.23-6.71,0.62-9.86
		C110.04,34.15,86.3-2.97,37.36,0.19z"/>
	
		<rect x="116.08" y="121.68" transform="matrix(0.8433 -0.5375 0.5375 0.8433 -50.7896 82.5267)" class="st3" width="0.06" height="13.33"/>
	<path class="st4" d="M101.31,129.88c-0.13,0.08-0.25,0.17-0.37,0.27c-2.19,1.67-2.77,4.77-1.27,7.13l21.74,34.1
		c5.53,8.68,17.05,11.23,25.73,5.7l0,0l-27.46-43.09l-7.17-11.24L101.31,129.88z"/>
	<path class="st5" d="M124.2,115.33c-0.17,0.09-0.34,0.18-0.51,0.28l-11.14,7.1l7.17,11.24l-0.05,0.03l27.46,43.09
		c8.68-5.53,11.23-17.05,5.7-25.73l-21.74-34.1C129.61,114.92,126.62,114.13,124.2,115.33z"/>
</g>
<path class="st6" d="M224.12-49.99"/>
</svg>
