<?xml version="1.0" encoding="utf-8"?>
<!-- Generator: Adobe Illustrator 28.1.0, SVG Export Plug-In . SVG Version: 6.00 Build 0)  -->
<svg version="1.1" id="레이어_1" xmlns="http://www.w3.org/2000/svg" xmlns:xlink="http://www.w3.org/1999/xlink" x="0px"
	 y="0px" viewBox="0 0 180 180" style="enable-background:new 0 0 180 180;" xml:space="preserve">
<style type="text/css">
	.st0{fill:#C4BFBE;}
	.st1{fill:#B46C4C;}
	.st2{fill:#EFEEED;}
	.st3{fill:#66B56F;}
	.st4{fill:#E64D4C;}
	.st5{fill:#8DC2EA;}
	.st6{opacity:0.05;fill:#040000;}
</style>
<g>
	<g>
		<path class="st0" d="M90,77.5c-10.2,0-18.49-8.3-18.49-18.49V18.49C71.51,8.3,79.8,0,90,0s18.49,8.3,18.49,18.49v40.52
			C108.49,69.2,100.2,77.5,90,77.5z M90,10.3c-4.52,0-8.19,3.68-8.19,8.19v40.52c0,4.52,3.68,8.19,8.19,8.19s8.19-3.68,8.19-8.19
			V18.49C98.19,13.97,94.52,10.3,90,10.3z"/>
	</g>
	<circle class="st1" cx="90" cy="102.19" r="77.81"/>
	<path class="st2" d="M157.15,102.2c0,1.83-0.07,3.64-0.22,5.43c-2.62,32.75-28.74,58.88-61.5,61.5c-1.8,0.15-3.6,0.22-5.43,0.22
		c-1.83,0-3.64-0.07-5.43-0.22c-32.75-2.62-58.88-28.74-61.5-61.5c-0.15-1.8-0.22-3.6-0.22-5.43c0-1.83,0.07-3.64,0.22-5.44
		c2.62-32.75,28.74-58.88,61.5-61.5c1.8-0.15,3.6-0.22,5.43-0.22c1.83,0,3.64,0.07,5.43,0.22c32.75,2.62,58.88,28.74,61.5,61.5
		C157.08,98.55,157.15,100.36,157.15,102.2z"/>
	<circle class="st3" cx="90" cy="102.19" r="39.05"/>
	<path class="st4" d="M117.96,71.41L78.71,90.9L90,102.19l11.29,11.29l19.48-39.25C121.89,71.99,120.2,70.3,117.96,71.41z"/>
	<path class="st5" d="M62.04,132.97l39.25-19.48L90,102.19L78.71,90.9l-19.48,39.25C58.11,132.4,59.8,134.08,62.04,132.97z"/>
	<path class="st0" d="M95.43,35.26v5.79c0,1.5-0.61,2.86-1.59,3.84c-0.98,0.98-2.34,1.59-3.84,1.59c-3,0-5.43-2.43-5.43-5.43v-5.79
		c1.8-0.15,3.6-0.22,5.43-0.22C91.83,35.04,93.64,35.11,95.43,35.26z"/>
	<path class="st0" d="M34.29,102.2c0,3-2.43,5.43-5.43,5.43h-5.79c-0.15-1.8-0.22-3.6-0.22-5.43c0-1.83,0.07-3.64,0.22-5.44h5.79
		c1.5,0,2.86,0.61,3.84,1.59C33.68,99.33,34.29,100.69,34.29,102.2z"/>
	<path class="st0" d="M95.43,163.34v5.79c-1.8,0.15-3.6,0.22-5.43,0.22c-1.83,0-3.64-0.07-5.43-0.22v-5.79
		c0-1.51,0.61-2.86,1.59-3.85c0.98-0.98,2.34-1.59,3.84-1.59C93,157.9,95.43,160.33,95.43,163.34z"/>
	<path class="st0" d="M157.15,102.2c0,1.83-0.07,3.64-0.22,5.43h-5.79c-1.5,0-2.86-0.61-3.84-1.59c-0.98-0.98-1.59-2.34-1.59-3.84
		c0-3.01,2.43-5.44,5.43-5.44h5.79C157.08,98.55,157.15,100.36,157.15,102.2z"/>
	<path class="st6" d="M108.49,26.6v-8.11C108.49,8.3,100.2,0,90,0v10.3c4.52,0,8.19,3.68,8.19,8.19v6.32
		c-2.69-0.28-5.43-0.43-8.19-0.43v10.65v11.44v16.66v4.05v10.3v7.79v16.9v16.9v22.15v16.66v11.44V180
		c42.97,0,77.81-34.84,77.81-77.81C167.81,65.59,142.54,34.9,108.49,26.6z"/>
</g>
</svg>
