<?xml version="1.0" encoding="utf-8"?>
<!-- Generator: Adobe Illustrator 28.1.0, SVG Export Plug-In . SVG Version: 6.00 Build 0)  -->
<svg version="1.1" id="레이어_1" xmlns="http://www.w3.org/2000/svg" xmlns:xlink="http://www.w3.org/1999/xlink" x="0px"
	 y="0px" viewBox="0 0 1000 200" style="enable-background:new 0 0 1000 200;" xml:space="preserve">
<style type="text/css">
	.st0{fill:#3D1808;}
	.st1{fill:#EAA913;}
	.st2{fill:#F2CC1F;}
	.st3{fill:#643118;}
	.st4{fill:#858688;}
	.st5{fill:#2C2F30;}
	.st6{fill:#562813;}
	.st7{fill:#55595C;}
</style>
<polygon id="수정_00000176759791507120028490000005459432264180854157_" class="st0" points="100,87.53 0,87.53 14.5,126.15 
	100,126.15 185.5,126.15 200,87.53 "/>
<g id="돈">
	<g>
		<path class="st1" d="M44.86,89.71c-2.32-1.63-5.83-2.67-9.75-2.67c-3.92,0-7.43,1.04-9.75,2.67h-2.91v4.71
			c0,4.08,5.67,7.38,12.66,7.38c6.99,0,12.66-3.3,12.66-7.38v-4.71H44.86z"/>
		<ellipse class="st2" cx="35.11" cy="89.71" rx="12.66" ry="7.38"/>
	</g>
	<g>
		<path class="st1" d="M118.4,84.68c-2.32-1.63-5.83-2.67-9.75-2.67c-3.92,0-7.43,1.04-9.75,2.67h-2.91v4.71
			c0,4.08,5.67,7.38,12.66,7.38c6.99,0,12.66-3.3,12.66-7.38v-4.71H118.4z"/>
		<ellipse class="st2" cx="108.65" cy="84.68" rx="12.66" ry="7.38"/>
	</g>
	<g>
		<path class="st1" d="M184.05,89.71c-2.32-1.63-5.83-2.67-9.75-2.67c-3.92,0-7.43,1.04-9.75,2.67h-2.91v4.71
			c0,4.08,5.67,7.38,12.66,7.38c6.99,0,12.66-3.3,12.66-7.38v-4.71H184.05z"/>
		<ellipse class="st2" cx="174.3" cy="89.71" rx="12.66" ry="7.38"/>
	</g>
	<g>
		<path class="st1" d="M138.46,88.38c-1.57-2.36-4.46-4.61-8.11-6.03c-3.65-1.42-7.3-1.73-10.05-1.05l-2.71-1.06l-1.71,4.39
			c-1.48,3.8,2.6,8.93,9.11,11.47c6.51,2.54,12.99,1.52,14.47-2.28l1.71-4.39L138.46,88.38z"/>
		
			<ellipse transform="matrix(0.3632 -0.9317 0.9317 0.3632 3.3353 174.5667)" class="st2" cx="129.38" cy="84.84" rx="7.38" ry="12.66"/>
	</g>
	<g>
		<path class="st1" d="M103.09,94.63c-1.57-2.36-4.46-4.61-8.11-6.03c-3.65-1.42-7.3-1.73-10.05-1.05l-2.71-1.06l-1.71,4.39
			c-1.48,3.8,2.6,8.93,9.11,11.47c6.51,2.54,12.99,1.52,14.47-2.28l1.71-4.39L103.09,94.63z"/>
		
			<ellipse transform="matrix(0.3632 -0.9317 0.9317 0.3632 -25.0046 145.5899)" class="st2" cx="94.01" cy="91.09" rx="7.38" ry="12.66"/>
	</g>
	<g>
		<path class="st1" d="M74.85,81.59c-1.57-2.36-4.46-4.61-8.11-6.03c-3.65-1.42-7.3-1.73-10.05-1.05l-2.71-1.06l-1.71,4.39
			c-1.48,3.8,2.6,8.93,9.11,11.47c6.51,2.54,12.99,1.52,14.47-2.28l1.71-4.39L74.85,81.59z"/>
		
			<ellipse transform="matrix(0.3632 -0.9317 0.9317 0.3632 -30.8443 110.9741)" class="st2" cx="65.76" cy="78.05" rx="7.38" ry="12.66"/>
	</g>
	<g>
		<path class="st1" d="M168.48,93.41c-1.57-2.36-4.46-4.61-8.11-6.03c-3.65-1.42-7.3-1.73-10.05-1.05l-2.71-1.06l-1.71,4.39
			c-1.48,3.8,2.6,8.93,9.11,11.47c6.51,2.54,12.99,1.52,14.47-2.28l1.71-4.39L168.48,93.41z"/>
		
			<ellipse transform="matrix(0.3632 -0.9317 0.9317 0.3632 17.7723 205.7414)" class="st2" cx="159.4" cy="89.87" rx="7.38" ry="12.66"/>
	</g>
	<g>
		<path class="st1" d="M194.09,83.36c-1.57-2.36-4.46-4.61-8.11-6.03c-3.65-1.42-7.3-1.73-10.05-1.05l-2.71-1.06l-1.71,4.39
			c-1.48,3.8,2.6,8.93,9.11,11.47c6.51,2.54,12.99,1.52,14.47-2.28l1.71-4.39L194.09,83.36z"/>
		
			<ellipse transform="matrix(0.3632 -0.9317 0.9317 0.3632 43.4392 223.1947)" class="st2" cx="185.01" cy="79.82" rx="7.38" ry="12.66"/>
	</g>
	<g>
		<path class="st1" d="M87.31,83.71c-2.32-1.63-5.83-2.67-9.75-2.67c-3.92,0-7.43,1.04-9.75,2.67H64.9v4.71
			c0,4.08,5.67,7.38,12.66,7.38c6.99,0,12.66-3.3,12.66-7.38v-4.71H87.31z"/>
		<ellipse class="st2" cx="77.56" cy="83.71" rx="12.66" ry="7.38"/>
	</g>
	<g>
		<path class="st1" d="M155.34,77.46c-2.32-1.63-5.83-2.67-9.75-2.67c-3.92,0-7.43,1.04-9.75,2.67h-2.91v4.71
			c0,4.08,5.67,7.38,12.66,7.38c6.99,0,12.66-3.3,12.66-7.38v-4.71H155.34z"/>
		<ellipse class="st2" cx="145.6" cy="77.46" rx="12.66" ry="7.38"/>
	</g>
	<g>
		<path class="st1" d="M27.86,90.12c-2.32-1.63-5.83-2.67-9.75-2.67c-3.92,0-7.43,1.04-9.75,2.67H5.46v4.71
			c0,4.08,5.67,7.38,12.66,7.38c6.99,0,12.66-3.3,12.66-7.38v-4.71H27.86z"/>
		<ellipse class="st2" cx="18.11" cy="90.12" rx="12.66" ry="7.38"/>
	</g>
	<g>
		<path class="st1" d="M63.22,88.04c-2.8-0.45-6.41,0.15-9.93,1.86c-3.53,1.71-6.22,4.18-7.6,6.67l-2.62,1.27l2.06,4.23
			c1.78,3.66,8.32,4.16,14.61,1.1c6.29-3.06,9.94-8.51,8.16-12.17l-2.06-4.23L63.22,88.04z"/>
		
			<ellipse transform="matrix(0.8993 -0.4374 0.4374 0.8993 -34.8825 33.1128)" class="st2" cx="54.46" cy="92.3" rx="12.66" ry="7.38"/>
	</g>
	<g>
		<path class="st1" d="M130.65,70.92c-2.8-0.45-6.41,0.15-9.93,1.86c-3.53,1.71-6.22,4.18-7.6,6.67l-2.62,1.27l2.06,4.23
			c1.78,3.66,8.32,4.16,14.61,1.1c6.29-3.06,9.94-8.51,8.16-12.17l-2.06-4.23L130.65,70.92z"/>
		
			<ellipse transform="matrix(0.8993 -0.4374 0.4374 0.8993 -20.6078 60.88)" class="st2" cx="121.89" cy="75.19" rx="12.66" ry="7.38"/>
	</g>
	<g>
		<path class="st1" d="M151.52,86.1c-2.8-0.45-6.41,0.15-9.93,1.86c-3.53,1.71-6.22,4.18-7.6,6.67l-2.62,1.27l2.06,4.23
			c1.78,3.66,8.32,4.16,14.61,1.1c6.29-3.06,9.94-8.51,8.16-12.17l-2.06-4.23L151.52,86.1z"/>
		
			<ellipse transform="matrix(0.8993 -0.4374 0.4374 0.8993 -25.142 71.5334)" class="st2" cx="142.75" cy="90.36" rx="12.66" ry="7.38"/>
	</g>
	<g>
		<path class="st1" d="M171.75,71.67c-2.8-0.45-6.41,0.15-9.93,1.86c-3.53,1.71-6.22,4.18-7.6,6.67l-2.62,1.27l2.06,4.23
			c1.78,3.66,8.32,4.16,14.61,1.1c6.29-3.06,9.94-8.51,8.16-12.17l-2.06-4.23L171.75,71.67z"/>
		
			<ellipse transform="matrix(0.8993 -0.4374 0.4374 0.8993 -16.7969 78.9273)" class="st2" cx="162.98" cy="75.94" rx="12.66" ry="7.38"/>
	</g>
	<g>
		<path class="st1" d="M192.74,86.1c-2.8-0.45-6.41,0.15-9.93,1.86c-3.53,1.71-6.22,4.18-7.6,6.67l-2.62,1.27l2.06,4.23
			c1.78,3.66,8.32,4.16,14.61,1.1c6.29-3.06,9.94-8.51,8.16-12.17l-2.06-4.23L192.74,86.1z"/>
		
			<ellipse transform="matrix(0.8993 -0.4374 0.4374 0.8993 -20.9905 89.5621)" class="st2" cx="183.98" cy="90.36" rx="12.66" ry="7.38"/>
	</g>
	<g>
		<path class="st1" d="M53.62,74.66c-2.8-0.45-6.41,0.15-9.93,1.86c-3.53,1.71-6.22,4.18-7.6,6.67l-2.62,1.27l2.06,4.23
			c1.78,3.66,8.32,4.16,14.61,1.1c6.29-3.06,9.94-8.51,8.16-12.17l-2.06-4.23L53.62,74.66z"/>
		
			<ellipse transform="matrix(0.8993 -0.4374 0.4374 0.8993 -29.9988 27.565)" class="st2" cx="44.85" cy="78.92" rx="12.66" ry="7.38"/>
	</g>
	<g>
		<path class="st1" d="M36.38,81.59c-1.57-2.36-4.46-4.61-8.11-6.03c-3.65-1.42-7.3-1.73-10.05-1.05l-2.71-1.06l-1.71,4.39
			c-1.48,3.8,2.6,8.93,9.11,11.47c6.51,2.54,12.99,1.52,14.47-2.28l1.71-4.39L36.38,81.59z"/>
		
			<ellipse transform="matrix(0.3632 -0.9317 0.9317 0.3632 -55.3369 75.1373)" class="st2" cx="27.3" cy="78.05" rx="7.38" ry="12.66"/>
	</g>
</g>
<g id="박스">
	<rect id="바탕_00000173122828893440831810000007537608090248896943_" x="0" y="87.53" class="st3" width="200" height="112.47"/>
	<path id="바탕" class="st4" d="M0,87.53V200h200V87.53H0z M112.47,94.66h63.63c2.39,8.04,8.73,14.38,16.77,16.77v64.67
		c-8.04,2.39-14.38,8.73-16.77,16.77H23.9c-2.39-8.04-8.73-14.38-16.77-16.77v-64.67c8.04-2.39,14.38-8.73,16.77-16.77h63.63H112.47
		z"/>
</g>
<path class="st5" d="M100.83,98.52h-1.66c-0.57,0-1.04-0.46-1.04-1.04v-5.9c0-0.57,0.46-1.04,1.04-1.04h1.66
	c0.57,0,1.04,0.46,1.04,1.04v5.9C101.87,98.05,101.4,98.52,100.83,98.52z"/>
<polygon id="수정_00000062187769687866393890000011588245813119324050_" class="st0" points="300,64.53 200,64.53 214.5,103.15 
	300,103.15 385.5,103.15 400,64.53 "/>
<g id="돈_00000163051572391974195540000011423055403738777021_">
	<g>
		<path class="st1" d="M244.86,89.71c-2.32-1.63-5.83-2.67-9.75-2.67c-3.92,0-7.43,1.04-9.75,2.67h-2.91v4.71
			c0,4.08,5.67,7.38,12.66,7.38c6.99,0,12.66-3.3,12.66-7.38v-4.71H244.86z"/>
		<ellipse class="st2" cx="235.11" cy="89.71" rx="12.66" ry="7.38"/>
	</g>
	<g>
		<path class="st1" d="M318.4,84.68c-2.32-1.63-5.83-2.67-9.75-2.67c-3.92,0-7.43,1.04-9.75,2.67h-2.91v4.71
			c0,4.08,5.67,7.38,12.66,7.38c6.99,0,12.66-3.3,12.66-7.38v-4.71H318.4z"/>
		<ellipse class="st2" cx="308.65" cy="84.68" rx="12.66" ry="7.38"/>
	</g>
	<g>
		<path class="st1" d="M384.05,89.71c-2.32-1.63-5.83-2.67-9.75-2.67c-3.92,0-7.43,1.04-9.75,2.67h-2.91v4.71
			c0,4.08,5.67,7.38,12.66,7.38c6.99,0,12.66-3.3,12.66-7.38v-4.71H384.05z"/>
		<ellipse class="st2" cx="374.3" cy="89.71" rx="12.66" ry="7.38"/>
	</g>
	<g>
		<path class="st1" d="M338.46,88.38c-1.57-2.36-4.46-4.61-8.11-6.03c-3.65-1.42-7.3-1.73-10.05-1.05l-2.71-1.06l-1.71,4.39
			c-1.48,3.8,2.6,8.93,9.11,11.47c6.51,2.54,12.99,1.52,14.47-2.28l1.71-4.39L338.46,88.38z"/>
		
			<ellipse transform="matrix(0.3632 -0.9317 0.9317 0.3632 130.6887 360.9062)" class="st2" cx="329.38" cy="84.84" rx="7.38" ry="12.66"/>
	</g>
	<g>
		<path class="st1" d="M303.09,94.63c-1.57-2.36-4.46-4.61-8.11-6.03c-3.65-1.42-7.3-1.73-10.05-1.05l-2.71-1.06l-1.71,4.39
			c-1.48,3.8,2.6,8.93,9.11,11.47c6.51,2.54,12.99,1.52,14.47-2.28l1.71-4.39L303.09,94.63z"/>
		
			<ellipse transform="matrix(0.3632 -0.9317 0.9317 0.3632 102.3488 331.9294)" class="st2" cx="294.01" cy="91.09" rx="7.38" ry="12.66"/>
	</g>
	<g>
		<path class="st1" d="M274.85,81.59c-1.57-2.36-4.46-4.61-8.11-6.03c-3.65-1.42-7.3-1.73-10.05-1.05l-2.71-1.06l-1.71,4.39
			c-1.48,3.8,2.6,8.93,9.11,11.47c6.51,2.54,12.99,1.52,14.47-2.28l1.71-4.39L274.85,81.59z"/>
		
			<ellipse transform="matrix(0.3632 -0.9317 0.9317 0.3632 96.5091 297.3136)" class="st2" cx="265.76" cy="78.05" rx="7.38" ry="12.66"/>
	</g>
	<g>
		<path class="st1" d="M368.48,93.41c-1.57-2.36-4.46-4.61-8.11-6.03c-3.65-1.42-7.3-1.73-10.05-1.05l-2.71-1.06l-1.71,4.39
			c-1.48,3.8,2.6,8.93,9.11,11.47c6.51,2.54,12.99,1.52,14.47-2.28l1.71-4.39L368.48,93.41z"/>
		
			<ellipse transform="matrix(0.3632 -0.9317 0.9317 0.3632 145.1257 392.0808)" class="st2" cx="359.4" cy="89.87" rx="7.38" ry="12.66"/>
	</g>
	<g>
		<path class="st1" d="M394.09,83.36c-1.57-2.36-4.46-4.61-8.11-6.03c-3.65-1.42-7.3-1.73-10.05-1.05l-2.71-1.06l-1.71,4.39
			c-1.48,3.8,2.6,8.93,9.11,11.47c6.51,2.54,12.99,1.52,14.47-2.28l1.71-4.39L394.09,83.36z"/>
		
			<ellipse transform="matrix(0.3632 -0.9317 0.9317 0.3632 170.7926 409.5341)" class="st2" cx="385" cy="79.82" rx="7.38" ry="12.66"/>
	</g>
	<g>
		<path class="st1" d="M287.31,83.71c-2.32-1.63-5.83-2.67-9.75-2.67c-3.92,0-7.43,1.04-9.75,2.67h-2.91v4.71
			c0,4.08,5.67,7.38,12.66,7.38c6.99,0,12.66-3.3,12.66-7.38v-4.71H287.31z"/>
		<ellipse class="st2" cx="277.56" cy="83.71" rx="12.66" ry="7.38"/>
	</g>
	<g>
		<path class="st1" d="M355.34,77.46c-2.32-1.63-5.83-2.67-9.75-2.67c-3.92,0-7.43,1.04-9.75,2.67h-2.91v4.71
			c0,4.08,5.67,7.38,12.66,7.38c6.99,0,12.66-3.3,12.66-7.38v-4.71H355.34z"/>
		<ellipse class="st2" cx="345.6" cy="77.46" rx="12.66" ry="7.38"/>
	</g>
	<g>
		<path class="st1" d="M227.86,90.12c-2.32-1.63-5.83-2.67-9.75-2.67c-3.92,0-7.43,1.04-9.75,2.67h-2.91v4.71
			c0,4.08,5.67,7.38,12.66,7.38c6.99,0,12.66-3.3,12.66-7.38v-4.71H227.86z"/>
		<ellipse class="st2" cx="218.11" cy="90.12" rx="12.66" ry="7.38"/>
	</g>
	<g>
		<path class="st1" d="M263.22,88.04c-2.8-0.45-6.41,0.15-9.93,1.86c-3.53,1.71-6.22,4.18-7.6,6.67l-2.62,1.27l2.06,4.23
			c1.78,3.66,8.32,4.16,14.61,1.1c6.29-3.06,9.94-8.51,8.16-12.17l-2.06-4.23L263.22,88.04z"/>
		
			<ellipse transform="matrix(0.8993 -0.4374 0.4374 0.8993 -14.7406 120.5829)" class="st2" cx="254.46" cy="92.3" rx="12.66" ry="7.38"/>
	</g>
	<g>
		<path class="st1" d="M330.65,70.92c-2.8-0.45-6.41,0.15-9.93,1.86c-3.53,1.71-6.22,4.18-7.6,6.67l-2.62,1.27l2.06,4.23
			c1.78,3.66,8.32,4.16,14.61,1.1c6.29-3.06,9.94-8.51,8.16-12.17l-2.06-4.23L330.65,70.92z"/>
		
			<ellipse transform="matrix(0.8993 -0.4374 0.4374 0.8993 -0.4659 148.3502)" class="st2" cx="321.89" cy="75.19" rx="12.66" ry="7.38"/>
	</g>
	<g>
		<path class="st1" d="M351.52,86.1c-2.8-0.45-6.41,0.15-9.93,1.86c-3.53,1.71-6.22,4.18-7.6,6.67l-2.62,1.27l2.06,4.23
			c1.78,3.66,8.32,4.16,14.61,1.1c6.29-3.06,9.94-8.51,8.16-12.17l-2.06-4.23L351.52,86.1z"/>
		
			<ellipse transform="matrix(0.8993 -0.4374 0.4374 0.8993 -5.0002 159.0036)" class="st2" cx="342.75" cy="90.36" rx="12.66" ry="7.38"/>
	</g>
	<g>
		<path class="st1" d="M371.75,71.67c-2.8-0.45-6.41,0.15-9.93,1.86c-3.53,1.71-6.22,4.18-7.6,6.67l-2.62,1.27l2.06,4.23
			c1.78,3.66,8.32,4.16,14.61,1.1c6.29-3.06,9.94-8.51,8.16-12.17l-2.06-4.23L371.75,71.67z"/>
		
			<ellipse transform="matrix(0.8993 -0.4374 0.4374 0.8993 3.3449 166.3975)" class="st2" cx="362.98" cy="75.94" rx="12.66" ry="7.38"/>
	</g>
	<g>
		<path class="st1" d="M392.74,86.1c-2.8-0.45-6.41,0.15-9.93,1.86c-3.53,1.71-6.22,4.18-7.6,6.67l-2.62,1.27l2.06,4.23
			c1.78,3.66,8.32,4.16,14.61,1.1c6.29-3.06,9.94-8.51,8.16-12.17l-2.06-4.23L392.74,86.1z"/>
		
			<ellipse transform="matrix(0.8993 -0.4374 0.4374 0.8993 -0.8487 177.0323)" class="st2" cx="383.98" cy="90.36" rx="12.66" ry="7.38"/>
	</g>
	<g>
		<path class="st1" d="M253.62,74.66c-2.8-0.45-6.41,0.15-9.93,1.86c-3.53,1.71-6.22,4.18-7.6,6.67l-2.62,1.27l2.06,4.23
			c1.78,3.66,8.32,4.16,14.61,1.1c6.29-3.06,9.94-8.51,8.16-12.17l-2.06-4.23L253.62,74.66z"/>
		
			<ellipse transform="matrix(0.8993 -0.4374 0.4374 0.8993 -9.857 115.0352)" class="st2" cx="244.85" cy="78.92" rx="12.66" ry="7.38"/>
	</g>
	<g>
		<path class="st1" d="M236.38,81.59c-1.57-2.36-4.46-4.61-8.11-6.03c-3.65-1.42-7.3-1.73-10.05-1.05l-2.71-1.06l-1.71,4.39
			c-1.48,3.8,2.6,8.93,9.11,11.47c6.51,2.54,12.99,1.52,14.47-2.28l1.71-4.39L236.38,81.59z"/>
		
			<ellipse transform="matrix(0.3632 -0.9317 0.9317 0.3632 72.0164 261.4767)" class="st2" cx="227.3" cy="78.05" rx="7.38" ry="12.66"/>
	</g>
</g>
<g id="박스_00000158742109186825975060000008351908786829570227_">
	
		<rect id="바탕_00000137092223117510761960000007640106578126577545_" x="200" y="87.53" class="st3" width="200" height="112.47"/>
	<path id="바탕_00000156586739109683690670000006883306138067553927_" class="st4" d="M200,87.53V200h200V87.53H200z
		 M312.47,94.66h63.63c2.39,8.04,8.73,14.38,16.77,16.77v64.67c-8.04,2.39-14.38,8.73-16.77,16.77H223.9
		c-2.39-8.04-8.73-14.38-16.77-16.77v-64.67c8.04-2.39,14.38-8.73,16.77-16.77h63.63H312.47z"/>
</g>
<path class="st5" d="M300.83,98.52h-1.66c-0.57,0-1.04-0.46-1.04-1.04v-5.9c0-0.57,0.46-1.04,1.04-1.04h1.66
	c0.57,0,1.04,0.46,1.04,1.04v5.9C301.87,98.05,301.4,98.52,300.83,98.52z"/>
<polygon id="수정_00000130632649930586815860000012664347750660611487_" class="st0" points="500,77.53 400,77.53 414.5,116.15 
	500,116.15 585.5,116.15 600,77.53 "/>
<g id="돈_00000108276285608068301210000000028406505674106785_">
	<g>
		<path class="st1" d="M444.86,89.71c-2.32-1.63-5.83-2.67-9.75-2.67c-3.92,0-7.43,1.04-9.75,2.67h-2.91v4.71
			c0,4.08,5.67,7.38,12.66,7.38c6.99,0,12.66-3.3,12.66-7.38v-4.71H444.86z"/>
		<ellipse class="st2" cx="435.11" cy="89.71" rx="12.66" ry="7.38"/>
	</g>
	<g>
		<path class="st1" d="M518.4,84.68c-2.32-1.63-5.83-2.67-9.75-2.67c-3.92,0-7.43,1.04-9.75,2.67h-2.91v4.71
			c0,4.08,5.67,7.38,12.66,7.38c6.99,0,12.66-3.3,12.66-7.38v-4.71H518.4z"/>
		<ellipse class="st2" cx="508.65" cy="84.68" rx="12.66" ry="7.38"/>
	</g>
	<g>
		<path class="st1" d="M584.05,89.71c-2.32-1.63-5.83-2.67-9.75-2.67c-3.92,0-7.43,1.04-9.75,2.67h-2.91v4.71
			c0,4.08,5.67,7.38,12.66,7.38c6.99,0,12.66-3.3,12.66-7.38v-4.71H584.05z"/>
		<ellipse class="st2" cx="574.3" cy="89.71" rx="12.66" ry="7.38"/>
	</g>
	<g>
		<path class="st1" d="M538.46,88.38c-1.57-2.36-4.46-4.61-8.11-6.03c-3.65-1.42-7.3-1.73-10.05-1.05l-2.71-1.06l-1.71,4.39
			c-1.48,3.8,2.6,8.93,9.11,11.47c6.51,2.54,12.99,1.52,14.47-2.28l1.71-4.39L538.46,88.38z"/>
		
			<ellipse transform="matrix(0.3632 -0.9317 0.9317 0.3632 258.0421 547.2456)" class="st2" cx="529.38" cy="84.84" rx="7.38" ry="12.66"/>
	</g>
	<g>
		<path class="st1" d="M503.09,94.63c-1.57-2.36-4.46-4.61-8.11-6.03c-3.65-1.42-7.3-1.73-10.05-1.05l-2.71-1.06l-1.71,4.39
			c-1.48,3.8,2.6,8.93,9.11,11.47c6.51,2.54,12.99,1.52,14.47-2.28l1.71-4.39L503.09,94.63z"/>
		
			<ellipse transform="matrix(0.3632 -0.9317 0.9317 0.3632 229.7022 518.2688)" class="st2" cx="494.01" cy="91.09" rx="7.38" ry="12.66"/>
	</g>
	<g>
		<path class="st1" d="M474.85,81.59c-1.57-2.36-4.46-4.61-8.11-6.03c-3.65-1.42-7.3-1.73-10.05-1.05l-2.71-1.06l-1.71,4.39
			c-1.48,3.8,2.6,8.93,9.11,11.47c6.51,2.54,12.99,1.52,14.47-2.28l1.71-4.39L474.85,81.59z"/>
		
			<ellipse transform="matrix(0.3632 -0.9317 0.9317 0.3632 223.8625 483.653)" class="st2" cx="465.76" cy="78.05" rx="7.38" ry="12.66"/>
	</g>
	<g>
		<path class="st1" d="M568.48,93.41c-1.57-2.36-4.46-4.61-8.11-6.03c-3.65-1.42-7.3-1.73-10.05-1.05l-2.71-1.06l-1.71,4.39
			c-1.48,3.8,2.6,8.93,9.11,11.47c6.51,2.54,12.99,1.52,14.47-2.28l1.71-4.39L568.48,93.41z"/>
		
			<ellipse transform="matrix(0.3632 -0.9317 0.9317 0.3632 272.4791 578.4203)" class="st2" cx="559.4" cy="89.87" rx="7.38" ry="12.66"/>
	</g>
	<g>
		<path class="st1" d="M594.09,83.36c-1.57-2.36-4.46-4.61-8.11-6.03c-3.65-1.42-7.3-1.73-10.05-1.05l-2.71-1.06l-1.71,4.39
			c-1.48,3.8,2.6,8.93,9.11,11.47c6.51,2.54,12.99,1.52,14.47-2.28l1.71-4.39L594.09,83.36z"/>
		
			<ellipse transform="matrix(0.3632 -0.9317 0.9317 0.3632 298.146 595.8735)" class="st2" cx="585" cy="79.82" rx="7.38" ry="12.66"/>
	</g>
	<g>
		<path class="st1" d="M487.31,83.71c-2.32-1.63-5.83-2.67-9.75-2.67c-3.92,0-7.43,1.04-9.75,2.67h-2.91v4.71
			c0,4.08,5.67,7.38,12.66,7.38c6.99,0,12.66-3.3,12.66-7.38v-4.71H487.31z"/>
		<ellipse class="st2" cx="477.56" cy="83.71" rx="12.66" ry="7.38"/>
	</g>
	<g>
		<path class="st1" d="M555.34,77.46c-2.32-1.63-5.83-2.67-9.75-2.67c-3.92,0-7.43,1.04-9.75,2.67h-2.91v4.71
			c0,4.08,5.67,7.38,12.66,7.38c6.99,0,12.66-3.3,12.66-7.38v-4.71H555.34z"/>
		<ellipse class="st2" cx="545.6" cy="77.46" rx="12.66" ry="7.38"/>
	</g>
	<g>
		<path class="st1" d="M427.86,90.12c-2.32-1.63-5.83-2.67-9.75-2.67c-3.92,0-7.43,1.04-9.75,2.67h-2.91v4.71
			c0,4.08,5.67,7.38,12.66,7.38c6.99,0,12.66-3.3,12.66-7.38v-4.71H427.86z"/>
		<ellipse class="st2" cx="418.11" cy="90.12" rx="12.66" ry="7.38"/>
	</g>
	<g>
		<path class="st1" d="M463.22,88.04c-2.8-0.45-6.41,0.15-9.93,1.86c-3.53,1.71-6.22,4.18-7.6,6.67l-2.62,1.27l2.06,4.23
			c1.78,3.66,8.32,4.16,14.61,1.1c6.29-3.06,9.94-8.51,8.16-12.17l-2.06-4.23L463.22,88.04z"/>
		
			<ellipse transform="matrix(0.8993 -0.4374 0.4374 0.8993 5.4012 208.0531)" class="st2" cx="454.46" cy="92.3" rx="12.66" ry="7.38"/>
	</g>
	<g>
		<path class="st1" d="M530.65,70.92c-2.8-0.45-6.41,0.15-9.93,1.86c-3.53,1.71-6.22,4.18-7.6,6.67l-2.62,1.27l2.06,4.23
			c1.78,3.66,8.32,4.16,14.61,1.1c6.29-3.06,9.94-8.51,8.16-12.17l-2.06-4.23L530.65,70.92z"/>
		
			<ellipse transform="matrix(0.8993 -0.4374 0.4374 0.8993 19.6759 235.8204)" class="st2" cx="521.89" cy="75.19" rx="12.66" ry="7.38"/>
	</g>
	<g>
		<path class="st1" d="M551.52,86.1c-2.8-0.45-6.41,0.15-9.93,1.86c-3.53,1.71-6.22,4.18-7.6,6.67l-2.62,1.27l2.06,4.23
			c1.78,3.66,8.32,4.16,14.61,1.1c6.29-3.06,9.94-8.51,8.16-12.17l-2.06-4.23L551.52,86.1z"/>
		
			<ellipse transform="matrix(0.8993 -0.4374 0.4374 0.8993 15.1417 246.4738)" class="st2" cx="542.75" cy="90.36" rx="12.66" ry="7.38"/>
	</g>
	<g>
		<path class="st1" d="M571.75,71.67c-2.8-0.45-6.41,0.15-9.93,1.86c-3.53,1.71-6.22,4.18-7.6,6.67l-2.62,1.27l2.06,4.23
			c1.78,3.66,8.32,4.16,14.61,1.1c6.29-3.06,9.94-8.51,8.16-12.17l-2.06-4.23L571.75,71.67z"/>
		
			<ellipse transform="matrix(0.8993 -0.4374 0.4374 0.8993 23.4868 253.8677)" class="st2" cx="562.98" cy="75.94" rx="12.66" ry="7.38"/>
	</g>
	<g>
		<path class="st1" d="M592.74,86.1c-2.8-0.45-6.41,0.15-9.93,1.86c-3.53,1.71-6.22,4.18-7.6,6.67l-2.62,1.27l2.06,4.23
			c1.78,3.66,8.32,4.16,14.61,1.1c6.29-3.06,9.94-8.51,8.16-12.17l-2.06-4.23L592.74,86.1z"/>
		
			<ellipse transform="matrix(0.8993 -0.4374 0.4374 0.8993 19.2932 264.5025)" class="st2" cx="583.98" cy="90.36" rx="12.66" ry="7.38"/>
	</g>
	<g>
		<path class="st1" d="M453.62,74.66c-2.8-0.45-6.41,0.15-9.93,1.86c-3.53,1.71-6.22,4.18-7.6,6.67l-2.62,1.27l2.06,4.23
			c1.78,3.66,8.32,4.16,14.61,1.1c6.29-3.06,9.94-8.51,8.16-12.17l-2.06-4.23L453.62,74.66z"/>
		
			<ellipse transform="matrix(0.8993 -0.4374 0.4374 0.8993 10.2849 202.5054)" class="st2" cx="444.85" cy="78.92" rx="12.66" ry="7.38"/>
	</g>
	<g>
		<path class="st1" d="M436.38,81.59c-1.57-2.36-4.46-4.61-8.11-6.03c-3.65-1.42-7.3-1.73-10.05-1.05l-2.71-1.06l-1.71,4.39
			c-1.48,3.8,2.6,8.93,9.11,11.47c6.51,2.54,12.99,1.52,14.47-2.28l1.71-4.39L436.38,81.59z"/>
		
			<ellipse transform="matrix(0.3632 -0.9317 0.9317 0.3632 199.3697 447.8162)" class="st2" cx="427.3" cy="78.05" rx="7.38" ry="12.66"/>
	</g>
</g>
<g id="박스_00000129197246214444128410000013958613350508862884_">
	
		<rect id="바탕_00000047777530925686614060000011848992990761484710_" x="400" y="87.53" class="st3" width="200" height="112.47"/>
	<path id="바탕_00000100340350980838552060000001441407896105284772_" class="st4" d="M400,87.53V200h200V87.53H400z
		 M512.47,94.66h63.63c2.39,8.04,8.73,14.38,16.77,16.77v64.67c-8.04,2.39-14.38,8.73-16.77,16.77H423.9
		c-2.39-8.04-8.73-14.38-16.77-16.77v-64.67c8.04-2.39,14.38-8.73,16.77-16.77h63.63H512.47z"/>
</g>
<path class="st5" d="M500.83,98.52h-1.66c-0.57,0-1.04-0.46-1.04-1.04v-5.9c0-0.57,0.46-1.04,1.04-1.04h1.66
	c0.57,0,1.04,0.46,1.04,1.04v5.9C501.87,98.05,501.4,98.52,500.83,98.52z"/>
<polygon id="수정_00000093149261733421704220000001597500033865626039_" class="st0" points="700,49.53 600,49.53 614.5,88.15 
	700,88.15 785.5,88.15 800,49.53 "/>
<g id="돈_00000049195562453864400340000007686536735760481416_">
	<g>
		<path class="st1" d="M644.86,89.71c-2.32-1.63-5.83-2.67-9.75-2.67c-3.92,0-7.43,1.04-9.75,2.67h-2.91v4.71
			c0,4.08,5.67,7.38,12.66,7.38c6.99,0,12.66-3.3,12.66-7.38v-4.71H644.86z"/>
		<ellipse class="st2" cx="635.11" cy="89.71" rx="12.66" ry="7.38"/>
	</g>
	<g>
		<path class="st1" d="M718.4,84.68c-2.32-1.63-5.83-2.67-9.75-2.67c-3.92,0-7.43,1.04-9.75,2.67h-2.91v4.71
			c0,4.08,5.67,7.38,12.66,7.38c6.99,0,12.66-3.3,12.66-7.38v-4.71H718.4z"/>
		<ellipse class="st2" cx="708.65" cy="84.68" rx="12.66" ry="7.38"/>
	</g>
	<g>
		<path class="st1" d="M784.05,89.71c-2.32-1.63-5.83-2.67-9.75-2.67c-3.92,0-7.43,1.04-9.75,2.67h-2.91v4.71
			c0,4.08,5.67,7.38,12.66,7.38c6.99,0,12.66-3.3,12.66-7.38v-4.71H784.05z"/>
		<ellipse class="st2" cx="774.3" cy="89.71" rx="12.66" ry="7.38"/>
	</g>
	<g>
		<path class="st1" d="M738.46,88.38c-1.57-2.36-4.46-4.61-8.11-6.03c-3.65-1.42-7.3-1.73-10.05-1.05l-2.71-1.06l-1.71,4.39
			c-1.48,3.8,2.6,8.93,9.11,11.47c6.51,2.54,12.99,1.52,14.47-2.28l1.71-4.39L738.46,88.38z"/>
		
			<ellipse transform="matrix(0.3632 -0.9317 0.9317 0.3632 385.3955 733.5851)" class="st2" cx="729.38" cy="84.84" rx="7.38" ry="12.66"/>
	</g>
	<g>
		<path class="st1" d="M703.09,94.63c-1.57-2.36-4.46-4.61-8.11-6.03c-3.65-1.42-7.3-1.73-10.05-1.05l-2.71-1.06l-1.71,4.39
			c-1.48,3.8,2.6,8.93,9.11,11.47c6.51,2.54,12.99,1.52,14.47-2.28l1.71-4.39L703.09,94.63z"/>
		
			<ellipse transform="matrix(0.3632 -0.9317 0.9317 0.3632 357.0556 704.6083)" class="st2" cx="694.01" cy="91.09" rx="7.38" ry="12.66"/>
	</g>
	<g>
		<path class="st1" d="M674.85,81.59c-1.57-2.36-4.46-4.61-8.11-6.03c-3.65-1.42-7.3-1.73-10.05-1.05l-2.71-1.06l-1.71,4.39
			c-1.48,3.8,2.6,8.93,9.11,11.47c6.51,2.54,12.99,1.52,14.47-2.28l1.71-4.39L674.85,81.59z"/>
		
			<ellipse transform="matrix(0.3632 -0.9317 0.9317 0.3632 351.2159 669.9925)" class="st2" cx="665.76" cy="78.05" rx="7.38" ry="12.66"/>
	</g>
	<g>
		<path class="st1" d="M768.48,93.41c-1.57-2.36-4.46-4.61-8.11-6.03c-3.65-1.42-7.3-1.73-10.05-1.05l-2.71-1.06l-1.71,4.39
			c-1.48,3.8,2.6,8.93,9.11,11.47c6.51,2.54,12.99,1.52,14.47-2.28l1.71-4.39L768.48,93.41z"/>
		
			<ellipse transform="matrix(0.3632 -0.9317 0.9317 0.3632 399.8325 764.7598)" class="st2" cx="759.4" cy="89.87" rx="7.38" ry="12.66"/>
	</g>
	<g>
		<path class="st1" d="M794.09,83.36c-1.57-2.36-4.46-4.61-8.11-6.03c-3.65-1.42-7.3-1.73-10.05-1.05l-2.71-1.06l-1.71,4.39
			c-1.48,3.8,2.6,8.93,9.11,11.47c6.51,2.54,12.99,1.52,14.47-2.28l1.71-4.39L794.09,83.36z"/>
		
			<ellipse transform="matrix(0.3632 -0.9317 0.9317 0.3632 425.4994 782.213)" class="st2" cx="785" cy="79.82" rx="7.38" ry="12.66"/>
	</g>
	<g>
		<path class="st1" d="M687.31,83.71c-2.32-1.63-5.83-2.67-9.75-2.67c-3.92,0-7.43,1.04-9.75,2.67h-2.91v4.71
			c0,4.08,5.67,7.38,12.66,7.38c6.99,0,12.66-3.3,12.66-7.38v-4.71H687.31z"/>
		<ellipse class="st2" cx="677.56" cy="83.71" rx="12.66" ry="7.38"/>
	</g>
	<g>
		<path class="st1" d="M755.34,77.46c-2.32-1.63-5.83-2.67-9.75-2.67c-3.92,0-7.43,1.04-9.75,2.67h-2.91v4.71
			c0,4.08,5.67,7.38,12.66,7.38c6.99,0,12.66-3.3,12.66-7.38v-4.71H755.34z"/>
		<ellipse class="st2" cx="745.59" cy="77.46" rx="12.66" ry="7.38"/>
	</g>
	<g>
		<path class="st1" d="M627.86,90.12c-2.32-1.63-5.83-2.67-9.75-2.67c-3.92,0-7.43,1.04-9.75,2.67h-2.91v4.71
			c0,4.08,5.67,7.38,12.66,7.38c6.99,0,12.66-3.3,12.66-7.38v-4.71H627.86z"/>
		<ellipse class="st2" cx="618.11" cy="90.12" rx="12.66" ry="7.38"/>
	</g>
	<g>
		<path class="st1" d="M663.22,88.04c-2.8-0.45-6.41,0.15-9.93,1.86c-3.53,1.71-6.22,4.18-7.6,6.67l-2.62,1.27l2.06,4.23
			c1.78,3.66,8.32,4.16,14.61,1.1c6.29-3.06,9.94-8.51,8.16-12.17l-2.06-4.23L663.22,88.04z"/>
		
			<ellipse transform="matrix(0.8993 -0.4374 0.4374 0.8993 25.5431 295.5233)" class="st2" cx="654.46" cy="92.3" rx="12.66" ry="7.38"/>
	</g>
	<g>
		<path class="st1" d="M730.65,70.92c-2.8-0.45-6.41,0.15-9.93,1.86c-3.53,1.71-6.22,4.18-7.6,6.67l-2.62,1.27l2.06,4.23
			c1.78,3.66,8.32,4.16,14.61,1.1c6.29-3.06,9.94-8.51,8.16-12.17l-2.06-4.23L730.65,70.92z"/>
		
			<ellipse transform="matrix(0.8993 -0.4374 0.4374 0.8993 39.8178 323.2906)" class="st2" cx="721.89" cy="75.19" rx="12.66" ry="7.38"/>
	</g>
	<g>
		<path class="st1" d="M751.52,86.1c-2.8-0.45-6.41,0.15-9.93,1.86c-3.53,1.71-6.22,4.18-7.6,6.67l-2.62,1.27l2.06,4.23
			c1.78,3.66,8.32,4.16,14.61,1.1c6.29-3.06,9.94-8.51,8.16-12.17l-2.06-4.23L751.52,86.1z"/>
		
			<ellipse transform="matrix(0.8993 -0.4374 0.4374 0.8993 35.2835 333.9439)" class="st2" cx="742.75" cy="90.36" rx="12.66" ry="7.38"/>
	</g>
	<g>
		<path class="st1" d="M771.75,71.67c-2.8-0.45-6.41,0.15-9.93,1.86c-3.53,1.71-6.22,4.18-7.6,6.67l-2.62,1.27l2.06,4.23
			c1.78,3.66,8.32,4.16,14.61,1.1c6.29-3.06,9.94-8.51,8.16-12.17l-2.06-4.23L771.75,71.67z"/>
		
			<ellipse transform="matrix(0.8993 -0.4374 0.4374 0.8993 43.6286 341.3379)" class="st2" cx="762.98" cy="75.94" rx="12.66" ry="7.38"/>
	</g>
	<g>
		<path class="st1" d="M792.74,86.1c-2.8-0.45-6.41,0.15-9.93,1.86c-3.53,1.71-6.22,4.18-7.6,6.67l-2.62,1.27l2.06,4.23
			c1.78,3.66,8.32,4.16,14.61,1.1c6.29-3.06,9.94-8.51,8.16-12.17l-2.06-4.23L792.74,86.1z"/>
		
			<ellipse transform="matrix(0.8993 -0.4374 0.4374 0.8993 39.435 351.9727)" class="st2" cx="783.97" cy="90.36" rx="12.66" ry="7.38"/>
	</g>
	<g>
		<path class="st1" d="M653.62,74.66c-2.8-0.45-6.41,0.15-9.93,1.86c-3.53,1.71-6.22,4.18-7.6,6.67l-2.62,1.27l2.06,4.23
			c1.78,3.66,8.32,4.16,14.61,1.1c6.29-3.06,9.94-8.51,8.16-12.17l-2.06-4.23L653.62,74.66z"/>
		
			<ellipse transform="matrix(0.8993 -0.4374 0.4374 0.8993 30.4267 289.9755)" class="st2" cx="644.85" cy="78.92" rx="12.66" ry="7.38"/>
	</g>
	<g>
		<path class="st1" d="M636.38,81.59c-1.57-2.36-4.46-4.61-8.11-6.03c-3.65-1.42-7.3-1.73-10.05-1.05l-2.71-1.06l-1.71,4.39
			c-1.48,3.8,2.6,8.93,9.11,11.47c6.51,2.54,12.99,1.52,14.47-2.28l1.71-4.39L636.38,81.59z"/>
		
			<ellipse transform="matrix(0.3632 -0.9317 0.9317 0.3632 326.723 634.1556)" class="st2" cx="627.3" cy="78.05" rx="7.38" ry="12.66"/>
	</g>
</g>
<g id="박스_00000021803062114415071680000012578172830543325346_">
	
		<rect id="바탕_00000152954553436466128410000016938560356086796445_" x="600" y="87.53" class="st3" width="200" height="112.47"/>
	<path id="바탕_00000031177194499175721910000009438708056934270634_" class="st4" d="M600,87.53V200h200V87.53H600z
		 M712.47,94.66h63.63c2.39,8.04,8.73,14.38,16.77,16.77v64.67c-8.04,2.39-14.38,8.73-16.77,16.77H623.9
		c-2.39-8.04-8.73-14.38-16.77-16.77v-64.67c8.04-2.39,14.38-8.73,16.77-16.77h63.63H712.47z"/>
</g>
<polygon id="수정_00000036212582829791125570000016743231385435968648_" class="st0" points="900,77.53 800,77.53 814.5,116.15 
	900,116.15 985.49,116.15 1000,77.53 "/>
<g id="돈_00000123430588925213747510000006032940098842453384_">
	<g>
		<path class="st1" d="M844.86,89.71c-2.32-1.63-5.83-2.67-9.75-2.67c-3.92,0-7.43,1.04-9.75,2.67h-2.91v4.71
			c0,4.08,5.67,7.38,12.66,7.38c6.99,0,12.66-3.3,12.66-7.38v-4.71H844.86z"/>
		<ellipse class="st2" cx="835.11" cy="89.71" rx="12.66" ry="7.38"/>
	</g>
	<g>
		<path class="st1" d="M918.4,84.68c-2.32-1.63-5.83-2.67-9.75-2.67c-3.92,0-7.43,1.04-9.75,2.67h-2.91v4.71
			c0,4.08,5.67,7.38,12.66,7.38c6.99,0,12.66-3.3,12.66-7.38v-4.71H918.4z"/>
		<ellipse class="st2" cx="908.65" cy="84.68" rx="12.66" ry="7.38"/>
	</g>
	<g>
		<path class="st1" d="M984.05,89.71c-2.32-1.63-5.83-2.67-9.75-2.67c-3.92,0-7.43,1.04-9.75,2.67h-2.91v4.71
			c0,4.08,5.67,7.38,12.66,7.38c6.99,0,12.66-3.3,12.66-7.38v-4.71H984.05z"/>
		<ellipse class="st2" cx="974.3" cy="89.71" rx="12.66" ry="7.38"/>
	</g>
	<g>
		<path class="st1" d="M938.46,88.38c-1.57-2.36-4.46-4.61-8.11-6.03c-3.65-1.42-7.3-1.73-10.05-1.05l-2.71-1.06l-1.71,4.39
			c-1.48,3.8,2.6,8.93,9.11,11.47c6.51,2.54,12.99,1.52,14.47-2.28l1.71-4.39L938.46,88.38z"/>
		
			<ellipse transform="matrix(0.3632 -0.9317 0.9317 0.3632 512.7489 919.9245)" class="st2" cx="929.38" cy="84.84" rx="7.38" ry="12.66"/>
	</g>
	<g>
		<path class="st1" d="M903.09,94.63c-1.57-2.36-4.46-4.61-8.11-6.03c-3.65-1.42-7.3-1.73-10.05-1.05l-2.71-1.06l-1.71,4.39
			c-1.48,3.8,2.6,8.93,9.11,11.47c6.51,2.54,12.99,1.52,14.47-2.28l1.71-4.39L903.09,94.63z"/>
		
			<ellipse transform="matrix(0.3632 -0.9317 0.9317 0.3632 484.409 890.9477)" class="st2" cx="894.01" cy="91.09" rx="7.38" ry="12.66"/>
	</g>
	<g>
		<path class="st1" d="M874.84,81.59c-1.57-2.36-4.46-4.61-8.11-6.03c-3.65-1.42-7.3-1.73-10.05-1.05l-2.71-1.06l-1.71,4.39
			c-1.48,3.8,2.6,8.93,9.11,11.47c6.51,2.54,12.99,1.52,14.47-2.28l1.71-4.39L874.84,81.59z"/>
		
			<ellipse transform="matrix(0.3632 -0.9317 0.9317 0.3632 478.5693 856.332)" class="st2" cx="865.76" cy="78.05" rx="7.38" ry="12.66"/>
	</g>
	<g>
		<path class="st1" d="M968.48,93.41c-1.57-2.36-4.46-4.61-8.11-6.03c-3.65-1.42-7.3-1.73-10.05-1.05l-2.71-1.06l-1.71,4.39
			c-1.48,3.8,2.6,8.93,9.11,11.47c6.51,2.54,12.99,1.52,14.47-2.28l1.71-4.39L968.48,93.41z"/>
		
			<ellipse transform="matrix(0.3632 -0.9317 0.9317 0.3632 527.1859 951.0992)" class="st2" cx="959.4" cy="89.87" rx="7.38" ry="12.66"/>
	</g>
	<g>
		<path class="st1" d="M994.09,83.36c-1.57-2.36-4.46-4.61-8.11-6.03c-3.65-1.42-7.3-1.73-10.05-1.05l-2.71-1.06l-1.71,4.39
			c-1.48,3.8,2.6,8.93,9.11,11.47c6.51,2.54,12.99,1.52,14.47-2.28l1.71-4.39L994.09,83.36z"/>
		
			<ellipse transform="matrix(0.3632 -0.9317 0.9317 0.3632 552.8528 968.5525)" class="st2" cx="985" cy="79.82" rx="7.38" ry="12.66"/>
	</g>
	<g>
		<path class="st1" d="M887.31,83.71c-2.32-1.63-5.83-2.67-9.75-2.67c-3.92,0-7.43,1.04-9.75,2.67h-2.91v4.71
			c0,4.08,5.67,7.38,12.66,7.38c6.99,0,12.66-3.3,12.66-7.38v-4.71H887.31z"/>
		<ellipse class="st2" cx="877.56" cy="83.71" rx="12.66" ry="7.38"/>
	</g>
	<g>
		<path class="st1" d="M955.34,77.46c-2.32-1.63-5.83-2.67-9.75-2.67c-3.92,0-7.43,1.04-9.75,2.67h-2.91v4.71
			c0,4.08,5.67,7.38,12.66,7.38c6.99,0,12.66-3.3,12.66-7.38v-4.71H955.34z"/>
		<ellipse class="st2" cx="945.59" cy="77.46" rx="12.66" ry="7.38"/>
	</g>
	<g>
		<path class="st1" d="M827.86,90.12c-2.32-1.63-5.83-2.67-9.75-2.67c-3.92,0-7.43,1.04-9.75,2.67h-2.91v4.71
			c0,4.08,5.67,7.38,12.66,7.38c6.99,0,12.66-3.3,12.66-7.38v-4.71H827.86z"/>
		<ellipse class="st2" cx="818.11" cy="90.12" rx="12.66" ry="7.38"/>
	</g>
	<g>
		<path class="st1" d="M863.22,88.04c-2.8-0.45-6.41,0.15-9.93,1.86c-3.53,1.71-6.22,4.18-7.6,6.67l-2.62,1.27l2.06,4.23
			c1.78,3.66,8.32,4.16,14.61,1.1c6.29-3.06,9.94-8.51,8.16-12.17l-2.06-4.23L863.22,88.04z"/>
		
			<ellipse transform="matrix(0.8993 -0.4374 0.4374 0.8993 45.6849 382.9935)" class="st2" cx="854.46" cy="92.3" rx="12.66" ry="7.38"/>
	</g>
	<g>
		<path class="st1" d="M930.65,70.92c-2.8-0.45-6.41,0.15-9.93,1.86c-3.53,1.71-6.22,4.18-7.6,6.67l-2.62,1.27l2.06,4.23
			c1.78,3.66,8.32,4.16,14.61,1.1c6.29-3.06,9.94-8.51,8.16-12.17l-2.06-4.23L930.65,70.92z"/>
		
			<ellipse transform="matrix(0.8993 -0.4374 0.4374 0.8993 59.9596 410.7608)" class="st2" cx="921.89" cy="75.19" rx="12.66" ry="7.38"/>
	</g>
	<g>
		<path class="st1" d="M951.52,86.1c-2.8-0.45-6.41,0.15-9.93,1.86c-3.53,1.71-6.22,4.18-7.6,6.67l-2.62,1.27l2.06,4.23
			c1.78,3.66,8.32,4.16,14.61,1.1c6.29-3.06,9.94-8.51,8.16-12.17l-2.06-4.23L951.52,86.1z"/>
		
			<ellipse transform="matrix(0.8993 -0.4374 0.4374 0.8993 55.4254 421.4141)" class="st2" cx="942.75" cy="90.36" rx="12.66" ry="7.38"/>
	</g>
	<g>
		<path class="st1" d="M971.75,71.67c-2.8-0.45-6.41,0.15-9.93,1.86c-3.53,1.71-6.22,4.18-7.6,6.67l-2.62,1.27l2.06,4.23
			c1.78,3.66,8.32,4.16,14.61,1.1c6.29-3.06,9.94-8.51,8.16-12.17l-2.06-4.23L971.75,71.67z"/>
		
			<ellipse transform="matrix(0.8993 -0.4374 0.4374 0.8993 63.7705 428.808)" class="st2" cx="962.98" cy="75.94" rx="12.66" ry="7.38"/>
	</g>
	<g>
		<path class="st1" d="M992.74,86.1c-2.8-0.45-6.41,0.15-9.93,1.86c-3.53,1.71-6.22,4.18-7.6,6.67l-2.62,1.27l2.06,4.23
			c1.78,3.66,8.32,4.16,14.61,1.1c6.29-3.06,9.94-8.51,8.16-12.17l-2.06-4.23L992.74,86.1z"/>
		
			<ellipse transform="matrix(0.8993 -0.4374 0.4374 0.8993 59.5769 439.4429)" class="st2" cx="983.97" cy="90.36" rx="12.66" ry="7.38"/>
	</g>
	<g>
		<path class="st1" d="M853.62,74.66c-2.8-0.45-6.41,0.15-9.93,1.86c-3.53,1.71-6.22,4.18-7.6,6.67l-2.62,1.27l2.06,4.23
			c1.78,3.66,8.32,4.16,14.61,1.1c6.29-3.06,9.94-8.51,8.16-12.17l-2.06-4.23L853.62,74.66z"/>
		
			<ellipse transform="matrix(0.8993 -0.4374 0.4374 0.8993 50.5686 377.4457)" class="st2" cx="844.85" cy="78.92" rx="12.66" ry="7.38"/>
	</g>
	<g>
		<path class="st1" d="M836.38,81.59c-1.57-2.36-4.46-4.61-8.11-6.03c-3.65-1.42-7.3-1.73-10.05-1.05l-2.71-1.06l-1.71,4.39
			c-1.48,3.8,2.6,8.93,9.11,11.47c6.51,2.54,12.99,1.52,14.47-2.28l1.71-4.39L836.38,81.59z"/>
		
			<ellipse transform="matrix(0.3632 -0.9317 0.9317 0.3632 454.0764 820.495)" class="st2" cx="827.3" cy="78.05" rx="7.38" ry="12.66"/>
	</g>
</g>
<g id="박스_00000084513599235990492430000017476519010065437600_">
	
		<rect id="바탕_00000123408582643371992360000012620381720207968942_" x="800" y="87.53" class="st3" width="200" height="112.47"/>
	<path id="바탕_00000136394081730233142510000006190486156554107809_" class="st4" d="M800,87.53V200h200V87.53H800z
		 M912.47,94.66h63.63c2.39,8.04,8.73,14.38,16.77,16.77v64.67c-8.04,2.39-14.38,8.73-16.77,16.77H823.9
		c-2.39-8.04-8.73-14.38-16.77-16.77v-64.67c8.04-2.39,14.38-8.73,16.77-16.77h63.63H912.47z"/>
</g>
<g id="수정">
	<g>
		<g>
			<path class="st4" d="M173.26,49.79H26.74C11.97,49.79,0,61.76,0,76.53l0,3.88h200v-3.88C200,61.76,188.03,49.79,173.26,49.79z"/>
			<path class="st6" d="M163.76,49.79H36.24C21.47,49.79,9.5,61.76,9.5,76.53v3.88h181v-3.88C190.5,61.76,178.53,49.79,163.76,49.79
				z"/>
		</g>
		<rect x="0" y="80.41" class="st4" width="200" height="7.12"/>
	</g>
	<path class="st4" d="M86.51,87.53h26.97v12.34c0,2.67-2.16,4.83-4.83,4.83H91.35c-2.67,0-4.83-2.16-4.83-4.83V87.53z"/>
	<path class="st7" d="M100.83,98.52h-1.66c-0.57,0-1.04-0.46-1.04-1.04v-5.9c0-0.57,0.46-1.04,1.04-1.04h1.66
		c0.57,0,1.04,0.46,1.04,1.04v5.9C101.87,98.05,101.4,98.52,100.83,98.52z"/>
</g>
<g id="수정_00000038403053592171000190000003660927987863586981_">
	<g>
		<g>
			<path class="st4" d="M373.26,26.79H226.74c-14.77,0-26.74,11.97-26.74,26.74v3.88h200v-3.88C400,38.76,388.03,26.79,373.26,26.79
				z"/>
			<path class="st6" d="M363.76,26.79H236.24c-14.77,0-26.74,11.97-26.74,26.74v3.88h181v-3.88
				C390.5,38.76,378.53,26.79,363.76,26.79z"/>
		</g>
		<rect x="200" y="57.41" class="st4" width="200" height="7.12"/>
	</g>
	<path class="st4" d="M286.51,64.53h26.97v12.34c0,2.67-2.16,4.83-4.83,4.83h-17.31c-2.67,0-4.83-2.16-4.83-4.83V64.53z"/>
	<path class="st7" d="M300.83,75.52h-1.66c-0.57,0-1.04-0.46-1.04-1.04v-5.9c0-0.57,0.46-1.04,1.04-1.04h1.66
		c0.57,0,1.04,0.46,1.04,1.04v5.9C301.87,75.05,301.4,75.52,300.83,75.52z"/>
</g>
<g id="수정_00000045605813105752858860000002038630811627812229_">
	<g>
		<g>
			<path class="st4" d="M573.26,39.79H426.74c-14.77,0-26.74,11.97-26.74,26.74v3.88h200v-3.88C600,51.76,588.03,39.79,573.26,39.79
				z"/>
			<path class="st6" d="M563.76,39.79H436.24c-14.77,0-26.74,11.97-26.74,26.74v3.88h181v-3.88
				C590.5,51.76,578.53,39.79,563.76,39.79z"/>
		</g>
		<rect x="400" y="70.41" class="st4" width="200" height="7.12"/>
	</g>
	<path class="st4" d="M486.51,77.53h26.97v12.34c0,2.67-2.16,4.83-4.83,4.83h-17.31c-2.67,0-4.83-2.16-4.83-4.83V77.53z"/>
	<path class="st7" d="M500.83,88.52h-1.66c-0.57,0-1.04-0.46-1.04-1.04v-5.9c0-0.57,0.46-1.04,1.04-1.04h1.66
		c0.57,0,1.04,0.46,1.04,1.04v5.9C501.87,88.05,501.4,88.52,500.83,88.52z"/>
</g>
<g id="수정_00000077284459180748848400000011598915018906419389_">
	<g>
		<g>
			<path class="st4" d="M773.26,11.79H626.74c-14.77,0-26.74,11.97-26.74,26.74v3.88h200v-3.88C800,23.76,788.03,11.79,773.26,11.79
				z"/>
			<path class="st6" d="M763.76,11.79H636.24c-14.77,0-26.74,11.97-26.74,26.74v3.88h181v-3.88
				C790.5,23.76,778.53,11.79,763.76,11.79z"/>
		</g>
		<rect x="600" y="42.41" class="st4" width="200" height="7.12"/>
	</g>
	<path class="st4" d="M686.51,49.53h26.97v12.34c0,2.67-2.16,4.83-4.83,4.83h-17.31c-2.67,0-4.83-2.16-4.83-4.83V49.53z"/>
	<path class="st7" d="M700.83,60.52h-1.66c-0.57,0-1.04-0.46-1.04-1.04v-5.9c0-0.57,0.46-1.04,1.04-1.04h1.66
		c0.57,0,1.04,0.46,1.04,1.04v5.9C701.86,60.05,701.4,60.52,700.83,60.52z"/>
</g>
<path class="st5" d="M700.83,98.52h-1.66c-0.57,0-1.04-0.46-1.04-1.04v-5.9c0-0.57,0.46-1.04,1.04-1.04h1.66
	c0.57,0,1.04,0.46,1.04,1.04v5.9C701.87,98.05,701.4,98.52,700.83,98.52z"/>
<path class="st5" d="M900.83,98.52h-1.66c-0.57,0-1.04-0.46-1.04-1.04v-5.9c0-0.57,0.46-1.04,1.04-1.04h1.66
	c0.57,0,1.04,0.46,1.04,1.04v5.9C901.86,98.05,901.4,98.52,900.83,98.52z"/>
<g id="수정_00000167389155704294823400000008275994189121818791_">
	<g>
		<g>
			<path class="st4" d="M973.26,39.79H826.74c-14.77,0-26.74,11.97-26.74,26.74v3.88h200v-3.88
				C1000,51.76,988.03,39.79,973.26,39.79z"/>
			<path class="st6" d="M963.76,39.79H836.24c-14.77,0-26.74,11.97-26.74,26.74v3.88h181v-3.88
				C990.5,51.76,978.53,39.79,963.76,39.79z"/>
		</g>
		<rect x="800" y="70.41" class="st4" width="200" height="7.12"/>
	</g>
	<path class="st4" d="M886.51,77.53h26.97v12.34c0,2.67-2.16,4.83-4.83,4.83h-17.31c-2.67,0-4.83-2.16-4.83-4.83V77.53z"/>
	<path class="st7" d="M900.83,88.52h-1.66c-0.57,0-1.04-0.46-1.04-1.04v-5.9c0-0.57,0.46-1.04,1.04-1.04h1.66
		c0.57,0,1.04,0.46,1.04,1.04v5.9C901.86,88.05,901.4,88.52,900.83,88.52z"/>
</g>
</svg>
