<?xml version="1.0" encoding="utf-8"?>
<!-- Generator: Adobe Illustrator 28.1.0, SVG Export Plug-In . SVG Version: 6.00 Build 0)  -->
<svg version="1.1" id="레이어_1" xmlns="http://www.w3.org/2000/svg" xmlns:xlink="http://www.w3.org/1999/xlink" x="0px"
	 y="0px" viewBox="0 0 180 180" style="enable-background:new 0 0 180 180;" xml:space="preserve">
<style type="text/css">
	.st0{fill:#EEEEEE;}
	.st1{fill:#186F90;}
	.st2{opacity:0.05;fill:#040000;enable-background:new    ;}
</style>
<g>
	<polygon class="st0" points="96.45,71.18 59.35,17.54 158.68,51.67 	"/>
	<path class="st0" d="M150.97,78.87l-29.08,84.66L20.79,128.8l28.8-83.82l32.38,46.81c1.47,2.13,3.55,3.66,5.88,4.46
		c2.33,0.8,4.91,0.87,7.38,0.1L150.97,78.87z"/>
	<path class="st1" d="M177.15,70.57l-30.54,88.91c-2.13,6.2-8.89,9.49-15.08,7.36l-9.64-3.31l29.08-84.66L95.22,96.35
		c-2.47,0.78-5.05,0.7-7.38-0.1c-2.33-0.8-4.41-2.33-5.88-4.46L49.58,44.98l-28.8,83.82l-10.57-3.63c-6.2-2.13-9.5-8.88-7.37-15.08
		l30.54-88.91c2.13-6.21,8.88-9.5,15.08-7.37l10.89,3.74l37.1,53.63l62.23-19.51l11.1,3.81C175.98,57.61,179.29,64.36,177.15,70.57z
		"/>
	<path class="st2" d="M169.73,55.46l-11.1-3.81l-49.55-17.02L70.82,145.99l51.01,17.52l9.64,3.31c6.2,2.13,12.96-1.17,15.08-7.36
		l30.54-88.91C179.23,64.34,175.92,57.59,169.73,55.46z"/>
</g>
</svg>
