<?xml version="1.0" encoding="utf-8"?>
<!-- Generator: Adobe Illustrator 28.1.0, SVG Export Plug-In . SVG Version: 6.00 Build 0)  -->
<svg version="1.1" id="레이어_1" xmlns="http://www.w3.org/2000/svg" xmlns:xlink="http://www.w3.org/1999/xlink" x="0px"
	 y="0px" viewBox="0 0 180 180" style="enable-background:new 0 0 180 180;" xml:space="preserve">
<style type="text/css">
	.st0{fill-rule:evenodd;clip-rule:evenodd;fill:#101010;}
	.st1{fill:#C4BFBE;}
	.st2{fill:#B46C4C;}
	.st3{fill:#EFEEED;}
	.st4{fill:#66B56F;}
	.st5{fill:#E64D4C;}
	.st6{fill:#8DC2EA;}
	.st7{opacity:0.05;fill:#040000;}
	.st8{fill:#040000;}
</style>
<path class="st0" d="M107.36,12.03C64.28,2.21,21.43,29.16,11.62,72.24c-7.86,34.51,7.82,68.73,36.47,86.13
	c3.74,1.57,5.74-0.44,6.2-2.48c0.42-1.85,1.72-8.01,3.21-14.55c-20.41-0.86-23.57-10.39-24.13-15.13
	c-0.37-2.44-2.59-10.23-5.48-12.83c-2.4-2.08-5.47-6.58,1.08-5.19c6.16,1.3,9.24,8.05,10.17,10.72
	c4.33,13.39,16.3,12.63,21.25,11.61c1.84-4.91,4.66-7.86,7.35-9.3c-16.91-5.9-33.5-16.76-26.71-46.58
	c1.93-8.48,6.55-14.81,12.77-19.14c-0.34-2.13-1.24-10.74,5.49-20.49c0,0,7-0.56,19.62,12.88c6.64-0.33,13.47,0.3,20.09,1.81
	c6.63,1.51,13.06,3.9,18.9,7.07c17.22-6.74,23.26-3.11,23.26-3.11c1.85,11.7-2.7,19.07-3.93,20.84c3.73,6.59,5.17,14.2,3.22,22.78
	c-6.82,29.92-26.55,32.4-44.35,30.4c2.27,3.08,3.64,8.31,1.98,15.62c-2.38,10.43-4.38,18.79-4.98,21.42
	c-0.47,2.05,0.44,4.82,4.52,4.93c33.15-3.32,62.14-27.47,69.97-61.88C177.39,64.68,150.44,21.84,107.36,12.03z"/>
<image style="overflow:visible;" width="280" height="280" xlink:href="5D7A5AC1.jpg"  transform="matrix(1 0 0 1 257.2277 -129.9437)">
</image>
<g>
	<g>
		<path class="st1" d="M684.56-8.32c-15.84,0-28.73-12.89-28.73-28.73V-100c0-15.84,12.89-28.73,28.73-28.73
			s28.73,12.89,28.73,28.73v62.95C713.29-21.2,700.4-8.32,684.56-8.32z M684.56-112.73c-7.02,0-12.73,5.71-12.73,12.73v62.95
			c0,7.02,5.71,12.73,12.73,12.73s12.73-5.71,12.73-12.73V-100C697.29-107.02,691.58-112.73,684.56-112.73z"/>
	</g>
	<circle class="st2" cx="684.56" cy="30.05" r="120.89"/>
	<path class="st3" d="M788.89,30.05c0,2.84-0.11,5.65-0.34,8.44c-4.07,50.89-44.66,91.48-95.55,95.55c-2.79,0.23-5.6,0.34-8.44,0.34
		s-5.65-0.11-8.44-0.34c-50.89-4.07-91.48-44.66-95.55-95.55c-0.23-2.79-0.34-5.6-0.34-8.44c0-2.85,0.11-5.66,0.34-8.45
		c4.07-50.89,44.66-91.48,95.55-95.55c2.79-0.23,5.6-0.34,8.44-0.34s5.65,0.11,8.44,0.34c50.89,4.07,91.48,44.66,95.55,95.55
		C788.78,24.39,788.89,27.2,788.89,30.05z"/>
	<circle class="st4" cx="684.56" cy="30.05" r="60.67"/>
	<path class="st5" d="M728-17.77L667.01,12.5l17.55,17.55l17.55,17.55l30.27-60.99C734.11-16.87,731.49-19.5,728-17.77z"/>
	<path class="st6" d="M641.12,77.87l60.99-30.27l-17.55-17.55L667.01,12.5l-30.27,60.99C635.01,76.98,637.64,79.6,641.12,77.87z"/>
	<path class="st1" d="M693-73.95v9c0,2.33-0.94,4.44-2.47,5.97c-1.53,1.53-3.64,2.47-5.97,2.47c-4.66,0-8.44-3.78-8.44-8.44v-9
		c2.79-0.23,5.6-0.34,8.44-0.34S690.21-74.17,693-73.95z"/>
	<path class="st1" d="M598,30.05c0,4.66-3.78,8.44-8.44,8.44h-8.99c-0.23-2.79-0.34-5.6-0.34-8.44c0-2.85,0.11-5.66,0.34-8.45h8.99
		c2.33,0,4.44,0.95,5.97,2.47C597.06,25.6,598,27.71,598,30.05z"/>
	<path class="st1" d="M693,125.05v8.99c-2.79,0.23-5.6,0.34-8.44,0.34s-5.65-0.11-8.44-0.34v-8.99c0-2.34,0.94-4.45,2.47-5.98
		c1.53-1.52,3.64-2.47,5.97-2.47C689.22,116.6,693,120.39,693,125.05z"/>
	<path class="st1" d="M788.89,30.05c0,2.84-0.11,5.65-0.34,8.44h-8.99c-2.33,0-4.44-0.94-5.97-2.47c-1.53-1.53-2.47-3.64-2.47-5.97
		c0-4.67,3.78-8.45,8.44-8.45h8.99C788.78,24.39,788.89,27.2,788.89,30.05z"/>
	<path class="st7" d="M713.29-87.39V-100c0-15.84-12.89-28.73-28.73-28.73v16c7.02,0,12.73,5.71,12.73,12.73v9.83
		c-4.18-0.44-8.43-0.67-12.73-0.67v16.55v17.78v25.89v6.3v16V3.79v26.26v26.26v34.41v25.89v17.78v16.55
		c66.77,0,120.89-54.12,120.89-120.89C805.45-26.81,766.18-74.5,713.29-87.39z"/>
</g>
<g>
	<path class="st8" d="M117.88,56.77c17.22-6.74,23.26-3.11,23.26-3.11c1.85,11.7-2.7,19.07-3.93,20.84
		c3.73,6.59,5.17,14.2,3.22,22.78c-6.82,29.92-26.55,32.4-44.35,30.4c2.27,3.08,3.64,8.31,1.98,15.62
		c-2.38,10.43-4.38,18.79-4.98,21.42c-0.47,2.05,0.44,4.82,4.52,4.93c33.15-3.32,62.14-27.47,69.97-61.88
		c9.81-43.08-17.13-85.93-60.22-95.74c-0.11-0.03-0.23-0.04-0.34-0.07l-8.4,37.66c0.12,0.03,0.25,0.05,0.37,0.08
		C105.61,51.21,112.04,53.59,117.88,56.77z"/>
</g>
</svg>
