<?xml version="1.0" encoding="utf-8"?>
<!-- Generator: Adobe Illustrator 28.1.0, SVG Export Plug-In . SVG Version: 6.00 Build 0)  -->
<svg version="1.1" id="레이어_1" xmlns="http://www.w3.org/2000/svg" xmlns:xlink="http://www.w3.org/1999/xlink" x="0px"
	 y="0px" viewBox="0 0 180 180" style="enable-background:new 0 0 180 180;" xml:space="preserve">
<style type="text/css">
	.st0{fill:#F2AD21;}
	.st1{fill:#AE2225;}
	.st2{opacity:0.05;fill:#040000;}
</style>
<g>
	<ellipse class="st0" cx="90" cy="108.71" rx="90" ry="25.01"/>
	<path class="st1" d="M133.38,90c0,1.8-0.11,3.58-0.32,5.33c-10.62,8.22-25.98,13.38-43.06,13.38s-32.44-5.17-43.06-13.38
		c-0.21-1.75-0.32-3.53-0.32-5.33c0-4.24,0.6-8.34,1.72-12.22C53.58,59.58,70.25,46.28,90,46.28c19.75,0,36.42,13.3,41.66,31.51
		C132.79,81.66,133.38,85.76,133.38,90z"/>
	<path class="st0" d="M131.66,77.78C121.12,85.4,106.35,90.13,90,90.13c-16.35,0-31.12-4.73-41.66-12.35
		C53.58,59.58,70.25,46.28,90,46.28C109.75,46.28,126.42,59.58,131.66,77.78z"/>
	<path class="st2" d="M133.27,86.78c-0.22-3.1-0.77-6.11-1.61-9c-5.24-18.2-21.91-31.51-41.66-31.51c0,0,0,0,0,0v87.45
		c49.71,0,90-11.2,90-25.01C180,99.26,161.12,91.03,133.27,86.78z"/>
</g>
</svg>
