<?xml version="1.0" encoding="utf-8"?>
<!-- Generator: Adobe Illustrator 28.1.0, SVG Export Plug-In . SVG Version: 6.00 Build 0)  -->
<svg version="1.1" id="레이어_1" xmlns="http://www.w3.org/2000/svg" xmlns:xlink="http://www.w3.org/1999/xlink" x="0px"
	 y="0px" viewBox="0 0 180 180" style="enable-background:new 0 0 180 180;" xml:space="preserve">
<style type="text/css">
	.st0{fill:#C9C5C8;}
	.st1{fill:#DAD8DA;}
	.st2{fill:#4E3C4C;}
	.st3{fill:#60515F;}
	.st4{fill:#8B7789;}
	.st5{opacity:0.05;fill:#040000;}
</style>
<g>
	<g>
		<circle class="st0" cx="111.39" cy="34.63" r="34.63"/>
		<path class="st1" d="M139.64,55.44L77.95,23.97c-1.74-0.89-2.43-3.01-1.54-4.75l1.97-3.87c0.89-1.74,3.01-2.43,4.75-1.54
			l61.69,31.47c1.74,0.89,2.43,3.01,1.54,4.75l-1.97,3.87C143.5,55.64,141.38,56.33,139.64,55.44z"/>
		<path class="st2" d="M39.23,179.06L39.23,179.06c-3.27-1.67-4.57-5.68-2.9-8.95l12.83-25.16c1.67-3.27,5.68-4.57,8.95-2.9h0
			c3.27,1.67,4.57,5.68,2.9,8.95l-12.83,25.16C46.51,179.43,42.51,180.73,39.23,179.06z"/>
		<path class="st3" d="M116.24,75.36l-6.05,11.25l-4.12,7.65l-38.57,71.74c-1.37,2.55-4.52,3.53-7.09,2.22l-24.69-12.59
			c-2.54-1.3-3.6-4.36-2.41-6.96l34.09-74.13l3.63-7.9l5.3-11.52c1.26-2.74,4.55-3.88,7.24-2.51l30.39,15.5
			C116.63,69.46,117.65,72.74,116.24,75.36z"/>
		<polygon class="st2" points="110.19,86.61 106.08,94.26 67.41,74.54 71.04,66.64 		"/>
		<path class="st4" d="M76.28,110.41l-3.23-1.65c-1.96-1-2.74-3.4-1.74-5.36l5.43-10.64c1-1.96,3.4-2.74,5.36-1.74l3.23,1.65
			c1.96,1,2.74,3.4,1.74,5.36l-5.43,10.64C80.64,110.63,78.24,111.41,76.28,110.41z"/>
	</g>
	<path class="st5" d="M39.66,179.28L39.66,179.28c3.27,1.67,7.28,0.37,8.95-2.9l5.74-11.25l6.5,3.31c2.57,1.31,5.73,0.33,7.09-2.22
		l38.57-71.74l4.12-7.65l6.05-11.25c1.15-2.14,0.68-4.72-0.98-6.33c9.36-1.06,18.13-5.92,23.96-13.81l0.42,0.22
		c1.74,0.89,3.86,0.2,4.75-1.54l1.97-3.87c0.89-1.74,0.2-3.86-1.54-4.75l-0.42-0.22c5.03-15.85-1.97-33.48-17.28-41.28L38.51,178.54
		C38.86,178.82,39.24,179.07,39.66,179.28z"/>
</g>
</svg>
