<?xml version="1.0" encoding="utf-8"?>
<!-- Generator: Adobe Illustrator 28.1.0, SVG Export Plug-In . SVG Version: 6.00 Build 0)  -->
<svg version="1.1" id="레이어_1" xmlns="http://www.w3.org/2000/svg" xmlns:xlink="http://www.w3.org/1999/xlink" x="0px"
	 y="0px" viewBox="0 0 180 180" style="enable-background:new 0 0 180 180;" xml:space="preserve">
<style type="text/css">
	.st0{fill:#DC5575;}
	.st1{fill:#EDEDEC;}
	.st2{fill:#F6BCCD;}
	.st3{opacity:0.05;fill:#040000;}
</style>
<g>
	<g>
		<path class="st0" d="M53.91,126.57l-8.43-23.4C40.59,89.6,47.63,74.63,61.2,69.74l46.21-16.65c13.57-4.89,28.54,2.15,33.43,15.72
			l8.43,23.4L53.91,126.57z"/>
		<polygon class="st1" points="129.05,84.75 74.52,34.25 64.72,107.92 9.29,82.85 48.07,151.77 108.96,129.84 169.84,107.91 
			155.77,30.09 		"/>
		<circle class="st2" cx="10.08" cy="82.28" r="10.07"/>
		<circle class="st2" cx="154.79" cy="30.15" r="10.07"/>
		<circle class="st2" cx="73.59" cy="31.66" r="10.07"/>
		<circle class="st0" cx="97.76" cy="98.77" r="10.07"/>
		<path class="st2" d="M175.69,113.2L47.02,159.54c-3.39,1.22-7.12-0.54-8.34-3.92l-0.98-2.73c-1.22-3.39,0.54-7.12,3.92-8.34
			L170.29,98.2c3.39-1.22,7.12,0.54,8.34,3.92l0.98,2.73C180.83,108.24,179.08,111.97,175.69,113.2z"/>
	</g>
	<path class="st3" d="M175.69,113.2c3.39-1.22,5.14-4.96,3.92-8.34l-0.98-2.73c-1.22-3.39-4.96-5.14-8.34-3.92l-2.08,0.75
		l-10.69-59.12c0.23-0.06,0.45-0.13,0.68-0.21c5.23-1.89,7.95-7.66,6.06-12.89s-7.66-7.95-12.89-6.06
		c-5.23,1.89-7.95,7.66-6.06,12.89c1.03,2.85,3.22,4.95,5.84,5.97l-12.26,25.09c-6.19-10.76-19.38-15.88-31.47-11.52l-9.03,3.25
		L80.06,39.38c3.14-2.64,4.48-7.04,3.01-11.13c-1.89-5.23-7.66-7.95-12.89-6.06l41.13,114.2L175.69,113.2z"/>
</g>
</svg>
