<?xml version="1.0" encoding="utf-8"?>
<!-- Generator: Adobe Illustrator 28.1.0, SVG Export Plug-In . SVG Version: 6.00 Build 0)  -->
<svg version="1.1" id="레이어_1" xmlns="http://www.w3.org/2000/svg" xmlns:xlink="http://www.w3.org/1999/xlink" x="0px"
	 y="0px" viewBox="0 0 180 180" style="enable-background:new 0 0 180 180;" xml:space="preserve">
<style type="text/css">
	.st0{fill:none;}
	.st1{fill:#E1ECF0;}
	.st2{fill:#F6C06A;}
	.st3{fill:#859A2D;}
	.st4{fill:#040000;}
	.st5{opacity:0.05;fill:#040000;}
</style>
<g>
	<g>
		<path class="st0" d="M85.41,44.89c-2.99,9.73-4.46,19.52-4.15,27.56c0.02,0.49,0.05,0.95,0.08,1.41L98.3,18.64
			c-0.28,0.36-0.56,0.73-0.85,1.12C92.68,26.24,88.4,35.16,85.41,44.89z"/>
		<path class="st0" d="M89.26,12.68c-1.21,0.66-2.41,1.42-3.59,2.28c-7.63,5.56-13.61,14.38-16.82,24.85
			c-3.22,10.47-3.22,21.12-0.03,30.01c0.5,1.38,1.07,2.68,1.69,3.9c-0.48-9.09,0.98-20.31,4.57-32
			C78.67,30.04,83.76,19.93,89.26,12.68z"/>
		<path class="st0" d="M107.99,23c-0.02-0.49-0.05-0.95-0.08-1.41L90.95,76.81c0.28-0.36,0.56-0.73,0.85-1.12
			c4.77-6.48,9.05-15.41,12.04-25.14C106.83,40.83,108.31,31.04,107.99,23z"/>
		<path class="st0" d="M100,82.77c1.21-0.66,2.41-1.42,3.59-2.28c7.63-5.56,13.61-14.38,16.82-24.85
			c3.22-10.47,3.22-21.12,0.03-30.01c-0.5-1.38-1.07-2.68-1.69-3.9c0.48,9.09-0.98,20.31-4.57,32
			C110.59,65.41,105.5,75.52,100,82.77z"/>
		<path class="st1" d="M129.51,58.44c7.74-25.21-1-50.34-19.54-56.86c-0.32-0.18-0.66-0.34-1.03-0.45
			c-0.37-0.11-0.74-0.18-1.11-0.21c-19-5.01-40.34,10.88-48.09,36.09c-7.22,23.51-0.1,46.96,15.93,55.3l-4.54,14.78
			c0.62-0.17,1.29-0.17,1.95,0.03l7.41,2.28c0.14,0.04,0.27,0.1,0.4,0.15l4.39-14.3C103.24,97.36,122.29,81.95,129.51,58.44z
			 M68.82,69.81c-3.2-8.88-3.19-19.54,0.03-30.01c3.22-10.47,9.19-19.29,16.82-24.85c1.19-0.86,2.39-1.62,3.59-2.28
			c-5.5,7.25-10.59,17.36-14.18,29.04c-3.59,11.68-5.05,22.91-4.57,32C69.88,72.49,69.32,71.19,68.82,69.81z M81.34,73.86
			c-0.03-0.45-0.06-0.92-0.08-1.41c-0.31-8.04,1.16-17.83,4.15-27.56c2.99-9.73,7.26-18.66,12.04-25.14
			c0.29-0.39,0.57-0.76,0.85-1.12L81.34,73.86z M90.95,76.81l16.96-55.23c0.03,0.45,0.06,0.92,0.08,1.41
			c0.31,8.04-1.16,17.83-4.15,27.56c-2.99,9.73-7.26,18.66-12.04,25.14C91.52,76.08,91.23,76.45,90.95,76.81z M120.44,25.64
			c3.2,8.88,3.19,19.54-0.03,30.01c-3.22,10.47-9.19,19.29-16.82,24.85c-1.19,0.86-2.39,1.62-3.59,2.28
			c5.5-7.25,10.59-17.36,14.18-29.04c3.59-11.68,5.05-22.91,4.57-32C119.37,22.96,119.94,24.26,120.44,25.64z"/>
		<path class="st2" d="M73.08,107.13c-0.66-0.2-1.33-0.2-1.95-0.03c-1.13,0.3-2.09,1.16-2.46,2.37l-3.37,10.96
			c0.75-0.12,1.54-0.09,2.31,0.15l9.84,3.02c0.78,0.24,1.45,0.65,2,1.17l3.37-10.96c0.53-1.72-0.33-3.54-1.93-4.25
			c-0.13-0.06-0.26-0.11-0.4-0.15L73.08,107.13z"/>
		<path class="st3" d="M67.62,120.57c-0.78-0.24-1.56-0.28-2.31-0.15c-1.84,0.3-3.45,1.61-4.03,3.52l-13.16,42.84
			c-1.66,5.4,1.37,11.12,6.77,12.78l0,0c5.4,1.66,11.12-1.37,12.78-6.77l13.16-42.84c0.59-1.9-0.01-3.89-1.36-5.17
			c-0.55-0.52-1.22-0.94-2-1.17L67.62,120.57z M56.96,172.81c-2.05-0.63-3.2-2.8-2.57-4.85c0.63-2.05,2.8-3.2,4.85-2.57
			c2.05,0.63,3.2,2.8,2.57,4.85C61.18,172.28,59.01,173.43,56.96,172.81z"/>
		
			<ellipse transform="matrix(0.8836 -0.4683 0.4683 0.8836 -72.428 46.9015)" class="st4" cx="58.1" cy="169.1" rx="3.88" ry="3.88"/>
	</g>
	<path class="st5" d="M129.51,58.44c7.74-25.21-1-50.34-19.54-56.86c-0.32-0.18-0.66-0.34-1.03-0.45L76.1,108.05l-4.24,13.82
		l-13.32,43.37l-2.24,7.28l-2.08,6.77c0.22,0.09,0.44,0.17,0.68,0.25l0,0c5.4,1.66,11.12-1.37,12.78-6.77l13.16-42.84
		c0.59-1.9-0.01-3.89-1.36-5.17l3.37-10.96c0.53-1.72-0.33-3.54-1.93-4.25l4.39-14.3C103.24,97.36,122.29,81.95,129.51,58.44z
		 M118.75,21.73c0.63,1.22,1.2,2.52,1.69,3.9c3.2,8.88,3.19,19.54-0.03,30.01c-3.22,10.47-9.19,19.29-16.82,24.85
		c-1.19,0.86-2.39,1.62-3.59,2.28c5.5-7.25,10.59-17.36,14.18-29.04C117.77,42.05,119.23,30.82,118.75,21.73z M107.92,21.59
		c0.03,0.45,0.06,0.92,0.08,1.41c0.31,8.04-1.16,17.83-4.15,27.56c-2.99,9.73-7.26,18.66-12.04,25.14
		c-0.29,0.39-0.57,0.76-0.85,1.12L107.92,21.59z"/>
</g>
</svg>
