<?xml version="1.0" encoding="utf-8"?>
<!-- Generator: Adobe Illustrator 28.1.0, SVG Export Plug-In . SVG Version: 6.00 Build 0)  -->
<svg version="1.1" id="레이어_1" xmlns="http://www.w3.org/2000/svg" xmlns:xlink="http://www.w3.org/1999/xlink" x="0px"
	 y="0px" viewBox="0 0 180 180" style="enable-background:new 0 0 180 180;" xml:space="preserve">
<style type="text/css">
	.st0{fill:#D6EDF6;}
	.st1{fill:#F8D282;}
	.st2{fill:#F4B843;}
	.st3{opacity:0.05;fill:#040000;}
	.st4{fill:#EE8992;}
	.st5{fill:#DC536C;}
</style>
<g>
	<g>
		<g>
			<path class="st0" d="M116.95,180L116.95,180c-3,0-5.44-2.43-5.44-5.44V67.15c0-3,2.43-5.44,5.44-5.44h0c3,0,5.44,2.43,5.44,5.44
				v107.41C122.39,177.57,119.96,180,116.95,180z"/>
			<circle class="st1" cx="116.81" cy="45.88" r="45.88"/>
			<path class="st2" d="M71.21,37.67h91.2c2.05,0,3.72,1.67,3.72,3.72v10.11c0,2.05-1.67,3.72-3.72,3.72h-91.2
				c-2.05,0-3.72-1.67-3.72-3.72V41.39C67.49,39.34,69.15,37.67,71.21,37.67z"/>
		</g>
		<path class="st3" d="M162.26,37.67h-0.47C157.93,16.3,139.28,0.07,116.81,0v37.67v17.55v6.49v30.04V180h0c3,0,5.44-2.43,5.44-5.44
			V91.4c19.6-2.38,35.39-17.11,39.34-36.18h0.68c2.05,0,3.72-1.67,3.72-3.72V41.39C165.99,39.34,164.32,37.67,162.26,37.67z"/>
	</g>
	<g>
		<g>
			<path class="st0" d="M154.69,165.72L154.69,165.72c-2.12,2.12-5.57,2.12-7.69,0L71.05,89.77c-2.12-2.12-2.12-5.57,0-7.69l0,0
				c2.12-2.12,5.57-2.12,7.69,0l75.95,75.95C156.81,160.16,156.81,163.6,154.69,165.72z"/>
			<circle class="st4" cx="59.74" cy="70.99" r="45.88"/>
			<path class="st5" d="M21.7,97.43l64.49-64.49c1.45-1.45,3.81-1.45,5.26,0l7.15,7.15c1.45,1.45,1.45,3.81,0,5.26l-64.49,64.49
				c-1.45,1.45-3.81,1.45-5.26,0l-7.15-7.15C20.24,101.24,20.24,98.89,21.7,97.43z"/>
		</g>
		<path class="st3" d="M86.09,33.04l-0.33,0.33C67.91,21,43.25,22.71,27.31,38.55l26.64,26.64L66.36,77.6l4.59,4.59l21.24,21.24
			l62.4,62.4l0,0c2.12-2.12,2.12-5.57,0-7.69l-58.8-58.8c12.18-15.54,12.93-37.12,2.23-53.4l0.48-0.48c1.45-1.45,1.45-3.81,0-5.26
			l-7.15-7.15C89.89,31.59,87.54,31.59,86.09,33.04z"/>
	</g>
</g>
</svg>
