<?xml version="1.0" encoding="utf-8"?>
<!-- Generator: Adobe Illustrator 28.1.0, SVG Export Plug-In . SVG Version: 6.00 Build 0)  -->
<svg version="1.1" id="레이어_1" xmlns="http://www.w3.org/2000/svg" xmlns:xlink="http://www.w3.org/1999/xlink" x="0px"
	 y="0px" viewBox="0 0 180 180" style="enable-background:new 0 0 180 180;" xml:space="preserve">
<style type="text/css">
	.st0{fill:#323333;}
	.st1{fill:#FFFFFF;}
	.st2{fill:#CCCCCC;}
	.st3{fill:#DF4F4D;}
	.st4{fill:#39A47C;}
	.st5{fill:#EFD12E;}
	.st6{fill:#186F90;}
	.st7{opacity:0.05;}
</style>
<g>
	<g>
		<path class="st0" d="M74.74,1.91l69.89,17.31c7.51,1.86,12.08,9.45,10.22,16.96l-32.62,131.68c-1.86,7.51-9.45,12.08-16.96,10.22
			l-69.89-17.31c-7.51-1.86-12.08-9.45-10.22-16.96L57.78,12.14C59.64,4.63,67.23,0.05,74.74,1.91z"/>
		<path class="st1" d="M72.57,12.02l68.92,17.08c2.14,0.53,3.45,2.71,2.92,4.85l-32.47,131.04c-0.53,2.14-2.71,3.45-4.85,2.92
			l-68.92-17.08c-2.14-0.53-3.45-2.71-2.92-4.85L67.73,14.94C68.27,12.8,70.43,11.49,72.57,12.02z"/>
		<path class="st0" d="M90.93,13.48l34.14,8.46l-7.42,9.15l-24.59-6.1L90.93,13.48z"/>
		<path class="st2" d="M65.01,67.5l57.59,14.27c1.61,0.4,2.59,2.02,2.19,3.63l-2.41,9.71c-0.4,1.61-2.02,2.59-3.63,2.19L61.16,83.02
			c-1.61-0.4-2.59-2.02-2.19-3.63l2.41-9.71C61.78,68.08,63.4,67.1,65.01,67.5z"/>
		<path class="st3" d="M54.91,108.27l9.71,2.41c1.61,0.4,2.59,2.02,2.19,3.63l-2.41,9.71c-0.4,1.61-2.02,2.59-3.63,2.19l-9.71-2.41
			c-1.61-0.4-2.59-2.02-2.19-3.63l2.41-9.71C51.68,108.85,53.3,107.87,54.91,108.27z"/>
		<path class="st4" d="M78.86,114.2l9.71,2.41c1.61,0.4,2.59,2.02,2.19,3.63l-2.41,9.71c-0.4,1.61-2.02,2.59-3.63,2.19l-9.71-2.41
			c-1.61-0.4-2.59-2.02-2.19-3.63l2.41-9.71C75.62,114.78,77.25,113.8,78.86,114.2z"/>
		<path class="st5" d="M102.79,120.12l9.71,2.41c1.61,0.4,2.59,2.02,2.19,3.63l-2.41,9.71c-0.4,1.61-2.02,2.59-3.63,2.19l-9.71-2.41
			c-1.61-0.4-2.59-2.02-2.19-3.63l2.41-9.71C99.56,120.71,101.18,119.73,102.79,120.12z"/>
		<path class="st5" d="M49.46,130.26l9.71,2.41c1.61,0.4,2.59,2.02,2.19,3.63l-2.41,9.71c-0.4,1.61-2.02,2.59-3.63,2.19l-9.71-2.41
			c-1.61-0.4-2.59-2.02-2.19-3.63l2.41-9.71C46.23,130.85,47.85,129.86,49.46,130.26z"/>
		<path class="st6" d="M73.4,136.2l9.71,2.41c1.61,0.4,2.59,2.02,2.19,3.63l-2.41,9.71c-0.4,1.61-2.02,2.59-3.63,2.19l-9.71-2.41
			c-1.61-0.4-2.59-2.02-2.19-3.63l2.41-9.71C70.17,136.78,71.79,135.8,73.4,136.2z"/>
		<path class="st3" d="M97.35,142.13l9.71,2.41c1.61,0.4,2.59,2.02,2.19,3.63l-2.41,9.71c-0.4,1.61-2.02,2.59-3.63,2.19l-9.71-2.41
			c-1.61-0.4-2.59-2.02-2.19-3.63l2.41-9.71C94.11,142.71,95.74,141.73,97.35,142.13z"/>
	</g>
	<path class="st7" d="M144.65,19.15l-34.9-8.64l-1.73,7.13l-0.71,2.91L105.49,28L94.14,74.64l-3.78,15.54l-6.15,25.26l-3.78,15.54
		l-1.58,6.49l-3.78,15.54l-1.58,6.48l-2.44,10.04l34.25,8.48c7.51,1.86,15.1-2.72,16.96-10.22l32.62-131.68
		C156.73,28.61,152.15,21.01,144.65,19.15z"/>
</g>
</svg>
