<?xml version="1.0" encoding="utf-8"?>
<!-- Generator: Adobe Illustrator 28.1.0, SVG Export Plug-In . SVG Version: 6.00 Build 0)  -->
<svg version="1.1" id="레이어_1" xmlns="http://www.w3.org/2000/svg" xmlns:xlink="http://www.w3.org/1999/xlink" x="0px"
	 y="0px" viewBox="0 0 114.5 117.4" style="enable-background:new 0 0 114.5 117.4;" xml:space="preserve">
<style type="text/css">
	.st0{fill:#FFFFFF;}
	.st1{fill:#FCF7BD;}
	.st2{fill:#DCDBDB;}
	.st3{fill:url(#SVGID_1_);}
</style>
<g>
	<g>
		<rect x="55.1" class="st0" width="4.2" height="36"/>
	</g>
	<g>
		<path class="st1" d="M57.3,62.8c6.6,0,12-5.3,12-11.7s-5.4-11.7-12-11.7s-12,5.3-12,11.7S50.7,62.8,57.3,62.8z"/>
	</g>
	<g>
		<path class="st2" d="M37.6,51.1v-4.2c0-8.4,8.5-15.1,18.8-15.1s18.8,6.7,18.8,15.1v4.2H37.6z"/>
	</g>
	<g>
		<path class="st2" d="M57.3,39.4c-2.6,0-4.3-1.7-4.3-4.2v-7.5c0-2.5,1.7-4.2,4.3-4.2s4.3,1.7,4.3,4.2v7.5
			C60.7,37.7,59,39.4,57.3,39.4z"/>
	</g>
	<g>
		
			<radialGradient id="SVGID_1_" cx="56.9748" cy="61.1798" r="56.4065" gradientTransform="matrix(1.0113 0 0 1 -0.3611 0)" gradientUnits="userSpaceOnUse">
			<stop  offset="0" style="stop-color:#FCF7BD"/>
			<stop  offset="0.8068" style="stop-color:#FCF7BD;stop-opacity:0"/>
		</radialGradient>
		<path class="st3" d="M57.3,117.4c31.6,0,57.3-25.2,57.3-56.2S88.9,5,57.3,5S0,30.1,0,61.2S25.6,117.4,57.3,117.4z"/>
	</g>
</g>
</svg>
