<?xml version="1.0" encoding="utf-8"?>
<!-- Generator: Adobe Illustrator 28.1.0, SVG Export Plug-In . SVG Version: 6.00 Build 0)  -->
<svg version="1.1" id="레이어_1" xmlns="http://www.w3.org/2000/svg" xmlns:xlink="http://www.w3.org/1999/xlink" x="0px"
	 y="0px" viewBox="0 0 550 300" style="enable-background:new 0 0 550 300;" xml:space="preserve">
<style type="text/css">
	.st0{fill:#FFFFFF;}
	.st1{fill:#DCDBDB;}
</style>
<g>
	<g>
		<polygon class="st0" points="4.9,242.3 0,233.6 275.5,80.6 550,233.6 545,242.3 275.5,92 		"/>
	</g>
	<g>
		<g>
			<path class="st0" d="M36.3,297.5c-1.7,0-2.6-0.8-2.6-2.5v-10.9c0-1.7,0.9-1.7,2.6-1.7h73.4V274c0-1.7,0.9-1.7,1.7-1.7h15.4
				c1.7,0,1.7,0.8,1.7,1.7v8.4h28.2c1.7,0,2.6,0.8,2.6,1.7v11.7c0,1.7-0.9,2.5-2.6,2.5H36.3V297.5z M80.7,222.1
				c0-1.7,0.9-1.7,2.6-1.7h72.6c1.7,0,2.6,0.8,2.6,1.7V233c0,1.7-0.9,1.7-2.6,1.7H82.4c-1.7,0-2.6-0.8-2.6-1.7v-10.9H80.7z
				 M80.7,254.7c0-1.7,0.9-1.7,2.6-1.7H91v-13.4c0-0.8,0-0.8,0.9-1.7c0,0,0.9-0.8,1.7-0.8H109c0,0,0.9,0.8,0.9,2.5V253h17.9
				l2.6-13.4c0-0.8,0-0.8,0.9-1.7c0.9-0.8,0.9-0.8,1.7-0.8h14.5c1.7,0,1.7,0.8,1.7,1.7l-2.6,13.4h9.4c1.7,0,2.6,0.8,2.6,1.7v10.9
				c0,1.7-0.9,1.7-2.6,1.7H82.4c-1.7,0-2.6-0.8-2.6-1.7v-10.1L80.7,254.7L80.7,254.7z"/>
		</g>
		<g>
			<path class="st0" d="M171.2,297.5c-1.7,0-2.6-0.8-2.6-2.5v-10.9c0-1.7,0.9-1.7,2.6-1.7h76.9c1.7,0,2.6,0.8,2.6,1.7v11.7
				c0,1.7-0.9,2.5-2.6,2.5h-76.9L171.2,297.5L171.2,297.5z M171.2,222.1c0-1.7,0.9-1.7,2.6-1.7h70.9c1.7,0,2.6,0.8,2.6,1.7v8.4
				c0,1.7-0.9,1.7-2.6,1.7h-70.9c-1.7,0-2.6-0.8-2.6-1.7L171.2,222.1L171.2,222.1z M173.8,239.7c0-1.7,0.9-1.7,2.6-1.7H243
				c1.7,0,2.6,0.8,2.6,1.7v8.4c0,1.7-0.9,1.7-2.6,1.7h-50.4l-0.9,10.9h52.9c1.7,0,2.6,0.8,2.6,1.7v9.2c0,1.7-0.9,1.7-2.6,1.7h-70.9
				c-0.9,0-0.9,0-1.7-0.8s-0.9-0.8-0.9-1.7L173.8,239.7z"/>
		</g>
		<g>
			<path class="st0" d="M261.8,239.7c0-1.7,0.9-1.7,2.6-1.7h7.7v-5c0-0.8,0-0.8,0.9-1.7c0,0,0.9-0.8,1.7-0.8h15.4
				c1.7,0,1.7,0.8,1.7,1.7v5h17.9l1.7-5c0-1.7,0.9-1.7,2.6-1.7h14.5c0.9,0,0.9,0,1.7,0.8c0,0,0.9,0.8,0,1.7l-1.7,5h8.5
				c1.7,0,2.6,0.8,2.6,1.7v5.9c0,1.7-0.9,1.7-2.6,1.7h-26.5v4.2h28.2c1.7,0,2.6,0.8,2.6,1.7v5.9c0,1.7-0.9,2.5-2.6,2.5h-76.9
				c-1.7,0-2.6-0.8-2.6-2.5v-5c0-1.7,0.9-1.7,2.6-1.7H290V248h-26.5c-1.7,0-2.6-0.8-2.6-1.7v-6.7L261.8,239.7L261.8,239.7z
				 M263.5,300c-1.7,0-1.7-0.8-1.7-1.7v-16.8c0-1.7,0.9-2.5,1.7-2.5H319v-4.2h-55.5c-1.7,0-1.7-0.8-1.7-1.7v-5
				c0-1.7,0.9-1.7,1.7-1.7h74.3c1.7,0,1.7,0.8,1.7,1.7v16.8c0,1.7-0.9,1.7-1.7,1.7h-55.5v4.2h56.4c1.7,0,1.7,0.8,1.7,1.7v5
				c0,1.7-0.9,1.7-1.7,1.7h-75.1L263.5,300L263.5,300z M261.8,220.4c0-1.7,0.9-1.7,2.6-1.7H337c1.7,0,2.6,0.8,2.6,1.7v5.9
				c0,1.7-0.9,1.7-2.6,1.7h-73.4c-1.7,0-2.6-0.8-2.6-1.7v-5.9H261.8z"/>
		</g>
		<g>
			<path class="st0" d="M349.7,296.6v-42.7c0-1.7,0.9-1.7,2.6-1.7h29v-17.6h-29c-1.7,0-2.6-0.8-2.6-1.7v-10.1c0-1.7,0.9-1.7,2.6-1.7
				h46.1c1.7,0,2.6,0.8,2.6,1.7v41.9c0,1.7-0.9,1.7-2.6,1.7h-29v18.4h11.1c6,0,11.1-0.8,17.1-1.7c6-0.8,10.2-2.5,13.7-4.2V137.4
				c0-1.7,0.9-2.5,2.6-2.5h14.5c1.7,0,2.6,0.8,2.6,2.5v160c0,1.7-0.9,1.7-2.6,1.7h-14.5c-1.7,0-2.6-0.8-2.6-1.7v-5.9
				c-3.4,1.7-7.7,3.3-13.7,5c-6,0.8-12,1.7-18.8,1.7h-25.6C350.6,298.3,349.7,297.5,349.7,296.6z"/>
		</g>
		<g>
			<path class="st0" d="M442.8,297.5c-1.7,0-2.6-0.8-2.6-2.5v-10.9c0-1.7,0.9-1.7,2.6-1.7H471V274c0-1.7,0.9-1.7,1.7-1.7H488
				c1.7,0,1.7,0.8,1.7,1.7v8.4h29.9c1.7,0,2.6,0.8,2.6,1.7v11.7c0,1.7-0.9,2.5-2.6,2.5h-76.9L442.8,297.5L442.8,297.5z M483.8,253.9
				c3.4,0,6,0,8.5-0.8c2.6,0,4.3-0.8,5.1-1.7c1.7-0.8,2.6-1.7,2.6-3.3c0.9-0.8,0.9-2.5,0.9-4.2s0-3.3-0.9-4.2
				c-0.9-1.7-1.7-2.5-3.4-3.3c-1.7-0.8-4.3-1.7-6.8-1.7c-3.4,0-6.8-0.8-12-0.8h-34.2c-1.7,0-2.6-0.8-2.6-1.7v-10.9
				c0-1.7,0.9-1.7,2.6-1.7h33.3c8.5,0,15.4,0.8,20.5,1.7c5.1,0.8,10.2,2.5,12.8,5c2.6,2.5,6,5,6.8,7.5c1.7,3.3,1.7,6.7,1.7,10.1
				c0,4.2-0.9,7.5-1.7,10.1c-0.9,3.3-3.4,5.9-6,7.5c-2.6,2.5-6.8,3.3-11.1,5c-4.3,0.8-10.2,1.7-17.1,1.7h-4.3
				c-6.8,0-12.8-0.8-17.1-1.7c-4.3-0.8-8.5-2.5-11.1-5s-5.1-5-6-7.5c-0.9-3.3-1.7-6.7-1.7-10.1v-5c0-1.7,0.9-1.7,1.7-1.7h15.4
				c1.7,0,2.6,0.8,2.6,1.7v5c0,0.8,0,2.5,0.9,3.3s1.7,2.5,2.6,3.3s3.4,1.7,5.1,2.5c2.6,0.8,5.1,0.8,8.5,0.8L483.8,253.9L483.8,253.9
				z"/>
		</g>
	</g>
	<g>
		<g>
			<path class="st1" d="M430.8,147.5c2.8,0,5.1-2.2,5.1-5s-2.3-5-5.1-5c-2.8,0-5.1,2.2-5.1,5C425.7,145.2,428,147.5,430.8,147.5z"/>
		</g>
		<g>
			<path class="st1" d="M412.1,129c5.7,0,10.2-4.5,10.2-10.1s-4.6-10.1-10.2-10.1s-10.2,4.5-10.2,10.1
				C401.8,124.5,406.4,129,412.1,129z"/>
		</g>
		<g>
			<path class="st1" d="M424.8,106.4c9.4,0,17.1-7.5,17.1-16.8s-7.6-16.8-17.1-16.8c-9.4,0-17.1,7.5-17.1,16.8
				C407.8,98.9,415.4,106.4,424.8,106.4z"/>
		</g>
		<g>
			<path class="st1" d="M407.8,86.3c10.4,0,18.8-8.3,18.8-18.4s-8.4-18.4-18.8-18.4S389,57.7,389,67.9S397.4,86.3,407.8,86.3z"/>
		</g>
		<g>
			<path class="st1" d="M445.3,90.5c12.7,0,23.1-10.1,23.1-22.6s-10.3-22.6-23.1-22.6c-12.7,0-23.1,10.1-23.1,22.6
				S432.6,90.5,445.3,90.5z"/>
		</g>
		<g>
			<path class="st1" d="M433.4,62c11.8,0,21.3-9.4,21.3-21s-9.6-21-21.3-21c-11.8,0-21.3,9.4-21.3,21S421.6,62,433.4,62z"/>
		</g>
		<g>
			<path class="st1" d="M444.5,13.4c3.8,0,6.8-3,6.8-6.7s-3-6.7-6.8-6.7s-6.8,3-6.8,6.7S440.7,13.4,444.5,13.4z"/>
		</g>
		<g>
			<path class="st1" d="M476.9,60.3c1.4,0,2.6-1.1,2.6-2.5s-1.1-2.5-2.6-2.5s-2.6,1.1-2.6,2.5C474.4,59.2,475.5,60.3,476.9,60.3z"/>
		</g>
		<g>
			<path class="st1" d="M455.6,103.1c1.4,0,2.6-1.1,2.6-2.5S457,98,455.6,98s-2.6,1.1-2.6,2.5S454.2,103.1,455.6,103.1z"/>
		</g>
		<g>
			<path class="st1" d="M441.1,119c1.4,0,2.6-1.1,2.6-2.5s-1.1-2.5-2.6-2.5c-1.4,0-2.6,1.1-2.6,2.5S439.7,119,441.1,119z"/>
		</g>
		<g>
			<path class="st1" d="M397.5,35.2c1.4,0,2.6-1.1,2.6-2.5s-1.1-2.5-2.6-2.5c-1.4,0-2.6,1.1-2.6,2.5C395,34.1,396.1,35.2,397.5,35.2
				z"/>
		</g>
	</g>
	<g>
		<g>
			<path class="st0" d="M173.6,184.2c-0.8,0.1-1.2-0.3-1.2-1.2v-6.2c0-0.7,0.4-1.1,1.2-1.2c1.9-0.2,3.8-0.5,5.6-0.9
				c1.8-0.5,3.5-1,4.9-1.7c1.5-0.7,2.7-1.5,3.7-2.4s1.6-1.8,1.9-2.7h-17.1c-0.8,0-1.2-0.4-1.2-1.2v-6c0-0.8,0.4-1.2,1.2-1.2h27.9
				c0.8,0,1.3,0.4,1.3,1.2v4.9c0,2.2-0.4,4.1-1.3,5.9c-0.8,1.7-2,3.3-3.4,4.6s-3.1,2.5-4.9,3.4c-1.9,1-3.9,1.8-5.9,2.4
				c-2.1,0.6-4.2,1.2-6.4,1.5C177.7,183.8,175.6,184.1,173.6,184.2z M173.8,187.9c0-0.8,0.4-1.2,1.2-1.2h41.7c0.8,0,1.3,0.4,1.3,1.2
				v17.9c0,0.8-0.4,1.2-1.3,1.2H175c-0.8,0-1.3-0.4-1.3-1.2v-17.9H173.8z M185.1,193.9v5.9h21.4v-5.9H185.1z M208.1,183.7
				c-0.8,0-1.3-0.4-1.3-1.2v-22.4c0-0.8,0.4-1.2,1.3-1.2h8.6c0.8,0,1.3,0.4,1.3,1.2v22.4c0,0.8-0.4,1.2-1.3,1.2H208.1z"/>
		</g>
		<g>
			<path class="st0" d="M224.7,161.2c0-0.8,0.4-1.2,1.3-1.2h27.8c0.8,0,1.3,0.4,1.3,1.2v6.7c0,0.8-0.4,1.2-1.3,1.2h-7.7L235.4,206
				c-0.2,0.6-0.7,0.9-1.5,0.9h-8.6c-0.9,0-1.2-0.5-1-1.4l10.3-36.4H226c-0.8,0-1.3-0.4-1.3-1.2V161.2L224.7,161.2z M246.6,206.8
				c-0.8,0-1.2-0.3-1.4-1l-4-12c-0.1-0.3-0.1-0.5-0.1-0.7s0.1-0.5,0.1-0.8l4.1-14.3c0.1-0.5,0.4-0.8,0.7-0.8c0.4,0,0.7,0.2,0.9,0.8
				l9.3,27.5c0.2,0.9-0.1,1.4-0.9,1.4L246.6,206.8L246.6,206.8z M261,207.2c-0.8,0-1.3-0.4-1.3-1.2v-45.9c0-0.8,0.4-1.2,1.3-1.2h8.6
				c0.8,0,1.3,0.4,1.3,1.2V206c0,0.8-0.4,1.2-1.3,1.2H261z"/>
		</g>
		<g>
			<path class="st0" d="M306.7,197.8v8.7c0,0.8-0.4,1.2-1.2,1.2h-9.2c-0.8,0-1.2-0.4-1.2-1.2v-8.7h-16.6c-0.8,0-1.3-0.4-1.3-1.3
				v-6.3c0-0.8,0.4-1.2,1.3-1.2h44.7c0.8,0,1.3,0.4,1.3,1.2v6.3c0,0.9-0.4,1.3-1.3,1.3H306.7z M292.1,184.2
				c-0.2,0.2-0.4,0.5-0.6,0.6c-0.2,0.2-0.5,0.3-0.9,0.3H279c-0.5,0-0.8-0.1-1.1-0.4c-0.2-0.3-0.2-0.6,0.1-1l19.6-23.3
				c0.2-0.3,0.4-0.5,0.7-0.7c0.2-0.2,0.5-0.3,0.8-0.3h12.2c0.4,0,0.7,0.2,0.9,0.5s0.1,0.7-0.2,1L292.1,184.2z M302.3,176.8
				c-0.4-0.5-0.4-1.1,0-1.6l5.4-6.3c0.5-0.7,1.1-0.7,1.7-0.1l14.7,15c0.3,0.4,0.4,0.7,0.1,1c-0.2,0.3-0.6,0.4-1.1,0.4h-11.9
				c-0.4,0-0.6-0.1-0.9-0.3s-0.4-0.4-0.6-0.6L302.3,176.8z"/>
		</g>
		<g>
			<path class="st0" d="M330.8,205.2c-0.8,0-1.3-0.4-1.3-1.3V197c0-0.8,0.4-1.2,1.3-1.2h18.5c3,0,5.8-0.1,8.6-0.4
				c2.8-0.2,5.3-0.7,7.5-1.5V160c0-0.8,0.4-1.2,1.3-1.2h8.6c0.8,0,1.3,0.4,1.3,1.2v46c0,0.8-0.4,1.2-1.3,1.2h-8.6
				c-0.8,0-1.3-0.4-1.3-1.2v-3.7c-2.1,0.9-4.6,1.6-7.6,2.1s-6.2,0.8-9.8,0.8L330.8,205.2L330.8,205.2z M341.2,170.3
				c0.8,0,1.3,0.4,1.3,1.2v4.1c0,4.7,1.2,7,3.7,7s3.8-2.3,3.8-7c0-1.5-0.2-2.7-0.5-3.6c-0.3-0.9-0.8-1.7-1.5-2.2s-1.4-0.9-2.4-1.1
				c-0.9-0.2-2-0.3-3.1-0.3h-11.1c-0.8,0-1.3-0.4-1.3-1.2v-5.7c0-0.8,0.4-1.2,1.3-1.2h10.8c3,0,5.7,0.3,8,0.8s4.3,1.4,5.9,2.6
				c1.6,1.2,2.8,2.8,3.7,4.7c0.9,1.9,1.3,4.3,1.3,7.2c0,2.8-0.3,5.2-1.1,7.1c-0.7,1.9-1.7,3.5-3,4.7s-2.8,2-4.7,2.6
				c-1.8,0.5-3.9,0.8-6.2,0.8c-2.3,0-4.3-0.3-6.2-0.8c-1.8-0.5-3.4-1.4-4.7-2.6c-1.3-1.2-2.3-2.7-3-4.7c-0.7-1.9-1-4.3-1-7.1v-4.1
				c0-0.8,0.4-1.2,1.2-1.2H341.2L341.2,170.3z"/>
		</g>
	</g>
</g>
</svg>
